<svg width="386" height="123" viewBox="0 0 386 123" fill="none" xmlns="http://www.w3.org/2000/svg">
<g filter="url(#filter0_d_119_3055)">
<rect x="10" y="4" width="366" height="103" rx="12" fill="#F2F2F2"/>
<path d="M41.108 31.2898H38.983C38.9223 30.9413 38.8106 30.6326 38.6477 30.3636C38.4848 30.0909 38.2822 29.8598 38.0398 29.6705C37.7973 29.4811 37.5208 29.339 37.2102 29.2443C36.9034 29.1458 36.572 29.0966 36.2159 29.0966C35.5833 29.0966 35.0227 29.2557 34.5341 29.5739C34.0455 29.8883 33.6629 30.3504 33.3864 30.9602C33.1098 31.5663 32.9716 32.3068 32.9716 33.1818C32.9716 34.072 33.1098 34.822 33.3864 35.4318C33.6667 36.0379 34.0492 36.4962 34.5341 36.8068C35.0227 37.1136 35.5814 37.267 36.2102 37.267C36.5587 37.267 36.8845 37.2216 37.1875 37.1307C37.4943 37.036 37.7689 36.8977 38.0114 36.7159C38.2576 36.5341 38.464 36.3106 38.6307 36.0455C38.8011 35.7803 38.9186 35.4773 38.983 35.1364L41.108 35.1477C41.0284 35.7008 40.8561 36.2197 40.5909 36.7045C40.3295 37.1894 39.9867 37.6174 39.5625 37.9886C39.1383 38.3561 38.642 38.6439 38.0739 38.8523C37.5057 39.0568 36.875 39.1591 36.1818 39.1591C35.1591 39.1591 34.2462 38.9223 33.4432 38.4489C32.6402 37.9754 32.0076 37.2917 31.5455 36.3977C31.0833 35.5038 30.8523 34.4318 30.8523 33.1818C30.8523 31.928 31.0852 30.8561 31.5511 29.9659C32.017 29.072 32.6515 28.3883 33.4545 27.9148C34.2576 27.4413 35.1667 27.2045 36.1818 27.2045C36.8295 27.2045 37.4318 27.2955 37.9886 27.4773C38.5455 27.6591 39.0417 27.9261 39.4773 28.2784C39.9129 28.6269 40.2708 29.0549 40.5511 29.5625C40.8352 30.0663 41.0208 30.642 41.108 31.2898ZM46.8343 39.1705C45.982 39.1705 45.2434 38.983 44.6184 38.608C43.9934 38.233 43.5085 37.7083 43.1638 37.0341C42.8229 36.3598 42.6524 35.572 42.6524 34.6705C42.6524 33.7689 42.8229 32.9792 43.1638 32.3011C43.5085 31.6231 43.9934 31.0966 44.6184 30.7216C45.2434 30.3466 45.982 30.1591 46.8343 30.1591C47.6865 30.1591 48.4252 30.3466 49.0502 30.7216C49.6752 31.0966 50.1581 31.6231 50.499 32.3011C50.8437 32.9792 51.0161 33.7689 51.0161 34.6705C51.0161 35.572 50.8437 36.3598 50.499 37.0341C50.1581 37.7083 49.6752 38.233 49.0502 38.608C48.4252 38.983 47.6865 39.1705 46.8343 39.1705ZM46.8456 37.5227C47.3077 37.5227 47.6941 37.3958 48.0047 37.142C48.3153 36.8845 48.5464 36.5398 48.6979 36.108C48.8532 35.6761 48.9309 35.1951 48.9309 34.6648C48.9309 34.1307 48.8532 33.6477 48.6979 33.2159C48.5464 32.7803 48.3153 32.4337 48.0047 32.1761C47.6941 31.9186 47.3077 31.7898 46.8456 31.7898C46.3721 31.7898 45.9782 31.9186 45.6638 32.1761C45.3532 32.4337 45.1202 32.7803 44.9649 33.2159C44.8134 33.6477 44.7377 34.1307 44.7377 34.6648C44.7377 35.1951 44.8134 35.6761 44.9649 36.108C45.1202 36.5398 45.3532 36.8845 45.6638 37.142C45.9782 37.3958 46.3721 37.5227 46.8456 37.5227ZM58.4043 35.3295V30.2727H60.4611V39H58.4668V37.4489H58.3759C58.1789 37.9375 57.8551 38.3371 57.4043 38.6477C56.9573 38.9583 56.4062 39.1136 55.7509 39.1136C55.1789 39.1136 54.6733 38.9867 54.2339 38.733C53.7983 38.4754 53.4573 38.1023 53.2111 37.6136C52.9649 37.1212 52.8418 36.5265 52.8418 35.8295V30.2727H54.8986V35.5114C54.8986 36.0644 55.0502 36.5038 55.3532 36.8295C55.6562 37.1553 56.0539 37.3182 56.5464 37.3182C56.8494 37.3182 57.143 37.2443 57.427 37.0966C57.7111 36.9489 57.9441 36.7292 58.1259 36.4375C58.3115 36.142 58.4043 35.7727 58.4043 35.3295ZM62.6562 42.2727V30.2727H64.6789V31.7159H64.7982C64.9043 31.5038 65.0539 31.2784 65.2471 31.0398C65.4403 30.7973 65.7016 30.5909 66.0312 30.4205C66.3607 30.2462 66.7812 30.1591 67.2926 30.1591C67.9668 30.1591 68.5748 30.3314 69.1164 30.6761C69.6619 31.017 70.0937 31.5227 70.4119 32.1932C70.7338 32.8598 70.8948 33.678 70.8948 34.6477C70.8948 35.6061 70.7376 36.4205 70.4232 37.0909C70.1088 37.7614 69.6808 38.2727 69.1391 38.625C68.5975 38.9773 67.9838 39.1534 67.2982 39.1534C66.7982 39.1534 66.3835 39.0701 66.0539 38.9034C65.7244 38.7367 65.4592 38.536 65.2585 38.3011C65.0615 38.0625 64.9081 37.8371 64.7982 37.625H64.713V42.2727H62.6562ZM64.6732 34.6364C64.6732 35.2008 64.7528 35.6951 64.9119 36.1193C65.0748 36.5436 65.3077 36.875 65.6107 37.1136C65.9176 37.3485 66.2888 37.4659 66.7244 37.4659C67.1789 37.4659 67.5596 37.3447 67.8664 37.1023C68.1732 36.8561 68.4043 36.5208 68.5596 36.0966C68.7187 35.6686 68.7982 35.1818 68.7982 34.6364C68.7982 34.0947 68.7206 33.6136 68.5653 33.1932C68.41 32.7727 68.1789 32.4432 67.8721 32.2045C67.5653 31.9659 67.1827 31.8466 66.7244 31.8466C66.285 31.8466 65.9119 31.9621 65.6051 32.1932C65.2982 32.4242 65.0653 32.7481 64.9062 33.1648C64.7509 33.5814 64.6732 34.072 64.6732 34.6364ZM76.543 39.1705C75.6907 39.1705 74.9521 38.983 74.3271 38.608C73.7021 38.233 73.2173 37.7083 72.8726 37.0341C72.5316 36.3598 72.3612 35.572 72.3612 34.6705C72.3612 33.7689 72.5316 32.9792 72.8726 32.3011C73.2173 31.6231 73.7021 31.0966 74.3271 30.7216C74.9521 30.3466 75.6907 30.1591 76.543 30.1591C77.3953 30.1591 78.1339 30.3466 78.7589 30.7216C79.3839 31.0966 79.8669 31.6231 80.2078 32.3011C80.5525 32.9792 80.7248 33.7689 80.7248 34.6705C80.7248 35.572 80.5525 36.3598 80.2078 37.0341C79.8669 37.7083 79.3839 38.233 78.7589 38.608C78.1339 38.983 77.3953 39.1705 76.543 39.1705ZM76.5544 37.5227C77.0165 37.5227 77.4029 37.3958 77.7135 37.142C78.0241 36.8845 78.2551 36.5398 78.4066 36.108C78.562 35.6761 78.6396 35.1951 78.6396 34.6648C78.6396 34.1307 78.562 33.6477 78.4066 33.2159C78.2551 32.7803 78.0241 32.4337 77.7135 32.1761C77.4029 31.9186 77.0165 31.7898 76.5544 31.7898C76.0809 31.7898 75.687 31.9186 75.3726 32.1761C75.062 32.4337 74.829 32.7803 74.6737 33.2159C74.5222 33.6477 74.4464 34.1307 74.4464 34.6648C74.4464 35.1951 74.5222 35.6761 74.6737 36.108C74.829 36.5398 75.062 36.8845 75.3726 37.142C75.687 37.3958 76.0809 37.5227 76.5544 37.5227ZM84.6074 33.8864V39H82.5506V30.2727H84.5165V31.7557H84.6188C84.8195 31.267 85.1396 30.8788 85.579 30.5909C86.0222 30.303 86.5695 30.1591 87.221 30.1591C87.8233 30.1591 88.3479 30.2879 88.7949 30.5455C89.2456 30.803 89.5941 31.1761 89.8403 31.6648C90.0903 32.1534 90.2134 32.7462 90.2097 33.4432V39H88.1528V33.7614C88.1528 33.178 88.0013 32.7216 87.6983 32.392C87.3991 32.0625 86.9843 31.8977 86.454 31.8977C86.0941 31.8977 85.7741 31.9773 85.4938 32.1364C85.2172 32.2917 84.9994 32.517 84.8403 32.8125C84.685 33.108 84.6074 33.4659 84.6074 33.8864ZM99.2783 32.5795L97.4033 32.7841C97.3503 32.5947 97.2575 32.4167 97.1249 32.25C96.9961 32.0833 96.8219 31.9489 96.6022 31.8466C96.3825 31.7443 96.1135 31.6932 95.7953 31.6932C95.3673 31.6932 95.0075 31.786 94.7158 31.9716C94.4279 32.1572 94.2859 32.3977 94.2897 32.6932C94.2859 32.947 94.3787 33.1534 94.5681 33.3125C94.7612 33.4716 95.0794 33.6023 95.5226 33.7045L97.0112 34.0227C97.837 34.2008 98.4506 34.483 98.8522 34.8693C99.2575 35.2557 99.462 35.7614 99.4658 36.3864C99.462 36.9356 99.301 37.4205 98.9828 37.8409C98.6684 38.2576 98.2309 38.5833 97.6703 38.8182C97.1097 39.053 96.4658 39.1705 95.7385 39.1705C94.6703 39.1705 93.8105 38.947 93.159 38.5C92.5075 38.0492 92.1192 37.4223 91.9942 36.6193L93.9999 36.4261C94.0908 36.8201 94.284 37.1174 94.5794 37.3182C94.8749 37.5189 95.2594 37.6193 95.7328 37.6193C96.2215 37.6193 96.6135 37.5189 96.909 37.3182C97.2082 37.1174 97.3578 36.8693 97.3578 36.5739C97.3578 36.3239 97.2612 36.1174 97.0681 35.9545C96.8787 35.7917 96.5832 35.6667 96.1817 35.5795L94.6931 35.267C93.8559 35.0928 93.2366 34.7992 92.8351 34.3864C92.4336 33.9697 92.2347 33.4432 92.2385 32.8068C92.2347 32.2689 92.3806 31.803 92.676 31.4091C92.9753 31.0114 93.39 30.7045 93.9203 30.4886C94.4544 30.2689 95.07 30.1591 95.7669 30.1591C96.7897 30.1591 97.5946 30.3769 98.1817 30.8125C98.7726 31.2481 99.1381 31.8371 99.2783 32.5795ZM109.711 30.2727V31.8636H104.552V30.2727H109.711ZM105.842 39V29.4489C105.842 28.8617 105.963 28.3731 106.205 27.983C106.452 27.5928 106.781 27.3011 107.194 27.108C107.607 26.9148 108.065 26.8182 108.569 26.8182C108.925 26.8182 109.241 26.8466 109.518 26.9034C109.794 26.9602 109.999 27.0114 110.131 27.0568L109.722 28.6477C109.635 28.6212 109.525 28.5947 109.393 28.5682C109.26 28.5379 109.113 28.5227 108.95 28.5227C108.567 28.5227 108.296 28.6155 108.137 28.8011C107.982 28.983 107.904 29.2443 107.904 29.5852V39H105.842ZM114.881 39.1705C114.028 39.1705 113.29 38.983 112.665 38.608C112.04 38.233 111.555 37.7083 111.21 37.0341C110.869 36.3598 110.699 35.572 110.699 34.6705C110.699 33.7689 110.869 32.9792 111.21 32.3011C111.555 31.6231 112.04 31.0966 112.665 30.7216C113.29 30.3466 114.028 30.1591 114.881 30.1591C115.733 30.1591 116.471 30.3466 117.096 30.7216C117.721 31.0966 118.204 31.6231 118.545 32.3011C118.89 32.9792 119.062 33.7689 119.062 34.6705C119.062 35.572 118.89 36.3598 118.545 37.0341C118.204 37.7083 117.721 38.233 117.096 38.608C116.471 38.983 115.733 39.1705 114.881 39.1705ZM114.892 37.5227C115.354 37.5227 115.74 37.3958 116.051 37.142C116.362 36.8845 116.593 36.5398 116.744 36.108C116.899 35.6761 116.977 35.1951 116.977 34.6648C116.977 34.1307 116.899 33.6477 116.744 33.2159C116.593 32.7803 116.362 32.4337 116.051 32.1761C115.74 31.9186 115.354 31.7898 114.892 31.7898C114.418 31.7898 114.024 31.9186 113.71 32.1761C113.399 32.4337 113.166 32.7803 113.011 33.2159C112.86 33.6477 112.784 34.1307 112.784 34.6648C112.784 35.1951 112.86 35.6761 113.011 36.108C113.166 36.5398 113.399 36.8845 113.71 37.142C114.024 37.3958 114.418 37.5227 114.892 37.5227ZM120.888 39V30.2727H122.882V31.7273H122.973C123.132 31.2235 123.405 30.8352 123.791 30.5625C124.182 30.286 124.627 30.1477 125.127 30.1477C125.24 30.1477 125.367 30.1534 125.507 30.1648C125.651 30.1723 125.771 30.1856 125.865 30.2045V32.0966C125.778 32.0663 125.64 32.0398 125.451 32.017C125.265 31.9905 125.085 31.9773 124.911 31.9773C124.536 31.9773 124.199 32.0587 123.899 32.2216C123.604 32.3807 123.371 32.6023 123.201 32.8864C123.03 33.1705 122.945 33.4981 122.945 33.8693V39H120.888ZM132.946 39H130.696L134.792 27.3636H137.395L141.497 39H139.247L136.139 29.75H136.048L132.946 39ZM133.02 34.4375H139.156V36.1307H133.02V34.4375ZM148.581 35.3295V30.2727H150.638V39H148.644V37.4489H148.553C148.356 37.9375 148.032 38.3371 147.581 38.6477C147.134 38.9583 146.583 39.1136 145.928 39.1136C145.356 39.1136 144.85 38.9867 144.411 38.733C143.975 38.4754 143.634 38.1023 143.388 37.6136C143.142 37.1212 143.019 36.5265 143.019 35.8295V30.2727H145.076V35.5114C145.076 36.0644 145.227 36.5038 145.53 36.8295C145.833 37.1553 146.231 37.3182 146.723 37.3182C147.026 37.3182 147.32 37.2443 147.604 37.0966C147.888 36.9489 148.121 36.7292 148.303 36.4375C148.488 36.142 148.581 35.7727 148.581 35.3295ZM156.629 42.4545C155.89 42.4545 155.255 42.3542 154.725 42.1534C154.195 41.9564 153.769 41.6913 153.447 41.358C153.125 41.0246 152.901 40.6553 152.776 40.25L154.629 39.8011C154.712 39.9716 154.833 40.1402 154.992 40.3068C155.151 40.4773 155.365 40.6174 155.634 40.7273C155.907 40.8409 156.25 40.8977 156.663 40.8977C157.246 40.8977 157.729 40.7557 158.111 40.4716C158.494 40.1913 158.685 39.7292 158.685 39.0852V37.4318H158.583C158.477 37.6439 158.322 37.8617 158.117 38.0852C157.916 38.3087 157.649 38.4962 157.316 38.6477C156.986 38.7992 156.572 38.875 156.072 38.875C155.401 38.875 154.793 38.7178 154.248 38.4034C153.706 38.0852 153.274 37.6117 152.952 36.983C152.634 36.3504 152.475 35.5587 152.475 34.608C152.475 33.6496 152.634 32.8409 152.952 32.1818C153.274 31.5189 153.708 31.017 154.254 30.6761C154.799 30.3314 155.407 30.1591 156.077 30.1591C156.589 30.1591 157.009 30.2462 157.339 30.4205C157.672 30.5909 157.937 30.7973 158.134 31.0398C158.331 31.2784 158.481 31.5038 158.583 31.7159H158.697V30.2727H160.725V39.142C160.725 39.8883 160.547 40.5057 160.191 40.9943C159.835 41.483 159.348 41.8485 158.731 42.0909C158.113 42.3333 157.413 42.4545 156.629 42.4545ZM156.646 37.2614C157.081 37.2614 157.452 37.1553 157.759 36.9432C158.066 36.7311 158.299 36.4261 158.458 36.0284C158.617 35.6307 158.697 35.1534 158.697 34.5966C158.697 34.0473 158.617 33.5663 158.458 33.1534C158.303 32.7405 158.072 32.4205 157.765 32.1932C157.462 31.9621 157.089 31.8466 156.646 31.8466C156.187 31.8466 155.805 31.9659 155.498 32.2045C155.191 32.4432 154.96 32.7708 154.805 33.1875C154.649 33.6004 154.572 34.0701 154.572 34.5966C154.572 35.1307 154.649 35.5985 154.805 36C154.964 36.3977 155.197 36.7083 155.504 36.9318C155.814 37.1515 156.195 37.2614 156.646 37.2614ZM168.476 35.3295V30.2727H170.532V39H168.538V37.4489H168.447C168.25 37.9375 167.926 38.3371 167.476 38.6477C167.029 38.9583 166.477 39.1136 165.822 39.1136C165.25 39.1136 164.745 38.9867 164.305 38.733C163.87 38.4754 163.529 38.1023 163.282 37.6136C163.036 37.1212 162.913 36.5265 162.913 35.8295V30.2727H164.97V35.5114C164.97 36.0644 165.121 36.5038 165.424 36.8295C165.727 37.1553 166.125 37.3182 166.618 37.3182C166.921 37.3182 167.214 37.2443 167.498 37.0966C167.782 36.9489 168.015 36.7292 168.197 36.4375C168.383 36.142 168.476 35.7727 168.476 35.3295ZM179.625 32.5795L177.75 32.7841C177.697 32.5947 177.604 32.4167 177.472 32.25C177.343 32.0833 177.169 31.9489 176.949 31.8466C176.729 31.7443 176.46 31.6932 176.142 31.6932C175.714 31.6932 175.354 31.786 175.063 31.9716C174.775 32.1572 174.633 32.3977 174.637 32.6932C174.633 32.947 174.726 33.1534 174.915 33.3125C175.108 33.4716 175.426 33.6023 175.869 33.7045L177.358 34.0227C178.184 34.2008 178.798 34.483 179.199 34.8693C179.604 35.2557 179.809 35.7614 179.813 36.3864C179.809 36.9356 179.648 37.4205 179.33 37.8409C179.015 38.2576 178.578 38.5833 178.017 38.8182C177.457 39.053 176.813 39.1705 176.085 39.1705C175.017 39.1705 174.157 38.947 173.506 38.5C172.854 38.0492 172.466 37.4223 172.341 36.6193L174.347 36.4261C174.438 36.8201 174.631 37.1174 174.926 37.3182C175.222 37.5189 175.606 37.6193 176.08 37.6193C176.568 37.6193 176.96 37.5189 177.256 37.3182C177.555 37.1174 177.705 36.8693 177.705 36.5739C177.705 36.3239 177.608 36.1174 177.415 35.9545C177.226 35.7917 176.93 35.6667 176.529 35.5795L175.04 35.267C174.203 35.0928 173.584 34.7992 173.182 34.3864C172.78 33.9697 172.582 33.4432 172.585 32.8068C172.582 32.2689 172.727 31.803 173.023 31.4091C173.322 31.0114 173.737 30.7045 174.267 30.4886C174.801 30.2689 175.417 30.1591 176.114 30.1591C177.137 30.1591 177.941 30.3769 178.529 30.8125C179.119 31.2481 179.485 31.8371 179.625 32.5795ZM185.947 30.2727V31.8636H180.93V30.2727H185.947ZM182.168 28.1818H184.225V36.375C184.225 36.6515 184.267 36.8636 184.35 37.0114C184.437 37.1553 184.551 37.2538 184.691 37.3068C184.831 37.3598 184.986 37.3864 185.157 37.3864C185.286 37.3864 185.403 37.3769 185.509 37.358C185.619 37.339 185.702 37.322 185.759 37.3068L186.106 38.9148C185.996 38.9527 185.839 38.9943 185.634 39.0398C185.433 39.0852 185.187 39.1117 184.896 39.1193C184.38 39.1345 183.916 39.0568 183.503 38.8864C183.091 38.7121 182.763 38.4432 182.521 38.0795C182.282 37.7159 182.164 37.2614 182.168 36.7159V28.1818ZM190.162 37.4091L190.088 38.0341C190.035 38.5114 189.94 38.9962 189.804 39.4886C189.671 39.9848 189.531 40.4413 189.383 40.858C189.235 41.2746 189.116 41.6023 189.025 41.8409H187.639C187.692 41.6098 187.764 41.2955 187.855 40.8977C187.949 40.5 188.04 40.053 188.128 39.5568C188.215 39.0606 188.273 38.5568 188.304 38.0455L188.343 37.4091H190.162ZM196.212 39V37.4773L200.252 33.517C200.638 33.1269 200.96 32.7803 201.218 32.4773C201.475 32.1742 201.669 31.8807 201.797 31.5966C201.926 31.3125 201.991 31.0095 201.991 30.6875C201.991 30.3201 201.907 30.0057 201.741 29.7443C201.574 29.4792 201.345 29.2746 201.053 29.1307C200.761 28.9867 200.43 28.9148 200.059 28.9148C199.676 28.9148 199.341 28.9943 199.053 29.1534C198.765 29.3087 198.542 29.5303 198.383 29.8182C198.227 30.1061 198.15 30.4489 198.15 30.8466H196.144C196.144 30.108 196.313 29.4659 196.65 28.9205C196.987 28.375 197.451 27.9527 198.042 27.6534C198.636 27.3542 199.318 27.2045 200.087 27.2045C200.868 27.2045 201.553 27.3504 202.144 27.642C202.735 27.9337 203.193 28.3333 203.519 28.8409C203.849 29.3485 204.013 29.928 204.013 30.5795C204.013 31.0152 203.93 31.4432 203.763 31.8636C203.597 32.2841 203.303 32.75 202.883 33.2614C202.466 33.7727 201.881 34.392 201.127 35.1193L199.121 37.1591V37.2386H204.189V39H196.212ZM210.531 39.2216C209.595 39.2216 208.792 38.9848 208.122 38.5114C207.455 38.0341 206.942 37.3466 206.582 36.4489C206.226 35.5473 206.048 34.4621 206.048 33.1932C206.052 31.9242 206.232 30.8447 206.588 29.9545C206.948 29.0606 207.461 28.3788 208.127 27.9091C208.798 27.4394 209.599 27.2045 210.531 27.2045C211.463 27.2045 212.264 27.4394 212.934 27.9091C213.605 28.3788 214.118 29.0606 214.474 29.9545C214.834 30.8485 215.014 31.928 215.014 33.1932C215.014 34.4659 214.834 35.553 214.474 36.4545C214.118 37.3523 213.605 38.0379 212.934 38.5114C212.268 38.9848 211.466 39.2216 210.531 39.2216ZM210.531 37.4432C211.258 37.4432 211.832 37.0852 212.252 36.3693C212.677 35.6496 212.889 34.5909 212.889 33.1932C212.889 32.2689 212.792 31.4924 212.599 30.8636C212.406 30.2348 212.133 29.7614 211.781 29.4432C211.429 29.1212 211.012 28.9602 210.531 28.9602C209.807 28.9602 209.235 29.3201 208.815 30.0398C208.394 30.7557 208.182 31.8068 208.179 33.1932C208.175 34.1212 208.268 34.9015 208.457 35.5341C208.65 36.1667 208.923 36.6439 209.275 36.9659C209.627 37.2841 210.046 37.4432 210.531 37.4432ZM216.982 39V37.4773L221.021 33.517C221.408 33.1269 221.73 32.7803 221.987 32.4773C222.245 32.1742 222.438 31.8807 222.567 31.5966C222.696 31.3125 222.76 31.0095 222.76 30.6875C222.76 30.3201 222.677 30.0057 222.51 29.7443C222.343 29.4792 222.114 29.2746 221.822 29.1307C221.531 28.9867 221.199 28.9148 220.828 28.9148C220.446 28.9148 220.11 28.9943 219.822 29.1534C219.535 29.3087 219.311 29.5303 219.152 29.8182C218.997 30.1061 218.919 30.4489 218.919 30.8466H216.913C216.913 30.108 217.082 29.4659 217.419 28.9205C217.756 28.375 218.22 27.9527 218.811 27.6534C219.406 27.3542 220.088 27.2045 220.857 27.2045C221.637 27.2045 222.322 27.3504 222.913 27.642C223.504 27.9337 223.963 28.3333 224.288 28.8409C224.618 29.3485 224.783 29.928 224.783 30.5795C224.783 31.0152 224.699 31.4432 224.533 31.8636C224.366 32.2841 224.072 32.75 223.652 33.2614C223.235 33.7727 222.65 34.392 221.896 35.1193L219.891 37.1591V37.2386H224.959V39H216.982ZM226.999 39V37.4773L231.039 33.517C231.425 33.1269 231.747 32.7803 232.005 32.4773C232.262 32.1742 232.456 31.8807 232.584 31.5966C232.713 31.3125 232.777 31.0095 232.777 30.6875C232.777 30.3201 232.694 30.0057 232.527 29.7443C232.361 29.4792 232.132 29.2746 231.84 29.1307C231.548 28.9867 231.217 28.9148 230.846 28.9148C230.463 28.9148 230.128 28.9943 229.84 29.1534C229.552 29.3087 229.329 29.5303 229.17 29.8182C229.014 30.1061 228.937 30.4489 228.937 30.8466H226.931C226.931 30.108 227.099 29.4659 227.437 28.9205C227.774 28.375 228.238 27.9527 228.829 27.6534C229.423 27.3542 230.105 27.2045 230.874 27.2045C231.654 27.2045 232.34 27.3504 232.931 27.642C233.522 27.9337 233.98 28.3333 234.306 28.8409C234.635 29.3485 234.8 29.928 234.8 30.5795C234.8 31.0152 234.717 31.4432 234.55 31.8636C234.384 32.2841 234.09 32.75 233.67 33.2614C233.253 33.7727 232.668 34.392 231.914 35.1193L229.908 37.1591V37.2386H234.976V39H226.999Z" fill="black"/>
<path d="M31.4091 64V52.3636H32.8182V57.5455H39.0227V52.3636H40.4318V64H39.0227V58.7955H32.8182V64H31.4091ZM46.6965 64.1818C45.9086 64.1818 45.2173 63.9943 44.6226 63.6193C44.0317 63.2443 43.5696 62.7197 43.2362 62.0455C42.9067 61.3712 42.7419 60.5833 42.7419 59.6818C42.7419 58.7727 42.9067 57.9792 43.2362 57.3011C43.5696 56.6231 44.0317 56.0966 44.6226 55.7216C45.2173 55.3466 45.9086 55.1591 46.6965 55.1591C47.4844 55.1591 48.1738 55.3466 48.7647 55.7216C49.3594 56.0966 49.8215 56.6231 50.151 57.3011C50.4844 57.9792 50.651 58.7727 50.651 59.6818C50.651 60.5833 50.4844 61.3712 50.151 62.0455C49.8215 62.7197 49.3594 63.2443 48.7647 63.6193C48.1738 63.9943 47.4844 64.1818 46.6965 64.1818ZM46.6965 62.9773C47.295 62.9773 47.7874 62.8239 48.1737 62.517C48.5601 62.2102 48.8461 61.8068 49.0317 61.3068C49.2173 60.8068 49.3101 60.2652 49.3101 59.6818C49.3101 59.0985 49.2173 58.5549 49.0317 58.0511C48.8461 57.5473 48.5601 57.1402 48.1737 56.8295C47.7874 56.5189 47.295 56.3636 46.6965 56.3636C46.098 56.3636 45.6056 56.5189 45.2192 56.8295C44.8328 57.1402 44.5469 57.5473 44.3612 58.0511C44.1756 58.5549 44.0828 59.0985 44.0828 59.6818C44.0828 60.2652 44.1756 60.8068 44.3612 61.3068C44.5469 61.8068 44.8328 62.2102 45.2192 62.517C45.6056 62.8239 46.098 62.9773 46.6965 62.9773ZM58.2779 60.4318V55.2727H59.6188V64H58.2779V62.5227H58.187C57.9824 62.9659 57.6643 63.3428 57.2324 63.6534C56.8006 63.9602 56.2552 64.1136 55.5961 64.1136C55.0506 64.1136 54.5658 63.9943 54.1415 63.7557C53.7173 63.5133 53.384 63.1496 53.1415 62.6648C52.8991 62.1761 52.7779 61.5606 52.7779 60.8182V55.2727H54.1188V60.7273C54.1188 61.3636 54.2968 61.8712 54.6529 62.25C55.0127 62.6288 55.4711 62.8182 56.0279 62.8182C56.3612 62.8182 56.7002 62.733 57.0449 62.5625C57.3934 62.392 57.6851 62.1307 57.9199 61.7784C58.1586 61.4261 58.2779 60.9773 58.2779 60.4318ZM68.3366 57.2273L67.132 57.5682C67.0563 57.3674 66.9445 57.1723 66.7968 56.983C66.6529 56.7898 66.4559 56.6307 66.2059 56.5057C65.9559 56.3807 65.6358 56.3182 65.2457 56.3182C64.7116 56.3182 64.2665 56.4413 63.9105 56.6875C63.5582 56.9299 63.382 57.2386 63.382 57.6136C63.382 57.947 63.5033 58.2102 63.7457 58.4034C63.9881 58.5966 64.3669 58.7576 64.882 58.8864L66.1775 59.2045C66.9578 59.3939 67.5392 59.6837 67.9218 60.0739C68.3044 60.4602 68.4957 60.9583 68.4957 61.5682C68.4957 62.0682 68.3517 62.5152 68.0639 62.9091C67.7798 63.303 67.382 63.6136 66.8707 63.8409C66.3593 64.0682 65.7646 64.1818 65.0866 64.1818C64.1964 64.1818 63.4597 63.9886 62.8764 63.6023C62.293 63.2159 61.9237 62.6515 61.7684 61.9091L63.0411 61.5909C63.1623 62.0606 63.3915 62.4129 63.7286 62.6477C64.0695 62.8826 64.5146 63 65.0639 63C65.6889 63 66.1851 62.8674 66.5525 62.6023C66.9237 62.3333 67.1093 62.0114 67.1093 61.6364C67.1093 61.3333 67.0033 61.0795 66.7911 60.875C66.579 60.6667 66.2533 60.5114 65.8139 60.4091L64.3593 60.0682C63.5601 59.8788 62.973 59.5852 62.598 59.1875C62.2267 58.786 62.0411 58.2841 62.0411 57.6818C62.0411 57.1894 62.1794 56.7538 62.4559 56.375C62.7362 55.9962 63.1169 55.6989 63.598 55.483C64.0828 55.267 64.632 55.1591 65.2457 55.1591C66.1093 55.1591 66.7873 55.3485 67.2798 55.7273C67.776 56.1061 68.1283 56.6061 68.3366 57.2273ZM70.5941 64V55.2727H71.9351V64H70.5941ZM71.276 53.8182C71.0146 53.8182 70.7892 53.7292 70.5998 53.5511C70.4142 53.3731 70.3214 53.1591 70.3214 52.9091C70.3214 52.6591 70.4142 52.4451 70.5998 52.267C70.7892 52.089 71.0146 52 71.276 52C71.5373 52 71.7608 52.089 71.9464 52.267C72.1358 52.4451 72.2305 52.6591 72.2305 52.9091C72.2305 53.1591 72.1358 53.3731 71.9464 53.5511C71.7608 53.7292 71.5373 53.8182 71.276 53.8182ZM75.8119 58.75V64H74.471V55.2727H75.7665V56.6364H75.8801C76.0847 56.1932 76.3953 55.8371 76.8119 55.5682C77.2286 55.2955 77.7665 55.1591 78.4256 55.1591C79.0165 55.1591 79.5335 55.2803 79.9767 55.5227C80.4199 55.7614 80.7646 56.125 81.0108 56.6136C81.257 57.0985 81.3801 57.7121 81.3801 58.4545V64H80.0392V58.5455C80.0392 57.8598 79.8612 57.3258 79.5051 56.9432C79.1491 56.5568 78.6604 56.3636 78.0392 56.3636C77.6112 56.3636 77.2286 56.4564 76.8915 56.642C76.5581 56.8277 76.2949 57.0985 76.1017 57.4545C75.9085 57.8106 75.8119 58.2424 75.8119 58.75ZM87.4331 67.4545C86.7854 67.4545 86.2286 67.3712 85.7627 67.2045C85.2968 67.0417 84.9085 66.8258 84.5979 66.5568C84.2911 66.2917 84.0468 66.0076 83.8649 65.7045L84.9331 64.9545C85.0543 65.1136 85.2077 65.2955 85.3934 65.5C85.579 65.7083 85.8327 65.8883 86.1547 66.0398C86.4805 66.1951 86.9066 66.2727 87.4331 66.2727C88.1377 66.2727 88.7191 66.1023 89.1774 65.7614C89.6358 65.4205 89.8649 64.8864 89.8649 64.1591V62.3864H89.7513C89.6528 62.5455 89.5127 62.7424 89.3309 62.9773C89.1528 63.2083 88.8952 63.4148 88.5581 63.5966C88.2248 63.7746 87.774 63.8636 87.2059 63.8636C86.5013 63.8636 85.8687 63.697 85.3081 63.3636C84.7513 63.0303 84.31 62.5455 83.9843 61.9091C83.6623 61.2727 83.5013 60.5 83.5013 59.5909C83.5013 58.697 83.6585 57.9186 83.9729 57.2557C84.2873 56.589 84.7248 56.0739 85.2854 55.7102C85.846 55.3428 86.4937 55.1591 87.2286 55.1591C87.7968 55.1591 88.2475 55.2538 88.5809 55.4432C88.918 55.6288 89.1755 55.8409 89.3536 56.0795C89.5354 56.3144 89.6755 56.5076 89.774 56.6591H89.9104V55.2727H91.2059V64.25C91.2059 65 91.0354 65.6098 90.6945 66.0795C90.3574 66.553 89.9028 66.8996 89.3309 67.1193C88.7627 67.3428 88.1301 67.4545 87.4331 67.4545ZM87.3877 62.6591C87.9255 62.6591 88.3801 62.536 88.7513 62.2898C89.1225 62.0436 89.4047 61.6894 89.5979 61.2273C89.7911 60.7652 89.8877 60.2121 89.8877 59.5682C89.8877 58.9394 89.793 58.3845 89.6036 57.9034C89.4142 57.4223 89.1339 57.0455 88.7627 56.7727C88.3915 56.5 87.9331 56.3636 87.3877 56.3636C86.8195 56.3636 86.346 56.5076 85.9672 56.7955C85.5922 57.0833 85.31 57.4697 85.1206 57.9545C84.935 58.4394 84.8422 58.9773 84.8422 59.5682C84.8422 60.1742 84.9369 60.7102 85.1263 61.1761C85.3195 61.6383 85.6036 62.0019 85.9786 62.267C86.3574 62.5284 86.8271 62.6591 87.3877 62.6591ZM100.275 48.6136V67.75H99.1386V48.6136H100.275ZM108.397 52.3636H110.078L114.033 62.0227H114.169L118.124 52.3636H119.806V64H118.488V55.1591H118.374L114.738 64H113.465L109.828 55.1591H109.715V64H108.397V52.3636ZM126.075 64.1818C125.287 64.1818 124.595 63.9943 124.001 63.6193C123.41 63.2443 122.948 62.7197 122.614 62.0455C122.285 61.3712 122.12 60.5833 122.12 59.6818C122.12 58.7727 122.285 57.9792 122.614 57.3011C122.948 56.6231 123.41 56.0966 124.001 55.7216C124.595 55.3466 125.287 55.1591 126.075 55.1591C126.862 55.1591 127.552 55.3466 128.143 55.7216C128.737 56.0966 129.2 56.6231 129.529 57.3011C129.862 57.9792 130.029 58.7727 130.029 59.6818C130.029 60.5833 129.862 61.3712 129.529 62.0455C129.2 62.7197 128.737 63.2443 128.143 63.6193C127.552 63.9943 126.862 64.1818 126.075 64.1818ZM126.075 62.9773C126.673 62.9773 127.166 62.8239 127.552 62.517C127.938 62.2102 128.224 61.8068 128.41 61.3068C128.595 60.8068 128.688 60.2652 128.688 59.6818C128.688 59.0985 128.595 58.5549 128.41 58.0511C128.224 57.5473 127.938 57.1402 127.552 56.8295C127.166 56.5189 126.673 56.3636 126.075 56.3636C125.476 56.3636 124.984 56.5189 124.597 56.8295C124.211 57.1402 123.925 57.5473 123.739 58.0511C123.554 58.5549 123.461 59.0985 123.461 59.6818C123.461 60.2652 123.554 60.8068 123.739 61.3068C123.925 61.8068 124.211 62.2102 124.597 62.517C124.984 62.8239 125.476 62.9773 126.075 62.9773ZM132.338 64V52.3636H133.679V56.6591H133.792C133.891 56.5076 134.027 56.3144 134.201 56.0795C134.38 55.8409 134.633 55.6288 134.963 55.4432C135.296 55.2538 135.747 55.1591 136.315 55.1591C137.05 55.1591 137.698 55.3428 138.258 55.7102C138.819 56.0777 139.256 56.5985 139.571 57.2727C139.885 57.947 140.042 58.7424 140.042 59.6591C140.042 60.5833 139.885 61.3845 139.571 62.0625C139.256 62.7367 138.821 63.2595 138.264 63.6307C137.707 63.9981 137.065 64.1818 136.338 64.1818C135.777 64.1818 135.328 64.089 134.991 63.9034C134.654 63.714 134.395 63.5 134.213 63.2614C134.031 63.0189 133.891 62.8182 133.792 62.6591H133.633V64H132.338ZM133.656 59.6364C133.656 60.2955 133.753 60.8769 133.946 61.3807C134.139 61.8807 134.421 62.2727 134.792 62.5568C135.164 62.8371 135.618 62.9773 136.156 62.9773C136.717 62.9773 137.184 62.8295 137.559 62.5341C137.938 62.2348 138.222 61.8333 138.412 61.3295C138.605 60.822 138.701 60.2576 138.701 59.6364C138.701 59.0227 138.607 58.4697 138.417 57.9773C138.232 57.4811 137.95 57.089 137.571 56.8011C137.196 56.5095 136.724 56.3636 136.156 56.3636C135.611 56.3636 135.152 56.5019 134.781 56.7784C134.41 57.0511 134.13 57.4337 133.94 57.9261C133.751 58.4148 133.656 58.9848 133.656 59.6364ZM142.174 64V55.2727H143.514V64H142.174ZM142.855 53.8182C142.594 53.8182 142.369 53.7292 142.179 53.5511C141.994 53.3731 141.901 53.1591 141.901 52.9091C141.901 52.6591 141.994 52.4451 142.179 52.267C142.369 52.089 142.594 52 142.855 52C143.117 52 143.34 52.089 143.526 52.267C143.715 52.4451 143.81 52.6591 143.81 52.9091C143.81 53.1591 143.715 53.3731 143.526 53.5511C143.34 53.7292 143.117 53.8182 142.855 53.8182ZM147.391 52.3636V64H146.05V52.3636H147.391ZM149.927 64V55.2727H151.268V64H149.927ZM150.609 53.8182C150.348 53.8182 150.122 53.7292 149.933 53.5511C149.747 53.3731 149.655 53.1591 149.655 52.9091C149.655 52.6591 149.747 52.4451 149.933 52.267C150.122 52.089 150.348 52 150.609 52C150.87 52 151.094 52.089 151.28 52.267C151.469 52.4451 151.564 52.6591 151.564 52.9091C151.564 53.1591 151.469 53.3731 151.28 53.5511C151.094 53.7292 150.87 53.8182 150.609 53.8182ZM157.6 55.2727V56.4091H153.077V55.2727H157.6ZM154.395 53.1818H155.736V61.5C155.736 61.8788 155.791 62.1629 155.901 62.3523C156.014 62.5379 156.158 62.6629 156.333 62.7273C156.511 62.7879 156.698 62.8182 156.895 62.8182C157.043 62.8182 157.164 62.8106 157.259 62.7955C157.353 62.7765 157.429 62.7614 157.486 62.75L157.759 63.9545C157.668 63.9886 157.541 64.0227 157.378 64.0568C157.215 64.0947 157.009 64.1136 156.759 64.1136C156.38 64.1136 156.009 64.0322 155.645 63.8693C155.285 63.7064 154.986 63.4583 154.747 63.125C154.512 62.7917 154.395 62.3712 154.395 61.8636V53.1818ZM160.56 67.2727C160.333 67.2727 160.13 67.2538 159.952 67.2159C159.774 67.1818 159.651 67.1477 159.583 67.1136L159.924 65.9318C160.25 66.0152 160.538 66.0455 160.788 66.0227C161.038 66 161.259 65.8883 161.452 65.6875C161.649 65.4905 161.829 65.1705 161.992 64.7273L162.242 64.0455L159.015 55.2727H160.469L162.878 62.2273H162.969L165.378 55.2727H166.833L163.128 65.2727C162.962 65.7235 162.755 66.0966 162.509 66.392C162.263 66.6913 161.977 66.9129 161.651 67.0568C161.329 67.2008 160.966 67.2727 160.56 67.2727ZM175.217 48.6136V67.75H174.081V48.6136H175.217ZM192.703 56H191.294C191.21 55.5947 191.064 55.2386 190.856 54.9318C190.652 54.625 190.402 54.3674 190.106 54.1591C189.814 53.947 189.491 53.7879 189.135 53.6818C188.778 53.5758 188.407 53.5227 188.021 53.5227C187.316 53.5227 186.678 53.7008 186.106 54.0568C185.538 54.4129 185.085 54.9375 184.748 55.6307C184.415 56.3239 184.248 57.1742 184.248 58.1818C184.248 59.1894 184.415 60.0398 184.748 60.733C185.085 61.4261 185.538 61.9508 186.106 62.3068C186.678 62.6629 187.316 62.8409 188.021 62.8409C188.407 62.8409 188.778 62.7879 189.135 62.6818C189.491 62.5758 189.814 62.4186 190.106 62.2102C190.402 61.9981 190.652 61.7386 190.856 61.4318C191.064 61.1212 191.21 60.7652 191.294 60.3636H192.703C192.597 60.9583 192.403 61.4905 192.123 61.9602C191.843 62.4299 191.494 62.8295 191.078 63.1591C190.661 63.4848 190.193 63.733 189.674 63.9034C189.159 64.0739 188.608 64.1591 188.021 64.1591C187.028 64.1591 186.146 63.9167 185.373 63.4318C184.6 62.947 183.992 62.2576 183.549 61.3636C183.106 60.4697 182.885 59.4091 182.885 58.1818C182.885 56.9545 183.106 55.8939 183.549 55C183.992 54.1061 184.6 53.4167 185.373 52.9318C186.146 52.447 187.028 52.2045 188.021 52.2045C188.608 52.2045 189.159 52.2898 189.674 52.4602C190.193 52.6307 190.661 52.8807 191.078 53.2102C191.494 53.536 191.843 53.9337 192.123 54.4034C192.403 54.8693 192.597 55.4015 192.703 56ZM197.446 64.2045C196.893 64.2045 196.391 64.1004 195.94 63.892C195.49 63.6799 195.132 63.375 194.867 62.9773C194.601 62.5758 194.469 62.0909 194.469 61.5227C194.469 61.0227 194.567 60.6174 194.764 60.3068C194.961 59.9924 195.224 59.7462 195.554 59.5682C195.884 59.3902 196.247 59.2576 196.645 59.1705C197.046 59.0795 197.45 59.0076 197.855 58.9545C198.385 58.8864 198.815 58.8352 199.145 58.8011C199.478 58.7633 199.721 58.7008 199.872 58.6136C200.028 58.5265 200.105 58.375 200.105 58.1591V58.1136C200.105 57.553 199.952 57.1174 199.645 56.8068C199.342 56.4962 198.882 56.3409 198.264 56.3409C197.624 56.3409 197.122 56.4811 196.759 56.7614C196.395 57.0417 196.139 57.3409 195.992 57.6591L194.719 57.2045C194.946 56.6742 195.249 56.2614 195.628 55.9659C196.01 55.6667 196.427 55.4583 196.878 55.3409C197.332 55.2197 197.779 55.1591 198.219 55.1591C198.499 55.1591 198.821 55.1932 199.185 55.2614C199.552 55.3258 199.906 55.4602 200.247 55.6648C200.592 55.8693 200.878 56.178 201.105 56.5909C201.332 57.0038 201.446 57.5568 201.446 58.25V64H200.105V62.8182H200.037C199.946 63.0076 199.795 63.2102 199.582 63.4261C199.37 63.642 199.088 63.8258 198.736 63.9773C198.384 64.1288 197.954 64.2045 197.446 64.2045ZM197.651 63C198.181 63 198.628 62.8958 198.992 62.6875C199.359 62.4792 199.635 62.2102 199.821 61.8807C200.01 61.5511 200.105 61.2045 200.105 60.8409V59.6136C200.048 59.6818 199.923 59.7443 199.73 59.8011C199.541 59.8542 199.321 59.9015 199.071 59.9432C198.825 59.9811 198.584 60.0152 198.349 60.0455C198.118 60.072 197.931 60.0947 197.787 60.1136C197.438 60.1591 197.113 60.233 196.81 60.3352C196.51 60.4337 196.268 60.5833 196.082 60.7841C195.901 60.9811 195.81 61.25 195.81 61.5909C195.81 62.0568 195.982 62.4091 196.327 62.6477C196.675 62.8826 197.117 63 197.651 63ZM203.974 64V55.2727H205.269V56.5909H205.36C205.519 56.1591 205.807 55.8087 206.224 55.5398C206.64 55.2708 207.11 55.1364 207.633 55.1364C207.731 55.1364 207.854 55.1383 208.002 55.142C208.15 55.1458 208.261 55.1515 208.337 55.1591V56.5227C208.292 56.5114 208.188 56.4943 208.025 56.4716C207.866 56.4451 207.697 56.4318 207.519 56.4318C207.095 56.4318 206.716 56.5208 206.383 56.6989C206.053 56.8731 205.792 57.1155 205.599 57.4261C205.409 57.733 205.314 58.0833 205.314 58.4773V64H203.974ZM213.036 64.1818C212.309 64.1818 211.667 63.9981 211.11 63.6307C210.554 63.2595 210.118 62.7367 209.804 62.0625C209.489 61.3845 209.332 60.5833 209.332 59.6591C209.332 58.7424 209.489 57.947 209.804 57.2727C210.118 56.5985 210.555 56.0777 211.116 55.7102C211.677 55.3428 212.324 55.1591 213.059 55.1591C213.627 55.1591 214.076 55.2538 214.406 55.4432C214.739 55.6288 214.993 55.8409 215.167 56.0795C215.345 56.3144 215.483 56.5076 215.582 56.6591H215.696V52.3636H217.036V64H215.741V62.6591H215.582C215.483 62.8182 215.343 63.0189 215.161 63.2614C214.98 63.5 214.72 63.714 214.383 63.9034C214.046 64.089 213.597 64.1818 213.036 64.1818ZM213.218 62.9773C213.756 62.9773 214.211 62.8371 214.582 62.5568C214.953 62.2727 215.235 61.8807 215.429 61.3807C215.622 60.8769 215.718 60.2955 215.718 59.6364C215.718 58.9848 215.624 58.4148 215.434 57.9261C215.245 57.4337 214.965 57.0511 214.593 56.7784C214.222 56.5019 213.764 56.3636 213.218 56.3636C212.65 56.3636 212.177 56.5095 211.798 56.8011C211.423 57.089 211.141 57.4811 210.951 57.9773C210.766 58.4697 210.673 59.0227 210.673 59.6364C210.673 60.2576 210.768 60.822 210.957 61.3295C211.15 61.8333 211.434 62.2348 211.809 62.5341C212.188 62.8295 212.658 62.9773 213.218 62.9773Z" fill="black"/>
<rect x="270" y="39" width="94" height="34" rx="12" fill="#0298F0"/>
<path d="M284.773 61H281.076V50.0909H284.847C285.93 50.0909 286.861 50.3093 287.638 50.7461C288.42 51.1793 289.02 51.8026 289.439 52.6158C289.858 53.429 290.067 54.402 290.067 55.5348C290.067 56.6712 289.856 57.6477 289.434 58.4645C289.015 59.2812 288.409 59.908 287.617 60.3448C286.829 60.7816 285.881 61 284.773 61ZM283.052 59.2901H284.677C285.437 59.2901 286.071 59.1516 286.578 58.8746C287.086 58.5941 287.468 58.1768 287.724 57.6229C287.979 57.0653 288.107 56.3693 288.107 55.5348C288.107 54.7003 287.979 54.0078 287.724 53.4574C287.468 52.9034 287.09 52.4897 286.589 52.2163C286.092 51.9393 285.474 51.8008 284.735 51.8008H283.052V59.2901ZM295.504 61.1598C294.705 61.1598 294.012 60.984 293.426 60.6325C292.84 60.2809 292.386 59.7891 292.063 59.157C291.743 58.5249 291.583 57.7862 291.583 56.9411C291.583 56.0959 291.743 55.3555 292.063 54.7198C292.386 54.0842 292.84 53.5906 293.426 53.239C294.012 52.8874 294.705 52.7116 295.504 52.7116C296.303 52.7116 296.995 52.8874 297.581 53.239C298.167 53.5906 298.62 54.0842 298.94 54.7198C299.263 55.3555 299.424 56.0959 299.424 56.9411C299.424 57.7862 299.263 58.5249 298.94 59.157C298.62 59.7891 298.167 60.2809 297.581 60.6325C296.995 60.984 296.303 61.1598 295.504 61.1598ZM295.514 59.6151C295.948 59.6151 296.31 59.4961 296.601 59.2582C296.892 59.0167 297.109 58.6935 297.251 58.2887C297.397 57.8839 297.469 57.4329 297.469 56.9357C297.469 56.435 297.397 55.9822 297.251 55.5774C297.109 55.169 296.892 54.8441 296.601 54.6026C296.31 54.3612 295.948 54.2404 295.514 54.2404C295.071 54.2404 294.701 54.3612 294.406 54.6026C294.115 54.8441 293.897 55.169 293.751 55.5774C293.609 55.9822 293.538 56.435 293.538 56.9357C293.538 57.4329 293.609 57.8839 293.751 58.2887C293.897 58.6935 294.115 59.0167 294.406 59.2582C294.701 59.4961 295.071 59.6151 295.514 59.6151ZM302.59 61L300.278 52.8182H302.244L303.682 58.571H303.757L305.227 52.8182H307.171L308.641 58.5391H308.721L310.138 52.8182H312.109L309.792 61H307.784L306.25 55.4709H306.138L304.604 61H302.59ZM315.458 56.206V61H313.53V52.8182H315.373V54.2085H315.469C315.657 53.7504 315.957 53.3864 316.369 53.1165C316.785 52.8466 317.298 52.7116 317.909 52.7116C318.473 52.7116 318.965 52.8324 319.384 53.0739C319.807 53.3153 320.134 53.6651 320.364 54.1232C320.599 54.5813 320.714 55.1371 320.711 55.7905V61H318.782V56.0888C318.782 55.5419 318.64 55.114 318.356 54.805C318.076 54.4961 317.687 54.3416 317.19 54.3416C316.852 54.3416 316.552 54.4162 316.289 54.5653C316.03 54.7109 315.826 54.9222 315.677 55.1992C315.531 55.4762 315.458 55.8118 315.458 56.206ZM324.674 50.0909V61H322.746V50.0909H324.674ZM330.301 61.1598C329.502 61.1598 328.809 60.984 328.223 60.6325C327.638 60.2809 327.183 59.7891 326.86 59.157C326.54 58.5249 326.38 57.7862 326.38 56.9411C326.38 56.0959 326.54 55.3555 326.86 54.7198C327.183 54.0842 327.638 53.5906 328.223 53.239C328.809 52.8874 329.502 52.7116 330.301 52.7116C331.1 52.7116 331.792 52.8874 332.378 53.239C332.964 53.5906 333.417 54.0842 333.737 54.7198C334.06 55.3555 334.221 56.0959 334.221 56.9411C334.221 57.7862 334.06 58.5249 333.737 59.157C333.417 59.7891 332.964 60.2809 332.378 60.6325C331.792 60.984 331.1 61.1598 330.301 61.1598ZM330.312 59.6151C330.745 59.6151 331.107 59.4961 331.398 59.2582C331.689 59.0167 331.906 58.6935 332.048 58.2887C332.194 57.8839 332.266 57.4329 332.266 56.9357C332.266 56.435 332.194 55.9822 332.048 55.5774C331.906 55.169 331.689 54.8441 331.398 54.6026C331.107 54.3612 330.745 54.2404 330.312 54.2404C329.868 54.2404 329.498 54.3612 329.204 54.6026C328.912 54.8441 328.694 55.169 328.548 55.5774C328.406 55.9822 328.335 56.435 328.335 56.9357C328.335 57.4329 328.406 57.8839 328.548 58.2887C328.694 58.6935 328.912 59.0167 329.204 59.2582C329.498 59.4961 329.868 59.6151 330.312 59.6151ZM338.287 61.1651C337.769 61.1651 337.302 61.0728 336.886 60.8881C336.475 60.6999 336.148 60.4229 335.906 60.0572C335.668 59.6914 335.549 59.2404 335.549 58.7042C335.549 58.2425 335.635 57.8608 335.805 57.5589C335.976 57.2571 336.208 57.0156 336.503 56.8345C336.798 56.6534 337.13 56.5167 337.499 56.4244C337.872 56.3285 338.257 56.2592 338.655 56.2166C339.134 56.1669 339.523 56.1225 339.821 56.0835C340.12 56.0408 340.336 55.9769 340.471 55.8917C340.61 55.8029 340.679 55.6662 340.679 55.4815V55.4496C340.679 55.0483 340.56 54.7376 340.322 54.5174C340.084 54.2972 339.742 54.1871 339.294 54.1871C338.822 54.1871 338.447 54.2901 338.17 54.4961C337.897 54.7021 337.712 54.9453 337.616 55.2259L335.816 54.9702C335.958 54.473 336.192 54.0575 336.519 53.7237C336.846 53.3864 337.245 53.1342 337.717 52.9673C338.19 52.7969 338.712 52.7116 339.283 52.7116C339.678 52.7116 340.07 52.7578 340.461 52.8501C340.851 52.9425 341.208 53.0952 341.531 53.3082C341.854 53.5178 342.114 53.8036 342.309 54.1658C342.508 54.5281 342.607 54.9808 342.607 55.5241V61H340.754V59.8761H340.69C340.573 60.1033 340.407 60.3164 340.194 60.5153C339.985 60.7106 339.72 60.8686 339.401 60.9893C339.085 61.1065 338.713 61.1651 338.287 61.1651ZM338.788 59.7482C339.175 59.7482 339.511 59.6719 339.795 59.5192C340.079 59.3629 340.297 59.157 340.45 58.9013C340.606 58.6456 340.684 58.3668 340.684 58.065V57.1009C340.624 57.1506 340.521 57.1967 340.375 57.2393C340.233 57.282 340.074 57.3192 339.896 57.3512C339.718 57.3832 339.543 57.4116 339.369 57.4364C339.195 57.4613 339.044 57.4826 338.916 57.5004C338.628 57.5394 338.371 57.6033 338.144 57.6921C337.916 57.7809 337.737 57.9052 337.606 58.065C337.474 58.2212 337.408 58.4237 337.408 58.6722C337.408 59.0273 337.538 59.2955 337.797 59.4766C338.057 59.6577 338.387 59.7482 338.788 59.7482ZM347.657 61.1438C347.015 61.1438 346.439 60.9787 345.932 60.6484C345.424 60.3182 345.023 59.8388 344.728 59.2102C344.433 58.5817 344.286 57.8182 344.286 56.9197C344.286 56.0107 344.435 55.2436 344.733 54.6186C345.035 53.9901 345.442 53.516 345.953 53.1964C346.464 52.8732 347.034 52.7116 347.663 52.7116C348.142 52.7116 348.536 52.7933 348.845 52.9567C349.154 53.1165 349.399 53.31 349.58 53.5373C349.762 53.761 349.902 53.9723 350.001 54.1712H350.081V50.0909H352.015V61H350.118V59.7109H350.001C349.902 59.9098 349.758 60.1211 349.57 60.3448C349.382 60.565 349.133 60.7532 348.824 60.9094C348.515 61.0657 348.126 61.1438 347.657 61.1438ZM348.195 59.5618C348.604 59.5618 348.952 59.4517 349.239 59.2315C349.527 59.0078 349.746 58.6971 349.895 58.2994C350.044 57.9016 350.118 57.4382 350.118 56.9091C350.118 56.38 350.044 55.9201 349.895 55.5295C349.749 55.1388 349.532 54.8352 349.245 54.6186C348.961 54.402 348.611 54.2937 348.195 54.2937C347.766 54.2937 347.407 54.4055 347.119 54.6293C346.832 54.853 346.615 55.1619 346.47 55.5561C346.324 55.9503 346.251 56.4013 346.251 56.9091C346.251 57.4205 346.324 57.8768 346.47 58.2781C346.619 58.6758 346.837 58.9901 347.125 59.2209C347.416 59.4482 347.773 59.5618 348.195 59.5618Z" fill="white"/>
</g>
<defs>
<filter id="filter0_d_119_3055" x="0" y="0" width="386" height="123" filterUnits="userSpaceOnUse" color-interpolation-filters="sRGB">
<feFlood flood-opacity="0" result="BackgroundImageFix"/>
<feColorMatrix in="SourceAlpha" type="matrix" values="0 0 0 0 0 0 0 0 0 0 0 0 0 0 0 0 0 0 127 0" result="hardAlpha"/>
<feOffset dy="6"/>
<feGaussianBlur stdDeviation="5"/>
<feComposite in2="hardAlpha" operator="out"/>
<feColorMatrix type="matrix" values="0 0 0 0 0 0 0 0 0 0 0 0 0 0 0 0 0 0 0.14 0"/>
<feBlend mode="normal" in2="BackgroundImageFix" result="effect1_dropShadow_119_3055"/>
<feBlend mode="normal" in="SourceGraphic" in2="effect1_dropShadow_119_3055" result="shape"/>
</filter>
</defs>
</svg>
