<?xml version="1.0" encoding="UTF-8"?>
<svg id="Layer_1" data-name="Layer 1" xmlns="http://www.w3.org/2000/svg" viewBox="0 0 386 123">
  <defs>
    <style>
      .cls-1 {
        fill: #f2f2f2;
      }

      .cls-2 {
        fill: #fff;
      }

      .cls-3 {
        fill: #0298f0;
      }
    </style>
  </defs>
  <rect class="cls-1" x="10" y="4" width="366" height="103" rx="12" ry="12"/>
  <path d="M41.11,31.29h-2.12c-.06-.35-.17-.66-.34-.93-.16-.27-.37-.5-.61-.69-.24-.19-.52-.33-.83-.43-.31-.1-.64-.15-.99-.15-.63,0-1.19,.16-1.68,.48-.49,.31-.87,.78-1.15,1.39-.28,.61-.41,1.35-.41,2.22s.14,1.64,.41,2.25c.28,.61,.66,1.06,1.15,1.38,.49,.31,1.05,.46,1.68,.46,.35,0,.67-.05,.98-.14,.31-.09,.58-.23,.82-.41,.25-.18,.45-.41,.62-.67,.17-.27,.29-.57,.35-.91h2.12c-.08,.56-.25,1.08-.52,1.57-.26,.48-.6,.91-1.03,1.28-.42,.37-.92,.66-1.49,.86-.57,.2-1.2,.31-1.89,.31-1.02,0-1.94-.24-2.74-.71-.8-.47-1.44-1.16-1.9-2.05-.46-.89-.69-1.97-.69-3.22s.23-2.33,.7-3.22c.47-.89,1.1-1.58,1.9-2.05,.8-.47,1.71-.71,2.73-.71,.65,0,1.25,.09,1.81,.27,.56,.18,1.05,.45,1.49,.8,.44,.35,.79,.78,1.07,1.28,.28,.5,.47,1.08,.56,1.73Zm5.73,7.88c-.85,0-1.59-.19-2.22-.56s-1.11-.9-1.45-1.57c-.34-.67-.51-1.46-.51-2.36s.17-1.69,.51-2.37c.34-.68,.83-1.2,1.45-1.58s1.36-.56,2.22-.56,1.59,.19,2.22,.56,1.11,.9,1.45,1.58c.34,.68,.52,1.47,.52,2.37s-.17,1.69-.52,2.36c-.34,.67-.82,1.2-1.45,1.57s-1.36,.56-2.22,.56Zm.01-1.65c.46,0,.85-.13,1.16-.38,.31-.26,.54-.6,.69-1.03,.16-.43,.23-.91,.23-1.44s-.08-1.02-.23-1.45c-.15-.44-.38-.78-.69-1.04-.31-.26-.7-.39-1.16-.39s-.87,.13-1.18,.39c-.31,.26-.54,.6-.7,1.04-.15,.43-.23,.91-.23,1.45s.08,1.01,.23,1.44c.16,.43,.39,.78,.7,1.03,.31,.25,.71,.38,1.18,.38Zm11.56-2.19v-5.06h2.06v8.73h-1.99v-1.55h-.09c-.2,.49-.52,.89-.97,1.2-.45,.31-1,.47-1.65,.47-.57,0-1.08-.13-1.52-.38-.44-.26-.78-.63-1.02-1.12-.25-.49-.37-1.09-.37-1.78v-5.56h2.06v5.24c0,.55,.15,.99,.45,1.32,.3,.33,.7,.49,1.19,.49,.3,0,.6-.07,.88-.22,.28-.15,.52-.37,.7-.66,.19-.3,.28-.66,.28-1.11Zm4.25,6.94v-12h2.02v1.44h.12c.11-.21,.26-.44,.45-.68,.19-.24,.45-.45,.78-.62,.33-.17,.75-.26,1.26-.26,.67,0,1.28,.17,1.82,.52,.55,.34,.98,.85,1.3,1.52,.32,.67,.48,1.48,.48,2.45s-.16,1.77-.47,2.44c-.31,.67-.74,1.18-1.28,1.53-.54,.35-1.16,.53-1.84,.53-.5,0-.91-.08-1.24-.25-.33-.17-.59-.37-.8-.6-.2-.24-.35-.46-.46-.68h-.09v4.65h-2.06Zm2.02-7.64c0,.56,.08,1.06,.24,1.48,.16,.42,.4,.76,.7,.99,.31,.23,.68,.35,1.11,.35s.84-.12,1.14-.36c.31-.25,.54-.58,.69-1.01,.16-.43,.24-.91,.24-1.46s-.08-1.02-.23-1.44c-.16-.42-.39-.75-.69-.99-.31-.24-.69-.36-1.15-.36s-.81,.12-1.12,.35c-.31,.23-.54,.55-.7,.97-.16,.42-.23,.91-.23,1.47Zm11.87,4.53c-.85,0-1.59-.19-2.22-.56s-1.11-.9-1.45-1.57c-.34-.67-.51-1.46-.51-2.36s.17-1.69,.51-2.37c.34-.68,.83-1.2,1.45-1.58s1.36-.56,2.22-.56,1.59,.19,2.22,.56,1.11,.9,1.45,1.58c.34,.68,.52,1.47,.52,2.37s-.17,1.69-.52,2.36c-.34,.67-.82,1.2-1.45,1.57s-1.36,.56-2.22,.56Zm.01-1.65c.46,0,.85-.13,1.16-.38,.31-.26,.54-.6,.69-1.03,.16-.43,.23-.91,.23-1.44s-.08-1.02-.23-1.45c-.15-.44-.38-.78-.69-1.04-.31-.26-.7-.39-1.16-.39s-.87,.13-1.18,.39c-.31,.26-.54,.6-.7,1.04-.15,.43-.23,.91-.23,1.45s.08,1.01,.23,1.44c.16,.43,.39,.78,.7,1.03,.31,.25,.71,.38,1.18,.38Zm8.05-3.64v5.11h-2.06v-8.73h1.97v1.48h.1c.2-.49,.52-.88,.96-1.16,.44-.29,.99-.43,1.64-.43,.6,0,1.13,.13,1.57,.39,.45,.26,.8,.63,1.05,1.12,.25,.49,.37,1.08,.37,1.78v5.56h-2.06v-5.24c0-.58-.15-1.04-.45-1.37-.3-.33-.71-.49-1.24-.49-.36,0-.68,.08-.96,.24-.28,.16-.49,.38-.65,.68-.16,.3-.23,.65-.23,1.07Zm14.67-1.31l-1.88,.2c-.05-.19-.15-.37-.28-.53-.13-.17-.3-.3-.52-.4-.22-.1-.49-.15-.81-.15-.43,0-.79,.09-1.08,.28-.29,.19-.43,.43-.43,.72,0,.25,.09,.46,.28,.62,.19,.16,.51,.29,.95,.39l1.49,.32c.83,.18,1.44,.46,1.84,.85,.41,.39,.61,.89,.61,1.52,0,.55-.16,1.03-.48,1.45-.31,.42-.75,.74-1.31,.98-.56,.23-1.2,.35-1.93,.35-1.07,0-1.93-.22-2.58-.67-.65-.45-1.04-1.08-1.16-1.88l2.01-.19c.09,.39,.28,.69,.58,.89,.3,.2,.68,.3,1.15,.3s.88-.1,1.18-.3c.3-.2,.45-.45,.45-.74,0-.25-.1-.46-.29-.62-.19-.16-.48-.29-.89-.38l-1.49-.31c-.84-.17-1.46-.47-1.86-.88-.4-.42-.6-.94-.6-1.58,0-.54,.14-1,.44-1.4,.3-.4,.71-.7,1.24-.92,.53-.22,1.15-.33,1.85-.33,1.02,0,1.83,.22,2.41,.65,.59,.44,.96,1.02,1.1,1.77Zm10.43-2.31v1.59h-5.16v-1.59h5.16Zm-3.87,8.73v-9.55c0-.59,.12-1.08,.36-1.47,.25-.39,.58-.68,.99-.88,.41-.19,.87-.29,1.38-.29,.36,0,.67,.03,.95,.09,.28,.06,.48,.11,.61,.15l-.41,1.59c-.09-.03-.2-.05-.33-.08-.13-.03-.28-.05-.44-.05-.38,0-.65,.09-.81,.28-.15,.18-.23,.44-.23,.78v9.41h-2.06Zm9.04,.17c-.85,0-1.59-.19-2.22-.56s-1.11-.9-1.46-1.57c-.34-.67-.51-1.46-.51-2.36s.17-1.69,.51-2.37c.35-.68,.83-1.2,1.46-1.58s1.36-.56,2.22-.56,1.59,.19,2.22,.56,1.11,.9,1.45,1.58c.35,.68,.52,1.47,.52,2.37s-.17,1.69-.52,2.36c-.34,.67-.82,1.2-1.45,1.57s-1.36,.56-2.22,.56Zm.01-1.65c.46,0,.85-.13,1.16-.38,.31-.26,.54-.6,.69-1.03,.15-.43,.23-.91,.23-1.44s-.08-1.02-.23-1.45c-.15-.44-.38-.78-.69-1.04-.31-.26-.7-.39-1.16-.39s-.87,.13-1.18,.39c-.31,.26-.54,.6-.7,1.04-.15,.43-.23,.91-.23,1.45s.08,1.01,.23,1.44c.15,.43,.39,.78,.7,1.03,.31,.25,.71,.38,1.18,.38Zm6,1.48v-8.73h1.99v1.45h.09c.16-.5,.43-.89,.82-1.16,.39-.28,.84-.41,1.34-.41,.11,0,.24,0,.38,.02,.14,0,.26,.02,.36,.04v1.89c-.09-.03-.22-.06-.41-.08-.19-.03-.37-.04-.54-.04-.38,0-.71,.08-1.01,.24-.3,.16-.53,.38-.7,.66-.17,.28-.26,.61-.26,.98v5.13h-2.06Zm16.89-8.44c-.05-.5-.28-.88-.67-1.16-.39-.28-.9-.41-1.52-.41-.44,0-.82,.07-1.13,.2-.31,.13-.55,.31-.72,.54-.17,.23-.25,.49-.26,.78,0,.24,.06,.45,.17,.63,.11,.18,.27,.33,.46,.45,.19,.12,.41,.22,.64,.31,.24,.08,.47,.15,.71,.21l1.09,.27c.44,.1,.86,.24,1.27,.41,.41,.17,.77,.39,1.1,.66,.33,.27,.58,.59,.77,.96,.19,.38,.28,.81,.28,1.32,0,.68-.17,1.28-.52,1.8-.35,.52-.85,.92-1.51,1.21-.66,.29-1.45,.43-2.38,.43s-1.69-.14-2.36-.42c-.66-.28-1.18-.69-1.56-1.23-.37-.54-.57-1.19-.6-1.97h2.07c.03,.41,.15,.74,.38,1.01,.22,.27,.51,.47,.86,.6,.36,.13,.75,.2,1.19,.2s.86-.07,1.2-.2c.35-.14,.62-.33,.82-.58,.2-.25,.3-.54,.3-.88,0-.3-.09-.55-.27-.75-.17-.2-.42-.37-.73-.5-.31-.14-.67-.26-1.09-.36l-1.32-.34c-.96-.25-1.72-.62-2.27-1.12-.55-.5-.83-1.17-.83-2.01,0-.69,.18-1.29,.56-1.8,.38-.52,.88-.91,1.53-1.2,.64-.29,1.37-.43,2.19-.43s1.55,.14,2.17,.43c.62,.28,1.12,.68,1.47,1.19,.36,.5,.54,1.08,.55,1.74h-2.03Zm7.92,8.61c-.88,0-1.63-.18-2.27-.55-.63-.37-1.12-.89-1.46-1.56-.34-.67-.51-1.47-.51-2.38s.17-1.69,.51-2.36c.34-.68,.82-1.21,1.44-1.59,.62-.38,1.34-.57,2.18-.57,.54,0,1.04,.09,1.52,.26,.48,.17,.9,.44,1.27,.8,.37,.36,.66,.82,.88,1.38,.21,.55,.32,1.21,.32,1.98v.63h-7.15v-1.39h5.18c0-.39-.09-.74-.26-1.05-.17-.31-.4-.55-.7-.73-.29-.18-.64-.27-1.03-.27-.42,0-.79,.1-1.11,.31-.32,.2-.57,.47-.74,.8-.17,.33-.26,.68-.27,1.07v1.21c0,.51,.09,.94,.28,1.31,.19,.36,.44,.64,.78,.83,.33,.19,.72,.28,1.17,.28,.3,0,.57-.04,.81-.12,.24-.09,.45-.21,.63-.38s.31-.37,.4-.62l1.92,.22c-.12,.51-.35,.95-.69,1.33-.34,.38-.77,.67-1.29,.88-.53,.2-1.13,.31-1.81,.31Zm5.7,3.1v-12h2.02v1.44h.12c.11-.21,.26-.44,.45-.68,.19-.24,.46-.45,.79-.62,.33-.17,.75-.26,1.26-.26,.67,0,1.28,.17,1.82,.52,.54,.34,.98,.85,1.29,1.52,.32,.67,.48,1.48,.48,2.45s-.16,1.77-.47,2.44c-.31,.67-.74,1.18-1.28,1.53-.54,.35-1.16,.53-1.84,.53-.5,0-.91-.08-1.24-.25-.33-.17-.59-.37-.79-.6-.2-.24-.35-.46-.46-.68h-.09v4.65h-2.06Zm2.02-7.64c0,.56,.08,1.06,.24,1.48,.16,.42,.4,.76,.7,.99,.31,.23,.68,.35,1.11,.35s.83-.12,1.14-.36c.31-.25,.54-.58,.69-1.01,.16-.43,.24-.91,.24-1.46s-.08-1.02-.23-1.44c-.16-.42-.39-.75-.69-.99-.31-.24-.69-.36-1.15-.36s-.81,.12-1.12,.35c-.31,.23-.54,.55-.7,.97-.16,.42-.23,.91-.23,1.47Zm12.42-4.36v1.59h-5.02v-1.59h5.02Zm-3.78-2.09h2.06v8.19c0,.28,.04,.49,.12,.64,.09,.14,.2,.24,.34,.3,.14,.05,.29,.08,.47,.08,.13,0,.25,0,.35-.03,.11-.02,.19-.04,.25-.05l.35,1.61c-.11,.04-.27,.08-.47,.12-.2,.05-.45,.07-.74,.08-.51,.02-.98-.06-1.39-.23-.41-.17-.74-.44-.98-.81-.24-.36-.36-.82-.35-1.36v-8.53Zm9.35,10.99c-.88,0-1.63-.18-2.27-.55-.63-.37-1.12-.89-1.46-1.56-.34-.67-.51-1.47-.51-2.38s.17-1.69,.51-2.36c.35-.68,.83-1.21,1.44-1.59,.62-.38,1.34-.57,2.18-.57,.54,0,1.04,.09,1.52,.26,.48,.17,.91,.44,1.27,.8,.37,.36,.66,.82,.88,1.38,.21,.55,.32,1.21,.32,1.98v.63h-7.15v-1.39h5.18c0-.39-.09-.74-.26-1.05-.17-.31-.4-.55-.7-.73-.29-.18-.64-.27-1.03-.27-.42,0-.79,.1-1.11,.31-.32,.2-.57,.47-.74,.8-.17,.33-.26,.68-.27,1.07v1.21c0,.51,.09,.94,.28,1.31,.19,.36,.44,.64,.78,.83,.33,.19,.72,.28,1.17,.28,.3,0,.57-.04,.81-.12,.24-.09,.45-.21,.63-.38s.31-.37,.4-.62l1.92,.22c-.12,.51-.35,.95-.69,1.33-.34,.38-.77,.67-1.3,.88-.53,.2-1.13,.31-1.81,.31Zm5.7-.17v-8.73h1.97v1.48h.1c.18-.5,.48-.89,.9-1.17,.42-.28,.92-.43,1.51-.43s1.09,.14,1.49,.43c.41,.28,.7,.67,.86,1.16h.09c.19-.48,.52-.87,.98-1.16,.46-.29,1.01-.44,1.64-.44,.8,0,1.46,.25,1.97,.76,.51,.51,.76,1.25,.76,2.22v5.86h-2.06v-5.54c0-.54-.14-.94-.43-1.19-.29-.25-.64-.38-1.06-.38-.5,0-.89,.16-1.17,.47-.28,.31-.41,.71-.41,1.2v5.44h-2.02v-5.62c0-.45-.14-.81-.41-1.08-.27-.27-.62-.4-1.06-.4-.29,0-.56,.08-.81,.23-.24,.15-.44,.36-.58,.63-.14,.27-.22,.58-.22,.94v5.31h-2.06Zm14.53,0v-11.64h2.06v4.35h.09c.11-.21,.26-.44,.45-.68,.19-.24,.45-.45,.78-.62,.33-.17,.75-.26,1.26-.26,.67,0,1.28,.17,1.82,.52,.54,.34,.98,.85,1.29,1.52,.32,.67,.48,1.48,.48,2.45s-.16,1.77-.47,2.44c-.31,.67-.74,1.18-1.28,1.53-.54,.35-1.16,.53-1.84,.53-.5,0-.91-.08-1.24-.25-.33-.17-.59-.37-.79-.6-.2-.24-.35-.46-.46-.68h-.12v1.38h-2.02Zm2.02-4.36c0,.56,.08,1.06,.24,1.48,.16,.42,.4,.76,.7,.99,.31,.23,.68,.35,1.11,.35s.83-.12,1.14-.36c.31-.25,.54-.58,.69-1.01,.16-.43,.24-.91,.24-1.46s-.08-1.02-.23-1.44c-.16-.42-.39-.75-.69-.99-.31-.24-.69-.36-1.15-.36s-.81,.12-1.12,.35c-.31,.23-.54,.55-.7,.97-.16,.42-.23,.91-.23,1.47Zm11.91,4.53c-.88,0-1.63-.18-2.27-.55-.63-.37-1.12-.89-1.46-1.56-.34-.67-.51-1.47-.51-2.38s.17-1.69,.51-2.36c.35-.68,.83-1.21,1.44-1.59,.62-.38,1.34-.57,2.18-.57,.54,0,1.05,.09,1.52,.26,.48,.17,.91,.44,1.27,.8,.37,.36,.66,.82,.88,1.38,.21,.55,.32,1.21,.32,1.98v.63h-7.15v-1.39h5.18c0-.39-.09-.74-.26-1.05-.17-.31-.4-.55-.7-.73-.29-.18-.64-.27-1.03-.27-.42,0-.79,.1-1.11,.31-.32,.2-.57,.47-.74,.8-.18,.33-.26,.68-.27,1.07v1.21c0,.51,.09,.94,.28,1.31,.19,.36,.44,.64,.78,.83,.33,.19,.72,.28,1.17,.28,.3,0,.57-.04,.81-.12,.24-.09,.45-.21,.63-.38,.18-.17,.31-.37,.4-.62l1.92,.22c-.12,.51-.35,.95-.69,1.33-.34,.38-.77,.67-1.3,.88-.53,.2-1.13,.31-1.81,.31Zm5.7-.17v-8.73h1.99v1.45h.09c.16-.5,.43-.89,.82-1.16,.39-.28,.84-.41,1.34-.41,.11,0,.24,0,.38,.02,.14,0,.26,.02,.36,.04v1.89c-.09-.03-.22-.06-.41-.08-.19-.03-.37-.04-.54-.04-.38,0-.71,.08-1.01,.24-.3,.16-.53,.38-.7,.66-.17,.28-.26,.61-.26,.98v5.13h-2.06Zm7.84-1.59l-.07,.62c-.05,.48-.15,.96-.28,1.45-.13,.5-.27,.95-.42,1.37-.15,.42-.27,.74-.36,.98h-1.39c.05-.23,.12-.55,.22-.94,.1-.4,.18-.84,.27-1.34,.09-.5,.15-1,.18-1.51l.04-.64h1.82Zm6.05,1.59v-1.52l4.04-3.96c.39-.39,.71-.74,.97-1.04,.26-.3,.45-.6,.58-.88,.13-.28,.19-.59,.19-.91,0-.37-.08-.68-.25-.94-.17-.27-.4-.47-.69-.61-.29-.14-.62-.22-.99-.22s-.72,.08-1.01,.24c-.29,.16-.51,.38-.67,.66-.16,.29-.23,.63-.23,1.03h-2.01c0-.74,.17-1.38,.51-1.93,.34-.55,.8-.97,1.39-1.27,.6-.3,1.28-.45,2.04-.45s1.47,.15,2.06,.44c.59,.29,1.05,.69,1.38,1.2,.33,.51,.49,1.09,.49,1.74,0,.44-.08,.86-.25,1.28-.17,.42-.46,.89-.88,1.4-.42,.51-1,1.13-1.76,1.86l-2.01,2.04v.08h5.07v1.76h-7.98Zm14.32,.22c-.94,0-1.74-.24-2.41-.71-.67-.48-1.18-1.16-1.54-2.06-.36-.9-.53-1.99-.53-3.26,0-1.27,.18-2.35,.54-3.24,.36-.89,.87-1.58,1.54-2.05,.67-.47,1.47-.7,2.4-.7s1.73,.23,2.4,.7c.67,.47,1.18,1.15,1.54,2.05,.36,.89,.54,1.97,.54,3.24s-.18,2.36-.54,3.26c-.36,.9-.87,1.58-1.54,2.06-.67,.47-1.47,.71-2.4,.71Zm0-1.78c.73,0,1.3-.36,1.72-1.07,.42-.72,.64-1.78,.64-3.18,0-.92-.1-1.7-.29-2.33-.19-.63-.47-1.1-.82-1.42-.35-.32-.77-.48-1.25-.48-.72,0-1.29,.36-1.72,1.08-.42,.72-.63,1.77-.64,3.15,0,.93,.09,1.71,.28,2.34,.19,.63,.47,1.11,.82,1.43,.35,.32,.77,.48,1.26,.48Zm6.45,1.56v-1.52l4.04-3.96c.39-.39,.71-.74,.97-1.04,.26-.3,.45-.6,.58-.88,.13-.28,.19-.59,.19-.91,0-.37-.08-.68-.25-.94-.17-.27-.4-.47-.69-.61-.29-.14-.62-.22-1-.22s-.72,.08-1,.24c-.29,.16-.51,.38-.67,.66-.15,.29-.23,.63-.23,1.03h-2.01c0-.74,.17-1.38,.51-1.93,.34-.55,.8-.97,1.39-1.27,.6-.3,1.28-.45,2.05-.45s1.47,.15,2.06,.44c.59,.29,1.05,.69,1.38,1.2,.33,.51,.49,1.09,.49,1.74,0,.44-.08,.86-.25,1.28-.17,.42-.46,.89-.88,1.4-.42,.51-1,1.13-1.76,1.86l-2.01,2.04v.08h5.07v1.76h-7.98Zm10.02,0v-1.52l4.04-3.96c.39-.39,.71-.74,.97-1.04,.26-.3,.45-.6,.58-.88,.13-.28,.19-.59,.19-.91,0-.37-.08-.68-.25-.94-.17-.27-.4-.47-.69-.61-.29-.14-.62-.22-.99-.22s-.72,.08-1.01,.24c-.29,.16-.51,.38-.67,.66-.16,.29-.23,.63-.23,1.03h-2.01c0-.74,.17-1.38,.51-1.93,.34-.55,.8-.97,1.39-1.27,.59-.3,1.28-.45,2.04-.45s1.47,.15,2.06,.44c.59,.29,1.05,.69,1.38,1.2,.33,.51,.49,1.09,.49,1.74,0,.44-.08,.86-.25,1.28-.17,.42-.46,.89-.88,1.4-.42,.51-1,1.13-1.76,1.86l-2.01,2.04v.08h5.07v1.76h-7.98Z"/>
  <path d="M31.41,64v-11.64h1.41v5.18h6.2v-5.18h1.41v11.64h-1.41v-5.2h-6.2v5.2h-1.41Zm15.29,.18c-.79,0-1.48-.19-2.07-.56-.59-.38-1.05-.9-1.39-1.57-.33-.67-.49-1.46-.49-2.36s.16-1.7,.49-2.38c.33-.68,.8-1.2,1.39-1.58,.59-.38,1.29-.56,2.07-.56s1.48,.19,2.07,.56c.59,.38,1.06,.9,1.39,1.58,.33,.68,.5,1.47,.5,2.38s-.17,1.69-.5,2.36c-.33,.67-.79,1.2-1.39,1.57-.59,.38-1.28,.56-2.07,.56Zm0-1.2c.6,0,1.09-.15,1.48-.46,.39-.31,.67-.71,.86-1.21s.28-1.04,.28-1.62-.09-1.13-.28-1.63c-.19-.5-.47-.91-.86-1.22-.39-.31-.88-.47-1.48-.47s-1.09,.16-1.48,.47c-.39,.31-.67,.72-.86,1.22-.19,.5-.28,1.05-.28,1.63s.09,1.12,.28,1.62c.19,.5,.47,.9,.86,1.21,.39,.31,.88,.46,1.48,.46Zm11.58-2.55v-5.16h1.34v8.73h-1.34v-1.48h-.09c-.2,.44-.52,.82-.95,1.13-.43,.31-.98,.46-1.64,.46-.55,0-1.03-.12-1.45-.36-.42-.24-.76-.61-1-1.09-.24-.49-.36-1.1-.36-1.85v-5.55h1.34v5.45c0,.64,.18,1.14,.53,1.52,.36,.38,.82,.57,1.38,.57,.33,0,.67-.09,1.02-.26,.35-.17,.64-.43,.88-.78,.24-.35,.36-.8,.36-1.35Zm10.06-3.2l-1.2,.34c-.08-.2-.19-.4-.34-.59-.14-.19-.34-.35-.59-.48s-.57-.19-.96-.19c-.53,0-.98,.12-1.34,.37-.35,.24-.53,.55-.53,.93,0,.33,.12,.6,.36,.79,.24,.19,.62,.35,1.14,.48l1.3,.32c.78,.19,1.36,.48,1.74,.87,.38,.39,.57,.88,.57,1.49,0,.5-.14,.95-.43,1.34-.28,.39-.68,.7-1.19,.93-.51,.23-1.11,.34-1.78,.34-.89,0-1.63-.19-2.21-.58-.58-.39-.95-.95-1.11-1.69l1.27-.32c.12,.47,.35,.82,.69,1.06,.34,.23,.79,.35,1.34,.35,.62,0,1.12-.13,1.49-.4,.37-.27,.56-.59,.56-.97,0-.3-.11-.56-.32-.76-.21-.21-.54-.36-.98-.47l-1.45-.34c-.8-.19-1.39-.48-1.76-.88-.37-.4-.56-.9-.56-1.51,0-.49,.14-.93,.41-1.31,.28-.38,.66-.68,1.14-.89,.48-.22,1.03-.32,1.65-.32,.86,0,1.54,.19,2.03,.57,.5,.38,.85,.88,1.06,1.5Zm2.26,6.77v-8.73h1.34v8.73h-1.34Zm.68-10.18c-.26,0-.49-.09-.68-.27-.19-.18-.28-.39-.28-.64s.09-.46,.28-.64c.19-.18,.41-.27,.68-.27s.48,.09,.67,.27c.19,.18,.28,.39,.28,.64s-.09,.46-.28,.64c-.19,.18-.41,.27-.67,.27Zm4.54,4.93v5.25h-1.34v-8.73h1.3v1.36h.11c.2-.44,.52-.8,.93-1.07,.42-.27,.95-.41,1.61-.41,.59,0,1.11,.12,1.55,.36,.44,.24,.79,.6,1.03,1.09,.25,.48,.37,1.1,.37,1.84v5.55h-1.34v-5.45c0-.69-.18-1.22-.53-1.6-.36-.39-.84-.58-1.47-.58-.43,0-.81,.09-1.15,.28-.33,.19-.6,.46-.79,.81-.19,.36-.29,.79-.29,1.3Zm11.62,8.7c-.65,0-1.2-.08-1.67-.25-.47-.16-.85-.38-1.16-.65-.31-.27-.55-.55-.73-.85l1.07-.75c.12,.16,.27,.34,.46,.55,.19,.21,.44,.39,.76,.54,.33,.16,.75,.23,1.28,.23,.7,0,1.29-.17,1.74-.51,.46-.34,.69-.88,.69-1.6v-1.77h-.11c-.1,.16-.24,.36-.42,.59-.18,.23-.44,.44-.77,.62-.33,.18-.78,.27-1.35,.27-.7,0-1.34-.17-1.9-.5-.56-.33-1-.82-1.32-1.45-.32-.64-.48-1.41-.48-2.32s.16-1.67,.47-2.34c.31-.67,.75-1.18,1.31-1.55,.56-.37,1.21-.55,1.94-.55,.57,0,1.02,.09,1.35,.28,.34,.19,.59,.4,.77,.64,.18,.23,.32,.43,.42,.58h.14v-1.39h1.3v8.98c0,.75-.17,1.36-.51,1.83-.34,.47-.79,.82-1.36,1.04-.57,.22-1.2,.34-1.9,.34Zm-.05-4.8c.54,0,.99-.12,1.36-.37s.65-.6,.85-1.06c.19-.46,.29-1.02,.29-1.66s-.09-1.18-.28-1.66c-.19-.48-.47-.86-.84-1.13-.37-.27-.83-.41-1.38-.41s-1.04,.14-1.42,.43c-.38,.29-.66,.67-.85,1.16-.19,.48-.28,1.02-.28,1.61s.09,1.14,.28,1.61c.19,.46,.48,.83,.85,1.09,.38,.26,.85,.39,1.41,.39Zm12.89-14.05v19.14h-1.14v-19.14h1.14Zm8.12,3.75h1.68l3.95,9.66h.14l3.96-9.66h1.68v11.64h-1.32v-8.84h-.11l-3.64,8.84h-1.27l-3.64-8.84h-.11v8.84h-1.32v-11.64Zm17.68,11.82c-.79,0-1.48-.19-2.07-.56-.59-.38-1.05-.9-1.39-1.57-.33-.67-.49-1.46-.49-2.36s.17-1.7,.49-2.38c.33-.68,.8-1.2,1.39-1.58,.59-.38,1.29-.56,2.07-.56s1.48,.19,2.07,.56c.59,.38,1.06,.9,1.39,1.58,.33,.68,.5,1.47,.5,2.38s-.17,1.69-.5,2.36c-.33,.67-.79,1.2-1.39,1.57-.59,.38-1.28,.56-2.07,.56Zm0-1.2c.6,0,1.09-.15,1.48-.46,.39-.31,.67-.71,.86-1.21,.18-.5,.28-1.04,.28-1.62s-.09-1.13-.28-1.63c-.19-.5-.47-.91-.86-1.22-.39-.31-.88-.47-1.48-.47s-1.09,.16-1.48,.47c-.39,.31-.67,.72-.86,1.22-.18,.5-.28,1.05-.28,1.63s.09,1.12,.28,1.62c.19,.5,.47,.9,.86,1.21,.39,.31,.88,.46,1.48,.46Zm6.26,1.02v-11.64h1.34v4.3h.11c.1-.15,.23-.34,.41-.58,.18-.24,.43-.45,.76-.64,.33-.19,.78-.28,1.35-.28,.74,0,1.38,.18,1.94,.55,.56,.37,1,.89,1.31,1.56,.31,.67,.47,1.47,.47,2.39s-.16,1.73-.47,2.4c-.32,.67-.75,1.2-1.31,1.57-.56,.37-1.2,.55-1.93,.55-.56,0-1.01-.09-1.35-.28-.34-.19-.6-.4-.78-.64-.18-.24-.32-.44-.42-.6h-.16v1.34h-1.29Zm1.32-4.36c0,.66,.1,1.24,.29,1.74,.19,.5,.48,.89,.85,1.18,.37,.28,.83,.42,1.36,.42s1.03-.15,1.4-.44c.38-.3,.66-.7,.85-1.2,.19-.51,.29-1.07,.29-1.69s-.09-1.17-.28-1.66c-.19-.5-.47-.89-.85-1.18-.38-.29-.85-.44-1.41-.44s-1,.14-1.38,.41c-.37,.27-.65,.66-.84,1.15-.19,.49-.28,1.06-.28,1.71Zm8.52,4.36v-8.73h1.34v8.73h-1.34Zm.68-10.18c-.26,0-.49-.09-.68-.27-.18-.18-.28-.39-.28-.64s.09-.46,.28-.64c.19-.18,.41-.27,.68-.27s.49,.09,.67,.27c.19,.18,.28,.39,.28,.64s-.1,.46-.28,.64c-.19,.18-.41,.27-.67,.27Zm4.54-1.45v11.64h-1.34v-11.64h1.34Zm2.54,11.64v-8.73h1.34v8.73h-1.34Zm.68-10.18c-.26,0-.49-.09-.68-.27-.19-.18-.28-.39-.28-.64s.09-.46,.28-.64c.19-.18,.42-.27,.68-.27s.49,.09,.67,.27c.19,.18,.28,.39,.28,.64s-.1,.46-.28,.64c-.19,.18-.41,.27-.67,.27Zm6.99,1.45v1.14h-4.52v-1.14h4.52Zm-3.21-2.09h1.34v8.32c0,.38,.06,.66,.17,.85,.11,.19,.26,.31,.43,.38,.18,.06,.37,.09,.56,.09,.15,0,.27,0,.36-.02,.09-.02,.17-.03,.23-.05l.27,1.2c-.09,.03-.22,.07-.38,.1-.16,.04-.37,.06-.62,.06-.38,0-.75-.08-1.11-.24-.36-.16-.66-.41-.9-.74-.24-.33-.35-.75-.35-1.26v-8.68Zm6.16,14.09c-.23,0-.43-.02-.61-.06-.18-.03-.3-.07-.37-.1l.34-1.18c.33,.08,.61,.11,.86,.09,.25-.02,.47-.13,.66-.34,.2-.2,.38-.52,.54-.96l.25-.68-3.23-8.77h1.45l2.41,6.95h.09l2.41-6.95h1.45l-3.7,10c-.17,.45-.37,.82-.62,1.12-.25,.3-.53,.52-.86,.66-.32,.14-.68,.22-1.09,.22Zm14.66-18.66v19.14h-1.14v-19.14h1.14Zm7.49,5v-1.25h8.73v1.25h-3.66v10.39h-1.41v-10.39h-3.66Zm13.08,10.57c-.79,0-1.48-.19-2.07-.56-.59-.38-1.05-.9-1.39-1.57-.33-.67-.49-1.46-.49-2.36s.16-1.7,.49-2.38c.33-.68,.8-1.2,1.39-1.58,.6-.38,1.29-.56,2.07-.56s1.48,.19,2.07,.56c.6,.38,1.06,.9,1.39,1.58,.33,.68,.5,1.47,.5,2.38s-.17,1.69-.5,2.36c-.33,.67-.79,1.2-1.39,1.57-.59,.38-1.28,.56-2.07,.56Zm0-1.2c.6,0,1.09-.15,1.48-.46,.39-.31,.67-.71,.86-1.21,.19-.5,.28-1.04,.28-1.62s-.09-1.13-.28-1.63c-.19-.5-.47-.91-.86-1.22-.39-.31-.88-.47-1.48-.47s-1.09,.16-1.48,.47c-.39,.31-.67,.72-.86,1.22-.19,.5-.28,1.05-.28,1.63s.09,1.12,.28,1.62c.19,.5,.47,.9,.86,1.21,.39,.31,.88,.46,1.48,.46Zm11.58-2.55v-5.16h1.34v8.73h-1.34v-1.48h-.09c-.2,.44-.52,.82-.95,1.13-.43,.31-.98,.46-1.64,.46-.55,0-1.03-.12-1.45-.36-.42-.24-.76-.61-1-1.09-.24-.49-.36-1.1-.36-1.85v-5.55h1.34v5.45c0,.64,.18,1.14,.53,1.52,.36,.38,.82,.57,1.38,.57,.33,0,.67-.09,1.02-.26,.35-.17,.64-.43,.88-.78,.24-.35,.36-.8,.36-1.35Zm3.88,3.57v-8.73h1.29v1.32h.09c.16-.43,.45-.78,.86-1.05,.42-.27,.89-.4,1.41-.4,.1,0,.22,0,.37,0,.15,0,.26,0,.34,.02v1.36s-.15-.03-.31-.05c-.16-.03-.33-.04-.51-.04-.42,0-.8,.09-1.14,.27-.33,.17-.59,.42-.78,.73-.19,.31-.28,.66-.28,1.05v5.52h-1.34Z"/>
  <rect class="cls-3" x="270" y="39" width="94" height="34" rx="12" ry="12"/>
  <path class="cls-2" d="M284.77,61h-3.7v-10.91h3.77c1.08,0,2.01,.22,2.79,.66,.78,.43,1.38,1.06,1.8,1.87,.42,.81,.63,1.79,.63,2.92s-.21,2.11-.63,2.93c-.42,.82-1.02,1.44-1.82,1.88-.79,.44-1.74,.66-2.84,.66Zm-1.72-1.71h1.62c.76,0,1.39-.14,1.9-.42,.51-.28,.89-.7,1.15-1.25,.26-.56,.38-1.25,.38-2.09s-.13-1.53-.38-2.08c-.26-.55-.63-.97-1.14-1.24-.5-.28-1.11-.42-1.85-.42h-1.68v7.49Zm12.45,1.87c-.8,0-1.49-.18-2.08-.53-.59-.35-1.04-.84-1.36-1.48-.32-.63-.48-1.37-.48-2.22s.16-1.59,.48-2.22c.32-.64,.78-1.13,1.36-1.48,.59-.35,1.28-.53,2.08-.53s1.49,.18,2.08,.53c.59,.35,1.04,.85,1.36,1.48,.32,.64,.48,1.38,.48,2.22s-.16,1.58-.48,2.22c-.32,.63-.77,1.12-1.36,1.48-.59,.35-1.28,.53-2.08,.53Zm.01-1.54c.43,0,.8-.12,1.09-.36,.29-.24,.51-.56,.65-.97,.15-.4,.22-.86,.22-1.35s-.07-.95-.22-1.36c-.14-.41-.36-.73-.65-.97-.29-.24-.65-.36-1.09-.36s-.81,.12-1.11,.36c-.29,.24-.51,.57-.65,.97-.14,.4-.21,.86-.21,1.36s.07,.95,.21,1.35c.15,.4,.36,.73,.65,.97,.29,.24,.67,.36,1.11,.36Zm7.08,1.38l-2.31-8.18h1.97l1.44,5.75h.07l1.47-5.75h1.94l1.47,5.72h.08l1.42-5.72h1.97l-2.32,8.18h-2.01l-1.53-5.53h-.11l-1.53,5.53h-2.01Zm12.87-4.79v4.79h-1.93v-8.18h1.84v1.39h.1c.19-.46,.49-.82,.9-1.09,.42-.27,.93-.4,1.54-.4,.56,0,1.06,.12,1.48,.36,.42,.24,.75,.59,.98,1.05,.23,.46,.35,1.01,.35,1.67v5.21h-1.93v-4.91c0-.55-.14-.97-.43-1.28-.28-.31-.67-.46-1.17-.46-.34,0-.64,.07-.9,.22-.26,.15-.46,.36-.61,.63-.15,.28-.22,.61-.22,1.01Zm9.22-6.12v10.91h-1.93v-10.91h1.93Zm5.63,11.07c-.8,0-1.49-.18-2.08-.53-.58-.35-1.04-.84-1.36-1.48-.32-.63-.48-1.37-.48-2.22s.16-1.59,.48-2.22c.32-.64,.78-1.13,1.36-1.48,.59-.35,1.28-.53,2.08-.53s1.49,.18,2.08,.53c.59,.35,1.04,.85,1.36,1.48,.32,.64,.48,1.38,.48,2.22s-.16,1.58-.48,2.22c-.32,.63-.77,1.12-1.36,1.48-.59,.35-1.28,.53-2.08,.53Zm.01-1.54c.43,0,.79-.12,1.09-.36,.29-.24,.51-.56,.65-.97,.15-.4,.22-.86,.22-1.35s-.07-.95-.22-1.36c-.14-.41-.36-.73-.65-.97-.29-.24-.65-.36-1.09-.36s-.81,.12-1.11,.36c-.29,.24-.51,.57-.66,.97-.14,.4-.21,.86-.21,1.36s.07,.95,.21,1.35c.15,.4,.36,.73,.66,.97,.29,.24,.66,.36,1.11,.36Zm7.97,1.55c-.52,0-.98-.09-1.4-.28-.41-.19-.74-.47-.98-.83-.24-.37-.36-.82-.36-1.35,0-.46,.09-.84,.26-1.15,.17-.3,.4-.54,.7-.72,.3-.18,.63-.32,1-.41,.37-.1,.76-.17,1.16-.21,.48-.05,.87-.09,1.17-.13,.3-.04,.51-.11,.65-.19,.14-.09,.21-.23,.21-.41v-.03c0-.4-.12-.71-.36-.93-.24-.22-.58-.33-1.03-.33-.47,0-.85,.1-1.12,.31-.27,.21-.46,.45-.55,.73l-1.8-.26c.14-.5,.38-.91,.7-1.25,.33-.34,.73-.59,1.2-.76,.47-.17,.99-.26,1.57-.26,.4,0,.79,.05,1.18,.14,.39,.09,.75,.25,1.07,.46,.32,.21,.58,.5,.78,.86,.2,.36,.3,.82,.3,1.36v5.48h-1.85v-1.12h-.06c-.12,.23-.28,.44-.5,.64-.21,.2-.47,.35-.79,.47-.32,.12-.69,.18-1.11,.18Zm.5-1.42c.39,0,.72-.08,1.01-.23,.28-.16,.5-.36,.65-.62,.16-.26,.23-.53,.23-.84v-.96c-.06,.05-.16,.1-.31,.14-.14,.04-.3,.08-.48,.11s-.35,.06-.53,.09c-.17,.02-.32,.05-.45,.06-.29,.04-.54,.1-.77,.19-.23,.09-.41,.21-.54,.37-.13,.16-.2,.36-.2,.61,0,.36,.13,.62,.39,.8,.26,.18,.59,.27,.99,.27Zm8.87,1.4c-.64,0-1.22-.17-1.73-.5-.51-.33-.91-.81-1.2-1.44-.29-.63-.44-1.39-.44-2.29s.15-1.68,.45-2.3c.3-.63,.71-1.1,1.22-1.42,.51-.32,1.08-.48,1.71-.48,.48,0,.87,.08,1.18,.25,.31,.16,.55,.35,.73,.58,.18,.22,.32,.44,.42,.63h.08v-4.08h1.93v10.91h-1.9v-1.29h-.12c-.1,.2-.24,.41-.43,.63-.19,.22-.44,.41-.75,.56-.31,.16-.7,.23-1.17,.23Zm.54-1.58c.41,0,.76-.11,1.04-.33,.29-.22,.51-.53,.66-.93,.15-.4,.22-.86,.22-1.39s-.07-.99-.22-1.38c-.15-.39-.36-.69-.65-.91-.28-.22-.63-.32-1.05-.32s-.79,.11-1.08,.34c-.29,.22-.5,.53-.65,.93-.15,.39-.22,.85-.22,1.35s.07,.97,.22,1.37c.15,.4,.37,.71,.65,.94,.29,.23,.65,.34,1.07,.34Z"/>
</svg>