<svg width="386" height="123" viewBox="0 0 386 123" fill="none" xmlns="http://www.w3.org/2000/svg">
<g filter="url(#filter0_d_119_3054)">
<rect x="10" y="4" width="366" height="103" rx="12" fill="#F2F2F2"/>
<path d="M41.108 31.2898H38.983C38.9223 30.9413 38.8106 30.6326 38.6477 30.3636C38.4848 30.0909 38.2822 29.8598 38.0398 29.6705C37.7973 29.4811 37.5208 29.339 37.2102 29.2443C36.9034 29.1458 36.572 29.0966 36.2159 29.0966C35.5833 29.0966 35.0227 29.2557 34.5341 29.5739C34.0455 29.8883 33.6629 30.3504 33.3864 30.9602C33.1098 31.5663 32.9716 32.3068 32.9716 33.1818C32.9716 34.072 33.1098 34.822 33.3864 35.4318C33.6667 36.0379 34.0492 36.4962 34.5341 36.8068C35.0227 37.1136 35.5814 37.267 36.2102 37.267C36.5587 37.267 36.8845 37.2216 37.1875 37.1307C37.4943 37.036 37.7689 36.8977 38.0114 36.7159C38.2576 36.5341 38.464 36.3106 38.6307 36.0455C38.8011 35.7803 38.9186 35.4773 38.983 35.1364L41.108 35.1477C41.0284 35.7008 40.8561 36.2197 40.5909 36.7045C40.3295 37.1894 39.9867 37.6174 39.5625 37.9886C39.1383 38.3561 38.642 38.6439 38.0739 38.8523C37.5057 39.0568 36.875 39.1591 36.1818 39.1591C35.1591 39.1591 34.2462 38.9223 33.4432 38.4489C32.6402 37.9754 32.0076 37.2917 31.5455 36.3977C31.0833 35.5038 30.8523 34.4318 30.8523 33.1818C30.8523 31.928 31.0852 30.8561 31.5511 29.9659C32.017 29.072 32.6515 28.3883 33.4545 27.9148C34.2576 27.4413 35.1667 27.2045 36.1818 27.2045C36.8295 27.2045 37.4318 27.2955 37.9886 27.4773C38.5455 27.6591 39.0417 27.9261 39.4773 28.2784C39.9129 28.6269 40.2708 29.0549 40.5511 29.5625C40.8352 30.0663 41.0208 30.642 41.108 31.2898ZM46.8343 39.1705C45.982 39.1705 45.2434 38.983 44.6184 38.608C43.9934 38.233 43.5085 37.7083 43.1638 37.0341C42.8229 36.3598 42.6524 35.572 42.6524 34.6705C42.6524 33.7689 42.8229 32.9792 43.1638 32.3011C43.5085 31.6231 43.9934 31.0966 44.6184 30.7216C45.2434 30.3466 45.982 30.1591 46.8343 30.1591C47.6865 30.1591 48.4252 30.3466 49.0502 30.7216C49.6752 31.0966 50.1581 31.6231 50.499 32.3011C50.8437 32.9792 51.0161 33.7689 51.0161 34.6705C51.0161 35.572 50.8437 36.3598 50.499 37.0341C50.1581 37.7083 49.6752 38.233 49.0502 38.608C48.4252 38.983 47.6865 39.1705 46.8343 39.1705ZM46.8456 37.5227C47.3077 37.5227 47.6941 37.3958 48.0047 37.142C48.3153 36.8845 48.5464 36.5398 48.6979 36.108C48.8532 35.6761 48.9309 35.1951 48.9309 34.6648C48.9309 34.1307 48.8532 33.6477 48.6979 33.2159C48.5464 32.7803 48.3153 32.4337 48.0047 32.1761C47.6941 31.9186 47.3077 31.7898 46.8456 31.7898C46.3721 31.7898 45.9782 31.9186 45.6638 32.1761C45.3532 32.4337 45.1202 32.7803 44.9649 33.2159C44.8134 33.6477 44.7377 34.1307 44.7377 34.6648C44.7377 35.1951 44.8134 35.6761 44.9649 36.108C45.1202 36.5398 45.3532 36.8845 45.6638 37.142C45.9782 37.3958 46.3721 37.5227 46.8456 37.5227ZM58.4043 35.3295V30.2727H60.4611V39H58.4668V37.4489H58.3759C58.1789 37.9375 57.8551 38.3371 57.4043 38.6477C56.9573 38.9583 56.4062 39.1136 55.7509 39.1136C55.1789 39.1136 54.6733 38.9867 54.2339 38.733C53.7983 38.4754 53.4573 38.1023 53.2111 37.6136C52.9649 37.1212 52.8418 36.5265 52.8418 35.8295V30.2727H54.8986V35.5114C54.8986 36.0644 55.0502 36.5038 55.3532 36.8295C55.6562 37.1553 56.0539 37.3182 56.5464 37.3182C56.8494 37.3182 57.143 37.2443 57.427 37.0966C57.7111 36.9489 57.9441 36.7292 58.1259 36.4375C58.3115 36.142 58.4043 35.7727 58.4043 35.3295ZM62.6562 42.2727V30.2727H64.6789V31.7159H64.7982C64.9043 31.5038 65.0539 31.2784 65.2471 31.0398C65.4403 30.7973 65.7016 30.5909 66.0312 30.4205C66.3607 30.2462 66.7812 30.1591 67.2926 30.1591C67.9668 30.1591 68.5748 30.3314 69.1164 30.6761C69.6619 31.017 70.0937 31.5227 70.4119 32.1932C70.7338 32.8598 70.8948 33.678 70.8948 34.6477C70.8948 35.6061 70.7376 36.4205 70.4232 37.0909C70.1088 37.7614 69.6808 38.2727 69.1391 38.625C68.5975 38.9773 67.9838 39.1534 67.2982 39.1534C66.7982 39.1534 66.3835 39.0701 66.0539 38.9034C65.7244 38.7367 65.4592 38.536 65.2585 38.3011C65.0615 38.0625 64.9081 37.8371 64.7982 37.625H64.713V42.2727H62.6562ZM64.6732 34.6364C64.6732 35.2008 64.7528 35.6951 64.9119 36.1193C65.0748 36.5436 65.3077 36.875 65.6107 37.1136C65.9176 37.3485 66.2888 37.4659 66.7244 37.4659C67.1789 37.4659 67.5596 37.3447 67.8664 37.1023C68.1732 36.8561 68.4043 36.5208 68.5596 36.0966C68.7187 35.6686 68.7982 35.1818 68.7982 34.6364C68.7982 34.0947 68.7206 33.6136 68.5653 33.1932C68.41 32.7727 68.1789 32.4432 67.8721 32.2045C67.5653 31.9659 67.1827 31.8466 66.7244 31.8466C66.285 31.8466 65.9119 31.9621 65.6051 32.1932C65.2982 32.4242 65.0653 32.7481 64.9062 33.1648C64.7509 33.5814 64.6732 34.072 64.6732 34.6364ZM76.543 39.1705C75.6907 39.1705 74.9521 38.983 74.3271 38.608C73.7021 38.233 73.2173 37.7083 72.8726 37.0341C72.5316 36.3598 72.3612 35.572 72.3612 34.6705C72.3612 33.7689 72.5316 32.9792 72.8726 32.3011C73.2173 31.6231 73.7021 31.0966 74.3271 30.7216C74.9521 30.3466 75.6907 30.1591 76.543 30.1591C77.3953 30.1591 78.1339 30.3466 78.7589 30.7216C79.3839 31.0966 79.8669 31.6231 80.2078 32.3011C80.5525 32.9792 80.7248 33.7689 80.7248 34.6705C80.7248 35.572 80.5525 36.3598 80.2078 37.0341C79.8669 37.7083 79.3839 38.233 78.7589 38.608C78.1339 38.983 77.3953 39.1705 76.543 39.1705ZM76.5544 37.5227C77.0165 37.5227 77.4029 37.3958 77.7135 37.142C78.0241 36.8845 78.2551 36.5398 78.4066 36.108C78.562 35.6761 78.6396 35.1951 78.6396 34.6648C78.6396 34.1307 78.562 33.6477 78.4066 33.2159C78.2551 32.7803 78.0241 32.4337 77.7135 32.1761C77.4029 31.9186 77.0165 31.7898 76.5544 31.7898C76.0809 31.7898 75.687 31.9186 75.3726 32.1761C75.062 32.4337 74.829 32.7803 74.6737 33.2159C74.5222 33.6477 74.4464 34.1307 74.4464 34.6648C74.4464 35.1951 74.5222 35.6761 74.6737 36.108C74.829 36.5398 75.062 36.8845 75.3726 37.142C75.687 37.3958 76.0809 37.5227 76.5544 37.5227ZM84.6074 33.8864V39H82.5506V30.2727H84.5165V31.7557H84.6188C84.8195 31.267 85.1396 30.8788 85.579 30.5909C86.0222 30.303 86.5695 30.1591 87.221 30.1591C87.8233 30.1591 88.3479 30.2879 88.7949 30.5455C89.2456 30.803 89.5941 31.1761 89.8403 31.6648C90.0903 32.1534 90.2134 32.7462 90.2097 33.4432V39H88.1528V33.7614C88.1528 33.178 88.0013 32.7216 87.6983 32.392C87.3991 32.0625 86.9843 31.8977 86.454 31.8977C86.0941 31.8977 85.7741 31.9773 85.4938 32.1364C85.2172 32.2917 84.9994 32.517 84.8403 32.8125C84.685 33.108 84.6074 33.4659 84.6074 33.8864ZM99.2783 32.5795L97.4033 32.7841C97.3503 32.5947 97.2575 32.4167 97.1249 32.25C96.9961 32.0833 96.8219 31.9489 96.6022 31.8466C96.3825 31.7443 96.1135 31.6932 95.7953 31.6932C95.3673 31.6932 95.0075 31.786 94.7158 31.9716C94.4279 32.1572 94.2859 32.3977 94.2897 32.6932C94.2859 32.947 94.3787 33.1534 94.5681 33.3125C94.7612 33.4716 95.0794 33.6023 95.5226 33.7045L97.0112 34.0227C97.837 34.2008 98.4506 34.483 98.8522 34.8693C99.2575 35.2557 99.462 35.7614 99.4658 36.3864C99.462 36.9356 99.301 37.4205 98.9828 37.8409C98.6684 38.2576 98.2309 38.5833 97.6703 38.8182C97.1097 39.053 96.4658 39.1705 95.7385 39.1705C94.6703 39.1705 93.8105 38.947 93.159 38.5C92.5075 38.0492 92.1192 37.4223 91.9942 36.6193L93.9999 36.4261C94.0908 36.8201 94.284 37.1174 94.5794 37.3182C94.8749 37.5189 95.2594 37.6193 95.7328 37.6193C96.2215 37.6193 96.6135 37.5189 96.909 37.3182C97.2082 37.1174 97.3578 36.8693 97.3578 36.5739C97.3578 36.3239 97.2612 36.1174 97.0681 35.9545C96.8787 35.7917 96.5832 35.6667 96.1817 35.5795L94.6931 35.267C93.8559 35.0928 93.2366 34.7992 92.8351 34.3864C92.4336 33.9697 92.2347 33.4432 92.2385 32.8068C92.2347 32.2689 92.3806 31.803 92.676 31.4091C92.9753 31.0114 93.39 30.7045 93.9203 30.4886C94.4544 30.2689 95.07 30.1591 95.7669 30.1591C96.7897 30.1591 97.5946 30.3769 98.1817 30.8125C98.7726 31.2481 99.1381 31.8371 99.2783 32.5795ZM109.711 30.2727V31.8636H104.552V30.2727H109.711ZM105.842 39V29.4489C105.842 28.8617 105.963 28.3731 106.205 27.983C106.452 27.5928 106.781 27.3011 107.194 27.108C107.607 26.9148 108.065 26.8182 108.569 26.8182C108.925 26.8182 109.241 26.8466 109.518 26.9034C109.794 26.9602 109.999 27.0114 110.131 27.0568L109.722 28.6477C109.635 28.6212 109.525 28.5947 109.393 28.5682C109.26 28.5379 109.113 28.5227 108.95 28.5227C108.567 28.5227 108.296 28.6155 108.137 28.8011C107.982 28.983 107.904 29.2443 107.904 29.5852V39H105.842ZM114.881 39.1705C114.028 39.1705 113.29 38.983 112.665 38.608C112.04 38.233 111.555 37.7083 111.21 37.0341C110.869 36.3598 110.699 35.572 110.699 34.6705C110.699 33.7689 110.869 32.9792 111.21 32.3011C111.555 31.6231 112.04 31.0966 112.665 30.7216C113.29 30.3466 114.028 30.1591 114.881 30.1591C115.733 30.1591 116.471 30.3466 117.096 30.7216C117.721 31.0966 118.204 31.6231 118.545 32.3011C118.89 32.9792 119.062 33.7689 119.062 34.6705C119.062 35.572 118.89 36.3598 118.545 37.0341C118.204 37.7083 117.721 38.233 117.096 38.608C116.471 38.983 115.733 39.1705 114.881 39.1705ZM114.892 37.5227C115.354 37.5227 115.74 37.3958 116.051 37.142C116.362 36.8845 116.593 36.5398 116.744 36.108C116.899 35.6761 116.977 35.1951 116.977 34.6648C116.977 34.1307 116.899 33.6477 116.744 33.2159C116.593 32.7803 116.362 32.4337 116.051 32.1761C115.74 31.9186 115.354 31.7898 114.892 31.7898C114.418 31.7898 114.024 31.9186 113.71 32.1761C113.399 32.4337 113.166 32.7803 113.011 33.2159C112.86 33.6477 112.784 34.1307 112.784 34.6648C112.784 35.1951 112.86 35.6761 113.011 36.108C113.166 36.5398 113.399 36.8845 113.71 37.142C114.024 37.3958 114.418 37.5227 114.892 37.5227ZM120.888 39V30.2727H122.882V31.7273H122.973C123.132 31.2235 123.405 30.8352 123.791 30.5625C124.182 30.286 124.627 30.1477 125.127 30.1477C125.24 30.1477 125.367 30.1534 125.507 30.1648C125.651 30.1723 125.771 30.1856 125.865 30.2045V32.0966C125.778 32.0663 125.64 32.0398 125.451 32.017C125.265 31.9905 125.085 31.9773 124.911 31.9773C124.536 31.9773 124.199 32.0587 123.899 32.2216C123.604 32.3807 123.371 32.6023 123.201 32.8864C123.03 33.1705 122.945 33.4981 122.945 33.8693V39H120.888ZM137.775 30.5625C137.722 30.0663 137.499 29.6799 137.105 29.4034C136.715 29.1269 136.207 28.9886 135.582 28.9886C135.143 28.9886 134.766 29.0549 134.451 29.1875C134.137 29.3201 133.897 29.5 133.73 29.7273C133.563 29.9545 133.478 30.214 133.474 30.5057C133.474 30.7481 133.529 30.9583 133.639 31.1364C133.753 31.3144 133.906 31.4659 134.099 31.5909C134.292 31.7121 134.506 31.8144 134.741 31.8977C134.976 31.9811 135.213 32.0511 135.451 32.108L136.542 32.3807C136.982 32.483 137.404 32.6212 137.809 32.7955C138.219 32.9697 138.584 33.1894 138.906 33.4545C139.232 33.7197 139.489 34.0398 139.679 34.4148C139.868 34.7898 139.963 35.2292 139.963 35.733C139.963 36.4148 139.789 37.0152 139.44 37.5341C139.092 38.0492 138.588 38.4527 137.929 38.7443C137.273 39.0322 136.48 39.1761 135.548 39.1761C134.643 39.1761 133.857 39.036 133.19 38.7557C132.527 38.4754 132.008 38.0663 131.633 37.5284C131.262 36.9905 131.061 36.3352 131.031 35.5625H133.105C133.135 35.9678 133.26 36.3049 133.48 36.5739C133.7 36.8428 133.986 37.0436 134.338 37.1761C134.694 37.3087 135.092 37.375 135.531 37.375C135.989 37.375 136.391 37.3068 136.736 37.1705C137.084 37.0303 137.357 36.8371 137.554 36.5909C137.751 36.3409 137.851 36.0492 137.855 35.7159C137.851 35.4129 137.762 35.1629 137.588 34.9659C137.414 34.7652 137.169 34.5985 136.855 34.4659C136.544 34.3295 136.181 34.2083 135.764 34.1023L134.44 33.7614C133.482 33.5152 132.724 33.142 132.167 32.642C131.614 32.1383 131.338 31.4697 131.338 30.6364C131.338 29.9508 131.523 29.3504 131.895 28.8352C132.27 28.3201 132.779 27.9205 133.423 27.6364C134.067 27.3485 134.796 27.2045 135.611 27.2045C136.436 27.2045 137.16 27.3485 137.781 27.6364C138.406 27.9205 138.897 28.3163 139.253 28.8239C139.609 29.3277 139.792 29.9072 139.804 30.5625H137.775ZM145.695 39.1705C144.82 39.1705 144.064 38.9886 143.428 38.625C142.795 38.2576 142.308 37.7386 141.968 37.0682C141.627 36.3939 141.456 35.6004 141.456 34.6875C141.456 33.7898 141.627 33.0019 141.968 32.3239C142.312 31.642 142.793 31.1117 143.411 30.733C144.028 30.3504 144.754 30.1591 145.587 30.1591C146.125 30.1591 146.632 30.2462 147.11 30.4205C147.591 30.5909 148.015 30.8561 148.382 31.2159C148.754 31.5758 149.045 32.0341 149.257 32.5909C149.469 33.1439 149.576 33.803 149.576 34.5682V35.1989H142.422V33.8125H147.604C147.6 33.4186 147.515 33.0682 147.348 32.7614C147.182 32.4508 146.949 32.2064 146.649 32.0284C146.354 31.8504 146.009 31.7614 145.615 31.7614C145.195 31.7614 144.826 31.8636 144.507 32.0682C144.189 32.2689 143.941 32.5341 143.763 32.8636C143.589 33.1894 143.5 33.5473 143.496 33.9375V35.1477C143.496 35.6553 143.589 36.0909 143.774 36.4545C143.96 36.8144 144.219 37.0909 144.553 37.2841C144.886 37.4735 145.276 37.5682 145.723 37.5682C146.022 37.5682 146.293 37.5265 146.536 37.4432C146.778 37.3561 146.988 37.2292 147.166 37.0625C147.344 36.8958 147.479 36.6894 147.57 36.4432L149.49 36.6591C149.369 37.1667 149.138 37.6098 148.797 37.9886C148.46 38.3636 148.028 38.6553 147.502 38.8636C146.975 39.0682 146.373 39.1705 145.695 39.1705ZM151.396 42.2727V30.2727H153.418V31.7159H153.538C153.644 31.5038 153.793 31.2784 153.986 31.0398C154.18 30.7973 154.441 30.5909 154.771 30.4205C155.1 30.2462 155.521 30.1591 156.032 30.1591C156.706 30.1591 157.314 30.3314 157.856 30.6761C158.401 31.017 158.833 31.5227 159.151 32.1932C159.473 32.8598 159.634 33.678 159.634 34.6477C159.634 35.6061 159.477 36.4205 159.163 37.0909C158.848 37.7614 158.42 38.2727 157.879 38.625C157.337 38.9773 156.723 39.1534 156.038 39.1534C155.538 39.1534 155.123 39.0701 154.793 38.9034C154.464 38.7367 154.199 38.536 153.998 38.3011C153.801 38.0625 153.647 37.8371 153.538 37.625H153.452V42.2727H151.396ZM153.413 34.6364C153.413 35.2008 153.492 35.6951 153.651 36.1193C153.814 36.5436 154.047 36.875 154.35 37.1136C154.657 37.3485 155.028 37.4659 155.464 37.4659C155.918 37.4659 156.299 37.3447 156.606 37.1023C156.913 36.8561 157.144 36.5208 157.299 36.0966C157.458 35.6686 157.538 35.1818 157.538 34.6364C157.538 34.0947 157.46 33.6136 157.305 33.1932C157.149 32.7727 156.918 32.4432 156.611 32.2045C156.305 31.9659 155.922 31.8466 155.464 31.8466C155.024 31.8466 154.651 31.9621 154.344 32.1932C154.038 32.4242 153.805 32.7481 153.646 33.1648C153.49 33.5814 153.413 34.072 153.413 34.6364ZM165.834 30.2727V31.8636H160.816V30.2727H165.834ZM162.055 28.1818H164.112V36.375C164.112 36.6515 164.154 36.8636 164.237 37.0114C164.324 37.1553 164.438 37.2538 164.578 37.3068C164.718 37.3598 164.873 37.3864 165.044 37.3864C165.173 37.3864 165.29 37.3769 165.396 37.358C165.506 37.339 165.589 37.322 165.646 37.3068L165.993 38.9148C165.883 38.9527 165.726 38.9943 165.521 39.0398C165.32 39.0852 165.074 39.1117 164.782 39.1193C164.267 39.1345 163.803 39.0568 163.39 38.8864C162.977 38.7121 162.65 38.4432 162.407 38.0795C162.169 37.7159 162.051 37.2614 162.055 36.7159V28.1818ZM171.404 39.1705C170.529 39.1705 169.773 38.9886 169.137 38.625C168.504 38.2576 168.017 37.7386 167.676 37.0682C167.335 36.3939 167.165 35.6004 167.165 34.6875C167.165 33.7898 167.335 33.0019 167.676 32.3239C168.021 31.642 168.502 31.1117 169.119 30.733C169.737 30.3504 170.462 30.1591 171.296 30.1591C171.834 30.1591 172.341 30.2462 172.818 30.4205C173.299 30.5909 173.724 30.8561 174.091 31.2159C174.462 31.5758 174.754 32.0341 174.966 32.5909C175.178 33.1439 175.284 33.803 175.284 34.5682V35.1989H168.131V33.8125H173.313C173.309 33.4186 173.224 33.0682 173.057 32.7614C172.89 32.4508 172.657 32.2064 172.358 32.0284C172.063 31.8504 171.718 31.7614 171.324 31.7614C170.904 31.7614 170.534 31.8636 170.216 32.0682C169.898 32.2689 169.65 32.5341 169.472 32.8636C169.298 33.1894 169.209 33.5473 169.205 33.9375V35.1477C169.205 35.6553 169.298 36.0909 169.483 36.4545C169.669 36.8144 169.928 37.0909 170.262 37.2841C170.595 37.4735 170.985 37.5682 171.432 37.5682C171.731 37.5682 172.002 37.5265 172.244 37.4432C172.487 37.3561 172.697 37.2292 172.875 37.0625C173.053 36.8958 173.188 36.6894 173.279 36.4432L175.199 36.6591C175.078 37.1667 174.847 37.6098 174.506 37.9886C174.169 38.3636 173.737 38.6553 173.21 38.8636C172.684 39.0682 172.082 39.1705 171.404 39.1705ZM177.104 39V30.2727H179.07V31.7557H179.173C179.354 31.2557 179.655 30.8655 180.076 30.5852C180.496 30.3011 180.998 30.1591 181.582 30.1591C182.173 30.1591 182.671 30.303 183.076 30.5909C183.485 30.875 183.773 31.2633 183.94 31.7557H184.03C184.224 31.2708 184.549 30.8845 185.008 30.5966C185.47 30.3049 186.017 30.1591 186.65 30.1591C187.453 30.1591 188.108 30.4129 188.616 30.9205C189.123 31.428 189.377 32.1686 189.377 33.142V39H187.315V33.4602C187.315 32.9186 187.171 32.5227 186.883 32.2727C186.595 32.0189 186.243 31.892 185.826 31.892C185.33 31.892 184.941 32.0473 184.661 32.358C184.385 32.6648 184.246 33.0644 184.246 33.5568V39H182.229V33.375C182.229 32.9242 182.093 32.5644 181.82 32.2955C181.551 32.0265 181.199 31.892 180.763 31.892C180.468 31.892 180.199 31.9678 179.957 32.1193C179.714 32.267 179.521 32.4773 179.377 32.75C179.233 33.0189 179.161 33.3333 179.161 33.6932V39H177.104ZM191.635 39V27.3636H193.691V31.7159H193.777C193.883 31.5038 194.032 31.2784 194.226 31.0398C194.419 30.7973 194.68 30.5909 195.01 30.4205C195.339 30.2462 195.76 30.1591 196.271 30.1591C196.945 30.1591 197.553 30.3314 198.095 30.6761C198.64 31.017 199.072 31.5227 199.39 32.1932C199.712 32.8598 199.873 33.678 199.873 34.6477C199.873 35.6061 199.716 36.4205 199.402 37.0909C199.087 37.7614 198.659 38.2727 198.118 38.625C197.576 38.9773 196.962 39.1534 196.277 39.1534C195.777 39.1534 195.362 39.0701 195.032 38.9034C194.703 38.7367 194.438 38.536 194.237 38.3011C194.04 38.0625 193.886 37.8371 193.777 37.625H193.657V39H191.635ZM193.652 34.6364C193.652 35.2008 193.731 35.6951 193.89 36.1193C194.053 36.5436 194.286 36.875 194.589 37.1136C194.896 37.3485 195.267 37.4659 195.703 37.4659C196.157 37.4659 196.538 37.3447 196.845 37.1023C197.152 36.8561 197.383 36.5208 197.538 36.0966C197.697 35.6686 197.777 35.1818 197.777 34.6364C197.777 34.0947 197.699 33.6136 197.544 33.1932C197.388 32.7727 197.157 32.4432 196.851 32.2045C196.544 31.9659 196.161 31.8466 195.703 31.8466C195.263 31.8466 194.89 31.9621 194.583 32.1932C194.277 32.4242 194.044 32.7481 193.885 33.1648C193.729 33.5814 193.652 34.072 193.652 34.6364ZM205.565 39.1705C204.69 39.1705 203.935 38.9886 203.298 38.625C202.666 38.2576 202.179 37.7386 201.838 37.0682C201.497 36.3939 201.327 35.6004 201.327 34.6875C201.327 33.7898 201.497 33.0019 201.838 32.3239C202.183 31.642 202.664 31.1117 203.281 30.733C203.899 30.3504 204.624 30.1591 205.458 30.1591C205.995 30.1591 206.503 30.2462 206.98 30.4205C207.461 30.5909 207.886 30.8561 208.253 31.2159C208.624 31.5758 208.916 32.0341 209.128 32.5909C209.34 33.1439 209.446 33.803 209.446 34.5682V35.1989H202.293V33.8125H207.475C207.471 33.4186 207.386 33.0682 207.219 32.7614C207.052 32.4508 206.819 32.2064 206.52 32.0284C206.225 31.8504 205.88 31.7614 205.486 31.7614C205.065 31.7614 204.696 31.8636 204.378 32.0682C204.06 32.2689 203.812 32.5341 203.634 32.8636C203.459 33.1894 203.37 33.5473 203.367 33.9375V35.1477C203.367 35.6553 203.459 36.0909 203.645 36.4545C203.831 36.8144 204.09 37.0909 204.423 37.2841C204.757 37.4735 205.147 37.5682 205.594 37.5682C205.893 37.5682 206.164 37.5265 206.406 37.4432C206.649 37.3561 206.859 37.2292 207.037 37.0625C207.215 36.8958 207.35 36.6894 207.44 36.4432L209.361 36.6591C209.24 37.1667 209.009 37.6098 208.668 37.9886C208.331 38.3636 207.899 38.6553 207.372 38.8636C206.846 39.0682 206.243 39.1705 205.565 39.1705ZM211.266 39V30.2727H213.261V31.7273H213.351C213.511 31.2235 213.783 30.8352 214.17 30.5625C214.56 30.286 215.005 30.1477 215.505 30.1477C215.618 30.1477 215.745 30.1534 215.886 30.1648C216.029 30.1723 216.149 30.1856 216.243 30.2045V32.0966C216.156 32.0663 216.018 32.0398 215.829 32.017C215.643 31.9905 215.463 31.9773 215.289 31.9773C214.914 31.9773 214.577 32.0587 214.278 32.2216C213.982 32.3807 213.749 32.6023 213.579 32.8864C213.408 33.1705 213.323 33.4981 213.323 33.8693V39H211.266ZM219.105 37.4091L219.031 38.0341C218.978 38.5114 218.883 38.9962 218.747 39.4886C218.614 39.9848 218.474 40.4413 218.326 40.858C218.179 41.2746 218.059 41.6023 217.968 41.8409H216.582C216.635 41.6098 216.707 41.2955 216.798 40.8977C216.893 40.5 216.983 40.053 217.071 39.5568C217.158 39.0606 217.216 38.5568 217.247 38.0455L217.287 37.4091H219.105ZM225.155 39V37.4773L229.195 33.517C229.581 33.1269 229.903 32.7803 230.161 32.4773C230.419 32.1742 230.612 31.8807 230.741 31.5966C230.869 31.3125 230.934 31.0095 230.934 30.6875C230.934 30.3201 230.85 30.0057 230.684 29.7443C230.517 29.4792 230.288 29.2746 229.996 29.1307C229.705 28.9867 229.373 28.9148 229.002 28.9148C228.619 28.9148 228.284 28.9943 227.996 29.1534C227.708 29.3087 227.485 29.5303 227.326 29.8182C227.17 30.1061 227.093 30.4489 227.093 30.8466H225.087C225.087 30.108 225.256 29.4659 225.593 28.9205C225.93 28.375 226.394 27.9527 226.985 27.6534C227.58 27.3542 228.261 27.2045 229.03 27.2045C229.811 27.2045 230.496 27.3504 231.087 27.642C231.678 27.9337 232.136 28.3333 232.462 28.8409C232.792 29.3485 232.956 29.928 232.956 30.5795C232.956 31.0152 232.873 31.4432 232.706 31.8636C232.54 32.2841 232.246 32.75 231.826 33.2614C231.409 33.7727 230.824 34.392 230.07 35.1193L228.064 37.1591V37.2386H233.133V39H225.155ZM239.474 39.2216C238.538 39.2216 237.735 38.9848 237.065 38.5114C236.398 38.0341 235.885 37.3466 235.525 36.4489C235.169 35.5473 234.991 34.4621 234.991 33.1932C234.995 31.9242 235.175 30.8447 235.531 29.9545C235.891 29.0606 236.404 28.3788 237.071 27.9091C237.741 27.4394 238.542 27.2045 239.474 27.2045C240.406 27.2045 241.207 27.4394 241.877 27.9091C242.548 28.3788 243.061 29.0606 243.417 29.9545C243.777 30.8485 243.957 31.928 243.957 33.1932C243.957 34.4659 243.777 35.553 243.417 36.4545C243.061 37.3523 242.548 38.0379 241.877 38.5114C241.211 38.9848 240.41 39.2216 239.474 39.2216ZM239.474 37.4432C240.201 37.4432 240.775 37.0852 241.196 36.3693C241.62 35.6496 241.832 34.5909 241.832 33.1932C241.832 32.2689 241.735 31.4924 241.542 30.8636C241.349 30.2348 241.076 29.7614 240.724 29.4432C240.372 29.1212 239.955 28.9602 239.474 28.9602C238.75 28.9602 238.179 29.3201 237.758 30.0398C237.338 30.7557 237.125 31.8068 237.122 33.1932C237.118 34.1212 237.211 34.9015 237.4 35.5341C237.593 36.1667 237.866 36.6439 238.218 36.9659C238.571 37.2841 238.989 37.4432 239.474 37.4432ZM245.925 39V37.4773L249.964 33.517C250.351 33.1269 250.673 32.7803 250.93 32.4773C251.188 32.1742 251.381 31.8807 251.51 31.5966C251.639 31.3125 251.703 31.0095 251.703 30.6875C251.703 30.3201 251.62 30.0057 251.453 29.7443C251.286 29.4792 251.057 29.2746 250.766 29.1307C250.474 28.9867 250.143 28.9148 249.771 28.9148C249.389 28.9148 249.054 28.9943 248.766 29.1534C248.478 29.3087 248.254 29.5303 248.095 29.8182C247.94 30.1061 247.862 30.4489 247.862 30.8466H245.857C245.857 30.108 246.025 29.4659 246.362 28.9205C246.699 28.375 247.163 27.9527 247.754 27.6534C248.349 27.3542 249.031 27.2045 249.8 27.2045C250.58 27.2045 251.266 27.3504 251.857 27.642C252.447 27.9337 252.906 28.3333 253.232 28.8409C253.561 29.3485 253.726 29.928 253.726 30.5795C253.726 31.0152 253.643 31.4432 253.476 31.8636C253.309 32.2841 253.016 32.75 252.595 33.2614C252.179 33.7727 251.593 34.392 250.839 35.1193L248.834 37.1591V37.2386H253.902V39H245.925ZM255.942 39V37.4773L259.982 33.517C260.368 33.1269 260.69 32.7803 260.948 32.4773C261.205 32.1742 261.399 31.8807 261.527 31.5966C261.656 31.3125 261.721 31.0095 261.721 30.6875C261.721 30.3201 261.637 30.0057 261.471 29.7443C261.304 29.4792 261.075 29.2746 260.783 29.1307C260.491 28.9867 260.16 28.9148 259.789 28.9148C259.406 28.9148 259.071 28.9943 258.783 29.1534C258.495 29.3087 258.272 29.5303 258.113 29.8182C257.957 30.1061 257.88 30.4489 257.88 30.8466H255.874C255.874 30.108 256.043 29.4659 256.38 28.9205C256.717 28.375 257.181 27.9527 257.772 27.6534C258.366 27.3542 259.048 27.2045 259.817 27.2045C260.598 27.2045 261.283 27.3504 261.874 27.642C262.465 27.9337 262.923 28.3333 263.249 28.8409C263.579 29.3485 263.743 29.928 263.743 30.5795C263.743 31.0152 263.66 31.4432 263.493 31.8636C263.327 32.2841 263.033 32.75 262.613 33.2614C262.196 33.7727 261.611 34.392 260.857 35.1193L258.851 37.1591V37.2386H263.919V39H255.942Z" fill="black"/>
<path d="M31.4091 64V52.3636H32.8182V57.5455H39.0227V52.3636H40.4318V64H39.0227V58.7955H32.8182V64H31.4091ZM46.6965 64.1818C45.9086 64.1818 45.2173 63.9943 44.6226 63.6193C44.0317 63.2443 43.5696 62.7197 43.2362 62.0455C42.9067 61.3712 42.7419 60.5833 42.7419 59.6818C42.7419 58.7727 42.9067 57.9792 43.2362 57.3011C43.5696 56.6231 44.0317 56.0966 44.6226 55.7216C45.2173 55.3466 45.9086 55.1591 46.6965 55.1591C47.4844 55.1591 48.1738 55.3466 48.7647 55.7216C49.3594 56.0966 49.8215 56.6231 50.151 57.3011C50.4844 57.9792 50.651 58.7727 50.651 59.6818C50.651 60.5833 50.4844 61.3712 50.151 62.0455C49.8215 62.7197 49.3594 63.2443 48.7647 63.6193C48.1738 63.9943 47.4844 64.1818 46.6965 64.1818ZM46.6965 62.9773C47.295 62.9773 47.7874 62.8239 48.1737 62.517C48.5601 62.2102 48.8461 61.8068 49.0317 61.3068C49.2173 60.8068 49.3101 60.2652 49.3101 59.6818C49.3101 59.0985 49.2173 58.5549 49.0317 58.0511C48.8461 57.5473 48.5601 57.1402 48.1737 56.8295C47.7874 56.5189 47.295 56.3636 46.6965 56.3636C46.098 56.3636 45.6056 56.5189 45.2192 56.8295C44.8328 57.1402 44.5469 57.5473 44.3612 58.0511C44.1756 58.5549 44.0828 59.0985 44.0828 59.6818C44.0828 60.2652 44.1756 60.8068 44.3612 61.3068C44.5469 61.8068 44.8328 62.2102 45.2192 62.517C45.6056 62.8239 46.098 62.9773 46.6965 62.9773ZM58.2779 60.4318V55.2727H59.6188V64H58.2779V62.5227H58.187C57.9824 62.9659 57.6643 63.3428 57.2324 63.6534C56.8006 63.9602 56.2552 64.1136 55.5961 64.1136C55.0506 64.1136 54.5658 63.9943 54.1415 63.7557C53.7173 63.5133 53.384 63.1496 53.1415 62.6648C52.8991 62.1761 52.7779 61.5606 52.7779 60.8182V55.2727H54.1188V60.7273C54.1188 61.3636 54.2968 61.8712 54.6529 62.25C55.0127 62.6288 55.4711 62.8182 56.0279 62.8182C56.3612 62.8182 56.7002 62.733 57.0449 62.5625C57.3934 62.392 57.6851 62.1307 57.9199 61.7784C58.1586 61.4261 58.2779 60.9773 58.2779 60.4318ZM68.3366 57.2273L67.132 57.5682C67.0563 57.3674 66.9445 57.1723 66.7968 56.983C66.6529 56.7898 66.4559 56.6307 66.2059 56.5057C65.9559 56.3807 65.6358 56.3182 65.2457 56.3182C64.7116 56.3182 64.2665 56.4413 63.9105 56.6875C63.5582 56.9299 63.382 57.2386 63.382 57.6136C63.382 57.947 63.5033 58.2102 63.7457 58.4034C63.9881 58.5966 64.3669 58.7576 64.882 58.8864L66.1775 59.2045C66.9578 59.3939 67.5392 59.6837 67.9218 60.0739C68.3044 60.4602 68.4957 60.9583 68.4957 61.5682C68.4957 62.0682 68.3517 62.5152 68.0639 62.9091C67.7798 63.303 67.382 63.6136 66.8707 63.8409C66.3593 64.0682 65.7646 64.1818 65.0866 64.1818C64.1964 64.1818 63.4597 63.9886 62.8764 63.6023C62.293 63.2159 61.9237 62.6515 61.7684 61.9091L63.0411 61.5909C63.1623 62.0606 63.3915 62.4129 63.7286 62.6477C64.0695 62.8826 64.5146 63 65.0639 63C65.6889 63 66.1851 62.8674 66.5525 62.6023C66.9237 62.3333 67.1093 62.0114 67.1093 61.6364C67.1093 61.3333 67.0033 61.0795 66.7911 60.875C66.579 60.6667 66.2533 60.5114 65.8139 60.4091L64.3593 60.0682C63.5601 59.8788 62.973 59.5852 62.598 59.1875C62.2267 58.786 62.0411 58.2841 62.0411 57.6818C62.0411 57.1894 62.1794 56.7538 62.4559 56.375C62.7362 55.9962 63.1169 55.6989 63.598 55.483C64.0828 55.267 64.632 55.1591 65.2457 55.1591C66.1093 55.1591 66.7873 55.3485 67.2798 55.7273C67.776 56.1061 68.1283 56.6061 68.3366 57.2273ZM70.5941 64V55.2727H71.9351V64H70.5941ZM71.276 53.8182C71.0146 53.8182 70.7892 53.7292 70.5998 53.5511C70.4142 53.3731 70.3214 53.1591 70.3214 52.9091C70.3214 52.6591 70.4142 52.4451 70.5998 52.267C70.7892 52.089 71.0146 52 71.276 52C71.5373 52 71.7608 52.089 71.9464 52.267C72.1358 52.4451 72.2305 52.6591 72.2305 52.9091C72.2305 53.1591 72.1358 53.3731 71.9464 53.5511C71.7608 53.7292 71.5373 53.8182 71.276 53.8182ZM75.8119 58.75V64H74.471V55.2727H75.7665V56.6364H75.8801C76.0847 56.1932 76.3953 55.8371 76.8119 55.5682C77.2286 55.2955 77.7665 55.1591 78.4256 55.1591C79.0165 55.1591 79.5335 55.2803 79.9767 55.5227C80.4199 55.7614 80.7646 56.125 81.0108 56.6136C81.257 57.0985 81.3801 57.7121 81.3801 58.4545V64H80.0392V58.5455C80.0392 57.8598 79.8612 57.3258 79.5051 56.9432C79.1491 56.5568 78.6604 56.3636 78.0392 56.3636C77.6112 56.3636 77.2286 56.4564 76.8915 56.642C76.5581 56.8277 76.2949 57.0985 76.1017 57.4545C75.9085 57.8106 75.8119 58.2424 75.8119 58.75ZM87.4331 67.4545C86.7854 67.4545 86.2286 67.3712 85.7627 67.2045C85.2968 67.0417 84.9085 66.8258 84.5979 66.5568C84.2911 66.2917 84.0468 66.0076 83.8649 65.7045L84.9331 64.9545C85.0543 65.1136 85.2077 65.2955 85.3934 65.5C85.579 65.7083 85.8327 65.8883 86.1547 66.0398C86.4805 66.1951 86.9066 66.2727 87.4331 66.2727C88.1377 66.2727 88.7191 66.1023 89.1774 65.7614C89.6358 65.4205 89.8649 64.8864 89.8649 64.1591V62.3864H89.7513C89.6528 62.5455 89.5127 62.7424 89.3309 62.9773C89.1528 63.2083 88.8952 63.4148 88.5581 63.5966C88.2248 63.7746 87.774 63.8636 87.2059 63.8636C86.5013 63.8636 85.8687 63.697 85.3081 63.3636C84.7513 63.0303 84.31 62.5455 83.9843 61.9091C83.6623 61.2727 83.5013 60.5 83.5013 59.5909C83.5013 58.697 83.6585 57.9186 83.9729 57.2557C84.2873 56.589 84.7248 56.0739 85.2854 55.7102C85.846 55.3428 86.4937 55.1591 87.2286 55.1591C87.7968 55.1591 88.2475 55.2538 88.5809 55.4432C88.918 55.6288 89.1755 55.8409 89.3536 56.0795C89.5354 56.3144 89.6755 56.5076 89.774 56.6591H89.9104V55.2727H91.2059V64.25C91.2059 65 91.0354 65.6098 90.6945 66.0795C90.3574 66.553 89.9028 66.8996 89.3309 67.1193C88.7627 67.3428 88.1301 67.4545 87.4331 67.4545ZM87.3877 62.6591C87.9255 62.6591 88.3801 62.536 88.7513 62.2898C89.1225 62.0436 89.4047 61.6894 89.5979 61.2273C89.7911 60.7652 89.8877 60.2121 89.8877 59.5682C89.8877 58.9394 89.793 58.3845 89.6036 57.9034C89.4142 57.4223 89.1339 57.0455 88.7627 56.7727C88.3915 56.5 87.9331 56.3636 87.3877 56.3636C86.8195 56.3636 86.346 56.5076 85.9672 56.7955C85.5922 57.0833 85.31 57.4697 85.1206 57.9545C84.935 58.4394 84.8422 58.9773 84.8422 59.5682C84.8422 60.1742 84.9369 60.7102 85.1263 61.1761C85.3195 61.6383 85.6036 62.0019 85.9786 62.267C86.3574 62.5284 86.8271 62.6591 87.3877 62.6591ZM100.275 48.6136V67.75H99.1386V48.6136H100.275ZM108.397 52.3636H110.078L114.033 62.0227H114.169L118.124 52.3636H119.806V64H118.488V55.1591H118.374L114.738 64H113.465L109.828 55.1591H109.715V64H108.397V52.3636ZM126.075 64.1818C125.287 64.1818 124.595 63.9943 124.001 63.6193C123.41 63.2443 122.948 62.7197 122.614 62.0455C122.285 61.3712 122.12 60.5833 122.12 59.6818C122.12 58.7727 122.285 57.9792 122.614 57.3011C122.948 56.6231 123.41 56.0966 124.001 55.7216C124.595 55.3466 125.287 55.1591 126.075 55.1591C126.862 55.1591 127.552 55.3466 128.143 55.7216C128.737 56.0966 129.2 56.6231 129.529 57.3011C129.862 57.9792 130.029 58.7727 130.029 59.6818C130.029 60.5833 129.862 61.3712 129.529 62.0455C129.2 62.7197 128.737 63.2443 128.143 63.6193C127.552 63.9943 126.862 64.1818 126.075 64.1818ZM126.075 62.9773C126.673 62.9773 127.166 62.8239 127.552 62.517C127.938 62.2102 128.224 61.8068 128.41 61.3068C128.595 60.8068 128.688 60.2652 128.688 59.6818C128.688 59.0985 128.595 58.5549 128.41 58.0511C128.224 57.5473 127.938 57.1402 127.552 56.8295C127.166 56.5189 126.673 56.3636 126.075 56.3636C125.476 56.3636 124.984 56.5189 124.597 56.8295C124.211 57.1402 123.925 57.5473 123.739 58.0511C123.554 58.5549 123.461 59.0985 123.461 59.6818C123.461 60.2652 123.554 60.8068 123.739 61.3068C123.925 61.8068 124.211 62.2102 124.597 62.517C124.984 62.8239 125.476 62.9773 126.075 62.9773ZM132.338 64V52.3636H133.679V56.6591H133.792C133.891 56.5076 134.027 56.3144 134.201 56.0795C134.38 55.8409 134.633 55.6288 134.963 55.4432C135.296 55.2538 135.747 55.1591 136.315 55.1591C137.05 55.1591 137.698 55.3428 138.258 55.7102C138.819 56.0777 139.256 56.5985 139.571 57.2727C139.885 57.947 140.042 58.7424 140.042 59.6591C140.042 60.5833 139.885 61.3845 139.571 62.0625C139.256 62.7367 138.821 63.2595 138.264 63.6307C137.707 63.9981 137.065 64.1818 136.338 64.1818C135.777 64.1818 135.328 64.089 134.991 63.9034C134.654 63.714 134.395 63.5 134.213 63.2614C134.031 63.0189 133.891 62.8182 133.792 62.6591H133.633V64H132.338ZM133.656 59.6364C133.656 60.2955 133.753 60.8769 133.946 61.3807C134.139 61.8807 134.421 62.2727 134.792 62.5568C135.164 62.8371 135.618 62.9773 136.156 62.9773C136.717 62.9773 137.184 62.8295 137.559 62.5341C137.938 62.2348 138.222 61.8333 138.412 61.3295C138.605 60.822 138.701 60.2576 138.701 59.6364C138.701 59.0227 138.607 58.4697 138.417 57.9773C138.232 57.4811 137.95 57.089 137.571 56.8011C137.196 56.5095 136.724 56.3636 136.156 56.3636C135.611 56.3636 135.152 56.5019 134.781 56.7784C134.41 57.0511 134.13 57.4337 133.94 57.9261C133.751 58.4148 133.656 58.9848 133.656 59.6364ZM142.174 64V55.2727H143.514V64H142.174ZM142.855 53.8182C142.594 53.8182 142.369 53.7292 142.179 53.5511C141.994 53.3731 141.901 53.1591 141.901 52.9091C141.901 52.6591 141.994 52.4451 142.179 52.267C142.369 52.089 142.594 52 142.855 52C143.117 52 143.34 52.089 143.526 52.267C143.715 52.4451 143.81 52.6591 143.81 52.9091C143.81 53.1591 143.715 53.3731 143.526 53.5511C143.34 53.7292 143.117 53.8182 142.855 53.8182ZM147.391 52.3636V64H146.05V52.3636H147.391ZM149.927 64V55.2727H151.268V64H149.927ZM150.609 53.8182C150.348 53.8182 150.122 53.7292 149.933 53.5511C149.747 53.3731 149.655 53.1591 149.655 52.9091C149.655 52.6591 149.747 52.4451 149.933 52.267C150.122 52.089 150.348 52 150.609 52C150.87 52 151.094 52.089 151.28 52.267C151.469 52.4451 151.564 52.6591 151.564 52.9091C151.564 53.1591 151.469 53.3731 151.28 53.5511C151.094 53.7292 150.87 53.8182 150.609 53.8182ZM157.6 55.2727V56.4091H153.077V55.2727H157.6ZM154.395 53.1818H155.736V61.5C155.736 61.8788 155.791 62.1629 155.901 62.3523C156.014 62.5379 156.158 62.6629 156.333 62.7273C156.511 62.7879 156.698 62.8182 156.895 62.8182C157.043 62.8182 157.164 62.8106 157.259 62.7955C157.353 62.7765 157.429 62.7614 157.486 62.75L157.759 63.9545C157.668 63.9886 157.541 64.0227 157.378 64.0568C157.215 64.0947 157.009 64.1136 156.759 64.1136C156.38 64.1136 156.009 64.0322 155.645 63.8693C155.285 63.7064 154.986 63.4583 154.747 63.125C154.512 62.7917 154.395 62.3712 154.395 61.8636V53.1818ZM160.56 67.2727C160.333 67.2727 160.13 67.2538 159.952 67.2159C159.774 67.1818 159.651 67.1477 159.583 67.1136L159.924 65.9318C160.25 66.0152 160.538 66.0455 160.788 66.0227C161.038 66 161.259 65.8883 161.452 65.6875C161.649 65.4905 161.829 65.1705 161.992 64.7273L162.242 64.0455L159.015 55.2727H160.469L162.878 62.2273H162.969L165.378 55.2727H166.833L163.128 65.2727C162.962 65.7235 162.755 66.0966 162.509 66.392C162.263 66.6913 161.977 66.9129 161.651 67.0568C161.329 67.2008 160.966 67.2727 160.56 67.2727ZM175.217 48.6136V67.75H174.081V48.6136H175.217ZM182.703 53.6136V52.3636H191.43V53.6136H187.771V64H186.362V53.6136H182.703ZM195.783 64.1818C194.995 64.1818 194.304 63.9943 193.709 63.6193C193.118 63.2443 192.656 62.7197 192.322 62.0455C191.993 61.3712 191.828 60.5833 191.828 59.6818C191.828 58.7727 191.993 57.9792 192.322 57.3011C192.656 56.6231 193.118 56.0966 193.709 55.7216C194.304 55.3466 194.995 55.1591 195.783 55.1591C196.571 55.1591 197.26 55.3466 197.851 55.7216C198.446 56.0966 198.908 56.6231 199.237 57.3011C199.571 57.9792 199.737 58.7727 199.737 59.6818C199.737 60.5833 199.571 61.3712 199.237 62.0455C198.908 62.7197 198.446 63.2443 197.851 63.6193C197.26 63.9943 196.571 64.1818 195.783 64.1818ZM195.783 62.9773C196.381 62.9773 196.874 62.8239 197.26 62.517C197.646 62.2102 197.932 61.8068 198.118 61.3068C198.304 60.8068 198.396 60.2652 198.396 59.6818C198.396 59.0985 198.304 58.5549 198.118 58.0511C197.932 57.5473 197.646 57.1402 197.26 56.8295C196.874 56.5189 196.381 56.3636 195.783 56.3636C195.184 56.3636 194.692 56.5189 194.305 56.8295C193.919 57.1402 193.633 57.5473 193.447 58.0511C193.262 58.5549 193.169 59.0985 193.169 59.6818C193.169 60.2652 193.262 60.8068 193.447 61.3068C193.633 61.8068 193.919 62.2102 194.305 62.517C194.692 62.8239 195.184 62.9773 195.783 62.9773ZM207.364 60.4318V55.2727H208.705V64H207.364V62.5227H207.273C207.069 62.9659 206.751 63.3428 206.319 63.6534C205.887 63.9602 205.341 64.1136 204.682 64.1136C204.137 64.1136 203.652 63.9943 203.228 63.7557C202.804 63.5133 202.47 63.1496 202.228 62.6648C201.985 62.1761 201.864 61.5606 201.864 60.8182V55.2727H203.205V60.7273C203.205 61.3636 203.383 61.8712 203.739 62.25C204.099 62.6288 204.557 62.8182 205.114 62.8182C205.447 62.8182 205.786 62.733 206.131 62.5625C206.48 62.392 206.771 62.1307 207.006 61.7784C207.245 61.4261 207.364 60.9773 207.364 60.4318ZM211.241 64V55.2727H212.536V56.5909H212.627C212.786 56.1591 213.074 55.8087 213.491 55.5398C213.908 55.2708 214.377 55.1364 214.9 55.1364C214.999 55.1364 215.122 55.1383 215.269 55.142C215.417 55.1458 215.529 55.1515 215.605 55.1591V56.5227C215.559 56.5114 215.455 56.4943 215.292 56.4716C215.133 56.4451 214.965 56.4318 214.786 56.4318C214.362 56.4318 213.983 56.5208 213.65 56.6989C213.321 56.8731 213.059 57.1155 212.866 57.4261C212.677 57.733 212.582 58.0833 212.582 58.4773V64H211.241Z" fill="black"/>
<rect x="270" y="39" width="94" height="34" rx="12" fill="#0298F0"/>
<path d="M284.773 61H281.076V50.0909H284.847C285.93 50.0909 286.861 50.3093 287.638 50.7461C288.42 51.1793 289.02 51.8026 289.439 52.6158C289.858 53.429 290.067 54.402 290.067 55.5348C290.067 56.6712 289.856 57.6477 289.434 58.4645C289.015 59.2812 288.409 59.908 287.617 60.3448C286.829 60.7816 285.881 61 284.773 61ZM283.052 59.2901H284.677C285.437 59.2901 286.071 59.1516 286.578 58.8746C287.086 58.5941 287.468 58.1768 287.724 57.6229C287.979 57.0653 288.107 56.3693 288.107 55.5348C288.107 54.7003 287.979 54.0078 287.724 53.4574C287.468 52.9034 287.09 52.4897 286.589 52.2163C286.092 51.9393 285.474 51.8008 284.735 51.8008H283.052V59.2901ZM295.504 61.1598C294.705 61.1598 294.012 60.984 293.426 60.6325C292.84 60.2809 292.386 59.7891 292.063 59.157C291.743 58.5249 291.583 57.7862 291.583 56.9411C291.583 56.0959 291.743 55.3555 292.063 54.7198C292.386 54.0842 292.84 53.5906 293.426 53.239C294.012 52.8874 294.705 52.7116 295.504 52.7116C296.303 52.7116 296.995 52.8874 297.581 53.239C298.167 53.5906 298.62 54.0842 298.94 54.7198C299.263 55.3555 299.424 56.0959 299.424 56.9411C299.424 57.7862 299.263 58.5249 298.94 59.157C298.62 59.7891 298.167 60.2809 297.581 60.6325C296.995 60.984 296.303 61.1598 295.504 61.1598ZM295.514 59.6151C295.948 59.6151 296.31 59.4961 296.601 59.2582C296.892 59.0167 297.109 58.6935 297.251 58.2887C297.397 57.8839 297.469 57.4329 297.469 56.9357C297.469 56.435 297.397 55.9822 297.251 55.5774C297.109 55.169 296.892 54.8441 296.601 54.6026C296.31 54.3612 295.948 54.2404 295.514 54.2404C295.071 54.2404 294.701 54.3612 294.406 54.6026C294.115 54.8441 293.897 55.169 293.751 55.5774C293.609 55.9822 293.538 56.435 293.538 56.9357C293.538 57.4329 293.609 57.8839 293.751 58.2887C293.897 58.6935 294.115 59.0167 294.406 59.2582C294.701 59.4961 295.071 59.6151 295.514 59.6151ZM302.59 61L300.278 52.8182H302.244L303.682 58.571H303.757L305.227 52.8182H307.171L308.641 58.5391H308.721L310.138 52.8182H312.109L309.792 61H307.784L306.25 55.4709H306.138L304.604 61H302.59ZM315.458 56.206V61H313.53V52.8182H315.373V54.2085H315.469C315.657 53.7504 315.957 53.3864 316.369 53.1165C316.785 52.8466 317.298 52.7116 317.909 52.7116C318.473 52.7116 318.965 52.8324 319.384 53.0739C319.807 53.3153 320.134 53.6651 320.364 54.1232C320.599 54.5813 320.714 55.1371 320.711 55.7905V61H318.782V56.0888C318.782 55.5419 318.64 55.114 318.356 54.805C318.076 54.4961 317.687 54.3416 317.19 54.3416C316.852 54.3416 316.552 54.4162 316.289 54.5653C316.03 54.7109 315.826 54.9222 315.677 55.1992C315.531 55.4762 315.458 55.8118 315.458 56.206ZM324.674 50.0909V61H322.746V50.0909H324.674ZM330.301 61.1598C329.502 61.1598 328.809 60.984 328.223 60.6325C327.638 60.2809 327.183 59.7891 326.86 59.157C326.54 58.5249 326.38 57.7862 326.38 56.9411C326.38 56.0959 326.54 55.3555 326.86 54.7198C327.183 54.0842 327.638 53.5906 328.223 53.239C328.809 52.8874 329.502 52.7116 330.301 52.7116C331.1 52.7116 331.792 52.8874 332.378 53.239C332.964 53.5906 333.417 54.0842 333.737 54.7198C334.06 55.3555 334.221 56.0959 334.221 56.9411C334.221 57.7862 334.06 58.5249 333.737 59.157C333.417 59.7891 332.964 60.2809 332.378 60.6325C331.792 60.984 331.1 61.1598 330.301 61.1598ZM330.312 59.6151C330.745 59.6151 331.107 59.4961 331.398 59.2582C331.689 59.0167 331.906 58.6935 332.048 58.2887C332.194 57.8839 332.266 57.4329 332.266 56.9357C332.266 56.435 332.194 55.9822 332.048 55.5774C331.906 55.169 331.689 54.8441 331.398 54.6026C331.107 54.3612 330.745 54.2404 330.312 54.2404C329.868 54.2404 329.498 54.3612 329.204 54.6026C328.912 54.8441 328.694 55.169 328.548 55.5774C328.406 55.9822 328.335 56.435 328.335 56.9357C328.335 57.4329 328.406 57.8839 328.548 58.2887C328.694 58.6935 328.912 59.0167 329.204 59.2582C329.498 59.4961 329.868 59.6151 330.312 59.6151ZM338.287 61.1651C337.769 61.1651 337.302 61.0728 336.886 60.8881C336.475 60.6999 336.148 60.4229 335.906 60.0572C335.668 59.6914 335.549 59.2404 335.549 58.7042C335.549 58.2425 335.635 57.8608 335.805 57.5589C335.976 57.2571 336.208 57.0156 336.503 56.8345C336.798 56.6534 337.13 56.5167 337.499 56.4244C337.872 56.3285 338.257 56.2592 338.655 56.2166C339.134 56.1669 339.523 56.1225 339.821 56.0835C340.12 56.0408 340.336 55.9769 340.471 55.8917C340.61 55.8029 340.679 55.6662 340.679 55.4815V55.4496C340.679 55.0483 340.56 54.7376 340.322 54.5174C340.084 54.2972 339.742 54.1871 339.294 54.1871C338.822 54.1871 338.447 54.2901 338.17 54.4961C337.897 54.7021 337.712 54.9453 337.616 55.2259L335.816 54.9702C335.958 54.473 336.192 54.0575 336.519 53.7237C336.846 53.3864 337.245 53.1342 337.717 52.9673C338.19 52.7969 338.712 52.7116 339.283 52.7116C339.678 52.7116 340.07 52.7578 340.461 52.8501C340.851 52.9425 341.208 53.0952 341.531 53.3082C341.854 53.5178 342.114 53.8036 342.309 54.1658C342.508 54.5281 342.607 54.9808 342.607 55.5241V61H340.754V59.8761H340.69C340.573 60.1033 340.407 60.3164 340.194 60.5153C339.985 60.7106 339.72 60.8686 339.401 60.9893C339.085 61.1065 338.713 61.1651 338.287 61.1651ZM338.788 59.7482C339.175 59.7482 339.511 59.6719 339.795 59.5192C340.079 59.3629 340.297 59.157 340.45 58.9013C340.606 58.6456 340.684 58.3668 340.684 58.065V57.1009C340.624 57.1506 340.521 57.1967 340.375 57.2393C340.233 57.282 340.074 57.3192 339.896 57.3512C339.718 57.3832 339.543 57.4116 339.369 57.4364C339.195 57.4613 339.044 57.4826 338.916 57.5004C338.628 57.5394 338.371 57.6033 338.144 57.6921C337.916 57.7809 337.737 57.9052 337.606 58.065C337.474 58.2212 337.408 58.4237 337.408 58.6722C337.408 59.0273 337.538 59.2955 337.797 59.4766C338.057 59.6577 338.387 59.7482 338.788 59.7482ZM347.657 61.1438C347.015 61.1438 346.439 60.9787 345.932 60.6484C345.424 60.3182 345.023 59.8388 344.728 59.2102C344.433 58.5817 344.286 57.8182 344.286 56.9197C344.286 56.0107 344.435 55.2436 344.733 54.6186C345.035 53.9901 345.442 53.516 345.953 53.1964C346.464 52.8732 347.034 52.7116 347.663 52.7116C348.142 52.7116 348.536 52.7933 348.845 52.9567C349.154 53.1165 349.399 53.31 349.58 53.5373C349.762 53.761 349.902 53.9723 350.001 54.1712H350.081V50.0909H352.015V61H350.118V59.7109H350.001C349.902 59.9098 349.758 60.1211 349.57 60.3448C349.382 60.565 349.133 60.7532 348.824 60.9094C348.515 61.0657 348.126 61.1438 347.657 61.1438ZM348.195 59.5618C348.604 59.5618 348.952 59.4517 349.239 59.2315C349.527 59.0078 349.746 58.6971 349.895 58.2994C350.044 57.9016 350.118 57.4382 350.118 56.9091C350.118 56.38 350.044 55.9201 349.895 55.5295C349.749 55.1388 349.532 54.8352 349.245 54.6186C348.961 54.402 348.611 54.2937 348.195 54.2937C347.766 54.2937 347.407 54.4055 347.119 54.6293C346.832 54.853 346.615 55.1619 346.47 55.5561C346.324 55.9503 346.251 56.4013 346.251 56.9091C346.251 57.4205 346.324 57.8768 346.47 58.2781C346.619 58.6758 346.837 58.9901 347.125 59.2209C347.416 59.4482 347.773 59.5618 348.195 59.5618Z" fill="white"/>
</g>
<defs>
<filter id="filter0_d_119_3054" x="0" y="0" width="386" height="123" filterUnits="userSpaceOnUse" color-interpolation-filters="sRGB">
<feFlood flood-opacity="0" result="BackgroundImageFix"/>
<feColorMatrix in="SourceAlpha" type="matrix" values="0 0 0 0 0 0 0 0 0 0 0 0 0 0 0 0 0 0 127 0" result="hardAlpha"/>
<feOffset dy="6"/>
<feGaussianBlur stdDeviation="5"/>
<feComposite in2="hardAlpha" operator="out"/>
<feColorMatrix type="matrix" values="0 0 0 0 0 0 0 0 0 0 0 0 0 0 0 0 0 0 0.14 0"/>
<feBlend mode="normal" in2="BackgroundImageFix" result="effect1_dropShadow_119_3054"/>
<feBlend mode="normal" in="SourceGraphic" in2="effect1_dropShadow_119_3054" result="shape"/>
</filter>
</defs>
</svg>
