<svg width="386" height="123" viewBox="0 0 386 123" fill="none" xmlns="http://www.w3.org/2000/svg">
<g filter="url(#filter0_d_119_3049)">
<rect x="10" y="4" width="366" height="103" rx="12" fill="#F2F2F2"/>
<path d="M41.108 31.2898H38.983C38.9223 30.9413 38.8106 30.6326 38.6477 30.3636C38.4848 30.0909 38.2822 29.8598 38.0398 29.6705C37.7973 29.4811 37.5208 29.339 37.2102 29.2443C36.9034 29.1458 36.572 29.0966 36.2159 29.0966C35.5833 29.0966 35.0227 29.2557 34.5341 29.5739C34.0455 29.8883 33.6629 30.3504 33.3864 30.9602C33.1098 31.5663 32.9716 32.3068 32.9716 33.1818C32.9716 34.072 33.1098 34.822 33.3864 35.4318C33.6667 36.0379 34.0492 36.4962 34.5341 36.8068C35.0227 37.1136 35.5814 37.267 36.2102 37.267C36.5587 37.267 36.8845 37.2216 37.1875 37.1307C37.4943 37.036 37.7689 36.8977 38.0114 36.7159C38.2576 36.5341 38.464 36.3106 38.6307 36.0455C38.8011 35.7803 38.9186 35.4773 38.983 35.1364L41.108 35.1477C41.0284 35.7008 40.8561 36.2197 40.5909 36.7045C40.3295 37.1894 39.9867 37.6174 39.5625 37.9886C39.1383 38.3561 38.642 38.6439 38.0739 38.8523C37.5057 39.0568 36.875 39.1591 36.1818 39.1591C35.1591 39.1591 34.2462 38.9223 33.4432 38.4489C32.6402 37.9754 32.0076 37.2917 31.5455 36.3977C31.0833 35.5038 30.8523 34.4318 30.8523 33.1818C30.8523 31.928 31.0852 30.8561 31.5511 29.9659C32.017 29.072 32.6515 28.3883 33.4545 27.9148C34.2576 27.4413 35.1667 27.2045 36.1818 27.2045C36.8295 27.2045 37.4318 27.2955 37.9886 27.4773C38.5455 27.6591 39.0417 27.9261 39.4773 28.2784C39.9129 28.6269 40.2708 29.0549 40.5511 29.5625C40.8352 30.0663 41.0208 30.642 41.108 31.2898ZM46.8343 39.1705C45.982 39.1705 45.2434 38.983 44.6184 38.608C43.9934 38.233 43.5085 37.7083 43.1638 37.0341C42.8229 36.3598 42.6524 35.572 42.6524 34.6705C42.6524 33.7689 42.8229 32.9792 43.1638 32.3011C43.5085 31.6231 43.9934 31.0966 44.6184 30.7216C45.2434 30.3466 45.982 30.1591 46.8343 30.1591C47.6865 30.1591 48.4252 30.3466 49.0502 30.7216C49.6752 31.0966 50.1581 31.6231 50.499 32.3011C50.8437 32.9792 51.0161 33.7689 51.0161 34.6705C51.0161 35.572 50.8437 36.3598 50.499 37.0341C50.1581 37.7083 49.6752 38.233 49.0502 38.608C48.4252 38.983 47.6865 39.1705 46.8343 39.1705ZM46.8456 37.5227C47.3077 37.5227 47.6941 37.3958 48.0047 37.142C48.3153 36.8845 48.5464 36.5398 48.6979 36.108C48.8532 35.6761 48.9309 35.1951 48.9309 34.6648C48.9309 34.1307 48.8532 33.6477 48.6979 33.2159C48.5464 32.7803 48.3153 32.4337 48.0047 32.1761C47.6941 31.9186 47.3077 31.7898 46.8456 31.7898C46.3721 31.7898 45.9782 31.9186 45.6638 32.1761C45.3532 32.4337 45.1202 32.7803 44.9649 33.2159C44.8134 33.6477 44.7377 34.1307 44.7377 34.6648C44.7377 35.1951 44.8134 35.6761 44.9649 36.108C45.1202 36.5398 45.3532 36.8845 45.6638 37.142C45.9782 37.3958 46.3721 37.5227 46.8456 37.5227ZM58.4043 35.3295V30.2727H60.4611V39H58.4668V37.4489H58.3759C58.1789 37.9375 57.8551 38.3371 57.4043 38.6477C56.9573 38.9583 56.4062 39.1136 55.7509 39.1136C55.1789 39.1136 54.6733 38.9867 54.2339 38.733C53.7983 38.4754 53.4573 38.1023 53.2111 37.6136C52.9649 37.1212 52.8418 36.5265 52.8418 35.8295V30.2727H54.8986V35.5114C54.8986 36.0644 55.0502 36.5038 55.3532 36.8295C55.6562 37.1553 56.0539 37.3182 56.5464 37.3182C56.8494 37.3182 57.143 37.2443 57.427 37.0966C57.7111 36.9489 57.9441 36.7292 58.1259 36.4375C58.3115 36.142 58.4043 35.7727 58.4043 35.3295ZM62.6562 42.2727V30.2727H64.6789V31.7159H64.7982C64.9043 31.5038 65.0539 31.2784 65.2471 31.0398C65.4403 30.7973 65.7016 30.5909 66.0312 30.4205C66.3607 30.2462 66.7812 30.1591 67.2926 30.1591C67.9668 30.1591 68.5748 30.3314 69.1164 30.6761C69.6619 31.017 70.0937 31.5227 70.4119 32.1932C70.7338 32.8598 70.8948 33.678 70.8948 34.6477C70.8948 35.6061 70.7376 36.4205 70.4232 37.0909C70.1088 37.7614 69.6808 38.2727 69.1391 38.625C68.5975 38.9773 67.9838 39.1534 67.2982 39.1534C66.7982 39.1534 66.3835 39.0701 66.0539 38.9034C65.7244 38.7367 65.4592 38.536 65.2585 38.3011C65.0615 38.0625 64.9081 37.8371 64.7982 37.625H64.713V42.2727H62.6562ZM64.6732 34.6364C64.6732 35.2008 64.7528 35.6951 64.9119 36.1193C65.0748 36.5436 65.3077 36.875 65.6107 37.1136C65.9176 37.3485 66.2888 37.4659 66.7244 37.4659C67.1789 37.4659 67.5596 37.3447 67.8664 37.1023C68.1732 36.8561 68.4043 36.5208 68.5596 36.0966C68.7187 35.6686 68.7982 35.1818 68.7982 34.6364C68.7982 34.0947 68.7206 33.6136 68.5653 33.1932C68.41 32.7727 68.1789 32.4432 67.8721 32.2045C67.5653 31.9659 67.1827 31.8466 66.7244 31.8466C66.285 31.8466 65.9119 31.9621 65.6051 32.1932C65.2982 32.4242 65.0653 32.7481 64.9062 33.1648C64.7509 33.5814 64.6732 34.072 64.6732 34.6364ZM76.543 39.1705C75.6907 39.1705 74.9521 38.983 74.3271 38.608C73.7021 38.233 73.2173 37.7083 72.8726 37.0341C72.5316 36.3598 72.3612 35.572 72.3612 34.6705C72.3612 33.7689 72.5316 32.9792 72.8726 32.3011C73.2173 31.6231 73.7021 31.0966 74.3271 30.7216C74.9521 30.3466 75.6907 30.1591 76.543 30.1591C77.3953 30.1591 78.1339 30.3466 78.7589 30.7216C79.3839 31.0966 79.8669 31.6231 80.2078 32.3011C80.5525 32.9792 80.7248 33.7689 80.7248 34.6705C80.7248 35.572 80.5525 36.3598 80.2078 37.0341C79.8669 37.7083 79.3839 38.233 78.7589 38.608C78.1339 38.983 77.3953 39.1705 76.543 39.1705ZM76.5544 37.5227C77.0165 37.5227 77.4029 37.3958 77.7135 37.142C78.0241 36.8845 78.2551 36.5398 78.4066 36.108C78.562 35.6761 78.6396 35.1951 78.6396 34.6648C78.6396 34.1307 78.562 33.6477 78.4066 33.2159C78.2551 32.7803 78.0241 32.4337 77.7135 32.1761C77.4029 31.9186 77.0165 31.7898 76.5544 31.7898C76.0809 31.7898 75.687 31.9186 75.3726 32.1761C75.062 32.4337 74.829 32.7803 74.6737 33.2159C74.5222 33.6477 74.4464 34.1307 74.4464 34.6648C74.4464 35.1951 74.5222 35.6761 74.6737 36.108C74.829 36.5398 75.062 36.8845 75.3726 37.142C75.687 37.3958 76.0809 37.5227 76.5544 37.5227ZM84.6074 33.8864V39H82.5506V30.2727H84.5165V31.7557H84.6188C84.8195 31.267 85.1396 30.8788 85.579 30.5909C86.0222 30.303 86.5695 30.1591 87.221 30.1591C87.8233 30.1591 88.3479 30.2879 88.7949 30.5455C89.2456 30.803 89.5941 31.1761 89.8403 31.6648C90.0903 32.1534 90.2134 32.7462 90.2097 33.4432V39H88.1528V33.7614C88.1528 33.178 88.0013 32.7216 87.6983 32.392C87.3991 32.0625 86.9843 31.8977 86.454 31.8977C86.0941 31.8977 85.7741 31.9773 85.4938 32.1364C85.2172 32.2917 84.9994 32.517 84.8403 32.8125C84.685 33.108 84.6074 33.4659 84.6074 33.8864ZM99.2783 32.5795L97.4033 32.7841C97.3503 32.5947 97.2575 32.4167 97.1249 32.25C96.9961 32.0833 96.8219 31.9489 96.6022 31.8466C96.3825 31.7443 96.1135 31.6932 95.7953 31.6932C95.3673 31.6932 95.0075 31.786 94.7158 31.9716C94.4279 32.1572 94.2859 32.3977 94.2897 32.6932C94.2859 32.947 94.3787 33.1534 94.5681 33.3125C94.7612 33.4716 95.0794 33.6023 95.5226 33.7045L97.0112 34.0227C97.837 34.2008 98.4506 34.483 98.8522 34.8693C99.2575 35.2557 99.462 35.7614 99.4658 36.3864C99.462 36.9356 99.301 37.4205 98.9828 37.8409C98.6684 38.2576 98.2309 38.5833 97.6703 38.8182C97.1097 39.053 96.4658 39.1705 95.7385 39.1705C94.6703 39.1705 93.8105 38.947 93.159 38.5C92.5075 38.0492 92.1192 37.4223 91.9942 36.6193L93.9999 36.4261C94.0908 36.8201 94.284 37.1174 94.5794 37.3182C94.8749 37.5189 95.2594 37.6193 95.7328 37.6193C96.2215 37.6193 96.6135 37.5189 96.909 37.3182C97.2082 37.1174 97.3578 36.8693 97.3578 36.5739C97.3578 36.3239 97.2612 36.1174 97.0681 35.9545C96.8787 35.7917 96.5832 35.6667 96.1817 35.5795L94.6931 35.267C93.8559 35.0928 93.2366 34.7992 92.8351 34.3864C92.4336 33.9697 92.2347 33.4432 92.2385 32.8068C92.2347 32.2689 92.3806 31.803 92.676 31.4091C92.9753 31.0114 93.39 30.7045 93.9203 30.4886C94.4544 30.2689 95.07 30.1591 95.7669 30.1591C96.7897 30.1591 97.5946 30.3769 98.1817 30.8125C98.7726 31.2481 99.1381 31.8371 99.2783 32.5795ZM109.711 30.2727V31.8636H104.552V30.2727H109.711ZM105.842 39V29.4489C105.842 28.8617 105.963 28.3731 106.205 27.983C106.452 27.5928 106.781 27.3011 107.194 27.108C107.607 26.9148 108.065 26.8182 108.569 26.8182C108.925 26.8182 109.241 26.8466 109.518 26.9034C109.794 26.9602 109.999 27.0114 110.131 27.0568L109.722 28.6477C109.635 28.6212 109.525 28.5947 109.393 28.5682C109.26 28.5379 109.113 28.5227 108.95 28.5227C108.567 28.5227 108.296 28.6155 108.137 28.8011C107.982 28.983 107.904 29.2443 107.904 29.5852V39H105.842ZM114.881 39.1705C114.028 39.1705 113.29 38.983 112.665 38.608C112.04 38.233 111.555 37.7083 111.21 37.0341C110.869 36.3598 110.699 35.572 110.699 34.6705C110.699 33.7689 110.869 32.9792 111.21 32.3011C111.555 31.6231 112.04 31.0966 112.665 30.7216C113.29 30.3466 114.028 30.1591 114.881 30.1591C115.733 30.1591 116.471 30.3466 117.096 30.7216C117.721 31.0966 118.204 31.6231 118.545 32.3011C118.89 32.9792 119.062 33.7689 119.062 34.6705C119.062 35.572 118.89 36.3598 118.545 37.0341C118.204 37.7083 117.721 38.233 117.096 38.608C116.471 38.983 115.733 39.1705 114.881 39.1705ZM114.892 37.5227C115.354 37.5227 115.74 37.3958 116.051 37.142C116.362 36.8845 116.593 36.5398 116.744 36.108C116.899 35.6761 116.977 35.1951 116.977 34.6648C116.977 34.1307 116.899 33.6477 116.744 33.2159C116.593 32.7803 116.362 32.4337 116.051 32.1761C115.74 31.9186 115.354 31.7898 114.892 31.7898C114.418 31.7898 114.024 31.9186 113.71 32.1761C113.399 32.4337 113.166 32.7803 113.011 33.2159C112.86 33.6477 112.784 34.1307 112.784 34.6648C112.784 35.1951 112.86 35.6761 113.011 36.108C113.166 36.5398 113.399 36.8845 113.71 37.142C114.024 37.3958 114.418 37.5227 114.892 37.5227ZM120.888 39V30.2727H122.882V31.7273H122.973C123.132 31.2235 123.405 30.8352 123.791 30.5625C124.182 30.286 124.627 30.1477 125.127 30.1477C125.24 30.1477 125.367 30.1534 125.507 30.1648C125.651 30.1723 125.771 30.1856 125.865 30.2045V32.0966C125.778 32.0663 125.64 32.0398 125.451 32.017C125.265 31.9905 125.085 31.9773 124.911 31.9773C124.536 31.9773 124.199 32.0587 123.899 32.2216C123.604 32.3807 123.371 32.6023 123.201 32.8864C123.03 33.1705 122.945 33.4981 122.945 33.8693V39H120.888ZM141.849 33.1818C141.849 34.4356 141.614 35.5095 141.145 36.4034C140.679 37.2936 140.042 37.9754 139.236 38.4489C138.433 38.9223 137.522 39.1591 136.503 39.1591C135.484 39.1591 134.571 38.9223 133.764 38.4489C132.961 37.9716 132.325 37.2879 131.855 36.3977C131.389 35.5038 131.156 34.4318 131.156 33.1818C131.156 31.928 131.389 30.8561 131.855 29.9659C132.325 29.072 132.961 28.3883 133.764 27.9148C134.571 27.4413 135.484 27.2045 136.503 27.2045C137.522 27.2045 138.433 27.4413 139.236 27.9148C140.042 28.3883 140.679 29.072 141.145 29.9659C141.614 30.8561 141.849 31.928 141.849 33.1818ZM139.73 33.1818C139.73 32.2992 139.592 31.5549 139.315 30.9489C139.042 30.339 138.664 29.8788 138.179 29.5682C137.694 29.2538 137.135 29.0966 136.503 29.0966C135.87 29.0966 135.311 29.2538 134.826 29.5682C134.342 29.8788 133.961 30.339 133.684 30.9489C133.412 31.5549 133.275 32.2992 133.275 33.1818C133.275 34.0644 133.412 34.8106 133.684 35.4205C133.961 36.0265 134.342 36.4867 134.826 36.8011C135.311 37.1117 135.87 37.267 136.503 37.267C137.135 37.267 137.694 37.1117 138.179 36.8011C138.664 36.4867 139.042 36.0265 139.315 35.4205C139.592 34.8106 139.73 34.0644 139.73 33.1818ZM147.638 39.1705C146.767 39.1705 146.019 38.9792 145.394 38.5966C144.772 38.214 144.293 37.6856 143.956 37.0114C143.623 36.3333 143.456 35.553 143.456 34.6705C143.456 33.7841 143.627 33.0019 143.968 32.3239C144.308 31.642 144.79 31.1117 145.411 30.733C146.036 30.3504 146.774 30.1591 147.627 30.1591C148.335 30.1591 148.962 30.2898 149.507 30.5511C150.057 30.8087 150.494 31.1742 150.82 31.6477C151.146 32.1174 151.331 32.6667 151.377 33.2955H149.411C149.331 32.875 149.142 32.5246 148.843 32.2443C148.547 31.9602 148.151 31.8182 147.655 31.8182C147.235 31.8182 146.865 31.9318 146.547 32.1591C146.229 32.3826 145.981 32.7045 145.803 33.125C145.629 33.5455 145.541 34.0492 145.541 34.6364C145.541 35.2311 145.629 35.7424 145.803 36.1705C145.977 36.5947 146.221 36.9223 146.536 37.1534C146.854 37.3807 147.227 37.4943 147.655 37.4943C147.958 37.4943 148.229 37.4375 148.468 37.3239C148.71 37.2064 148.913 37.0379 149.076 36.8182C149.238 36.5985 149.35 36.3314 149.411 36.017H151.377C151.327 36.6345 151.146 37.1818 150.831 37.6591C150.517 38.1326 150.089 38.5038 149.547 38.7727C149.005 39.0379 148.369 39.1705 147.638 39.1705ZM157.504 30.2727V31.8636H152.486V30.2727H157.504ZM153.725 28.1818H155.782V36.375C155.782 36.6515 155.824 36.8636 155.907 37.0114C155.994 37.1553 156.108 37.2538 156.248 37.3068C156.388 37.3598 156.543 37.3864 156.714 37.3864C156.843 37.3864 156.96 37.3769 157.066 37.358C157.176 37.339 157.259 37.322 157.316 37.3068L157.663 38.9148C157.553 38.9527 157.396 38.9943 157.191 39.0398C156.99 39.0852 156.744 39.1117 156.452 39.1193C155.937 39.1345 155.473 39.0568 155.06 38.8864C154.647 38.7121 154.32 38.4432 154.077 38.0795C153.839 37.7159 153.721 37.2614 153.725 36.7159V28.1818ZM163.017 39.1705C162.164 39.1705 161.426 38.983 160.801 38.608C160.176 38.233 159.691 37.7083 159.346 37.0341C159.005 36.3598 158.835 35.572 158.835 34.6705C158.835 33.7689 159.005 32.9792 159.346 32.3011C159.691 31.6231 160.176 31.0966 160.801 30.7216C161.426 30.3466 162.164 30.1591 163.017 30.1591C163.869 30.1591 164.608 30.3466 165.233 30.7216C165.858 31.0966 166.341 31.6231 166.682 32.3011C167.026 32.9792 167.199 33.7689 167.199 34.6705C167.199 35.572 167.026 36.3598 166.682 37.0341C166.341 37.7083 165.858 38.233 165.233 38.608C164.608 38.983 163.869 39.1705 163.017 39.1705ZM163.028 37.5227C163.49 37.5227 163.877 37.3958 164.187 37.142C164.498 36.8845 164.729 36.5398 164.88 36.108C165.036 35.6761 165.113 35.1951 165.113 34.6648C165.113 34.1307 165.036 33.6477 164.88 33.2159C164.729 32.7803 164.498 32.4337 164.187 32.1761C163.877 31.9186 163.49 31.7898 163.028 31.7898C162.555 31.7898 162.161 31.9186 161.846 32.1761C161.536 32.4337 161.303 32.7803 161.147 33.2159C160.996 33.6477 160.92 34.1307 160.92 34.6648C160.92 35.1951 160.996 35.6761 161.147 36.108C161.303 36.5398 161.536 36.8845 161.846 37.142C162.161 37.3958 162.555 37.5227 163.028 37.5227ZM169.115 39V27.3636H171.172V31.7159H171.257C171.363 31.5038 171.513 31.2784 171.706 31.0398C171.899 30.7973 172.161 30.5909 172.49 30.4205C172.82 30.2462 173.24 30.1591 173.752 30.1591C174.426 30.1591 175.034 30.3314 175.575 30.6761C176.121 31.017 176.553 31.5227 176.871 32.1932C177.193 32.8598 177.354 33.678 177.354 34.6477C177.354 35.6061 177.197 36.4205 176.882 37.0909C176.568 37.7614 176.14 38.2727 175.598 38.625C175.057 38.9773 174.443 39.1534 173.757 39.1534C173.257 39.1534 172.842 39.0701 172.513 38.9034C172.183 38.7367 171.918 38.536 171.717 38.3011C171.521 38.0625 171.367 37.8371 171.257 37.625H171.138V39H169.115ZM171.132 34.6364C171.132 35.2008 171.212 35.6951 171.371 36.1193C171.534 36.5436 171.767 36.875 172.07 37.1136C172.377 37.3485 172.748 37.4659 173.183 37.4659C173.638 37.4659 174.019 37.3447 174.325 37.1023C174.632 36.8561 174.863 36.5208 175.019 36.0966C175.178 35.6686 175.257 35.1818 175.257 34.6364C175.257 34.0947 175.18 33.6136 175.024 33.1932C174.869 32.7727 174.638 32.4432 174.331 32.2045C174.024 31.9659 173.642 31.8466 173.183 31.8466C172.744 31.8466 172.371 31.9621 172.064 32.1932C171.757 32.4242 171.524 32.7481 171.365 33.1648C171.21 33.5814 171.132 34.072 171.132 34.6364ZM183.046 39.1705C182.171 39.1705 181.415 38.9886 180.779 38.625C180.146 38.2576 179.66 37.7386 179.319 37.0682C178.978 36.3939 178.807 35.6004 178.807 34.6875C178.807 33.7898 178.978 33.0019 179.319 32.3239C179.664 31.642 180.145 31.1117 180.762 30.733C181.379 30.3504 182.105 30.1591 182.938 30.1591C183.476 30.1591 183.984 30.2462 184.461 30.4205C184.942 30.5909 185.366 30.8561 185.734 31.2159C186.105 31.5758 186.396 32.0341 186.609 32.5909C186.821 33.1439 186.927 33.803 186.927 34.5682V35.1989H179.773V33.8125H184.955C184.951 33.4186 184.866 33.0682 184.699 32.7614C184.533 32.4508 184.3 32.2064 184.001 32.0284C183.705 31.8504 183.36 31.7614 182.967 31.7614C182.546 31.7614 182.177 31.8636 181.859 32.0682C181.54 32.2689 181.292 32.5341 181.114 32.8636C180.94 33.1894 180.851 33.5473 180.847 33.9375V35.1477C180.847 35.6553 180.94 36.0909 181.126 36.4545C181.311 36.8144 181.571 37.0909 181.904 37.2841C182.237 37.4735 182.628 37.5682 183.074 37.5682C183.374 37.5682 183.645 37.5265 183.887 37.4432C184.129 37.3561 184.34 37.2292 184.518 37.0625C184.696 36.8958 184.83 36.6894 184.921 36.4432L186.842 36.6591C186.72 37.1667 186.489 37.6098 186.148 37.9886C185.811 38.3636 185.379 38.6553 184.853 38.8636C184.326 39.0682 183.724 39.1705 183.046 39.1705ZM188.747 39V30.2727H190.741V31.7273H190.832C190.991 31.2235 191.264 30.8352 191.65 30.5625C192.04 30.286 192.485 30.1477 192.985 30.1477C193.099 30.1477 193.226 30.1534 193.366 30.1648C193.51 30.1723 193.629 30.1856 193.724 30.2045V32.0966C193.637 32.0663 193.499 32.0398 193.309 32.017C193.124 31.9905 192.944 31.9773 192.77 31.9773C192.395 31.9773 192.057 32.0587 191.758 32.2216C191.463 32.3807 191.23 32.6023 191.059 32.8864C190.889 33.1705 190.804 33.4981 190.804 33.8693V39H188.747ZM196.585 37.4091L196.511 38.0341C196.458 38.5114 196.364 38.9962 196.227 39.4886C196.095 39.9848 195.955 40.4413 195.807 40.858C195.659 41.2746 195.54 41.6023 195.449 41.8409H194.063C194.116 41.6098 194.188 41.2955 194.279 40.8977C194.373 40.5 194.464 40.053 194.551 39.5568C194.638 39.0606 194.697 38.5568 194.727 38.0455L194.767 37.4091H196.585ZM202.636 39V37.4773L206.676 33.517C207.062 33.1269 207.384 32.7803 207.642 32.4773C207.899 32.1742 208.092 31.8807 208.221 31.5966C208.35 31.3125 208.414 31.0095 208.414 30.6875C208.414 30.3201 208.331 30.0057 208.164 29.7443C207.998 29.4792 207.769 29.2746 207.477 29.1307C207.185 28.9867 206.854 28.9148 206.483 28.9148C206.1 28.9148 205.765 28.9943 205.477 29.1534C205.189 29.3087 204.966 29.5303 204.806 29.8182C204.651 30.1061 204.573 30.4489 204.573 30.8466H202.568C202.568 30.108 202.736 29.4659 203.073 28.9205C203.411 28.375 203.875 27.9527 204.466 27.6534C205.06 27.3542 205.742 27.2045 206.511 27.2045C207.291 27.2045 207.977 27.3504 208.568 27.642C209.159 27.9337 209.617 28.3333 209.943 28.8409C210.272 29.3485 210.437 29.928 210.437 30.5795C210.437 31.0152 210.354 31.4432 210.187 31.8636C210.02 32.2841 209.727 32.75 209.306 33.2614C208.89 33.7727 208.305 34.392 207.551 35.1193L205.545 37.1591V37.2386H210.613V39H202.636ZM216.955 39.2216C216.019 39.2216 215.216 38.9848 214.546 38.5114C213.879 38.0341 213.366 37.3466 213.006 36.4489C212.65 35.5473 212.472 34.4621 212.472 33.1932C212.475 31.9242 212.655 30.8447 213.011 29.9545C213.371 29.0606 213.885 28.3788 214.551 27.9091C215.222 27.4394 216.023 27.2045 216.955 27.2045C217.886 27.2045 218.688 27.4394 219.358 27.9091C220.028 28.3788 220.542 29.0606 220.898 29.9545C221.258 30.8485 221.438 31.928 221.438 33.1932C221.438 34.4659 221.258 35.553 220.898 36.4545C220.542 37.3523 220.028 38.0379 219.358 38.5114C218.691 38.9848 217.89 39.2216 216.955 39.2216ZM216.955 37.4432C217.682 37.4432 218.256 37.0852 218.676 36.3693C219.1 35.6496 219.313 34.5909 219.313 33.1932C219.313 32.2689 219.216 31.4924 219.023 30.8636C218.83 30.2348 218.557 29.7614 218.205 29.4432C217.852 29.1212 217.436 28.9602 216.955 28.9602C216.231 28.9602 215.659 29.3201 215.239 30.0398C214.818 30.7557 214.606 31.8068 214.602 33.1932C214.599 34.1212 214.691 34.9015 214.881 35.5341C215.074 36.1667 215.347 36.6439 215.699 36.9659C216.051 37.2841 216.47 37.4432 216.955 37.4432ZM223.405 39V37.4773L227.445 33.517C227.831 33.1269 228.153 32.7803 228.411 32.4773C228.669 32.1742 228.862 31.8807 228.991 31.5966C229.119 31.3125 229.184 31.0095 229.184 30.6875C229.184 30.3201 229.1 30.0057 228.934 29.7443C228.767 29.4792 228.538 29.2746 228.246 29.1307C227.955 28.9867 227.623 28.9148 227.252 28.9148C226.869 28.9148 226.534 28.9943 226.246 29.1534C225.958 29.3087 225.735 29.5303 225.576 29.8182C225.42 30.1061 225.343 30.4489 225.343 30.8466H223.337C223.337 30.108 223.506 29.4659 223.843 28.9205C224.18 28.375 224.644 27.9527 225.235 27.6534C225.83 27.3542 226.511 27.2045 227.28 27.2045C228.061 27.2045 228.746 27.3504 229.337 27.642C229.928 27.9337 230.386 28.3333 230.712 28.8409C231.042 29.3485 231.206 29.928 231.206 30.5795C231.206 31.0152 231.123 31.4432 230.956 31.8636C230.79 32.2841 230.496 32.75 230.076 33.2614C229.659 33.7727 229.074 34.392 228.32 35.1193L226.314 37.1591V37.2386H231.383V39H223.405ZM233.423 39V37.4773L237.463 33.517C237.849 33.1269 238.171 32.7803 238.429 32.4773C238.686 32.1742 238.879 31.8807 239.008 31.5966C239.137 31.3125 239.201 31.0095 239.201 30.6875C239.201 30.3201 239.118 30.0057 238.951 29.7443C238.785 29.4792 238.555 29.2746 238.264 29.1307C237.972 28.9867 237.641 28.9148 237.269 28.9148C236.887 28.9148 236.552 28.9943 236.264 29.1534C235.976 29.3087 235.752 29.5303 235.593 29.8182C235.438 30.1061 235.36 30.4489 235.36 30.8466H233.355C233.355 30.108 233.523 29.4659 233.86 28.9205C234.197 28.375 234.661 27.9527 235.252 27.6534C235.847 27.3542 236.529 27.2045 237.298 27.2045C238.078 27.2045 238.764 27.3504 239.355 27.642C239.946 27.9337 240.404 28.3333 240.73 28.8409C241.059 29.3485 241.224 29.928 241.224 30.5795C241.224 31.0152 241.141 31.4432 240.974 31.8636C240.807 32.2841 240.514 32.75 240.093 33.2614C239.677 33.7727 239.091 34.392 238.338 35.1193L236.332 37.1591V37.2386H241.4V39H233.423Z" fill="black"/>
<path d="M31.4091 64V52.3636H32.8182V57.5455H39.0227V52.3636H40.4318V64H39.0227V58.7955H32.8182V64H31.4091ZM46.6965 64.1818C45.9086 64.1818 45.2173 63.9943 44.6226 63.6193C44.0317 63.2443 43.5696 62.7197 43.2362 62.0455C42.9067 61.3712 42.7419 60.5833 42.7419 59.6818C42.7419 58.7727 42.9067 57.9792 43.2362 57.3011C43.5696 56.6231 44.0317 56.0966 44.6226 55.7216C45.2173 55.3466 45.9086 55.1591 46.6965 55.1591C47.4844 55.1591 48.1738 55.3466 48.7647 55.7216C49.3594 56.0966 49.8215 56.6231 50.151 57.3011C50.4844 57.9792 50.651 58.7727 50.651 59.6818C50.651 60.5833 50.4844 61.3712 50.151 62.0455C49.8215 62.7197 49.3594 63.2443 48.7647 63.6193C48.1738 63.9943 47.4844 64.1818 46.6965 64.1818ZM46.6965 62.9773C47.295 62.9773 47.7874 62.8239 48.1737 62.517C48.5601 62.2102 48.8461 61.8068 49.0317 61.3068C49.2173 60.8068 49.3101 60.2652 49.3101 59.6818C49.3101 59.0985 49.2173 58.5549 49.0317 58.0511C48.8461 57.5473 48.5601 57.1402 48.1737 56.8295C47.7874 56.5189 47.295 56.3636 46.6965 56.3636C46.098 56.3636 45.6056 56.5189 45.2192 56.8295C44.8328 57.1402 44.5469 57.5473 44.3612 58.0511C44.1756 58.5549 44.0828 59.0985 44.0828 59.6818C44.0828 60.2652 44.1756 60.8068 44.3612 61.3068C44.5469 61.8068 44.8328 62.2102 45.2192 62.517C45.6056 62.8239 46.098 62.9773 46.6965 62.9773ZM58.2779 60.4318V55.2727H59.6188V64H58.2779V62.5227H58.187C57.9824 62.9659 57.6643 63.3428 57.2324 63.6534C56.8006 63.9602 56.2552 64.1136 55.5961 64.1136C55.0506 64.1136 54.5658 63.9943 54.1415 63.7557C53.7173 63.5133 53.384 63.1496 53.1415 62.6648C52.8991 62.1761 52.7779 61.5606 52.7779 60.8182V55.2727H54.1188V60.7273C54.1188 61.3636 54.2968 61.8712 54.6529 62.25C55.0127 62.6288 55.4711 62.8182 56.0279 62.8182C56.3612 62.8182 56.7002 62.733 57.0449 62.5625C57.3934 62.392 57.6851 62.1307 57.9199 61.7784C58.1586 61.4261 58.2779 60.9773 58.2779 60.4318ZM68.3366 57.2273L67.132 57.5682C67.0563 57.3674 66.9445 57.1723 66.7968 56.983C66.6529 56.7898 66.4559 56.6307 66.2059 56.5057C65.9559 56.3807 65.6358 56.3182 65.2457 56.3182C64.7116 56.3182 64.2665 56.4413 63.9105 56.6875C63.5582 56.9299 63.382 57.2386 63.382 57.6136C63.382 57.947 63.5033 58.2102 63.7457 58.4034C63.9881 58.5966 64.3669 58.7576 64.882 58.8864L66.1775 59.2045C66.9578 59.3939 67.5392 59.6837 67.9218 60.0739C68.3044 60.4602 68.4957 60.9583 68.4957 61.5682C68.4957 62.0682 68.3517 62.5152 68.0639 62.9091C67.7798 63.303 67.382 63.6136 66.8707 63.8409C66.3593 64.0682 65.7646 64.1818 65.0866 64.1818C64.1964 64.1818 63.4597 63.9886 62.8764 63.6023C62.293 63.2159 61.9237 62.6515 61.7684 61.9091L63.0411 61.5909C63.1623 62.0606 63.3915 62.4129 63.7286 62.6477C64.0695 62.8826 64.5146 63 65.0639 63C65.6889 63 66.1851 62.8674 66.5525 62.6023C66.9237 62.3333 67.1093 62.0114 67.1093 61.6364C67.1093 61.3333 67.0033 61.0795 66.7911 60.875C66.579 60.6667 66.2533 60.5114 65.8139 60.4091L64.3593 60.0682C63.5601 59.8788 62.973 59.5852 62.598 59.1875C62.2267 58.786 62.0411 58.2841 62.0411 57.6818C62.0411 57.1894 62.1794 56.7538 62.4559 56.375C62.7362 55.9962 63.1169 55.6989 63.598 55.483C64.0828 55.267 64.632 55.1591 65.2457 55.1591C66.1093 55.1591 66.7873 55.3485 67.2798 55.7273C67.776 56.1061 68.1283 56.6061 68.3366 57.2273ZM70.5941 64V55.2727H71.9351V64H70.5941ZM71.276 53.8182C71.0146 53.8182 70.7892 53.7292 70.5998 53.5511C70.4142 53.3731 70.3214 53.1591 70.3214 52.9091C70.3214 52.6591 70.4142 52.4451 70.5998 52.267C70.7892 52.089 71.0146 52 71.276 52C71.5373 52 71.7608 52.089 71.9464 52.267C72.1358 52.4451 72.2305 52.6591 72.2305 52.9091C72.2305 53.1591 72.1358 53.3731 71.9464 53.5511C71.7608 53.7292 71.5373 53.8182 71.276 53.8182ZM75.8119 58.75V64H74.471V55.2727H75.7665V56.6364H75.8801C76.0847 56.1932 76.3953 55.8371 76.8119 55.5682C77.2286 55.2955 77.7665 55.1591 78.4256 55.1591C79.0165 55.1591 79.5335 55.2803 79.9767 55.5227C80.4199 55.7614 80.7646 56.125 81.0108 56.6136C81.257 57.0985 81.3801 57.7121 81.3801 58.4545V64H80.0392V58.5455C80.0392 57.8598 79.8612 57.3258 79.5051 56.9432C79.1491 56.5568 78.6604 56.3636 78.0392 56.3636C77.6112 56.3636 77.2286 56.4564 76.8915 56.642C76.5581 56.8277 76.2949 57.0985 76.1017 57.4545C75.9085 57.8106 75.8119 58.2424 75.8119 58.75ZM87.4331 67.4545C86.7854 67.4545 86.2286 67.3712 85.7627 67.2045C85.2968 67.0417 84.9085 66.8258 84.5979 66.5568C84.2911 66.2917 84.0468 66.0076 83.8649 65.7045L84.9331 64.9545C85.0543 65.1136 85.2077 65.2955 85.3934 65.5C85.579 65.7083 85.8327 65.8883 86.1547 66.0398C86.4805 66.1951 86.9066 66.2727 87.4331 66.2727C88.1377 66.2727 88.7191 66.1023 89.1774 65.7614C89.6358 65.4205 89.8649 64.8864 89.8649 64.1591V62.3864H89.7513C89.6528 62.5455 89.5127 62.7424 89.3309 62.9773C89.1528 63.2083 88.8952 63.4148 88.5581 63.5966C88.2248 63.7746 87.774 63.8636 87.2059 63.8636C86.5013 63.8636 85.8687 63.697 85.3081 63.3636C84.7513 63.0303 84.31 62.5455 83.9843 61.9091C83.6623 61.2727 83.5013 60.5 83.5013 59.5909C83.5013 58.697 83.6585 57.9186 83.9729 57.2557C84.2873 56.589 84.7248 56.0739 85.2854 55.7102C85.846 55.3428 86.4937 55.1591 87.2286 55.1591C87.7968 55.1591 88.2475 55.2538 88.5809 55.4432C88.918 55.6288 89.1755 55.8409 89.3536 56.0795C89.5354 56.3144 89.6755 56.5076 89.774 56.6591H89.9104V55.2727H91.2059V64.25C91.2059 65 91.0354 65.6098 90.6945 66.0795C90.3574 66.553 89.9028 66.8996 89.3309 67.1193C88.7627 67.3428 88.1301 67.4545 87.4331 67.4545ZM87.3877 62.6591C87.9255 62.6591 88.3801 62.536 88.7513 62.2898C89.1225 62.0436 89.4047 61.6894 89.5979 61.2273C89.7911 60.7652 89.8877 60.2121 89.8877 59.5682C89.8877 58.9394 89.793 58.3845 89.6036 57.9034C89.4142 57.4223 89.1339 57.0455 88.7627 56.7727C88.3915 56.5 87.9331 56.3636 87.3877 56.3636C86.8195 56.3636 86.346 56.5076 85.9672 56.7955C85.5922 57.0833 85.31 57.4697 85.1206 57.9545C84.935 58.4394 84.8422 58.9773 84.8422 59.5682C84.8422 60.1742 84.9369 60.7102 85.1263 61.1761C85.3195 61.6383 85.6036 62.0019 85.9786 62.267C86.3574 62.5284 86.8271 62.6591 87.3877 62.6591ZM100.275 48.6136V67.75H99.1386V48.6136H100.275ZM108.397 52.3636H110.078L114.033 62.0227H114.169L118.124 52.3636H119.806V64H118.488V55.1591H118.374L114.738 64H113.465L109.828 55.1591H109.715V64H108.397V52.3636ZM126.075 64.1818C125.287 64.1818 124.595 63.9943 124.001 63.6193C123.41 63.2443 122.948 62.7197 122.614 62.0455C122.285 61.3712 122.12 60.5833 122.12 59.6818C122.12 58.7727 122.285 57.9792 122.614 57.3011C122.948 56.6231 123.41 56.0966 124.001 55.7216C124.595 55.3466 125.287 55.1591 126.075 55.1591C126.862 55.1591 127.552 55.3466 128.143 55.7216C128.737 56.0966 129.2 56.6231 129.529 57.3011C129.862 57.9792 130.029 58.7727 130.029 59.6818C130.029 60.5833 129.862 61.3712 129.529 62.0455C129.2 62.7197 128.737 63.2443 128.143 63.6193C127.552 63.9943 126.862 64.1818 126.075 64.1818ZM126.075 62.9773C126.673 62.9773 127.166 62.8239 127.552 62.517C127.938 62.2102 128.224 61.8068 128.41 61.3068C128.595 60.8068 128.688 60.2652 128.688 59.6818C128.688 59.0985 128.595 58.5549 128.41 58.0511C128.224 57.5473 127.938 57.1402 127.552 56.8295C127.166 56.5189 126.673 56.3636 126.075 56.3636C125.476 56.3636 124.984 56.5189 124.597 56.8295C124.211 57.1402 123.925 57.5473 123.739 58.0511C123.554 58.5549 123.461 59.0985 123.461 59.6818C123.461 60.2652 123.554 60.8068 123.739 61.3068C123.925 61.8068 124.211 62.2102 124.597 62.517C124.984 62.8239 125.476 62.9773 126.075 62.9773ZM132.338 64V52.3636H133.679V56.6591H133.792C133.891 56.5076 134.027 56.3144 134.201 56.0795C134.38 55.8409 134.633 55.6288 134.963 55.4432C135.296 55.2538 135.747 55.1591 136.315 55.1591C137.05 55.1591 137.698 55.3428 138.258 55.7102C138.819 56.0777 139.256 56.5985 139.571 57.2727C139.885 57.947 140.042 58.7424 140.042 59.6591C140.042 60.5833 139.885 61.3845 139.571 62.0625C139.256 62.7367 138.821 63.2595 138.264 63.6307C137.707 63.9981 137.065 64.1818 136.338 64.1818C135.777 64.1818 135.328 64.089 134.991 63.9034C134.654 63.714 134.395 63.5 134.213 63.2614C134.031 63.0189 133.891 62.8182 133.792 62.6591H133.633V64H132.338ZM133.656 59.6364C133.656 60.2955 133.753 60.8769 133.946 61.3807C134.139 61.8807 134.421 62.2727 134.792 62.5568C135.164 62.8371 135.618 62.9773 136.156 62.9773C136.717 62.9773 137.184 62.8295 137.559 62.5341C137.938 62.2348 138.222 61.8333 138.412 61.3295C138.605 60.822 138.701 60.2576 138.701 59.6364C138.701 59.0227 138.607 58.4697 138.417 57.9773C138.232 57.4811 137.95 57.089 137.571 56.8011C137.196 56.5095 136.724 56.3636 136.156 56.3636C135.611 56.3636 135.152 56.5019 134.781 56.7784C134.41 57.0511 134.13 57.4337 133.94 57.9261C133.751 58.4148 133.656 58.9848 133.656 59.6364ZM142.174 64V55.2727H143.514V64H142.174ZM142.855 53.8182C142.594 53.8182 142.369 53.7292 142.179 53.5511C141.994 53.3731 141.901 53.1591 141.901 52.9091C141.901 52.6591 141.994 52.4451 142.179 52.267C142.369 52.089 142.594 52 142.855 52C143.117 52 143.34 52.089 143.526 52.267C143.715 52.4451 143.81 52.6591 143.81 52.9091C143.81 53.1591 143.715 53.3731 143.526 53.5511C143.34 53.7292 143.117 53.8182 142.855 53.8182ZM147.391 52.3636V64H146.05V52.3636H147.391ZM149.927 64V55.2727H151.268V64H149.927ZM150.609 53.8182C150.348 53.8182 150.122 53.7292 149.933 53.5511C149.747 53.3731 149.655 53.1591 149.655 52.9091C149.655 52.6591 149.747 52.4451 149.933 52.267C150.122 52.089 150.348 52 150.609 52C150.87 52 151.094 52.089 151.28 52.267C151.469 52.4451 151.564 52.6591 151.564 52.9091C151.564 53.1591 151.469 53.3731 151.28 53.5511C151.094 53.7292 150.87 53.8182 150.609 53.8182ZM157.6 55.2727V56.4091H153.077V55.2727H157.6ZM154.395 53.1818H155.736V61.5C155.736 61.8788 155.791 62.1629 155.901 62.3523C156.014 62.5379 156.158 62.6629 156.333 62.7273C156.511 62.7879 156.698 62.8182 156.895 62.8182C157.043 62.8182 157.164 62.8106 157.259 62.7955C157.353 62.7765 157.429 62.7614 157.486 62.75L157.759 63.9545C157.668 63.9886 157.541 64.0227 157.378 64.0568C157.215 64.0947 157.009 64.1136 156.759 64.1136C156.38 64.1136 156.009 64.0322 155.645 63.8693C155.285 63.7064 154.986 63.4583 154.747 63.125C154.512 62.7917 154.395 62.3712 154.395 61.8636V53.1818ZM160.56 67.2727C160.333 67.2727 160.13 67.2538 159.952 67.2159C159.774 67.1818 159.651 67.1477 159.583 67.1136L159.924 65.9318C160.25 66.0152 160.538 66.0455 160.788 66.0227C161.038 66 161.259 65.8883 161.452 65.6875C161.649 65.4905 161.829 65.1705 161.992 64.7273L162.242 64.0455L159.015 55.2727H160.469L162.878 62.2273H162.969L165.378 55.2727H166.833L163.128 65.2727C162.962 65.7235 162.755 66.0966 162.509 66.392C162.263 66.6913 161.977 66.9129 161.651 67.0568C161.329 67.2008 160.966 67.2727 160.56 67.2727ZM175.217 48.6136V67.75H174.081V48.6136H175.217ZM182.703 53.6136V52.3636H191.43V53.6136H187.771V64H186.362V53.6136H182.703ZM195.783 64.1818C194.995 64.1818 194.304 63.9943 193.709 63.6193C193.118 63.2443 192.656 62.7197 192.322 62.0455C191.993 61.3712 191.828 60.5833 191.828 59.6818C191.828 58.7727 191.993 57.9792 192.322 57.3011C192.656 56.6231 193.118 56.0966 193.709 55.7216C194.304 55.3466 194.995 55.1591 195.783 55.1591C196.571 55.1591 197.26 55.3466 197.851 55.7216C198.446 56.0966 198.908 56.6231 199.237 57.3011C199.571 57.9792 199.737 58.7727 199.737 59.6818C199.737 60.5833 199.571 61.3712 199.237 62.0455C198.908 62.7197 198.446 63.2443 197.851 63.6193C197.26 63.9943 196.571 64.1818 195.783 64.1818ZM195.783 62.9773C196.381 62.9773 196.874 62.8239 197.26 62.517C197.646 62.2102 197.932 61.8068 198.118 61.3068C198.304 60.8068 198.396 60.2652 198.396 59.6818C198.396 59.0985 198.304 58.5549 198.118 58.0511C197.932 57.5473 197.646 57.1402 197.26 56.8295C196.874 56.5189 196.381 56.3636 195.783 56.3636C195.184 56.3636 194.692 56.5189 194.305 56.8295C193.919 57.1402 193.633 57.5473 193.447 58.0511C193.262 58.5549 193.169 59.0985 193.169 59.6818C193.169 60.2652 193.262 60.8068 193.447 61.3068C193.633 61.8068 193.919 62.2102 194.305 62.517C194.692 62.8239 195.184 62.9773 195.783 62.9773ZM207.364 60.4318V55.2727H208.705V64H207.364V62.5227H207.273C207.069 62.9659 206.751 63.3428 206.319 63.6534C205.887 63.9602 205.341 64.1136 204.682 64.1136C204.137 64.1136 203.652 63.9943 203.228 63.7557C202.804 63.5133 202.47 63.1496 202.228 62.6648C201.985 62.1761 201.864 61.5606 201.864 60.8182V55.2727H203.205V60.7273C203.205 61.3636 203.383 61.8712 203.739 62.25C204.099 62.6288 204.557 62.8182 205.114 62.8182C205.447 62.8182 205.786 62.733 206.131 62.5625C206.48 62.392 206.771 62.1307 207.006 61.7784C207.245 61.4261 207.364 60.9773 207.364 60.4318ZM211.241 64V55.2727H212.536V56.5909H212.627C212.786 56.1591 213.074 55.8087 213.491 55.5398C213.908 55.2708 214.377 55.1364 214.9 55.1364C214.999 55.1364 215.122 55.1383 215.269 55.142C215.417 55.1458 215.529 55.1515 215.605 55.1591V56.5227C215.559 56.5114 215.455 56.4943 215.292 56.4716C215.133 56.4451 214.965 56.4318 214.786 56.4318C214.362 56.4318 213.983 56.5208 213.65 56.6989C213.321 56.8731 213.059 57.1155 212.866 57.4261C212.677 57.733 212.582 58.0833 212.582 58.4773V64H211.241Z" fill="black"/>
<rect x="270" y="39" width="94" height="34" rx="12" fill="#0298F0"/>
<path d="M284.773 61H281.076V50.0909H284.847C285.93 50.0909 286.861 50.3093 287.638 50.7461C288.42 51.1793 289.02 51.8026 289.439 52.6158C289.858 53.429 290.067 54.402 290.067 55.5348C290.067 56.6712 289.856 57.6477 289.434 58.4645C289.015 59.2812 288.409 59.908 287.617 60.3448C286.829 60.7816 285.881 61 284.773 61ZM283.052 59.2901H284.677C285.437 59.2901 286.071 59.1516 286.578 58.8746C287.086 58.5941 287.468 58.1768 287.724 57.6229C287.979 57.0653 288.107 56.3693 288.107 55.5348C288.107 54.7003 287.979 54.0078 287.724 53.4574C287.468 52.9034 287.09 52.4897 286.589 52.2163C286.092 51.9393 285.474 51.8008 284.735 51.8008H283.052V59.2901ZM295.504 61.1598C294.705 61.1598 294.012 60.984 293.426 60.6325C292.84 60.2809 292.386 59.7891 292.063 59.157C291.743 58.5249 291.583 57.7862 291.583 56.9411C291.583 56.0959 291.743 55.3555 292.063 54.7198C292.386 54.0842 292.84 53.5906 293.426 53.239C294.012 52.8874 294.705 52.7116 295.504 52.7116C296.303 52.7116 296.995 52.8874 297.581 53.239C298.167 53.5906 298.62 54.0842 298.94 54.7198C299.263 55.3555 299.424 56.0959 299.424 56.9411C299.424 57.7862 299.263 58.5249 298.94 59.157C298.62 59.7891 298.167 60.2809 297.581 60.6325C296.995 60.984 296.303 61.1598 295.504 61.1598ZM295.514 59.6151C295.948 59.6151 296.31 59.4961 296.601 59.2582C296.892 59.0167 297.109 58.6935 297.251 58.2887C297.397 57.8839 297.469 57.4329 297.469 56.9357C297.469 56.435 297.397 55.9822 297.251 55.5774C297.109 55.169 296.892 54.8441 296.601 54.6026C296.31 54.3612 295.948 54.2404 295.514 54.2404C295.071 54.2404 294.701 54.3612 294.406 54.6026C294.115 54.8441 293.897 55.169 293.751 55.5774C293.609 55.9822 293.538 56.435 293.538 56.9357C293.538 57.4329 293.609 57.8839 293.751 58.2887C293.897 58.6935 294.115 59.0167 294.406 59.2582C294.701 59.4961 295.071 59.6151 295.514 59.6151ZM302.59 61L300.278 52.8182H302.244L303.682 58.571H303.757L305.227 52.8182H307.171L308.641 58.5391H308.721L310.138 52.8182H312.109L309.792 61H307.784L306.25 55.4709H306.138L304.604 61H302.59ZM315.458 56.206V61H313.53V52.8182H315.373V54.2085H315.469C315.657 53.7504 315.957 53.3864 316.369 53.1165C316.785 52.8466 317.298 52.7116 317.909 52.7116C318.473 52.7116 318.965 52.8324 319.384 53.0739C319.807 53.3153 320.134 53.6651 320.364 54.1232C320.599 54.5813 320.714 55.1371 320.711 55.7905V61H318.782V56.0888C318.782 55.5419 318.64 55.114 318.356 54.805C318.076 54.4961 317.687 54.3416 317.19 54.3416C316.852 54.3416 316.552 54.4162 316.289 54.5653C316.03 54.7109 315.826 54.9222 315.677 55.1992C315.531 55.4762 315.458 55.8118 315.458 56.206ZM324.674 50.0909V61H322.746V50.0909H324.674ZM330.301 61.1598C329.502 61.1598 328.809 60.984 328.223 60.6325C327.638 60.2809 327.183 59.7891 326.86 59.157C326.54 58.5249 326.38 57.7862 326.38 56.9411C326.38 56.0959 326.54 55.3555 326.86 54.7198C327.183 54.0842 327.638 53.5906 328.223 53.239C328.809 52.8874 329.502 52.7116 330.301 52.7116C331.1 52.7116 331.792 52.8874 332.378 53.239C332.964 53.5906 333.417 54.0842 333.737 54.7198C334.06 55.3555 334.221 56.0959 334.221 56.9411C334.221 57.7862 334.06 58.5249 333.737 59.157C333.417 59.7891 332.964 60.2809 332.378 60.6325C331.792 60.984 331.1 61.1598 330.301 61.1598ZM330.312 59.6151C330.745 59.6151 331.107 59.4961 331.398 59.2582C331.689 59.0167 331.906 58.6935 332.048 58.2887C332.194 57.8839 332.266 57.4329 332.266 56.9357C332.266 56.435 332.194 55.9822 332.048 55.5774C331.906 55.169 331.689 54.8441 331.398 54.6026C331.107 54.3612 330.745 54.2404 330.312 54.2404C329.868 54.2404 329.498 54.3612 329.204 54.6026C328.912 54.8441 328.694 55.169 328.548 55.5774C328.406 55.9822 328.335 56.435 328.335 56.9357C328.335 57.4329 328.406 57.8839 328.548 58.2887C328.694 58.6935 328.912 59.0167 329.204 59.2582C329.498 59.4961 329.868 59.6151 330.312 59.6151ZM338.287 61.1651C337.769 61.1651 337.302 61.0728 336.886 60.8881C336.475 60.6999 336.148 60.4229 335.906 60.0572C335.668 59.6914 335.549 59.2404 335.549 58.7042C335.549 58.2425 335.635 57.8608 335.805 57.5589C335.976 57.2571 336.208 57.0156 336.503 56.8345C336.798 56.6534 337.13 56.5167 337.499 56.4244C337.872 56.3285 338.257 56.2592 338.655 56.2166C339.134 56.1669 339.523 56.1225 339.821 56.0835C340.12 56.0408 340.336 55.9769 340.471 55.8917C340.61 55.8029 340.679 55.6662 340.679 55.4815V55.4496C340.679 55.0483 340.56 54.7376 340.322 54.5174C340.084 54.2972 339.742 54.1871 339.294 54.1871C338.822 54.1871 338.447 54.2901 338.17 54.4961C337.897 54.7021 337.712 54.9453 337.616 55.2259L335.816 54.9702C335.958 54.473 336.192 54.0575 336.519 53.7237C336.846 53.3864 337.245 53.1342 337.717 52.9673C338.19 52.7969 338.712 52.7116 339.283 52.7116C339.678 52.7116 340.07 52.7578 340.461 52.8501C340.851 52.9425 341.208 53.0952 341.531 53.3082C341.854 53.5178 342.114 53.8036 342.309 54.1658C342.508 54.5281 342.607 54.9808 342.607 55.5241V61H340.754V59.8761H340.69C340.573 60.1033 340.407 60.3164 340.194 60.5153C339.985 60.7106 339.72 60.8686 339.401 60.9893C339.085 61.1065 338.713 61.1651 338.287 61.1651ZM338.788 59.7482C339.175 59.7482 339.511 59.6719 339.795 59.5192C340.079 59.3629 340.297 59.157 340.45 58.9013C340.606 58.6456 340.684 58.3668 340.684 58.065V57.1009C340.624 57.1506 340.521 57.1967 340.375 57.2393C340.233 57.282 340.074 57.3192 339.896 57.3512C339.718 57.3832 339.543 57.4116 339.369 57.4364C339.195 57.4613 339.044 57.4826 338.916 57.5004C338.628 57.5394 338.371 57.6033 338.144 57.6921C337.916 57.7809 337.737 57.9052 337.606 58.065C337.474 58.2212 337.408 58.4237 337.408 58.6722C337.408 59.0273 337.538 59.2955 337.797 59.4766C338.057 59.6577 338.387 59.7482 338.788 59.7482ZM347.657 61.1438C347.015 61.1438 346.439 60.9787 345.932 60.6484C345.424 60.3182 345.023 59.8388 344.728 59.2102C344.433 58.5817 344.286 57.8182 344.286 56.9197C344.286 56.0107 344.435 55.2436 344.733 54.6186C345.035 53.9901 345.442 53.516 345.953 53.1964C346.464 52.8732 347.034 52.7116 347.663 52.7116C348.142 52.7116 348.536 52.7933 348.845 52.9567C349.154 53.1165 349.399 53.31 349.58 53.5373C349.762 53.761 349.902 53.9723 350.001 54.1712H350.081V50.0909H352.015V61H350.118V59.7109H350.001C349.902 59.9098 349.758 60.1211 349.57 60.3448C349.382 60.565 349.133 60.7532 348.824 60.9094C348.515 61.0657 348.126 61.1438 347.657 61.1438ZM348.195 59.5618C348.604 59.5618 348.952 59.4517 349.239 59.2315C349.527 59.0078 349.746 58.6971 349.895 58.2994C350.044 57.9016 350.118 57.4382 350.118 56.9091C350.118 56.38 350.044 55.9201 349.895 55.5295C349.749 55.1388 349.532 54.8352 349.245 54.6186C348.961 54.402 348.611 54.2937 348.195 54.2937C347.766 54.2937 347.407 54.4055 347.119 54.6293C346.832 54.853 346.615 55.1619 346.47 55.5561C346.324 55.9503 346.251 56.4013 346.251 56.9091C346.251 57.4205 346.324 57.8768 346.47 58.2781C346.619 58.6758 346.837 58.9901 347.125 59.2209C347.416 59.4482 347.773 59.5618 348.195 59.5618Z" fill="white"/>
</g>
<defs>
<filter id="filter0_d_119_3049" x="0" y="0" width="386" height="123" filterUnits="userSpaceOnUse" color-interpolation-filters="sRGB">
<feFlood flood-opacity="0" result="BackgroundImageFix"/>
<feColorMatrix in="SourceAlpha" type="matrix" values="0 0 0 0 0 0 0 0 0 0 0 0 0 0 0 0 0 0 127 0" result="hardAlpha"/>
<feOffset dy="6"/>
<feGaussianBlur stdDeviation="5"/>
<feComposite in2="hardAlpha" operator="out"/>
<feColorMatrix type="matrix" values="0 0 0 0 0 0 0 0 0 0 0 0 0 0 0 0 0 0 0.14 0"/>
<feBlend mode="normal" in2="BackgroundImageFix" result="effect1_dropShadow_119_3049"/>
<feBlend mode="normal" in="SourceGraphic" in2="effect1_dropShadow_119_3049" result="shape"/>
</filter>
</defs>
</svg>
