<svg width="386" height="123" viewBox="0 0 386 123" fill="none" xmlns="http://www.w3.org/2000/svg">
<g filter="url(#filter0_d_119_3044)">
<rect x="10" y="4" width="366" height="103" rx="12" fill="#F2F2F2"/>
<path d="M40.4137 30.7717H38.4215C38.3647 30.445 38.2599 30.1555 38.1072 29.9034C37.9545 29.6477 37.7646 29.4311 37.5373 29.2536C37.31 29.076 37.0508 28.9428 36.7596 28.854C36.4719 28.7617 36.1612 28.7156 35.8274 28.7156C35.2344 28.7156 34.7088 28.8647 34.2507 29.163C33.7926 29.4577 33.4339 29.891 33.1747 30.4627C32.9155 31.0309 32.7859 31.7251 32.7859 32.5455C32.7859 33.38 32.9155 34.0831 33.1747 34.6548C33.4375 35.223 33.7962 35.6527 34.2507 35.9439C34.7088 36.2315 35.2326 36.3754 35.8221 36.3754C36.1488 36.3754 36.4542 36.3327 36.7383 36.2475C37.0259 36.1587 37.2834 36.0291 37.5107 35.8587C37.7415 35.6882 37.935 35.4787 38.0913 35.2301C38.2511 34.9815 38.3612 34.6974 38.4215 34.3778L40.4137 34.3885C40.3391 34.907 40.1776 35.3935 39.929 35.848C39.6839 36.3026 39.3626 36.7038 38.9648 37.0518C38.5671 37.3963 38.1019 37.6662 37.5692 37.8615C37.0366 38.0533 36.4453 38.1491 35.7955 38.1491C34.8366 38.1491 33.9808 37.9272 33.228 37.4833C32.4751 37.0394 31.8821 36.3984 31.4489 35.5604C31.0156 34.7223 30.799 33.7173 30.799 32.5455C30.799 31.37 31.0174 30.3651 31.4542 29.5305C31.891 28.6925 32.4858 28.0515 33.2386 27.6076C33.9915 27.1637 34.8438 26.9418 35.7955 26.9418C36.4027 26.9418 36.9673 27.027 37.4893 27.1974C38.0114 27.3679 38.4766 27.6183 38.8849 27.9485C39.2933 28.2752 39.6289 28.6765 39.8917 29.1523C40.158 29.6246 40.332 30.1644 40.4137 30.7717ZM45.7821 38.1598C44.9831 38.1598 44.2906 37.984 43.7047 37.6325C43.1188 37.2809 42.6642 36.7891 42.3411 36.157C42.0215 35.5249 41.8617 34.7862 41.8617 33.9411C41.8617 33.0959 42.0215 32.3555 42.3411 31.7198C42.6642 31.0842 43.1188 30.5906 43.7047 30.239C44.2906 29.8874 44.9831 29.7116 45.7821 29.7116C46.5811 29.7116 47.2736 29.8874 47.8595 30.239C48.4455 30.5906 48.8982 31.0842 49.2178 31.7198C49.541 32.3555 49.7026 33.0959 49.7026 33.9411C49.7026 34.7862 49.541 35.5249 49.2178 36.157C48.8982 36.7891 48.4455 37.2809 47.8595 37.6325C47.2736 37.984 46.5811 38.1598 45.7821 38.1598ZM45.7928 36.6151C46.226 36.6151 46.5882 36.4961 46.8794 36.2582C47.1706 36.0167 47.3872 35.6935 47.5293 35.2887C47.6749 34.8839 47.7477 34.4329 47.7477 33.9357C47.7477 33.435 47.6749 32.9822 47.5293 32.5774C47.3872 32.169 47.1706 31.8441 46.8794 31.6026C46.5882 31.3612 46.226 31.2404 45.7928 31.2404C45.3489 31.2404 44.9796 31.3612 44.6848 31.6026C44.3936 31.8441 44.1752 32.169 44.0296 32.5774C43.8876 32.9822 43.8166 33.435 43.8166 33.9357C43.8166 34.4329 43.8876 34.8839 44.0296 35.2887C44.1752 35.6935 44.3936 36.0167 44.6848 36.2582C44.9796 36.4961 45.3489 36.6151 45.7928 36.6151ZM56.629 34.5589V29.8182H58.5573V38H56.6876V36.5458H56.6024C56.4178 37.0039 56.1141 37.3786 55.6915 37.6697C55.2725 37.9609 54.7558 38.1065 54.1415 38.1065C53.6053 38.1065 53.1312 37.9876 52.7192 37.7496C52.3109 37.5082 51.9913 37.1584 51.7604 36.7003C51.5296 36.2386 51.4142 35.6811 51.4142 35.0277V29.8182H53.3425V34.7294C53.3425 35.2479 53.4845 35.6598 53.7686 35.9652C54.0527 36.2706 54.4256 36.4233 54.8872 36.4233C55.1713 36.4233 55.4465 36.354 55.7129 36.2156C55.9792 36.0771 56.1976 35.8711 56.368 35.5977C56.542 35.3207 56.629 34.9744 56.629 34.5589ZM60.6152 41.0682V29.8182H62.5115V31.1712H62.6233C62.7228 30.9723 62.8631 30.761 63.0442 30.5373C63.2253 30.31 63.4703 30.1165 63.7792 29.9567C64.0882 29.7933 64.4824 29.7116 64.9618 29.7116C65.5939 29.7116 66.1638 29.8732 66.6716 30.1964C67.183 30.516 67.5878 30.9901 67.8861 31.6186C68.188 32.2436 68.3389 33.0107 68.3389 33.9197C68.3389 34.8182 68.1915 35.5817 67.8968 36.2102C67.602 36.8388 67.2008 37.3182 66.693 37.6484C66.1851 37.9787 65.6099 38.1438 64.9671 38.1438C64.4983 38.1438 64.1095 38.0657 63.8006 37.9094C63.4916 37.7532 63.243 37.565 63.0548 37.3448C62.8702 37.1211 62.7263 36.9098 62.6233 36.7109H62.5434V41.0682H60.6152ZM62.5062 33.9091C62.5062 34.4382 62.5807 34.9016 62.7299 35.2994C62.8826 35.6971 63.101 36.0078 63.3851 36.2315C63.6727 36.4517 64.0207 36.5618 64.4291 36.5618C64.8552 36.5618 65.2121 36.4482 65.4998 36.2209C65.7874 35.9901 66.004 35.6758 66.1496 35.2781C66.2988 34.8768 66.3733 34.4205 66.3733 33.9091C66.3733 33.4013 66.3006 32.9503 66.155 32.5561C66.0094 32.1619 65.7927 31.853 65.5051 31.6293C65.2175 31.4055 64.8588 31.2937 64.4291 31.2937C64.0172 31.2937 63.6674 31.402 63.3797 31.6186C63.0921 31.8352 62.8737 32.1388 62.7246 32.5295C62.579 32.9201 62.5062 33.38 62.5062 33.9091ZM73.6341 38.1598C72.8351 38.1598 72.1426 37.984 71.5567 37.6325C70.9707 37.2809 70.5162 36.7891 70.193 36.157C69.8734 35.5249 69.7136 34.7862 69.7136 33.9411C69.7136 33.0959 69.8734 32.3555 70.193 31.7198C70.5162 31.0842 70.9707 30.5906 71.5567 30.239C72.1426 29.8874 72.8351 29.7116 73.6341 29.7116C74.4331 29.7116 75.1255 29.8874 75.7115 30.239C76.2974 30.5906 76.7502 31.0842 77.0698 31.7198C77.393 32.3555 77.5545 33.0959 77.5545 33.9411C77.5545 34.7862 77.393 35.5249 77.0698 36.157C76.7502 36.7891 76.2974 37.2809 75.7115 37.6325C75.1255 37.984 74.4331 38.1598 73.6341 38.1598ZM73.6447 36.6151C74.078 36.6151 74.4402 36.4961 74.7314 36.2582C75.0226 36.0167 75.2392 35.6935 75.3812 35.2887C75.5268 34.8839 75.5996 34.4329 75.5996 33.9357C75.5996 33.435 75.5268 32.9822 75.3812 32.5774C75.2392 32.169 75.0226 31.8441 74.7314 31.6026C74.4402 31.3612 74.078 31.2404 73.6447 31.2404C73.2008 31.2404 72.8315 31.3612 72.5368 31.6026C72.2456 31.8441 72.0272 32.169 71.8816 32.5774C71.7395 32.9822 71.6685 33.435 71.6685 33.9357C71.6685 34.4329 71.7395 34.8839 71.8816 35.2887C72.0272 35.6935 72.2456 36.0167 72.5368 36.2582C72.8315 36.4961 73.2008 36.6151 73.6447 36.6151ZM81.1944 33.206V38H79.2662V29.8182H81.1092V31.2085H81.2051C81.3933 30.7504 81.6934 30.3864 82.1053 30.1165C82.5208 29.8466 83.0339 29.7116 83.6447 29.7116C84.2093 29.7116 84.7012 29.8324 85.1202 30.0739C85.5428 30.3153 85.8695 30.6651 86.1003 31.1232C86.3347 31.5813 86.4501 32.1371 86.4466 32.7905V38H84.5183V33.0888C84.5183 32.5419 84.3762 32.114 84.0922 31.805C83.8116 31.4961 83.4228 31.3416 82.9256 31.3416C82.5882 31.3416 82.2882 31.4162 82.0254 31.5653C81.7662 31.7109 81.562 31.9222 81.4128 32.1992C81.2672 32.4762 81.1944 32.8118 81.1944 33.206ZM94.9484 31.9808L93.1906 32.1726C93.1409 31.995 93.0539 31.8281 92.9296 31.6719C92.8088 31.5156 92.6455 31.3896 92.4395 31.2937C92.2336 31.1978 91.9814 31.1499 91.6831 31.1499C91.2819 31.1499 90.9445 31.2369 90.6711 31.4109C90.4012 31.5849 90.268 31.8104 90.2716 32.0874C90.268 32.3253 90.355 32.5188 90.5326 32.668C90.7137 32.8171 91.012 32.9396 91.4275 33.0355L92.823 33.3338C93.5972 33.5007 94.1725 33.7653 94.5489 34.1275C94.9289 34.4897 95.1206 34.9638 95.1242 35.5497C95.1206 36.0646 94.9697 36.5192 94.6714 36.9134C94.3767 37.304 93.9665 37.6094 93.4409 37.8295C92.9154 38.0497 92.3117 38.1598 91.6299 38.1598C90.6284 38.1598 89.8223 37.9503 89.2115 37.5312C88.6007 37.1087 88.2368 36.521 88.1196 35.7681L89.9999 35.587C90.0851 35.9563 90.2662 36.2351 90.5432 36.4233C90.8202 36.6115 91.1806 36.7056 91.6245 36.7056C92.0826 36.7056 92.4502 36.6115 92.7272 36.4233C93.0077 36.2351 93.148 36.0025 93.148 35.7255C93.148 35.4911 93.0574 35.2976 92.8763 35.1449C92.6988 34.9922 92.4218 34.875 92.0453 34.7933L90.6498 34.5004C89.865 34.337 89.2843 34.0618 88.9079 33.6747C88.5315 33.2841 88.3451 32.7905 88.3486 32.1939C88.3451 31.6896 88.4818 31.2528 88.7588 30.8835C89.0393 30.5107 89.4282 30.223 89.9253 30.0206C90.426 29.8146 91.0031 29.7116 91.6565 29.7116C92.6153 29.7116 93.3699 29.9158 93.9203 30.3242C94.4743 30.7326 94.817 31.2848 94.9484 31.9808ZM104.729 29.8182V31.3097H99.8924V29.8182H104.729ZM101.102 38V29.0458C101.102 28.4954 101.215 28.0373 101.443 27.6715C101.673 27.3058 101.982 27.0323 102.369 26.8512C102.756 26.6701 103.186 26.5795 103.658 26.5795C103.992 26.5795 104.289 26.6062 104.548 26.6594C104.807 26.7127 104.999 26.7607 105.123 26.8033L104.74 28.2947C104.658 28.2699 104.555 28.245 104.431 28.2202C104.306 28.1918 104.168 28.1776 104.015 28.1776C103.657 28.1776 103.403 28.2646 103.254 28.4386C103.108 28.609 103.035 28.854 103.035 29.1737V38H101.102ZM109.575 38.1598C108.776 38.1598 108.084 37.984 107.498 37.6325C106.912 37.2809 106.458 36.7891 106.134 36.157C105.815 35.5249 105.655 34.7862 105.655 33.9411C105.655 33.0959 105.815 32.3555 106.134 31.7198C106.458 31.0842 106.912 30.5906 107.498 30.239C108.084 29.8874 108.776 29.7116 109.575 29.7116C110.374 29.7116 111.067 29.8874 111.653 30.239C112.239 30.5906 112.692 31.0842 113.011 31.7198C113.334 32.3555 113.496 33.0959 113.496 33.9411C113.496 34.7862 113.334 35.5249 113.011 36.157C112.692 36.7891 112.239 37.2809 111.653 37.6325C111.067 37.984 110.374 38.1598 109.575 38.1598ZM109.586 36.6151C110.019 36.6151 110.382 36.4961 110.673 36.2582C110.964 36.0167 111.181 35.6935 111.323 35.2887C111.468 34.8839 111.541 34.4329 111.541 33.9357C111.541 33.435 111.468 32.9822 111.323 32.5774C111.181 32.169 110.964 31.8441 110.673 31.6026C110.382 31.3612 110.019 31.2404 109.586 31.2404C109.142 31.2404 108.773 31.3612 108.478 31.6026C108.187 31.8441 107.969 32.169 107.823 32.5774C107.681 32.9822 107.61 33.435 107.61 33.9357C107.61 34.4329 107.681 34.8839 107.823 35.2887C107.969 35.6935 108.187 36.0167 108.478 36.2582C108.773 36.4961 109.142 36.6151 109.586 36.6151ZM115.208 38V29.8182H117.077V31.1818H117.162C117.312 30.7095 117.567 30.3455 117.93 30.0898C118.295 29.8306 118.713 29.701 119.181 29.701C119.288 29.701 119.407 29.7063 119.538 29.717C119.673 29.7241 119.785 29.7365 119.874 29.7543V31.5281C119.792 31.4996 119.662 31.4748 119.485 31.4535C119.311 31.4286 119.142 31.4162 118.979 31.4162C118.627 31.4162 118.311 31.4925 118.031 31.6452C117.754 31.7944 117.535 32.0021 117.376 32.2685C117.216 32.5348 117.136 32.842 117.136 33.19V38H115.208ZM134.076 27.0909V38H132.318L127.178 30.5692H127.087V38H125.111V27.0909H126.879L132.014 34.527H132.11V27.0909H134.076ZM139.788 38.1598C138.989 38.1598 138.296 37.984 137.71 37.6325C137.124 37.2809 136.67 36.7891 136.347 36.157C136.027 35.5249 135.867 34.7862 135.867 33.9411C135.867 33.0959 136.027 32.3555 136.347 31.7198C136.67 31.0842 137.124 30.5906 137.71 30.239C138.296 29.8874 138.989 29.7116 139.788 29.7116C140.587 29.7116 141.279 29.8874 141.865 30.239C142.451 30.5906 142.904 31.0842 143.223 31.7198C143.546 32.3555 143.708 33.0959 143.708 33.9411C143.708 34.7862 143.546 35.5249 143.223 36.157C142.904 36.7891 142.451 37.2809 141.865 37.6325C141.279 37.984 140.587 38.1598 139.788 38.1598ZM139.798 36.6151C140.231 36.6151 140.594 36.4961 140.885 36.2582C141.176 36.0167 141.393 35.6935 141.535 35.2887C141.68 34.8839 141.753 34.4329 141.753 33.9357C141.753 33.435 141.68 32.9822 141.535 32.5774C141.393 32.169 141.176 31.8441 140.885 31.6026C140.594 31.3612 140.231 31.2404 139.798 31.2404C139.354 31.2404 138.985 31.3612 138.69 31.6026C138.399 31.8441 138.181 32.169 138.035 32.5774C137.893 32.9822 137.822 33.435 137.822 33.9357C137.822 34.4329 137.893 34.8839 138.035 35.2887C138.181 35.6935 138.399 36.0167 138.69 36.2582C138.985 36.4961 139.354 36.6151 139.798 36.6151ZM152.45 29.8182L149.536 38H147.405L144.491 29.8182H146.548L148.428 35.896H148.513L150.399 29.8182H152.45ZM157.203 38.1598C156.382 38.1598 155.674 37.9893 155.077 37.6484C154.484 37.304 154.028 36.8175 153.708 36.1889C153.389 35.5568 153.229 34.8129 153.229 33.957C153.229 33.1154 153.389 32.3768 153.708 31.7411C154.032 31.1019 154.483 30.6048 155.061 30.2496C155.64 29.891 156.32 29.7116 157.102 29.7116C157.606 29.7116 158.082 29.7933 158.529 29.9567C158.98 30.1165 159.378 30.3651 159.722 30.7024C160.07 31.0398 160.344 31.4695 160.543 31.9915C160.741 32.5099 160.841 33.1278 160.841 33.8452V34.4364H154.135V33.1367H158.993C158.989 32.7674 158.909 32.4389 158.753 32.1513C158.597 31.8601 158.378 31.631 158.098 31.4641C157.821 31.2972 157.498 31.2138 157.128 31.2138C156.734 31.2138 156.388 31.3097 156.089 31.5014C155.791 31.6896 155.559 31.9382 155.392 32.2472C155.228 32.5526 155.145 32.8881 155.141 33.2539V34.3885C155.141 34.8643 155.228 35.2727 155.402 35.6136C155.576 35.951 155.82 36.2102 156.132 36.3913C156.445 36.5689 156.81 36.6577 157.229 36.6577C157.51 36.6577 157.764 36.6186 157.991 36.5405C158.218 36.4588 158.415 36.3398 158.582 36.1836C158.749 36.0273 158.875 35.8338 158.961 35.603L160.761 35.8054C160.647 36.2812 160.431 36.6967 160.111 37.0518C159.795 37.4034 159.39 37.6768 158.897 37.8722C158.403 38.0639 157.838 38.1598 157.203 38.1598ZM162.547 38V29.8182H164.39V31.2085H164.486C164.657 30.7397 164.939 30.3739 165.333 30.1112C165.727 29.8448 166.198 29.7116 166.745 29.7116C167.299 29.7116 167.766 29.8466 168.146 30.1165C168.529 30.3828 168.799 30.7468 168.955 31.2085H169.04C169.222 30.7539 169.527 30.3917 169.957 30.1218C170.39 29.8484 170.903 29.7116 171.496 29.7116C172.249 29.7116 172.863 29.9496 173.339 30.4254C173.815 30.9013 174.053 31.5955 174.053 32.5082V38H172.119V32.8065C172.119 32.2987 171.984 31.9276 171.714 31.6932C171.445 31.4553 171.114 31.3363 170.724 31.3363C170.259 31.3363 169.895 31.4819 169.632 31.7731C169.372 32.0607 169.243 32.4354 169.243 32.897V38H167.352V32.7266C167.352 32.304 167.224 31.9666 166.968 31.7145C166.716 31.4624 166.386 31.3363 165.978 31.3363C165.701 31.3363 165.448 31.4073 165.221 31.5494C164.994 31.6879 164.813 31.8849 164.678 32.1406C164.543 32.3928 164.475 32.6875 164.475 33.0249V38H162.547ZM176.169 38V27.0909H178.098V31.1712H178.178C178.277 30.9723 178.417 30.761 178.598 30.5373C178.779 30.31 179.024 30.1165 179.333 29.9567C179.642 29.7933 180.037 29.7116 180.516 29.7116C181.148 29.7116 181.718 29.8732 182.226 30.1964C182.737 30.516 183.142 30.9901 183.44 31.6186C183.742 32.2436 183.893 33.0107 183.893 33.9197C183.893 34.8182 183.746 35.5817 183.451 36.2102C183.156 36.8388 182.755 37.3182 182.247 37.6484C181.739 37.9787 181.164 38.1438 180.521 38.1438C180.053 38.1438 179.664 38.0657 179.355 37.9094C179.046 37.7532 178.797 37.565 178.609 37.3448C178.424 37.1211 178.28 36.9098 178.178 36.7109H178.066V38H176.169ZM178.06 33.9091C178.06 34.4382 178.135 34.9016 178.284 35.2994C178.437 35.6971 178.655 36.0078 178.939 36.2315C179.227 36.4517 179.575 36.5618 179.983 36.5618C180.409 36.5618 180.766 36.4482 181.054 36.2209C181.342 35.9901 181.558 35.6758 181.704 35.2781C181.853 34.8768 181.928 34.4205 181.928 33.9091C181.928 33.4013 181.855 32.9503 181.709 32.5561C181.564 32.1619 181.347 31.853 181.059 31.6293C180.772 31.4055 180.413 31.2937 179.983 31.2937C179.571 31.2937 179.222 31.402 178.934 31.6186C178.646 31.8352 178.428 32.1388 178.279 32.5295C178.133 32.9201 178.06 33.38 178.06 33.9091ZM189.23 38.1598C188.409 38.1598 187.701 37.9893 187.104 37.6484C186.511 37.304 186.055 36.8175 185.735 36.1889C185.416 35.5568 185.256 34.8129 185.256 33.957C185.256 33.1154 185.416 32.3768 185.735 31.7411C186.058 31.1019 186.509 30.6048 187.088 30.2496C187.667 29.891 188.347 29.7116 189.128 29.7116C189.633 29.7116 190.108 29.7933 190.556 29.9567C191.007 30.1165 191.405 30.3651 191.749 30.7024C192.097 31.0398 192.371 31.4695 192.569 31.9915C192.768 32.5099 192.868 33.1278 192.868 33.8452V34.4364H186.161V33.1367H191.019C191.016 32.7674 190.936 32.4389 190.78 32.1513C190.623 31.8601 190.405 31.631 190.124 31.4641C189.847 31.2972 189.524 31.2138 189.155 31.2138C188.761 31.2138 188.415 31.3097 188.116 31.5014C187.818 31.6896 187.585 31.9382 187.418 32.2472C187.255 32.5526 187.172 32.8881 187.168 33.2539V34.3885C187.168 34.8643 187.255 35.2727 187.429 35.6136C187.603 35.951 187.846 36.2102 188.159 36.3913C188.471 36.5689 188.837 36.6577 189.256 36.6577C189.537 36.6577 189.791 36.6186 190.018 36.5405C190.245 36.4588 190.442 36.3398 190.609 36.1836C190.776 36.0273 190.902 35.8338 190.987 35.603L192.788 35.8054C192.674 36.2812 192.458 36.6967 192.138 37.0518C191.822 37.4034 191.417 37.6768 190.923 37.8722C190.43 38.0639 189.865 38.1598 189.23 38.1598ZM194.574 38V29.8182H196.444V31.1818H196.529C196.678 30.7095 196.934 30.3455 197.296 30.0898C197.662 29.8306 198.079 29.701 198.548 29.701C198.654 29.701 198.773 29.7063 198.905 29.717C199.04 29.7241 199.151 29.7365 199.24 29.7543V31.5281C199.158 31.4996 199.029 31.4748 198.851 31.4535C198.677 31.4286 198.509 31.4162 198.345 31.4162C197.994 31.4162 197.678 31.4925 197.397 31.6452C197.12 31.7944 196.902 32.0021 196.742 32.2685C196.582 32.5348 196.502 32.842 196.502 33.19V38H194.574ZM201.923 36.5085L201.853 37.0945C201.804 37.5419 201.715 37.9964 201.587 38.4581C201.463 38.9233 201.331 39.3512 201.193 39.7418C201.054 40.1325 200.942 40.4396 200.857 40.6634H199.558C199.607 40.4467 199.675 40.152 199.76 39.7791C199.849 39.4063 199.934 38.9872 200.016 38.522C200.097 38.0568 200.152 37.5845 200.181 37.1051L200.218 36.5085H201.923ZM207.595 38V36.5724L211.382 32.8597C211.745 32.494 212.046 32.169 212.288 31.8849C212.529 31.6009 212.71 31.3256 212.831 31.0593C212.952 30.793 213.012 30.5089 213.012 30.207C213.012 29.8626 212.934 29.5678 212.778 29.3228C212.622 29.0742 212.407 28.8825 212.133 28.7475C211.86 28.6126 211.549 28.5451 211.201 28.5451C210.843 28.5451 210.528 28.6197 210.258 28.7688C209.989 28.9144 209.779 29.1222 209.63 29.392C209.484 29.6619 209.411 29.9833 209.411 30.3562H207.531C207.531 29.6637 207.689 29.0618 208.005 28.5504C208.321 28.0391 208.756 27.6431 209.31 27.3626C209.868 27.082 210.507 26.9418 211.228 26.9418C211.959 26.9418 212.602 27.0785 213.156 27.3519C213.71 27.6254 214.14 28 214.445 28.4759C214.754 28.9517 214.909 29.495 214.909 30.1058C214.909 30.5142 214.83 30.9155 214.674 31.3097C214.518 31.7038 214.243 32.1406 213.849 32.62C213.458 33.0994 212.909 33.68 212.203 34.3619L210.322 36.2741V36.3487H215.074V38H207.595ZM221.019 38.2077C220.142 38.2077 219.389 37.9858 218.76 37.5419C218.135 37.0945 217.654 36.4499 217.317 35.6083C216.983 34.7631 216.816 33.7457 216.816 32.5561C216.82 31.3665 216.988 30.3544 217.322 29.5199C217.659 28.6818 218.141 28.0426 218.766 27.6023C219.394 27.1619 220.145 26.9418 221.019 26.9418C221.892 26.9418 222.643 27.1619 223.272 27.6023C223.901 28.0426 224.382 28.6818 224.716 29.5199C225.053 30.358 225.222 31.37 225.222 32.5561C225.222 33.7493 225.053 34.7685 224.716 35.6136C224.382 36.4553 223.901 37.098 223.272 37.5419C222.647 37.9858 221.896 38.2077 221.019 38.2077ZM221.019 36.5405C221.701 36.5405 222.239 36.2049 222.633 35.5337C223.03 34.859 223.229 33.8665 223.229 32.5561C223.229 31.6896 223.139 30.9616 222.958 30.3722C222.777 29.7827 222.521 29.3388 222.191 29.0405C221.86 28.7386 221.47 28.5877 221.019 28.5877C220.341 28.5877 219.804 28.9251 219.41 29.5998C219.016 30.271 218.817 31.2564 218.814 32.5561C218.81 33.4261 218.897 34.1577 219.075 34.7507C219.256 35.3437 219.511 35.7912 219.842 36.093C220.172 36.3913 220.564 36.5405 221.019 36.5405ZM227.066 38V36.5724L230.854 32.8597C231.216 32.494 231.518 32.169 231.759 31.8849C232.001 31.6009 232.182 31.3256 232.302 31.0593C232.423 30.793 232.484 30.5089 232.484 30.207C232.484 29.8626 232.405 29.5678 232.249 29.3228C232.093 29.0742 231.878 28.8825 231.605 28.7475C231.331 28.6126 231.021 28.5451 230.673 28.5451C230.314 28.5451 230 28.6197 229.73 28.7688C229.46 28.9144 229.25 29.1222 229.101 29.392C228.956 29.6619 228.883 29.9833 228.883 30.3562H227.002C227.002 29.6637 227.16 29.0618 227.476 28.5504C227.793 28.0391 228.228 27.6431 228.782 27.3626C229.339 27.082 229.978 26.9418 230.699 26.9418C231.431 26.9418 232.073 27.0785 232.627 27.3519C233.181 27.6254 233.611 28 233.916 28.4759C234.225 28.9517 234.38 29.495 234.38 30.1058C234.38 30.5142 234.302 30.9155 234.146 31.3097C233.989 31.7038 233.714 32.1406 233.32 32.62C232.929 33.0994 232.381 33.68 231.674 34.3619L229.794 36.2741V36.3487H234.545V38H227.066ZM236.458 38V36.5724L240.245 32.8597C240.607 32.494 240.909 32.169 241.151 31.8849C241.392 31.6009 241.573 31.3256 241.694 31.0593C241.815 30.793 241.875 30.5089 241.875 30.207C241.875 29.8626 241.797 29.5678 241.641 29.3228C241.484 29.0742 241.27 28.8825 240.996 28.7475C240.723 28.6126 240.412 28.5451 240.064 28.5451C239.705 28.5451 239.391 28.6197 239.121 28.7688C238.851 28.9144 238.642 29.1222 238.493 29.392C238.347 29.6619 238.274 29.9833 238.274 30.3562H236.394C236.394 29.6637 236.552 29.0618 236.868 28.5504C237.184 28.0391 237.619 27.6431 238.173 27.3626C238.73 27.082 239.37 26.9418 240.091 26.9418C240.822 26.9418 241.465 27.0785 242.019 27.3519C242.573 27.6254 243.002 28 243.308 28.4759C243.617 28.9517 243.771 29.495 243.771 30.1058C243.771 30.5142 243.693 30.9155 243.537 31.3097C243.381 31.7038 243.105 32.1406 242.711 32.62C242.321 33.0994 241.772 33.68 241.065 34.3619L239.185 36.2741V36.3487H243.936V38H236.458Z" fill="black"/>
<path d="M30.7244 53.2628V52.0909H38.9062V53.2628H35.4759V63H34.1548V53.2628H30.7244ZM39.925 63V54.8182H41.1395V56.054H41.2247C41.3738 55.6491 41.6437 55.3207 42.0344 55.0685C42.425 54.8164 42.8653 54.6903 43.3554 54.6903C43.4477 54.6903 43.5631 54.6921 43.7016 54.6957C43.8401 54.6992 43.9449 54.7045 44.0159 54.7116V55.9901C43.9733 55.9794 43.8756 55.9634 43.7229 55.9421C43.5738 55.9173 43.4157 55.9048 43.2488 55.9048C42.8511 55.9048 42.496 55.9883 42.1835 56.1552C41.8746 56.3185 41.6295 56.5458 41.4484 56.837C41.2709 57.1246 41.1821 57.4531 41.1821 57.8224V63H39.925ZM47.9137 63.1918C47.3952 63.1918 46.9247 63.0941 46.5021 62.8988C46.0795 62.6999 45.744 62.4141 45.4954 62.0412C45.2468 61.6648 45.1225 61.2102 45.1225 60.6776C45.1225 60.2088 45.2148 59.8288 45.3995 59.5376C45.5842 59.2429 45.831 59.0121 46.1399 58.8452C46.4489 58.6783 46.7898 58.554 47.1626 58.4723C47.5391 58.3871 47.9173 58.3196 48.2972 58.2699C48.7944 58.206 49.1974 58.158 49.5064 58.1261C49.8189 58.0906 50.0462 58.032 50.1882 57.9503C50.3338 57.8686 50.4066 57.7266 50.4066 57.5241V57.4815C50.4066 56.956 50.2628 56.5476 49.9751 56.2564C49.6911 55.9652 49.2596 55.8196 48.6808 55.8196C48.0806 55.8196 47.6101 55.951 47.2692 56.2138C46.9283 56.4766 46.6886 56.7571 46.5501 57.0554L45.3569 56.6293C45.57 56.1321 45.854 55.745 46.2092 55.468C46.5678 55.1875 46.9585 54.9922 47.381 54.8821C47.8072 54.7685 48.2262 54.7116 48.6381 54.7116C48.9009 54.7116 49.2028 54.7436 49.5437 54.8075C49.8881 54.8679 50.2202 54.994 50.5398 55.1857C50.8629 55.3775 51.131 55.6669 51.3441 56.054C51.5572 56.4411 51.6637 56.9595 51.6637 57.6094V63H50.4066V61.892H50.3427C50.2575 62.0696 50.1154 62.2596 49.9165 62.462C49.7177 62.6644 49.4531 62.8366 49.1229 62.9787C48.7926 63.1207 48.3896 63.1918 47.9137 63.1918ZM48.1055 62.0625C48.6026 62.0625 49.0217 61.9648 49.3626 61.7695C49.707 61.5742 49.9663 61.3221 50.1403 61.0131C50.3178 60.7042 50.4066 60.3793 50.4066 60.0384V58.8878C50.3533 58.9517 50.2362 59.0103 50.055 59.0636C49.8775 59.1133 49.6715 59.1577 49.4371 59.1967C49.2063 59.2322 48.9808 59.2642 48.7607 59.2926C48.544 59.3175 48.3683 59.3388 48.2333 59.3565C47.9066 59.3991 47.6012 59.4684 47.3171 59.5643C47.0366 59.6566 46.8093 59.7969 46.6353 59.9851C46.4648 60.1697 46.3796 60.4219 46.3796 60.7415C46.3796 61.1783 46.5412 61.5085 46.8643 61.7322C47.1911 61.9524 47.6048 62.0625 48.1055 62.0625ZM57.0477 63.1705C56.3659 63.1705 55.7639 62.9982 55.2419 62.6538C54.7199 62.3058 54.3115 61.8157 54.0168 61.1836C53.722 60.5479 53.5747 59.7969 53.5747 58.9304C53.5747 58.071 53.722 57.3253 54.0168 56.6932C54.3115 56.0611 54.7217 55.5728 55.2472 55.2283C55.7728 54.8839 56.3801 54.7116 57.069 54.7116C57.6017 54.7116 58.0225 54.8004 58.3314 54.978C58.6439 55.152 58.8818 55.3509 59.0452 55.5746C59.2121 55.7947 59.3417 55.9759 59.434 56.1179H59.5406V52.0909H60.7977V63H59.5832V61.7429H59.434C59.3417 61.892 59.2103 62.0803 59.0399 62.3075C58.8694 62.5312 58.6262 62.7319 58.3101 62.9094C57.9941 63.0835 57.5732 63.1705 57.0477 63.1705ZM57.2181 62.0412C57.7224 62.0412 58.1485 61.9098 58.4965 61.647C58.8445 61.3807 59.1091 61.0131 59.2902 60.5444C59.4713 60.0721 59.5619 59.527 59.5619 58.9091C59.5619 58.2983 59.4731 57.7638 59.2955 57.3058C59.118 56.8441 58.8552 56.4854 58.5072 56.2298C58.1592 55.9705 57.7295 55.8409 57.2181 55.8409C56.6855 55.8409 56.2416 55.9776 55.8865 56.2511C55.5349 56.521 55.2703 56.8885 55.0928 57.3537C54.9188 57.8153 54.8318 58.3338 54.8318 58.9091C54.8318 59.4915 54.9205 60.0206 55.0981 60.4964C55.2792 60.9687 55.5455 61.3452 55.8971 61.6257C56.2522 61.9027 56.6926 62.0412 57.2181 62.0412ZM63.2746 63V54.8182H64.5317V63H63.2746ZM63.9138 53.4545C63.6688 53.4545 63.4575 53.3711 63.2799 53.2042C63.1059 53.0373 63.0189 52.8366 63.0189 52.6023C63.0189 52.3679 63.1059 52.1673 63.2799 52.0004C63.4575 51.8335 63.6688 51.75 63.9138 51.75C64.1588 51.75 64.3683 51.8335 64.5423 52.0004C64.7199 52.1673 64.8087 52.3679 64.8087 52.6023C64.8087 52.8366 64.7199 53.0373 64.5423 53.2042C64.3683 53.3711 64.1588 53.4545 63.9138 53.4545ZM70.3924 54.8182V55.8835H66.1523V54.8182H70.3924ZM67.3881 52.858H68.6452V60.6562C68.6452 61.0114 68.6967 61.2777 68.7997 61.4553C68.9063 61.6293 69.0412 61.7464 69.2045 61.8068C69.3714 61.8636 69.5472 61.892 69.7319 61.892C69.8704 61.892 69.984 61.8849 70.0728 61.8707C70.1616 61.853 70.2326 61.8388 70.2859 61.8281L70.5415 62.9574C70.4563 62.9893 70.3374 63.0213 70.1847 63.0533C70.032 63.0888 69.8384 63.1065 69.604 63.1065C69.2489 63.1065 68.9009 63.0302 68.56 62.8775C68.2227 62.7248 67.9421 62.4922 67.7184 62.1797C67.4982 61.8672 67.3881 61.473 67.3881 60.9972V52.858ZM72.2834 63V54.8182H73.5405V63H72.2834ZM72.9226 53.4545C72.6776 53.4545 72.4663 53.3711 72.2887 53.2042C72.1147 53.0373 72.0277 52.8366 72.0277 52.6023C72.0277 52.3679 72.1147 52.1673 72.2887 52.0004C72.4663 51.8335 72.6776 51.75 72.9226 51.75C73.1676 51.75 73.3771 51.8335 73.5511 52.0004C73.7287 52.1673 73.8175 52.3679 73.8175 52.6023C73.8175 52.8366 73.7287 53.0373 73.5511 53.2042C73.3771 53.3711 73.1676 53.4545 72.9226 53.4545ZM79.1668 63.1705C78.4282 63.1705 77.7801 62.9947 77.2226 62.6431C76.6686 62.2915 76.2354 61.7997 75.9229 61.1676C75.6139 60.5355 75.4594 59.7969 75.4594 58.9517C75.4594 58.0994 75.6139 57.3555 75.9229 56.7198C76.2354 56.0842 76.6686 55.5906 77.2226 55.239C77.7801 54.8874 78.4282 54.7116 79.1668 54.7116C79.9055 54.7116 80.5518 54.8874 81.1057 55.239C81.6633 55.5906 82.0965 56.0842 82.4055 56.7198C82.718 57.3555 82.8742 58.0994 82.8742 58.9517C82.8742 59.7969 82.718 60.5355 82.4055 61.1676C82.0965 61.7997 81.6633 62.2915 81.1057 62.6431C80.5518 62.9947 79.9055 63.1705 79.1668 63.1705ZM79.1668 62.0412C79.7279 62.0412 80.1895 61.8974 80.5518 61.6097C80.914 61.3221 81.1821 60.9439 81.3561 60.4751C81.5301 60.0064 81.6171 59.4986 81.6171 58.9517C81.6171 58.4048 81.5301 57.8952 81.3561 57.4229C81.1821 56.9506 80.914 56.5689 80.5518 56.2777C80.1895 55.9865 79.7279 55.8409 79.1668 55.8409C78.6057 55.8409 78.1441 55.9865 77.7819 56.2777C77.4197 56.5689 77.1515 56.9506 76.9775 57.4229C76.8035 57.8952 76.7165 58.4048 76.7165 58.9517C76.7165 59.4986 76.8035 60.0064 76.9775 60.4751C77.1515 60.9439 77.4197 61.3221 77.7819 61.6097C78.1441 61.8974 78.6057 62.0412 79.1668 62.0412ZM86.0502 58.0781V63H84.7931V54.8182H86.0076V56.0966H86.1142C86.3059 55.6811 86.5971 55.3473 86.9877 55.0952C87.3784 54.8395 87.8826 54.7116 88.5005 54.7116C89.0545 54.7116 89.5392 54.8253 89.9547 55.0526C90.3702 55.2763 90.6934 55.6172 90.9242 56.0753C91.155 56.5298 91.2704 57.1051 91.2704 57.8011V63H90.0133V57.8864C90.0133 57.2436 89.8464 56.7429 89.5126 56.3842C89.1788 56.022 88.7207 55.8409 88.1383 55.8409C87.737 55.8409 87.3784 55.9279 87.0623 56.1019C86.7498 56.2759 86.503 56.5298 86.3219 56.8636C86.1408 57.1974 86.0502 57.6023 86.0502 58.0781ZM95.9752 63.1918C95.4568 63.1918 94.9862 63.0941 94.5637 62.8988C94.1411 62.6999 93.8055 62.4141 93.5569 62.0412C93.3083 61.6648 93.184 61.2102 93.184 60.6776C93.184 60.2088 93.2764 59.8288 93.461 59.5376C93.6457 59.2429 93.8925 59.0121 94.2014 58.8452C94.5104 58.6783 94.8513 58.554 95.2242 58.4723C95.6006 58.3871 95.9788 58.3196 96.3588 58.2699C96.8559 58.206 97.259 58.158 97.5679 58.1261C97.8804 58.0906 98.1077 58.032 98.2497 57.9503C98.3953 57.8686 98.4681 57.7266 98.4681 57.5241V57.4815C98.4681 56.956 98.3243 56.5476 98.0367 56.2564C97.7526 55.9652 97.3211 55.8196 96.7423 55.8196C96.1421 55.8196 95.6716 55.951 95.3307 56.2138C94.9898 56.4766 94.7501 56.7571 94.6116 57.0554L93.4184 56.6293C93.6315 56.1321 93.9156 55.745 94.2707 55.468C94.6294 55.1875 95.02 54.9922 95.4426 54.8821C95.8687 54.7685 96.2877 54.7116 96.6997 54.7116C96.9624 54.7116 97.2643 54.7436 97.6052 54.8075C97.9497 54.8679 98.2817 54.994 98.6013 55.1857C98.9244 55.3775 99.1926 55.6669 99.4056 56.054C99.6187 56.4411 99.7252 56.9595 99.7252 57.6094V63H98.4681V61.892H98.4042C98.319 62.0696 98.1769 62.2596 97.9781 62.462C97.7792 62.6644 97.5146 62.8366 97.1844 62.9787C96.8541 63.1207 96.4511 63.1918 95.9752 63.1918ZM96.167 62.0625C96.6642 62.0625 97.0832 61.9648 97.4241 61.7695C97.7686 61.5742 98.0278 61.3221 98.2018 61.0131C98.3794 60.7042 98.4681 60.3793 98.4681 60.0384V58.8878C98.4149 58.9517 98.2977 59.0103 98.1166 59.0636C97.939 59.1133 97.733 59.1577 97.4987 59.1967C97.2678 59.2322 97.0423 59.2642 96.8222 59.2926C96.6056 59.3175 96.4298 59.3388 96.2948 59.3565C95.9681 59.3991 95.6627 59.4684 95.3786 59.5643C95.0981 59.6566 94.8708 59.7969 94.6968 59.9851C94.5264 60.1697 94.4411 60.4219 94.4411 60.7415C94.4411 61.1783 94.6027 61.5085 94.9259 61.7322C95.2526 61.9524 95.6663 62.0625 96.167 62.0625ZM103.277 52.0909V63H102.02V52.0909H103.277ZM111.63 48.5753V66.5156H110.565V48.5753H111.63ZM127.745 52.0909V63H126.467L120.522 54.4347H120.415V63H119.094V52.0909H120.373L126.339 60.6776H126.445V52.0909H127.745ZM132.626 63.1918C132.107 63.1918 131.637 63.0941 131.214 62.8988C130.791 62.6999 130.456 62.4141 130.207 62.0412C129.959 61.6648 129.834 61.2102 129.834 60.6776C129.834 60.2088 129.927 59.8288 130.111 59.5376C130.296 59.2429 130.543 59.0121 130.852 58.8452C131.161 58.6783 131.502 58.554 131.875 58.4723C132.251 58.3871 132.629 58.3196 133.009 58.2699C133.506 58.206 133.909 58.158 134.218 58.1261C134.531 58.0906 134.758 58.032 134.9 57.9503C135.046 57.8686 135.119 57.7266 135.119 57.5241V57.4815C135.119 56.956 134.975 56.5476 134.687 56.2564C134.403 55.9652 133.972 55.8196 133.393 55.8196C132.793 55.8196 132.322 55.951 131.981 56.2138C131.64 56.4766 131.4 56.7571 131.262 57.0554L130.069 56.6293C130.282 56.1321 130.566 55.745 130.921 55.468C131.28 55.1875 131.67 54.9922 132.093 54.8821C132.519 54.7685 132.938 54.7116 133.35 54.7116C133.613 54.7116 133.915 54.7436 134.256 54.8075C134.6 54.8679 134.932 54.994 135.252 55.1857C135.575 55.3775 135.843 55.6669 136.056 56.054C136.269 56.4411 136.376 56.9595 136.376 57.6094V63H135.119V61.892H135.055C134.969 62.0696 134.827 62.2596 134.628 62.462C134.43 62.6644 134.165 62.8366 133.835 62.9787C133.505 63.1207 133.101 63.1918 132.626 63.1918ZM132.817 62.0625C133.315 62.0625 133.734 61.9648 134.074 61.7695C134.419 61.5742 134.678 61.3221 134.852 61.0131C135.03 60.7042 135.119 60.3793 135.119 60.0384V58.8878C135.065 58.9517 134.948 59.0103 134.767 59.0636C134.589 59.1133 134.383 59.1577 134.149 59.1967C133.918 59.2322 133.693 59.2642 133.473 59.2926C133.256 59.3175 133.08 59.3388 132.945 59.3565C132.619 59.3991 132.313 59.4684 132.029 59.5643C131.748 59.6566 131.521 59.7969 131.347 59.9851C131.177 60.1697 131.092 60.4219 131.092 60.7415C131.092 61.1783 131.253 61.5085 131.576 61.7322C131.903 61.9524 132.317 62.0625 132.817 62.0625ZM142.228 54.8182V55.8835H137.988V54.8182H142.228ZM139.224 52.858H140.481V60.6562C140.481 61.0114 140.533 61.2777 140.636 61.4553C140.742 61.6293 140.877 61.7464 141.04 61.8068C141.207 61.8636 141.383 61.892 141.568 61.892C141.706 61.892 141.82 61.8849 141.909 61.8707C141.998 61.853 142.069 61.8388 142.122 61.8281L142.377 62.9574C142.292 62.9893 142.173 63.0213 142.021 63.0533C141.868 63.0888 141.674 63.1065 141.44 63.1065C141.085 63.1065 140.737 63.0302 140.396 62.8775C140.059 62.7248 139.778 62.4922 139.554 62.1797C139.334 61.8672 139.224 61.473 139.224 60.9972V52.858ZM144.119 63V54.8182H145.376V63H144.119ZM144.759 53.4545C144.513 53.4545 144.302 53.3711 144.125 53.2042C143.951 53.0373 143.864 52.8366 143.864 52.6023C143.864 52.3679 143.951 52.1673 144.125 52.0004C144.302 51.8335 144.513 51.75 144.759 51.75C145.004 51.75 145.213 51.8335 145.387 52.0004C145.565 52.1673 145.653 52.3679 145.653 52.6023C145.653 52.8366 145.565 53.0373 145.387 53.2042C145.213 53.3711 145.004 53.4545 144.759 53.4545ZM151.003 63.1705C150.264 63.1705 149.616 62.9947 149.059 62.6431C148.505 62.2915 148.071 61.7997 147.759 61.1676C147.45 60.5355 147.295 59.7969 147.295 58.9517C147.295 58.0994 147.45 57.3555 147.759 56.7198C148.071 56.0842 148.505 55.5906 149.059 55.239C149.616 54.8874 150.264 54.7116 151.003 54.7116C151.741 54.7116 152.388 54.8874 152.942 55.239C153.499 55.5906 153.932 56.0842 154.241 56.7198C154.554 57.3555 154.71 58.0994 154.71 58.9517C154.71 59.7969 154.554 60.5355 154.241 61.1676C153.932 61.7997 153.499 62.2915 152.942 62.6431C152.388 62.9947 151.741 63.1705 151.003 63.1705ZM151.003 62.0412C151.564 62.0412 152.025 61.8974 152.388 61.6097C152.75 61.3221 153.018 60.9439 153.192 60.4751C153.366 60.0064 153.453 59.4986 153.453 58.9517C153.453 58.4048 153.366 57.8952 153.192 57.4229C153.018 56.9506 152.75 56.5689 152.388 56.2777C152.025 55.9865 151.564 55.8409 151.003 55.8409C150.442 55.8409 149.98 55.9865 149.618 56.2777C149.256 56.5689 148.987 56.9506 148.813 57.4229C148.639 57.8952 148.552 58.4048 148.552 58.9517C148.552 59.4986 148.639 60.0064 148.813 60.4751C148.987 60.9439 149.256 61.3221 149.618 61.6097C149.98 61.8974 150.442 62.0412 151.003 62.0412ZM157.886 58.0781V63H156.629V54.8182H157.844V56.0966H157.95C158.142 55.6811 158.433 55.3473 158.824 55.0952C159.214 54.8395 159.719 54.7116 160.336 54.7116C160.89 54.7116 161.375 54.8253 161.791 55.0526C162.206 55.2763 162.529 55.6172 162.76 56.0753C162.991 56.5298 163.106 57.1051 163.106 57.8011V63H161.849V57.8864C161.849 57.2436 161.682 56.7429 161.349 56.3842C161.015 56.022 160.557 55.8409 159.974 55.8409C159.573 55.8409 159.214 55.9279 158.898 56.1019C158.586 56.2759 158.339 56.5298 158.158 56.8636C157.977 57.1974 157.886 57.6023 157.886 58.0781ZM167.811 63.1918C167.293 63.1918 166.822 63.0941 166.4 62.8988C165.977 62.6999 165.641 62.4141 165.393 62.0412C165.144 61.6648 165.02 61.2102 165.02 60.6776C165.02 60.2088 165.112 59.8288 165.297 59.5376C165.482 59.2429 165.728 59.0121 166.037 58.8452C166.346 58.6783 166.687 58.554 167.06 58.4723C167.437 58.3871 167.815 58.3196 168.195 58.2699C168.692 58.206 169.095 58.158 169.404 58.1261C169.716 58.0906 169.944 58.032 170.086 57.9503C170.231 57.8686 170.304 57.7266 170.304 57.5241V57.4815C170.304 56.956 170.16 56.5476 169.873 56.2564C169.589 55.9652 169.157 55.8196 168.578 55.8196C167.978 55.8196 167.508 55.951 167.167 56.2138C166.826 56.4766 166.586 56.7571 166.448 57.0554L165.254 56.6293C165.467 56.1321 165.752 55.745 166.107 55.468C166.465 55.1875 166.856 54.9922 167.278 54.8821C167.705 54.7685 168.124 54.7116 168.536 54.7116C168.798 54.7116 169.1 54.7436 169.441 54.8075C169.786 54.8679 170.118 54.994 170.437 55.1857C170.76 55.3775 171.028 55.6669 171.242 56.054C171.455 56.4411 171.561 56.9595 171.561 57.6094V63H170.304V61.892H170.24C170.155 62.0696 170.013 62.2596 169.814 62.462C169.615 62.6644 169.351 62.8366 169.02 62.9787C168.69 63.1207 168.287 63.1918 167.811 63.1918ZM168.003 62.0625C168.5 62.0625 168.919 61.9648 169.26 61.7695C169.604 61.5742 169.864 61.3221 170.038 61.0131C170.215 60.7042 170.304 60.3793 170.304 60.0384V58.8878C170.251 58.9517 170.134 59.0103 169.953 59.0636C169.775 59.1133 169.569 59.1577 169.335 59.1967C169.104 59.2322 168.878 59.2642 168.658 59.2926C168.441 59.3175 168.266 59.3388 168.131 59.3565C167.804 59.3991 167.499 59.4684 167.215 59.5643C166.934 59.6566 166.707 59.7969 166.533 59.9851C166.362 60.1697 166.277 60.4219 166.277 60.7415C166.277 61.1783 166.439 61.5085 166.762 61.7322C167.089 61.9524 167.502 62.0625 168.003 62.0625ZM175.113 52.0909V63H173.856V52.0909H175.113ZM181.208 53.2628V52.0909H189.39V53.2628H185.959V63H184.638V53.2628H181.208ZM193.395 63.1705C192.657 63.1705 192.009 62.9947 191.451 62.6431C190.897 62.2915 190.464 61.7997 190.151 61.1676C189.842 60.5355 189.688 59.7969 189.688 58.9517C189.688 58.0994 189.842 57.3555 190.151 56.7198C190.464 56.0842 190.897 55.5906 191.451 55.239C192.009 54.8874 192.657 54.7116 193.395 54.7116C194.134 54.7116 194.78 54.8874 195.334 55.239C195.892 55.5906 196.325 56.0842 196.634 56.7198C196.946 57.3555 197.103 58.0994 197.103 58.9517C197.103 59.7969 196.946 60.5355 196.634 61.1676C196.325 61.7997 195.892 62.2915 195.334 62.6431C194.78 62.9947 194.134 63.1705 193.395 63.1705ZM193.395 62.0412C193.956 62.0412 194.418 61.8974 194.78 61.6097C195.142 61.3221 195.411 60.9439 195.585 60.4751C195.759 60.0064 195.846 59.4986 195.846 58.9517C195.846 58.4048 195.759 57.8952 195.585 57.4229C195.411 56.9506 195.142 56.5689 194.78 56.2777C194.418 55.9865 193.956 55.8409 193.395 55.8409C192.834 55.8409 192.373 55.9865 192.01 56.2777C191.648 56.5689 191.38 56.9506 191.206 57.4229C191.032 57.8952 190.945 58.4048 190.945 58.9517C190.945 59.4986 191.032 60.0064 191.206 60.4751C191.38 60.9439 191.648 61.3221 192.01 61.6097C192.373 61.8974 192.834 62.0412 193.395 62.0412ZM204.178 59.6548V54.8182H205.435V63H204.178V61.6151H204.093C203.901 62.0305 203.603 62.3839 203.198 62.6751C202.793 62.9627 202.282 63.1065 201.664 63.1065C201.152 63.1065 200.698 62.9947 200.3 62.771C199.902 62.5437 199.59 62.2028 199.363 61.7482C199.135 61.2901 199.022 60.7131 199.022 60.017V54.8182H200.279V59.9318C200.279 60.5284 200.446 61.0043 200.779 61.3594C201.117 61.7145 201.547 61.892 202.069 61.892C202.381 61.892 202.699 61.8121 203.022 61.6523C203.349 61.4925 203.622 61.2475 203.842 60.9173C204.066 60.587 204.178 60.1662 204.178 59.6548ZM207.737 63V54.8182H208.952V56.054H209.037C209.186 55.6491 209.456 55.3207 209.847 55.0685C210.237 54.8164 210.678 54.6903 211.168 54.6903C211.26 54.6903 211.376 54.6921 211.514 54.6957C211.653 54.6992 211.757 54.7045 211.828 54.7116V55.9901C211.786 55.9794 211.688 55.9634 211.535 55.9421C211.386 55.9173 211.228 55.9048 211.061 55.9048C210.664 55.9048 210.309 55.9883 209.996 56.1552C209.687 56.3185 209.442 56.5458 209.261 56.837C209.083 57.1246 208.995 57.4531 208.995 57.8224V63H207.737Z" fill="black"/>
<rect x="270" y="39" width="94" height="34" rx="12" fill="#0298F0"/>
<path d="M284.773 61H281.076V50.0909H284.847C285.93 50.0909 286.861 50.3093 287.638 50.7461C288.42 51.1793 289.02 51.8026 289.439 52.6158C289.858 53.429 290.067 54.402 290.067 55.5348C290.067 56.6712 289.856 57.6477 289.434 58.4645C289.015 59.2812 288.409 59.908 287.617 60.3448C286.829 60.7816 285.881 61 284.773 61ZM283.052 59.2901H284.677C285.437 59.2901 286.071 59.1516 286.578 58.8746C287.086 58.5941 287.468 58.1768 287.724 57.6229C287.979 57.0653 288.107 56.3693 288.107 55.5348C288.107 54.7003 287.979 54.0078 287.724 53.4574C287.468 52.9034 287.09 52.4897 286.589 52.2163C286.092 51.9393 285.474 51.8008 284.735 51.8008H283.052V59.2901ZM295.504 61.1598C294.705 61.1598 294.012 60.984 293.426 60.6325C292.84 60.2809 292.386 59.7891 292.063 59.157C291.743 58.5249 291.583 57.7862 291.583 56.9411C291.583 56.0959 291.743 55.3555 292.063 54.7198C292.386 54.0842 292.84 53.5906 293.426 53.239C294.012 52.8874 294.705 52.7116 295.504 52.7116C296.303 52.7116 296.995 52.8874 297.581 53.239C298.167 53.5906 298.62 54.0842 298.94 54.7198C299.263 55.3555 299.424 56.0959 299.424 56.9411C299.424 57.7862 299.263 58.5249 298.94 59.157C298.62 59.7891 298.167 60.2809 297.581 60.6325C296.995 60.984 296.303 61.1598 295.504 61.1598ZM295.514 59.6151C295.948 59.6151 296.31 59.4961 296.601 59.2582C296.892 59.0167 297.109 58.6935 297.251 58.2887C297.397 57.8839 297.469 57.4329 297.469 56.9357C297.469 56.435 297.397 55.9822 297.251 55.5774C297.109 55.169 296.892 54.8441 296.601 54.6026C296.31 54.3612 295.948 54.2404 295.514 54.2404C295.071 54.2404 294.701 54.3612 294.406 54.6026C294.115 54.8441 293.897 55.169 293.751 55.5774C293.609 55.9822 293.538 56.435 293.538 56.9357C293.538 57.4329 293.609 57.8839 293.751 58.2887C293.897 58.6935 294.115 59.0167 294.406 59.2582C294.701 59.4961 295.071 59.6151 295.514 59.6151ZM302.59 61L300.278 52.8182H302.244L303.682 58.571H303.757L305.227 52.8182H307.171L308.641 58.5391H308.721L310.138 52.8182H312.109L309.792 61H307.784L306.25 55.4709H306.138L304.604 61H302.59ZM315.458 56.206V61H313.53V52.8182H315.373V54.2085H315.469C315.657 53.7504 315.957 53.3864 316.369 53.1165C316.785 52.8466 317.298 52.7116 317.909 52.7116C318.473 52.7116 318.965 52.8324 319.384 53.0739C319.807 53.3153 320.134 53.6651 320.364 54.1232C320.599 54.5813 320.714 55.1371 320.711 55.7905V61H318.782V56.0888C318.782 55.5419 318.64 55.114 318.356 54.805C318.076 54.4961 317.687 54.3416 317.19 54.3416C316.852 54.3416 316.552 54.4162 316.289 54.5653C316.03 54.7109 315.826 54.9222 315.677 55.1992C315.531 55.4762 315.458 55.8118 315.458 56.206ZM324.674 50.0909V61H322.746V50.0909H324.674ZM330.301 61.1598C329.502 61.1598 328.809 60.984 328.223 60.6325C327.638 60.2809 327.183 59.7891 326.86 59.157C326.54 58.5249 326.38 57.7862 326.38 56.9411C326.38 56.0959 326.54 55.3555 326.86 54.7198C327.183 54.0842 327.638 53.5906 328.223 53.239C328.809 52.8874 329.502 52.7116 330.301 52.7116C331.1 52.7116 331.792 52.8874 332.378 53.239C332.964 53.5906 333.417 54.0842 333.737 54.7198C334.06 55.3555 334.221 56.0959 334.221 56.9411C334.221 57.7862 334.06 58.5249 333.737 59.157C333.417 59.7891 332.964 60.2809 332.378 60.6325C331.792 60.984 331.1 61.1598 330.301 61.1598ZM330.312 59.6151C330.745 59.6151 331.107 59.4961 331.398 59.2582C331.689 59.0167 331.906 58.6935 332.048 58.2887C332.194 57.8839 332.266 57.4329 332.266 56.9357C332.266 56.435 332.194 55.9822 332.048 55.5774C331.906 55.169 331.689 54.8441 331.398 54.6026C331.107 54.3612 330.745 54.2404 330.312 54.2404C329.868 54.2404 329.498 54.3612 329.204 54.6026C328.912 54.8441 328.694 55.169 328.548 55.5774C328.406 55.9822 328.335 56.435 328.335 56.9357C328.335 57.4329 328.406 57.8839 328.548 58.2887C328.694 58.6935 328.912 59.0167 329.204 59.2582C329.498 59.4961 329.868 59.6151 330.312 59.6151ZM338.287 61.1651C337.769 61.1651 337.302 61.0728 336.886 60.8881C336.475 60.6999 336.148 60.4229 335.906 60.0572C335.668 59.6914 335.549 59.2404 335.549 58.7042C335.549 58.2425 335.635 57.8608 335.805 57.5589C335.976 57.2571 336.208 57.0156 336.503 56.8345C336.798 56.6534 337.13 56.5167 337.499 56.4244C337.872 56.3285 338.257 56.2592 338.655 56.2166C339.134 56.1669 339.523 56.1225 339.821 56.0835C340.12 56.0408 340.336 55.9769 340.471 55.8917C340.61 55.8029 340.679 55.6662 340.679 55.4815V55.4496C340.679 55.0483 340.56 54.7376 340.322 54.5174C340.084 54.2972 339.742 54.1871 339.294 54.1871C338.822 54.1871 338.447 54.2901 338.17 54.4961C337.897 54.7021 337.712 54.9453 337.616 55.2259L335.816 54.9702C335.958 54.473 336.192 54.0575 336.519 53.7237C336.846 53.3864 337.245 53.1342 337.717 52.9673C338.19 52.7969 338.712 52.7116 339.283 52.7116C339.678 52.7116 340.07 52.7578 340.461 52.8501C340.851 52.9425 341.208 53.0952 341.531 53.3082C341.854 53.5178 342.114 53.8036 342.309 54.1658C342.508 54.5281 342.607 54.9808 342.607 55.5241V61H340.754V59.8761H340.69C340.573 60.1033 340.407 60.3164 340.194 60.5153C339.985 60.7106 339.72 60.8686 339.401 60.9893C339.085 61.1065 338.713 61.1651 338.287 61.1651ZM338.788 59.7482C339.175 59.7482 339.511 59.6719 339.795 59.5192C340.079 59.3629 340.297 59.157 340.45 58.9013C340.606 58.6456 340.684 58.3668 340.684 58.065V57.1009C340.624 57.1506 340.521 57.1967 340.375 57.2393C340.233 57.282 340.074 57.3192 339.896 57.3512C339.718 57.3832 339.543 57.4116 339.369 57.4364C339.195 57.4613 339.044 57.4826 338.916 57.5004C338.628 57.5394 338.371 57.6033 338.144 57.6921C337.916 57.7809 337.737 57.9052 337.606 58.065C337.474 58.2212 337.408 58.4237 337.408 58.6722C337.408 59.0273 337.538 59.2955 337.797 59.4766C338.057 59.6577 338.387 59.7482 338.788 59.7482ZM347.657 61.1438C347.015 61.1438 346.439 60.9787 345.932 60.6484C345.424 60.3182 345.023 59.8388 344.728 59.2102C344.433 58.5817 344.286 57.8182 344.286 56.9197C344.286 56.0107 344.435 55.2436 344.733 54.6186C345.035 53.9901 345.442 53.516 345.953 53.1964C346.464 52.8732 347.034 52.7116 347.663 52.7116C348.142 52.7116 348.536 52.7933 348.845 52.9567C349.154 53.1165 349.399 53.31 349.58 53.5373C349.762 53.761 349.902 53.9723 350.001 54.1712H350.081V50.0909H352.015V61H350.118V59.7109H350.001C349.902 59.9098 349.758 60.1211 349.57 60.3448C349.382 60.565 349.133 60.7532 348.824 60.9094C348.515 61.0657 348.126 61.1438 347.657 61.1438ZM348.195 59.5618C348.604 59.5618 348.952 59.4517 349.239 59.2315C349.527 59.0078 349.746 58.6971 349.895 58.2994C350.044 57.9016 350.118 57.4382 350.118 56.9091C350.118 56.38 350.044 55.9201 349.895 55.5295C349.749 55.1388 349.532 54.8352 349.245 54.6186C348.961 54.402 348.611 54.2937 348.195 54.2937C347.766 54.2937 347.407 54.4055 347.119 54.6293C346.832 54.853 346.615 55.1619 346.47 55.5561C346.324 55.9503 346.251 56.4013 346.251 56.9091C346.251 57.4205 346.324 57.8768 346.47 58.2781C346.619 58.6758 346.837 58.9901 347.125 59.2209C347.416 59.4482 347.773 59.5618 348.195 59.5618Z" fill="white"/>
</g>
<defs>
<filter id="filter0_d_119_3044" x="0" y="0" width="386" height="123" filterUnits="userSpaceOnUse" color-interpolation-filters="sRGB">
<feFlood flood-opacity="0" result="BackgroundImageFix"/>
<feColorMatrix in="SourceAlpha" type="matrix" values="0 0 0 0 0 0 0 0 0 0 0 0 0 0 0 0 0 0 127 0" result="hardAlpha"/>
<feOffset dy="6"/>
<feGaussianBlur stdDeviation="5"/>
<feComposite in2="hardAlpha" operator="out"/>
<feColorMatrix type="matrix" values="0 0 0 0 0 0 0 0 0 0 0 0 0 0 0 0 0 0 0.14 0"/>
<feBlend mode="normal" in2="BackgroundImageFix" result="effect1_dropShadow_119_3044"/>
<feBlend mode="normal" in="SourceGraphic" in2="effect1_dropShadow_119_3044" result="shape"/>
</filter>
</defs>
</svg>
