<?xml version="1.0" encoding="UTF-8"?>
<svg id="Layer_1" data-name="Layer 1" xmlns="http://www.w3.org/2000/svg" viewBox="0 0 386 123">
  <defs>
    <style>
      .cls-1 {
        fill: #f2f2f2;
      }

      .cls-2 {
        fill: #fff;
      }

      .cls-3 {
        fill: #0298f0;
      }

      .cls-4 {
        fill: #121212;
      }
    </style>
  </defs>
  <rect class="cls-1" x="10" y="4" width="366" height="103" rx="12" ry="12"/>
  <path class="cls-4" d="M40.41,30.77h-1.99c-.06-.33-.16-.62-.31-.87-.15-.26-.34-.47-.57-.65-.23-.18-.49-.31-.78-.4-.29-.09-.6-.14-.93-.14-.59,0-1.12,.15-1.58,.45-.46,.29-.82,.73-1.08,1.3-.26,.57-.39,1.26-.39,2.08s.13,1.54,.39,2.11c.26,.57,.62,1,1.08,1.29,.46,.29,.98,.43,1.57,.43,.33,0,.63-.04,.92-.13,.29-.09,.55-.22,.77-.39,.23-.17,.42-.38,.58-.63,.16-.25,.27-.53,.33-.85h1.99c-.07,.53-.24,1.02-.48,1.47-.25,.45-.57,.86-.96,1.2-.4,.34-.86,.61-1.4,.81-.53,.19-1.12,.29-1.77,.29-.96,0-1.81-.22-2.57-.67-.75-.44-1.35-1.08-1.78-1.92-.43-.84-.65-1.84-.65-3.01s.22-2.18,.66-3.02c.44-.84,1.03-1.48,1.78-1.92,.75-.44,1.61-.67,2.56-.67,.61,0,1.17,.09,1.69,.26,.52,.17,.99,.42,1.4,.75,.41,.33,.74,.73,1.01,1.2,.27,.47,.44,1.01,.52,1.62Zm5.37,7.39c-.8,0-1.49-.18-2.08-.53-.59-.35-1.04-.84-1.36-1.48-.32-.63-.48-1.37-.48-2.22s.16-1.59,.48-2.22c.32-.64,.78-1.13,1.36-1.48,.59-.35,1.28-.53,2.08-.53s1.49,.18,2.08,.53c.59,.35,1.04,.85,1.36,1.48,.32,.64,.48,1.38,.48,2.22s-.16,1.58-.48,2.22c-.32,.63-.77,1.12-1.36,1.48-.59,.35-1.28,.53-2.08,.53Zm.01-1.54c.43,0,.8-.12,1.09-.36,.29-.24,.51-.56,.65-.97,.15-.4,.22-.86,.22-1.35s-.07-.95-.22-1.36c-.14-.41-.36-.73-.65-.97-.29-.24-.65-.36-1.09-.36s-.81,.12-1.11,.36c-.29,.24-.51,.57-.66,.97-.14,.4-.21,.86-.21,1.36s.07,.95,.21,1.35c.15,.4,.36,.73,.66,.97,.29,.24,.66,.36,1.11,.36Zm10.84-2.06v-4.74h1.93v8.18h-1.87v-1.45h-.09c-.18,.46-.49,.83-.91,1.12-.42,.29-.94,.44-1.55,.44-.54,0-1.01-.12-1.42-.36-.41-.24-.73-.59-.96-1.05-.23-.46-.35-1.02-.35-1.67v-5.21h1.93v4.91c0,.52,.14,.93,.43,1.24,.28,.31,.66,.46,1.12,.46,.28,0,.56-.07,.83-.21,.27-.14,.48-.34,.66-.62,.17-.28,.26-.62,.26-1.04Zm3.99,6.51v-11.25h1.9v1.35h.11c.1-.2,.24-.41,.42-.63,.18-.23,.43-.42,.74-.58,.31-.16,.7-.25,1.18-.25,.63,0,1.2,.16,1.71,.48,.51,.32,.92,.79,1.21,1.42,.3,.62,.45,1.39,.45,2.3s-.15,1.66-.44,2.29c-.29,.63-.7,1.11-1.2,1.44-.51,.33-1.08,.5-1.73,.5-.47,0-.86-.08-1.17-.23-.31-.16-.56-.34-.75-.56-.18-.22-.33-.43-.43-.63h-.08v4.36h-1.93Zm1.89-7.16c0,.53,.07,.99,.22,1.39,.15,.4,.37,.71,.66,.93,.29,.22,.64,.33,1.04,.33s.78-.11,1.07-.34c.29-.23,.5-.55,.65-.94,.15-.4,.22-.86,.22-1.37s-.07-.96-.22-1.35-.36-.7-.65-.93c-.29-.22-.65-.34-1.08-.34s-.76,.11-1.05,.32c-.29,.22-.51,.52-.66,.91-.15,.39-.22,.85-.22,1.38Zm11.13,4.25c-.8,0-1.49-.18-2.08-.53-.59-.35-1.04-.84-1.36-1.48-.32-.63-.48-1.37-.48-2.22s.16-1.59,.48-2.22c.32-.64,.78-1.13,1.36-1.48,.59-.35,1.28-.53,2.08-.53s1.49,.18,2.08,.53c.59,.35,1.04,.85,1.36,1.48,.32,.64,.48,1.38,.48,2.22s-.16,1.58-.48,2.22c-.32,.63-.77,1.12-1.36,1.48-.59,.35-1.28,.53-2.08,.53Zm.01-1.54c.43,0,.8-.12,1.09-.36,.29-.24,.51-.56,.65-.97,.15-.4,.22-.86,.22-1.35s-.07-.95-.22-1.36c-.14-.41-.36-.73-.65-.97-.29-.24-.65-.36-1.09-.36s-.81,.12-1.11,.36c-.29,.24-.51,.57-.66,.97-.14,.4-.21,.86-.21,1.36s.07,.95,.21,1.35c.15,.4,.36,.73,.66,.97,.29,.24,.66,.36,1.11,.36Zm7.55-3.41v4.79h-1.93v-8.18h1.84v1.39h.1c.19-.46,.49-.82,.9-1.09,.42-.27,.93-.4,1.54-.4,.56,0,1.06,.12,1.48,.36,.42,.24,.75,.59,.98,1.05,.23,.46,.35,1.01,.35,1.67v5.21h-1.93v-4.91c0-.55-.14-.97-.43-1.28-.28-.31-.67-.46-1.17-.46-.34,0-.64,.07-.9,.22-.26,.15-.46,.36-.61,.63-.15,.28-.22,.61-.22,1.01Zm13.75-1.23l-1.76,.19c-.05-.18-.14-.34-.26-.5-.12-.16-.28-.28-.49-.38-.21-.1-.46-.14-.76-.14-.4,0-.74,.09-1.01,.26-.27,.17-.4,.4-.4,.68,0,.24,.08,.43,.26,.58,.18,.15,.48,.27,.89,.37l1.4,.3c.77,.17,1.35,.43,1.73,.79,.38,.36,.57,.84,.58,1.42,0,.51-.15,.97-.45,1.36-.29,.39-.7,.7-1.23,.92-.53,.22-1.13,.33-1.81,.33-1,0-1.81-.21-2.42-.63-.61-.42-.97-1.01-1.09-1.76l1.88-.18c.09,.37,.27,.65,.54,.84,.28,.19,.64,.28,1.08,.28s.83-.09,1.1-.28c.28-.19,.42-.42,.42-.7,0-.23-.09-.43-.27-.58-.18-.15-.45-.27-.83-.35l-1.4-.29c-.78-.16-1.37-.44-1.74-.83-.38-.39-.56-.88-.56-1.48,0-.5,.13-.94,.41-1.31,.28-.37,.67-.66,1.17-.86,.5-.21,1.08-.31,1.73-.31,.96,0,1.71,.2,2.26,.61,.55,.41,.9,.96,1.03,1.66Zm9.78-2.16v1.49h-4.84v-1.49h4.84Zm-3.63,8.18v-8.95c0-.55,.11-1.01,.34-1.37,.23-.37,.54-.64,.93-.82,.39-.18,.82-.27,1.29-.27,.33,0,.63,.03,.89,.08,.26,.05,.45,.1,.58,.14l-.38,1.49c-.08-.02-.18-.05-.31-.07-.12-.03-.26-.04-.42-.04-.36,0-.61,.09-.76,.26-.15,.17-.22,.42-.22,.74v8.83h-1.93Zm8.47,.16c-.8,0-1.49-.18-2.08-.53-.59-.35-1.04-.84-1.36-1.48-.32-.63-.48-1.37-.48-2.22s.16-1.59,.48-2.22c.32-.64,.78-1.13,1.36-1.48,.59-.35,1.28-.53,2.08-.53s1.49,.18,2.08,.53c.59,.35,1.04,.85,1.36,1.48,.32,.64,.49,1.38,.49,2.22s-.16,1.58-.49,2.22c-.32,.63-.77,1.12-1.36,1.48-.59,.35-1.28,.53-2.08,.53Zm.01-1.54c.43,0,.8-.12,1.09-.36,.29-.24,.51-.56,.65-.97,.15-.4,.22-.86,.22-1.35s-.07-.95-.22-1.36c-.14-.41-.36-.73-.65-.97-.29-.24-.65-.36-1.09-.36s-.81,.12-1.11,.36c-.29,.24-.51,.57-.65,.97-.14,.4-.21,.86-.21,1.36s.07,.95,.21,1.35c.15,.4,.36,.73,.65,.97,.3,.24,.66,.36,1.11,.36Zm5.62,1.38v-8.18h1.87v1.36h.08c.15-.47,.4-.84,.77-1.09,.36-.26,.78-.39,1.25-.39,.11,0,.23,0,.36,.02,.13,0,.25,.02,.34,.04v1.77c-.08-.03-.21-.05-.39-.07-.17-.02-.34-.04-.51-.04-.35,0-.67,.08-.95,.23-.28,.15-.5,.36-.65,.62-.16,.27-.24,.57-.24,.92v4.81h-1.93Zm13.6,0h-3.7v-10.91h3.77c1.08,0,2.01,.22,2.79,.66,.78,.43,1.38,1.06,1.8,1.87s.63,1.79,.63,2.92-.21,2.11-.63,2.93c-.42,.82-1.02,1.44-1.82,1.88-.79,.44-1.74,.66-2.84,.66Zm-1.72-1.71h1.63c.76,0,1.39-.14,1.9-.42,.51-.28,.89-.7,1.14-1.25,.26-.56,.38-1.25,.38-2.09s-.13-1.53-.38-2.08c-.25-.55-.63-.97-1.13-1.24-.5-.28-1.11-.42-1.85-.42h-1.68v7.49Zm12.5,1.87c-.82,0-1.53-.17-2.13-.51-.59-.34-1.05-.83-1.37-1.46-.32-.63-.48-1.38-.48-2.23s.16-1.58,.48-2.22c.32-.64,.77-1.14,1.35-1.49,.58-.36,1.26-.54,2.04-.54,.5,0,.98,.08,1.43,.25,.45,.16,.85,.41,1.19,.75,.35,.34,.62,.77,.82,1.29,.2,.52,.3,1.14,.3,1.85v.59h-6.71v-1.3h4.86c0-.37-.08-.7-.24-.99-.16-.29-.38-.52-.65-.69-.28-.17-.6-.25-.97-.25-.39,0-.74,.1-1.04,.29-.3,.19-.53,.44-.7,.75-.16,.31-.25,.64-.25,1.01v1.13c0,.48,.09,.88,.26,1.23,.17,.34,.42,.6,.73,.78,.31,.18,.68,.27,1.1,.27,.28,0,.54-.04,.76-.12,.23-.08,.42-.2,.59-.36,.17-.16,.29-.35,.38-.58l1.8,.2c-.11,.48-.33,.89-.65,1.25-.32,.35-.72,.62-1.21,.82-.49,.19-1.06,.29-1.69,.29Zm8.91,0c-.82,0-1.52-.18-2.1-.54-.58-.36-1.03-.85-1.35-1.49-.31-.64-.47-1.37-.47-2.19s.16-1.56,.48-2.2c.32-.64,.77-1.14,1.35-1.49,.59-.36,1.28-.54,2.08-.54,.66,0,1.25,.12,1.76,.37,.51,.24,.93,.58,1.23,1.03,.31,.44,.48,.96,.52,1.54h-1.84c-.07-.39-.25-.72-.53-.99-.28-.27-.65-.4-1.11-.4-.39,0-.74,.11-1.04,.32-.3,.21-.53,.51-.7,.91-.16,.39-.25,.87-.25,1.42s.08,1.04,.25,1.44c.16,.4,.39,.7,.69,.92,.3,.21,.65,.32,1.05,.32,.28,0,.54-.05,.76-.16,.23-.11,.42-.27,.57-.47,.15-.21,.26-.46,.31-.75h1.84c-.05,.58-.22,1.09-.51,1.54-.29,.44-.7,.79-1.2,1.04-.51,.25-1.1,.37-1.79,.37Zm8.79,0c-.82,0-1.53-.17-2.13-.51-.59-.34-1.05-.83-1.37-1.46-.32-.63-.48-1.38-.48-2.23s.16-1.58,.48-2.22c.32-.64,.77-1.14,1.35-1.49,.58-.36,1.26-.54,2.04-.54,.51,0,.98,.08,1.43,.25,.45,.16,.85,.41,1.19,.75,.35,.34,.62,.77,.82,1.29,.2,.52,.3,1.14,.3,1.85v.59h-6.71v-1.3h4.86c0-.37-.08-.7-.24-.99-.16-.29-.38-.52-.65-.69-.28-.17-.6-.25-.97-.25-.39,0-.74,.1-1.04,.29-.3,.19-.53,.44-.7,.75-.16,.31-.25,.64-.25,1.01v1.13c0,.48,.09,.88,.26,1.23,.17,.34,.42,.6,.73,.78,.31,.18,.68,.27,1.1,.27,.28,0,.54-.04,.76-.12,.23-.08,.42-.2,.59-.36,.17-.16,.29-.35,.38-.58l1.8,.2c-.11,.48-.33,.89-.65,1.25-.32,.35-.72,.62-1.21,.82-.49,.19-1.06,.29-1.69,.29Zm5.34-.16v-8.18h1.84v1.39h.1c.17-.47,.45-.83,.85-1.1,.39-.27,.86-.4,1.41-.4s1.02,.14,1.4,.4c.38,.27,.65,.63,.81,1.09h.09c.18-.45,.49-.82,.92-1.09,.43-.27,.95-.41,1.54-.41,.75,0,1.37,.24,1.84,.71,.48,.48,.71,1.17,.71,2.08v5.49h-1.93v-5.19c0-.51-.13-.88-.4-1.11-.27-.24-.6-.36-.99-.36-.47,0-.83,.15-1.09,.44-.26,.29-.39,.66-.39,1.12v5.1h-1.89v-5.27c0-.42-.13-.76-.38-1.01-.25-.25-.58-.38-.99-.38-.28,0-.53,.07-.76,.21-.23,.14-.41,.34-.54,.59-.14,.25-.2,.55-.2,.88v4.98h-1.93Zm13.62,0v-10.91h1.93v4.08h.08c.1-.2,.24-.41,.42-.63,.18-.23,.43-.42,.74-.58,.31-.16,.7-.25,1.18-.25,.63,0,1.2,.16,1.71,.48,.51,.32,.92,.79,1.21,1.42,.3,.62,.45,1.39,.45,2.3s-.15,1.66-.44,2.29c-.29,.63-.7,1.11-1.2,1.44-.51,.33-1.08,.5-1.73,.5-.47,0-.86-.08-1.17-.23-.31-.16-.56-.34-.75-.56-.19-.22-.33-.43-.43-.63h-.11v1.29h-1.9Zm1.89-4.09c0,.53,.08,.99,.22,1.39,.15,.4,.37,.71,.65,.93,.29,.22,.64,.33,1.04,.33s.78-.11,1.07-.34c.29-.23,.5-.55,.65-.94,.15-.4,.22-.86,.22-1.37s-.07-.96-.22-1.35-.36-.7-.65-.93c-.29-.22-.65-.34-1.08-.34s-.76,.11-1.05,.32c-.29,.22-.51,.52-.65,.91-.15,.39-.22,.85-.22,1.38Zm11.17,4.25c-.82,0-1.53-.17-2.12-.51-.59-.34-1.05-.83-1.37-1.46-.32-.63-.48-1.38-.48-2.23s.16-1.58,.48-2.22c.32-.64,.77-1.14,1.35-1.49,.58-.36,1.26-.54,2.04-.54,.5,0,.98,.08,1.43,.25,.45,.16,.85,.41,1.19,.75,.35,.34,.62,.77,.82,1.29,.2,.52,.3,1.14,.3,1.85v.59h-6.71v-1.3h4.86c0-.37-.08-.7-.24-.99-.16-.29-.37-.52-.65-.69-.28-.17-.6-.25-.97-.25-.39,0-.74,.1-1.04,.29-.3,.19-.53,.44-.7,.75-.16,.31-.25,.64-.25,1.01v1.13c0,.48,.09,.88,.26,1.23,.17,.34,.42,.6,.73,.78,.31,.18,.68,.27,1.1,.27,.28,0,.54-.04,.76-.12,.23-.08,.42-.2,.59-.36,.17-.16,.29-.35,.38-.58l1.8,.2c-.11,.48-.33,.89-.65,1.25-.32,.35-.72,.62-1.21,.82-.49,.19-1.06,.29-1.69,.29Zm5.35-.16v-8.18h1.87v1.36h.09c.15-.47,.4-.84,.77-1.09,.37-.26,.78-.39,1.25-.39,.11,0,.22,0,.36,.02,.13,0,.25,.02,.34,.04v1.77c-.08-.03-.21-.05-.39-.07-.17-.02-.34-.04-.51-.04-.35,0-.67,.08-.95,.23-.28,.15-.49,.36-.65,.62-.16,.27-.24,.57-.24,.92v4.81h-1.93Zm7.35-1.49l-.07,.59c-.05,.45-.14,.9-.27,1.36-.12,.47-.26,.89-.39,1.28-.14,.39-.25,.7-.34,.92h-1.3c.05-.22,.12-.51,.2-.88,.09-.37,.17-.79,.26-1.26,.08-.47,.14-.94,.16-1.42l.04-.6h1.7Zm5.67,1.49v-1.43l3.79-3.71c.36-.37,.66-.69,.91-.97,.24-.28,.42-.56,.54-.83,.12-.27,.18-.55,.18-.85,0-.34-.08-.64-.23-.88-.16-.25-.37-.44-.65-.58-.27-.13-.58-.2-.93-.2s-.67,.07-.94,.22c-.27,.15-.48,.35-.63,.62-.15,.27-.22,.59-.22,.96h-1.88c0-.69,.16-1.29,.47-1.81,.32-.51,.75-.91,1.3-1.19,.56-.28,1.2-.42,1.92-.42s1.37,.14,1.93,.41c.55,.27,.98,.65,1.29,1.12,.31,.48,.46,1.02,.46,1.63,0,.41-.08,.81-.23,1.2-.16,.39-.43,.83-.83,1.31-.39,.48-.94,1.06-1.65,1.74l-1.88,1.91v.07h4.75v1.65h-7.48Zm13.42,.21c-.88,0-1.63-.22-2.26-.67-.62-.45-1.11-1.09-1.44-1.93-.33-.85-.5-1.86-.5-3.05,0-1.19,.17-2.2,.51-3.04,.34-.84,.82-1.48,1.44-1.92,.63-.44,1.38-.66,2.25-.66s1.62,.22,2.25,.66c.63,.44,1.11,1.08,1.44,1.92,.34,.84,.51,1.85,.51,3.04s-.17,2.21-.51,3.06c-.33,.84-.81,1.48-1.44,1.93-.62,.44-1.38,.67-2.25,.67Zm0-1.67c.68,0,1.22-.34,1.61-1.01,.4-.67,.6-1.67,.6-2.98,0-.87-.09-1.59-.27-2.18-.18-.59-.44-1.03-.77-1.33-.33-.3-.72-.45-1.17-.45-.68,0-1.21,.34-1.61,1.01-.39,.67-.59,1.66-.6,2.96,0,.87,.08,1.6,.26,2.19,.18,.59,.44,1.04,.77,1.34,.33,.3,.72,.45,1.18,.45Zm6.05,1.46v-1.43l3.79-3.71c.36-.37,.66-.69,.9-.97,.24-.28,.42-.56,.54-.83,.12-.27,.18-.55,.18-.85,0-.34-.08-.64-.23-.88-.16-.25-.37-.44-.64-.58-.27-.13-.58-.2-.93-.2s-.67,.07-.94,.22c-.27,.15-.48,.35-.63,.62-.15,.27-.22,.59-.22,.96h-1.88c0-.69,.16-1.29,.47-1.81,.32-.51,.75-.91,1.31-1.19,.56-.28,1.2-.42,1.92-.42s1.37,.14,1.93,.41c.55,.27,.98,.65,1.29,1.12,.31,.48,.46,1.02,.46,1.63,0,.41-.08,.81-.24,1.2-.16,.39-.43,.83-.82,1.31-.39,.48-.94,1.06-1.65,1.74l-1.88,1.91v.07h4.75v1.65h-7.48Zm9.39,0v-1.43l3.79-3.71c.36-.37,.66-.69,.91-.97,.24-.28,.42-.56,.54-.83s.18-.55,.18-.85c0-.34-.08-.64-.23-.88-.16-.25-.37-.44-.65-.58-.27-.13-.58-.2-.93-.2s-.67,.07-.94,.22c-.27,.15-.48,.35-.63,.62-.15,.27-.22,.59-.22,.96h-1.88c0-.69,.16-1.29,.47-1.81,.32-.51,.75-.91,1.31-1.19,.56-.28,1.2-.42,1.92-.42s1.38,.14,1.93,.41c.55,.27,.98,.65,1.29,1.12,.31,.48,.46,1.02,.46,1.63,0,.41-.08,.81-.23,1.2-.16,.39-.43,.83-.83,1.31-.39,.48-.94,1.06-1.65,1.74l-1.88,1.91v.07h4.75v1.65h-7.48Z"/>
  <path class="cls-4" d="M40.1,55.5h-1.32c-.08-.38-.21-.71-.41-1-.19-.29-.43-.53-.7-.72-.27-.2-.58-.35-.91-.45-.33-.1-.68-.15-1.04-.15-.66,0-1.26,.17-1.8,.5-.53,.33-.96,.83-1.27,1.48-.31,.65-.47,1.45-.47,2.39s.16,1.74,.47,2.39c.32,.65,.74,1.14,1.27,1.48,.54,.33,1.13,.5,1.8,.5,.36,0,.71-.05,1.04-.15,.33-.1,.64-.25,.91-.44,.28-.2,.51-.44,.7-.73,.2-.29,.33-.62,.41-1h1.32c-.1,.56-.28,1.06-.54,1.5-.26,.44-.59,.81-.98,1.12-.39,.31-.83,.54-1.32,.7-.48,.16-1,.24-1.55,.24-.93,0-1.76-.23-2.48-.68-.72-.45-1.29-1.1-1.71-1.94-.42-.84-.62-1.83-.62-2.98s.21-2.14,.62-2.98c.42-.84,.99-1.48,1.71-1.94,.72-.45,1.55-.68,2.48-.68,.55,0,1.07,.08,1.55,.24,.49,.16,.93,.39,1.32,.7,.39,.31,.72,.68,.98,1.12,.26,.44,.44,.94,.54,1.5Zm4.37,7.69c-.52,0-.99-.1-1.41-.29-.42-.2-.76-.48-1.01-.86-.25-.38-.37-.83-.37-1.36,0-.47,.09-.85,.28-1.14,.18-.29,.43-.53,.74-.69,.31-.17,.65-.29,1.02-.37,.38-.09,.75-.15,1.13-.2,.5-.06,.9-.11,1.21-.14,.31-.04,.54-.09,.68-.18,.15-.08,.22-.22,.22-.43v-.04c0-.53-.14-.93-.43-1.23-.28-.29-.72-.44-1.29-.44s-1.07,.13-1.41,.39c-.34,.26-.58,.54-.72,.84l-1.19-.43c.21-.5,.5-.88,.85-1.16,.36-.28,.75-.48,1.17-.59,.43-.11,.85-.17,1.26-.17,.26,0,.56,.03,.91,.1,.34,.06,.68,.19,1,.38,.32,.19,.59,.48,.8,.87,.21,.39,.32,.91,.32,1.56v5.39h-1.26v-1.11h-.06c-.09,.18-.23,.37-.43,.57-.2,.2-.46,.37-.79,.52-.33,.14-.73,.21-1.21,.21Zm.19-1.13c.5,0,.92-.1,1.26-.29,.34-.2,.6-.45,.78-.76,.18-.31,.27-.63,.27-.97v-1.15c-.05,.06-.17,.12-.35,.18-.18,.05-.38,.09-.62,.13-.23,.04-.46,.07-.68,.1-.22,.02-.39,.05-.53,.06-.33,.04-.63,.11-.92,.21-.28,.09-.51,.23-.68,.42-.17,.18-.26,.44-.26,.76,0,.44,.16,.77,.48,.99,.33,.22,.74,.33,1.24,.33Zm5.85,.94v-8.18h1.21v1.24h.09c.15-.4,.42-.73,.81-.99,.39-.25,.83-.38,1.32-.38,.09,0,.21,0,.35,0,.14,0,.24,0,.31,.02v1.28s-.14-.03-.29-.05c-.15-.02-.31-.04-.47-.04-.4,0-.75,.08-1.07,.25-.31,.16-.55,.39-.74,.68-.18,.29-.27,.62-.27,.99v5.18h-1.26Zm8.76,.17c-.79,0-1.47-.17-2.04-.52-.57-.35-1.01-.84-1.32-1.47-.31-.63-.46-1.37-.46-2.21s.15-1.58,.46-2.22c.31-.64,.74-1.14,1.29-1.5,.55-.36,1.2-.54,1.94-.54,.43,0,.85,.07,1.26,.21,.42,.14,.79,.37,1.13,.69,.34,.32,.61,.74,.81,1.26,.2,.52,.3,1.16,.3,1.93v.53h-6.31v-1.09h5.03c0-.46-.09-.87-.28-1.24-.18-.36-.44-.65-.78-.86-.33-.21-.73-.31-1.18-.31-.5,0-.93,.12-1.3,.37-.36,.25-.64,.56-.84,.96s-.29,.82-.29,1.27v.72c0,.62,.11,1.14,.32,1.57,.22,.43,.52,.75,.9,.97,.38,.22,.83,.33,1.34,.33,.33,0,.63-.05,.89-.14,.27-.1,.5-.24,.7-.43,.2-.19,.35-.43,.45-.71l1.21,.34c-.13,.41-.34,.77-.64,1.09-.3,.31-.67,.55-1.12,.72-.44,.17-.94,.26-1.5,.26Zm8.73,0c-.79,0-1.47-.17-2.04-.52-.57-.35-1.01-.84-1.32-1.47-.31-.63-.46-1.37-.46-2.21s.15-1.58,.46-2.22c.31-.64,.74-1.14,1.29-1.5,.55-.36,1.2-.54,1.94-.54,.43,0,.85,.07,1.26,.21,.42,.14,.79,.37,1.13,.69,.34,.32,.61,.74,.82,1.26,.2,.52,.3,1.16,.3,1.93v.53h-6.31v-1.09h5.03c0-.46-.09-.87-.28-1.24-.18-.36-.44-.65-.78-.86-.33-.21-.73-.31-1.18-.31-.5,0-.93,.12-1.3,.37-.36,.25-.64,.56-.84,.96-.2,.39-.29,.82-.29,1.27v.72c0,.62,.11,1.14,.32,1.57,.22,.43,.52,.75,.9,.97,.38,.22,.83,.33,1.34,.33,.33,0,.63-.05,.89-.14,.27-.1,.5-.24,.7-.43,.2-.19,.35-.43,.45-.71l1.21,.34c-.13,.41-.34,.77-.64,1.09-.3,.31-.67,.55-1.12,.72-.44,.17-.94,.26-1.5,.26Zm5.3-.17v-8.18h1.21v1.24h.09c.15-.4,.42-.73,.81-.99,.39-.25,.83-.38,1.32-.38,.09,0,.21,0,.35,0,.14,0,.24,0,.31,.02v1.28s-.14-.03-.29-.05c-.15-.02-.31-.04-.47-.04-.4,0-.75,.08-1.07,.25-.31,.16-.55,.39-.74,.68-.18,.29-.27,.62-.27,.99v5.18h-1.26Zm11.63-14.42v17.94h-1.07v-17.94h1.07Zm7.91,14.42h-1.39l4.01-10.91h1.36l4.01,10.91h-1.39l-3.26-9.18h-.09l-3.26,9.18Zm.51-4.26h5.58v1.17h-5.58v-1.17Zm9.1,4.26v-8.18h1.26v8.18h-1.26Zm.64-9.55c-.25,0-.46-.08-.63-.25-.17-.17-.26-.37-.26-.6s.09-.43,.26-.6c.18-.17,.39-.25,.63-.25s.46,.08,.63,.25c.18,.17,.27,.37,.27,.6s-.09,.44-.27,.6c-.17,.17-.38,.25-.63,.25Zm2.92,9.55v-8.18h1.21v1.24h.08c.15-.4,.42-.73,.81-.99,.39-.25,.83-.38,1.32-.38,.09,0,.21,0,.35,0,.14,0,.24,0,.32,.02v1.28s-.14-.03-.29-.05c-.15-.02-.31-.04-.47-.04-.4,0-.75,.08-1.07,.25-.31,.16-.55,.39-.74,.68-.18,.29-.27,.62-.27,.99v5.18h-1.26Zm5.58,3.07v-11.25h1.21v1.3h.15c.09-.14,.22-.32,.38-.54,.17-.22,.4-.42,.71-.6,.31-.18,.74-.27,1.27-.27,.69,0,1.3,.17,1.82,.52,.53,.34,.94,.83,1.23,1.46,.29,.63,.44,1.38,.44,2.24s-.15,1.62-.44,2.25c-.29,.63-.7,1.12-1.22,1.47-.52,.34-1.12,.52-1.81,.52-.53,0-.95-.09-1.26-.26-.32-.18-.56-.38-.73-.6-.17-.23-.3-.42-.4-.56h-.11v4.33h-1.26Zm1.24-7.16c0,.62,.09,1.16,.27,1.64,.18,.47,.45,.84,.79,1.1,.35,.26,.77,.39,1.28,.39s.96-.14,1.32-.42c.35-.28,.62-.66,.8-1.13,.18-.48,.27-1,.27-1.59s-.09-1.09-.27-1.56c-.17-.47-.44-.83-.79-1.1-.35-.27-.79-.41-1.33-.41s-.94,.13-1.29,.39c-.35,.26-.61,.61-.79,1.08-.18,.46-.27,.99-.27,1.6Zm11.23,4.26c-.74,0-1.39-.18-1.94-.53-.55-.35-.99-.84-1.3-1.48-.31-.63-.46-1.37-.46-2.22s.15-1.6,.46-2.23c.31-.64,.75-1.13,1.3-1.48,.56-.35,1.21-.53,1.94-.53s1.38,.18,1.94,.53c.56,.35,.99,.85,1.3,1.48,.31,.64,.47,1.38,.47,2.23s-.16,1.58-.47,2.22c-.31,.63-.74,1.12-1.3,1.48-.55,.35-1.2,.53-1.94,.53Zm0-1.13c.56,0,1.02-.14,1.38-.43,.36-.29,.63-.67,.81-1.13,.17-.47,.26-.98,.26-1.52s-.09-1.06-.26-1.53c-.17-.47-.44-.85-.81-1.15-.36-.29-.82-.44-1.38-.44s-1.02,.15-1.39,.44c-.36,.29-.63,.67-.8,1.15-.17,.47-.26,.98-.26,1.53s.09,1.05,.26,1.52c.17,.47,.44,.85,.8,1.13,.36,.29,.82,.43,1.39,.43Zm5.63,.96v-8.18h1.21v1.24h.09c.15-.4,.42-.73,.81-.99,.39-.25,.83-.38,1.32-.38,.09,0,.21,0,.35,0,.14,0,.24,0,.32,.02v1.28s-.14-.03-.29-.05c-.15-.02-.31-.04-.47-.04-.4,0-.75,.08-1.07,.25-.31,.16-.55,.39-.74,.68-.18,.29-.27,.62-.27,.99v5.18h-1.26Zm9.65-8.18v1.07h-4.24v-1.07h4.24Zm-3.01-1.96h1.26v7.8c0,.36,.05,.62,.15,.8,.11,.17,.24,.29,.4,.35,.17,.06,.34,.09,.53,.09,.14,0,.25,0,.34-.02,.09-.02,.16-.03,.21-.04l.26,1.13c-.09,.03-.2,.06-.36,.1-.15,.04-.35,.05-.58,.05-.35,0-.7-.08-1.04-.23-.34-.15-.62-.39-.84-.7-.22-.31-.33-.71-.33-1.18v-8.14Zm14.91,3.79l-1.13,.32c-.07-.19-.18-.37-.32-.55-.13-.18-.32-.33-.55-.45-.23-.12-.53-.18-.9-.18-.5,0-.92,.12-1.25,.35-.33,.23-.5,.52-.5,.87,0,.31,.11,.56,.34,.74s.58,.33,1.07,.45l1.21,.3c.73,.18,1.28,.45,1.63,.81,.36,.36,.54,.83,.54,1.4,0,.47-.14,.89-.4,1.26-.27,.37-.64,.66-1.12,.87-.48,.21-1.04,.32-1.67,.32-.84,0-1.53-.18-2.07-.54-.55-.36-.89-.89-1.04-1.59l1.19-.3c.11,.44,.33,.77,.64,.99,.32,.22,.74,.33,1.25,.33,.59,0,1.05-.12,1.4-.37,.35-.25,.52-.55,.52-.91,0-.28-.1-.52-.3-.71-.2-.2-.5-.34-.92-.44l-1.36-.32c-.75-.18-1.3-.45-1.65-.83-.35-.38-.52-.85-.52-1.41,0-.46,.13-.87,.39-1.23,.26-.36,.62-.63,1.07-.84,.46-.2,.97-.3,1.55-.3,.81,0,1.44,.18,1.91,.53,.46,.36,.79,.82,.99,1.41Zm3.3,1.43v4.92h-1.26v-10.91h1.26v4.01h.11c.19-.42,.48-.76,.86-1.01,.39-.25,.9-.38,1.54-.38,.56,0,1.04,.11,1.46,.34,.42,.22,.74,.56,.98,1.02,.24,.45,.35,1.03,.35,1.74v5.2h-1.26v-5.11c0-.65-.17-1.15-.51-1.51-.33-.36-.8-.54-1.39-.54-.41,0-.78,.09-1.11,.26-.32,.17-.58,.43-.77,.76-.18,.33-.28,.74-.28,1.21Zm12.76,1.58v-4.84h1.26v8.18h-1.26v-1.38h-.08c-.19,.42-.49,.77-.9,1.06-.4,.29-.92,.43-1.53,.43-.51,0-.97-.11-1.36-.34-.4-.23-.71-.57-.94-1.02-.23-.46-.34-1.04-.34-1.73v-5.2h1.26v5.11c0,.6,.17,1.07,.5,1.43,.34,.36,.77,.53,1.29,.53,.31,0,.63-.08,.95-.24,.33-.16,.6-.4,.82-.74,.22-.33,.34-.75,.34-1.26Zm7.12-4.84v1.07h-4.24v-1.07h4.24Zm-3-1.96h1.26v7.8c0,.36,.05,.62,.15,.8,.11,.17,.24,.29,.41,.35,.17,.06,.34,.09,.53,.09,.14,0,.25,0,.34-.02,.09-.02,.16-.03,.21-.04l.26,1.13c-.08,.03-.2,.06-.36,.1-.15,.04-.35,.05-.58,.05-.35,0-.7-.08-1.04-.23-.34-.15-.62-.39-.84-.7-.22-.31-.33-.71-.33-1.18v-8.14Zm8.45,1.96v1.07h-4.24v-1.07h4.24Zm-3-1.96h1.26v7.8c0,.36,.05,.62,.15,.8,.11,.17,.24,.29,.4,.35,.17,.06,.34,.09,.53,.09,.14,0,.25,0,.34-.02,.09-.02,.16-.03,.21-.04l.26,1.13c-.09,.03-.2,.06-.36,.1-.15,.04-.35,.05-.58,.05-.35,0-.7-.08-1.04-.23-.34-.15-.62-.39-.84-.7-.22-.31-.33-.71-.33-1.18v-8.14Zm6.33-.77v10.91h-1.26v-10.91h1.26Zm5.73,11.08c-.79,0-1.47-.17-2.04-.52-.57-.35-1.01-.84-1.32-1.47-.31-.63-.46-1.37-.46-2.21s.15-1.58,.46-2.22c.31-.64,.74-1.14,1.29-1.5,.55-.36,1.2-.54,1.94-.54,.43,0,.85,.07,1.26,.21,.42,.14,.79,.37,1.14,.69,.34,.32,.61,.74,.82,1.26,.2,.52,.3,1.16,.3,1.93v.53h-6.31v-1.09h5.03c0-.46-.09-.87-.28-1.24-.18-.36-.44-.65-.78-.86-.33-.21-.73-.31-1.18-.31-.5,0-.93,.12-1.3,.37-.36,.25-.64,.56-.84,.96-.2,.39-.29,.82-.29,1.27v.72c0,.62,.11,1.14,.32,1.57,.22,.43,.52,.75,.9,.97,.38,.22,.83,.33,1.34,.33,.33,0,.63-.05,.89-.14,.27-.1,.5-.24,.7-.43,.2-.19,.35-.43,.45-.71l1.21,.34c-.13,.41-.34,.77-.64,1.09-.3,.31-.68,.55-1.12,.72-.44,.17-.94,.26-1.5,.26Z"/>
  <rect class="cls-3" x="270" y="39" width="94" height="34" rx="12" ry="12"/>
  <path class="cls-2" d="M284.77,61h-3.7v-10.91h3.77c1.08,0,2.01,.22,2.79,.66,.78,.43,1.38,1.06,1.8,1.87,.42,.81,.63,1.79,.63,2.92s-.21,2.11-.63,2.93c-.42,.82-1.02,1.44-1.82,1.88-.79,.44-1.74,.66-2.84,.66Zm-1.72-1.71h1.62c.76,0,1.39-.14,1.9-.42,.51-.28,.89-.7,1.15-1.25,.26-.56,.38-1.25,.38-2.09s-.13-1.53-.38-2.08c-.26-.55-.63-.97-1.14-1.24-.5-.28-1.11-.42-1.85-.42h-1.68v7.49Zm12.45,1.87c-.8,0-1.49-.18-2.08-.53-.59-.35-1.04-.84-1.36-1.48-.32-.63-.48-1.37-.48-2.22s.16-1.59,.48-2.22c.32-.64,.78-1.13,1.36-1.48,.59-.35,1.28-.53,2.08-.53s1.49,.18,2.08,.53c.59,.35,1.04,.85,1.36,1.48,.32,.64,.48,1.38,.48,2.22s-.16,1.58-.48,2.22c-.32,.63-.77,1.12-1.36,1.48-.59,.35-1.28,.53-2.08,.53Zm.01-1.54c.43,0,.8-.12,1.09-.36,.29-.24,.51-.56,.65-.97,.15-.4,.22-.86,.22-1.35s-.07-.95-.22-1.36c-.14-.41-.36-.73-.65-.97-.29-.24-.65-.36-1.09-.36s-.81,.12-1.11,.36c-.29,.24-.51,.57-.65,.97-.14,.4-.21,.86-.21,1.36s.07,.95,.21,1.35c.15,.4,.36,.73,.65,.97,.29,.24,.67,.36,1.11,.36Zm7.08,1.38l-2.31-8.18h1.97l1.44,5.75h.07l1.47-5.75h1.94l1.47,5.72h.08l1.42-5.72h1.97l-2.32,8.18h-2.01l-1.53-5.53h-.11l-1.53,5.53h-2.01Zm12.87-4.79v4.79h-1.93v-8.18h1.84v1.39h.1c.19-.46,.49-.82,.9-1.09,.42-.27,.93-.4,1.54-.4,.56,0,1.06,.12,1.48,.36,.42,.24,.75,.59,.98,1.05,.23,.46,.35,1.01,.35,1.67v5.21h-1.93v-4.91c0-.55-.14-.97-.43-1.28-.28-.31-.67-.46-1.17-.46-.34,0-.64,.07-.9,.22-.26,.15-.46,.36-.61,.63-.15,.28-.22,.61-.22,1.01Zm9.22-6.12v10.91h-1.93v-10.91h1.93Zm5.63,11.07c-.8,0-1.49-.18-2.08-.53-.58-.35-1.04-.84-1.36-1.48-.32-.63-.48-1.37-.48-2.22s.16-1.59,.48-2.22c.32-.64,.78-1.13,1.36-1.48,.59-.35,1.28-.53,2.08-.53s1.49,.18,2.08,.53c.59,.35,1.04,.85,1.36,1.48,.32,.64,.48,1.38,.48,2.22s-.16,1.58-.48,2.22c-.32,.63-.77,1.12-1.36,1.48-.59,.35-1.28,.53-2.08,.53Zm.01-1.54c.43,0,.79-.12,1.09-.36,.29-.24,.51-.56,.65-.97,.15-.4,.22-.86,.22-1.35s-.07-.95-.22-1.36c-.14-.41-.36-.73-.65-.97-.29-.24-.65-.36-1.09-.36s-.81,.12-1.11,.36c-.29,.24-.51,.57-.66,.97-.14,.4-.21,.86-.21,1.36s.07,.95,.21,1.35c.15,.4,.36,.73,.66,.97,.29,.24,.66,.36,1.11,.36Zm7.97,1.55c-.52,0-.98-.09-1.4-.28-.41-.19-.74-.47-.98-.83-.24-.37-.36-.82-.36-1.35,0-.46,.09-.84,.26-1.15,.17-.3,.4-.54,.7-.72,.3-.18,.63-.32,1-.41,.37-.1,.76-.17,1.16-.21,.48-.05,.87-.09,1.17-.13,.3-.04,.51-.11,.65-.19,.14-.09,.21-.23,.21-.41v-.03c0-.4-.12-.71-.36-.93-.24-.22-.58-.33-1.03-.33-.47,0-.85,.1-1.12,.31-.27,.21-.46,.45-.55,.73l-1.8-.26c.14-.5,.38-.91,.7-1.25,.33-.34,.73-.59,1.2-.76,.47-.17,.99-.26,1.57-.26,.4,0,.79,.05,1.18,.14,.39,.09,.75,.25,1.07,.46,.32,.21,.58,.5,.78,.86,.2,.36,.3,.82,.3,1.36v5.48h-1.85v-1.12h-.06c-.12,.23-.28,.44-.5,.64-.21,.2-.47,.35-.79,.47-.32,.12-.69,.18-1.11,.18Zm.5-1.42c.39,0,.72-.08,1.01-.23,.28-.16,.5-.36,.65-.62,.16-.26,.23-.53,.23-.84v-.96c-.06,.05-.16,.1-.31,.14-.14,.04-.3,.08-.48,.11s-.35,.06-.53,.09c-.17,.02-.32,.05-.45,.06-.29,.04-.54,.1-.77,.19-.23,.09-.41,.21-.54,.37-.13,.16-.2,.36-.2,.61,0,.36,.13,.62,.39,.8,.26,.18,.59,.27,.99,.27Zm8.87,1.4c-.64,0-1.22-.17-1.73-.5-.51-.33-.91-.81-1.2-1.44-.29-.63-.44-1.39-.44-2.29s.15-1.68,.45-2.3c.3-.63,.71-1.1,1.22-1.42,.51-.32,1.08-.48,1.71-.48,.48,0,.87,.08,1.18,.25,.31,.16,.55,.35,.73,.58,.18,.22,.32,.44,.42,.63h.08v-4.08h1.93v10.91h-1.9v-1.29h-.12c-.1,.2-.24,.41-.43,.63-.19,.22-.44,.41-.75,.56-.31,.16-.7,.23-1.17,.23Zm.54-1.58c.41,0,.76-.11,1.04-.33,.29-.22,.51-.53,.66-.93,.15-.4,.22-.86,.22-1.39s-.07-.99-.22-1.38c-.15-.39-.36-.69-.65-.91-.28-.22-.63-.32-1.05-.32s-.79,.11-1.08,.34c-.29,.22-.5,.53-.65,.93-.15,.39-.22,.85-.22,1.35s.07,.97,.22,1.37c.15,.4,.37,.71,.65,.94,.29,.23,.65,.34,1.07,.34Z"/>
</svg>