<svg width="386" height="123" viewBox="0 0 386 123" fill="none" xmlns="http://www.w3.org/2000/svg">
<g filter="url(#filter0_d_119_3043)">
<rect x="10" y="4" width="366" height="103" rx="12" fill="#F2F2F2"/>
<path d="M40.4137 30.7717H38.4215C38.3647 30.445 38.2599 30.1555 38.1072 29.9034C37.9545 29.6477 37.7646 29.4311 37.5373 29.2536C37.31 29.076 37.0508 28.9428 36.7596 28.854C36.4719 28.7617 36.1612 28.7156 35.8274 28.7156C35.2344 28.7156 34.7088 28.8647 34.2507 29.163C33.7926 29.4577 33.4339 29.891 33.1747 30.4627C32.9155 31.0309 32.7859 31.7251 32.7859 32.5455C32.7859 33.38 32.9155 34.0831 33.1747 34.6548C33.4375 35.223 33.7962 35.6527 34.2507 35.9439C34.7088 36.2315 35.2326 36.3754 35.8221 36.3754C36.1488 36.3754 36.4542 36.3327 36.7383 36.2475C37.0259 36.1587 37.2834 36.0291 37.5107 35.8587C37.7415 35.6882 37.935 35.4787 38.0913 35.2301C38.2511 34.9815 38.3612 34.6974 38.4215 34.3778L40.4137 34.3885C40.3391 34.907 40.1776 35.3935 39.929 35.848C39.6839 36.3026 39.3626 36.7038 38.9648 37.0518C38.5671 37.3963 38.1019 37.6662 37.5692 37.8615C37.0366 38.0533 36.4453 38.1491 35.7955 38.1491C34.8366 38.1491 33.9808 37.9272 33.228 37.4833C32.4751 37.0394 31.8821 36.3984 31.4489 35.5604C31.0156 34.7223 30.799 33.7173 30.799 32.5455C30.799 31.37 31.0174 30.3651 31.4542 29.5305C31.891 28.6925 32.4858 28.0515 33.2386 27.6076C33.9915 27.1637 34.8438 26.9418 35.7955 26.9418C36.4027 26.9418 36.9673 27.027 37.4893 27.1974C38.0114 27.3679 38.4766 27.6183 38.8849 27.9485C39.2933 28.2752 39.6289 28.6765 39.8917 29.1523C40.158 29.6246 40.332 30.1644 40.4137 30.7717ZM45.7821 38.1598C44.9831 38.1598 44.2906 37.984 43.7047 37.6325C43.1188 37.2809 42.6642 36.7891 42.3411 36.157C42.0215 35.5249 41.8617 34.7862 41.8617 33.9411C41.8617 33.0959 42.0215 32.3555 42.3411 31.7198C42.6642 31.0842 43.1188 30.5906 43.7047 30.239C44.2906 29.8874 44.9831 29.7116 45.7821 29.7116C46.5811 29.7116 47.2736 29.8874 47.8595 30.239C48.4455 30.5906 48.8982 31.0842 49.2178 31.7198C49.541 32.3555 49.7026 33.0959 49.7026 33.9411C49.7026 34.7862 49.541 35.5249 49.2178 36.157C48.8982 36.7891 48.4455 37.2809 47.8595 37.6325C47.2736 37.984 46.5811 38.1598 45.7821 38.1598ZM45.7928 36.6151C46.226 36.6151 46.5882 36.4961 46.8794 36.2582C47.1706 36.0167 47.3872 35.6935 47.5293 35.2887C47.6749 34.8839 47.7477 34.4329 47.7477 33.9357C47.7477 33.435 47.6749 32.9822 47.5293 32.5774C47.3872 32.169 47.1706 31.8441 46.8794 31.6026C46.5882 31.3612 46.226 31.2404 45.7928 31.2404C45.3489 31.2404 44.9796 31.3612 44.6848 31.6026C44.3936 31.8441 44.1752 32.169 44.0296 32.5774C43.8876 32.9822 43.8166 33.435 43.8166 33.9357C43.8166 34.4329 43.8876 34.8839 44.0296 35.2887C44.1752 35.6935 44.3936 36.0167 44.6848 36.2582C44.9796 36.4961 45.3489 36.6151 45.7928 36.6151ZM56.629 34.5589V29.8182H58.5573V38H56.6876V36.5458H56.6024C56.4178 37.0039 56.1141 37.3786 55.6915 37.6697C55.2725 37.9609 54.7558 38.1065 54.1415 38.1065C53.6053 38.1065 53.1312 37.9876 52.7192 37.7496C52.3109 37.5082 51.9913 37.1584 51.7604 36.7003C51.5296 36.2386 51.4142 35.6811 51.4142 35.0277V29.8182H53.3425V34.7294C53.3425 35.2479 53.4845 35.6598 53.7686 35.9652C54.0527 36.2706 54.4256 36.4233 54.8872 36.4233C55.1713 36.4233 55.4465 36.354 55.7129 36.2156C55.9792 36.0771 56.1976 35.8711 56.368 35.5977C56.542 35.3207 56.629 34.9744 56.629 34.5589ZM60.6152 41.0682V29.8182H62.5115V31.1712H62.6233C62.7228 30.9723 62.8631 30.761 63.0442 30.5373C63.2253 30.31 63.4703 30.1165 63.7792 29.9567C64.0882 29.7933 64.4824 29.7116 64.9618 29.7116C65.5939 29.7116 66.1638 29.8732 66.6716 30.1964C67.183 30.516 67.5878 30.9901 67.8861 31.6186C68.188 32.2436 68.3389 33.0107 68.3389 33.9197C68.3389 34.8182 68.1915 35.5817 67.8968 36.2102C67.602 36.8388 67.2008 37.3182 66.693 37.6484C66.1851 37.9787 65.6099 38.1438 64.9671 38.1438C64.4983 38.1438 64.1095 38.0657 63.8006 37.9094C63.4916 37.7532 63.243 37.565 63.0548 37.3448C62.8702 37.1211 62.7263 36.9098 62.6233 36.7109H62.5434V41.0682H60.6152ZM62.5062 33.9091C62.5062 34.4382 62.5807 34.9016 62.7299 35.2994C62.8826 35.6971 63.101 36.0078 63.3851 36.2315C63.6727 36.4517 64.0207 36.5618 64.4291 36.5618C64.8552 36.5618 65.2121 36.4482 65.4998 36.2209C65.7874 35.9901 66.004 35.6758 66.1496 35.2781C66.2988 34.8768 66.3733 34.4205 66.3733 33.9091C66.3733 33.4013 66.3006 32.9503 66.155 32.5561C66.0094 32.1619 65.7927 31.853 65.5051 31.6293C65.2175 31.4055 64.8588 31.2937 64.4291 31.2937C64.0172 31.2937 63.6674 31.402 63.3797 31.6186C63.0921 31.8352 62.8737 32.1388 62.7246 32.5295C62.579 32.9201 62.5062 33.38 62.5062 33.9091ZM73.6341 38.1598C72.8351 38.1598 72.1426 37.984 71.5567 37.6325C70.9707 37.2809 70.5162 36.7891 70.193 36.157C69.8734 35.5249 69.7136 34.7862 69.7136 33.9411C69.7136 33.0959 69.8734 32.3555 70.193 31.7198C70.5162 31.0842 70.9707 30.5906 71.5567 30.239C72.1426 29.8874 72.8351 29.7116 73.6341 29.7116C74.4331 29.7116 75.1255 29.8874 75.7115 30.239C76.2974 30.5906 76.7502 31.0842 77.0698 31.7198C77.393 32.3555 77.5545 33.0959 77.5545 33.9411C77.5545 34.7862 77.393 35.5249 77.0698 36.157C76.7502 36.7891 76.2974 37.2809 75.7115 37.6325C75.1255 37.984 74.4331 38.1598 73.6341 38.1598ZM73.6447 36.6151C74.078 36.6151 74.4402 36.4961 74.7314 36.2582C75.0226 36.0167 75.2392 35.6935 75.3812 35.2887C75.5268 34.8839 75.5996 34.4329 75.5996 33.9357C75.5996 33.435 75.5268 32.9822 75.3812 32.5774C75.2392 32.169 75.0226 31.8441 74.7314 31.6026C74.4402 31.3612 74.078 31.2404 73.6447 31.2404C73.2008 31.2404 72.8315 31.3612 72.5368 31.6026C72.2456 31.8441 72.0272 32.169 71.8816 32.5774C71.7395 32.9822 71.6685 33.435 71.6685 33.9357C71.6685 34.4329 71.7395 34.8839 71.8816 35.2887C72.0272 35.6935 72.2456 36.0167 72.5368 36.2582C72.8315 36.4961 73.2008 36.6151 73.6447 36.6151ZM81.1944 33.206V38H79.2662V29.8182H81.1092V31.2085H81.2051C81.3933 30.7504 81.6934 30.3864 82.1053 30.1165C82.5208 29.8466 83.0339 29.7116 83.6447 29.7116C84.2093 29.7116 84.7012 29.8324 85.1202 30.0739C85.5428 30.3153 85.8695 30.6651 86.1003 31.1232C86.3347 31.5813 86.4501 32.1371 86.4466 32.7905V38H84.5183V33.0888C84.5183 32.5419 84.3762 32.114 84.0922 31.805C83.8116 31.4961 83.4228 31.3416 82.9256 31.3416C82.5882 31.3416 82.2882 31.4162 82.0254 31.5653C81.7662 31.7109 81.562 31.9222 81.4128 32.1992C81.2672 32.4762 81.1944 32.8118 81.1944 33.206ZM94.9484 31.9808L93.1906 32.1726C93.1409 31.995 93.0539 31.8281 92.9296 31.6719C92.8088 31.5156 92.6455 31.3896 92.4395 31.2937C92.2336 31.1978 91.9814 31.1499 91.6831 31.1499C91.2819 31.1499 90.9445 31.2369 90.6711 31.4109C90.4012 31.5849 90.268 31.8104 90.2716 32.0874C90.268 32.3253 90.355 32.5188 90.5326 32.668C90.7137 32.8171 91.012 32.9396 91.4275 33.0355L92.823 33.3338C93.5972 33.5007 94.1725 33.7653 94.5489 34.1275C94.9289 34.4897 95.1206 34.9638 95.1242 35.5497C95.1206 36.0646 94.9697 36.5192 94.6714 36.9134C94.3767 37.304 93.9665 37.6094 93.4409 37.8295C92.9154 38.0497 92.3117 38.1598 91.6299 38.1598C90.6284 38.1598 89.8223 37.9503 89.2115 37.5312C88.6007 37.1087 88.2368 36.521 88.1196 35.7681L89.9999 35.587C90.0851 35.9563 90.2662 36.2351 90.5432 36.4233C90.8202 36.6115 91.1806 36.7056 91.6245 36.7056C92.0826 36.7056 92.4502 36.6115 92.7272 36.4233C93.0077 36.2351 93.148 36.0025 93.148 35.7255C93.148 35.4911 93.0574 35.2976 92.8763 35.1449C92.6988 34.9922 92.4218 34.875 92.0453 34.7933L90.6498 34.5004C89.865 34.337 89.2843 34.0618 88.9079 33.6747C88.5315 33.2841 88.3451 32.7905 88.3486 32.1939C88.3451 31.6896 88.4818 31.2528 88.7588 30.8835C89.0393 30.5107 89.4282 30.223 89.9253 30.0206C90.426 29.8146 91.0031 29.7116 91.6565 29.7116C92.6153 29.7116 93.3699 29.9158 93.9203 30.3242C94.4743 30.7326 94.817 31.2848 94.9484 31.9808ZM104.729 29.8182V31.3097H99.8924V29.8182H104.729ZM101.102 38V29.0458C101.102 28.4954 101.215 28.0373 101.443 27.6715C101.673 27.3058 101.982 27.0323 102.369 26.8512C102.756 26.6701 103.186 26.5795 103.658 26.5795C103.992 26.5795 104.289 26.6062 104.548 26.6594C104.807 26.7127 104.999 26.7607 105.123 26.8033L104.74 28.2947C104.658 28.2699 104.555 28.245 104.431 28.2202C104.306 28.1918 104.168 28.1776 104.015 28.1776C103.657 28.1776 103.403 28.2646 103.254 28.4386C103.108 28.609 103.035 28.854 103.035 29.1737V38H101.102ZM109.575 38.1598C108.776 38.1598 108.084 37.984 107.498 37.6325C106.912 37.2809 106.458 36.7891 106.134 36.157C105.815 35.5249 105.655 34.7862 105.655 33.9411C105.655 33.0959 105.815 32.3555 106.134 31.7198C106.458 31.0842 106.912 30.5906 107.498 30.239C108.084 29.8874 108.776 29.7116 109.575 29.7116C110.374 29.7116 111.067 29.8874 111.653 30.239C112.239 30.5906 112.692 31.0842 113.011 31.7198C113.334 32.3555 113.496 33.0959 113.496 33.9411C113.496 34.7862 113.334 35.5249 113.011 36.157C112.692 36.7891 112.239 37.2809 111.653 37.6325C111.067 37.984 110.374 38.1598 109.575 38.1598ZM109.586 36.6151C110.019 36.6151 110.382 36.4961 110.673 36.2582C110.964 36.0167 111.181 35.6935 111.323 35.2887C111.468 34.8839 111.541 34.4329 111.541 33.9357C111.541 33.435 111.468 32.9822 111.323 32.5774C111.181 32.169 110.964 31.8441 110.673 31.6026C110.382 31.3612 110.019 31.2404 109.586 31.2404C109.142 31.2404 108.773 31.3612 108.478 31.6026C108.187 31.8441 107.969 32.169 107.823 32.5774C107.681 32.9822 107.61 33.435 107.61 33.9357C107.61 34.4329 107.681 34.8839 107.823 35.2887C107.969 35.6935 108.187 36.0167 108.478 36.2582C108.773 36.4961 109.142 36.6151 109.586 36.6151ZM115.208 38V29.8182H117.077V31.1818H117.162C117.312 30.7095 117.567 30.3455 117.93 30.0898C118.295 29.8306 118.713 29.701 119.181 29.701C119.288 29.701 119.407 29.7063 119.538 29.717C119.673 29.7241 119.785 29.7365 119.874 29.7543V31.5281C119.792 31.4996 119.662 31.4748 119.485 31.4535C119.311 31.4286 119.142 31.4162 118.979 31.4162C118.627 31.4162 118.311 31.4925 118.031 31.6452C117.754 31.7944 117.535 32.0021 117.376 32.2685C117.216 32.5348 117.136 32.842 117.136 33.19V38H115.208ZM128.807 38H125.111V27.0909H128.882C129.965 27.0909 130.896 27.3093 131.673 27.7461C132.455 28.1793 133.055 28.8026 133.474 29.6158C133.893 30.429 134.102 31.402 134.102 32.5348C134.102 33.6712 133.891 34.6477 133.468 35.4645C133.049 36.2812 132.444 36.908 131.652 37.3448C130.864 37.7816 129.915 38 128.807 38ZM127.087 36.2901H128.712C129.472 36.2901 130.105 36.1516 130.613 35.8746C131.121 35.5941 131.503 35.1768 131.758 34.6229C132.014 34.0653 132.142 33.3693 132.142 32.5348C132.142 31.7003 132.014 31.0078 131.758 30.4574C131.503 29.9034 131.125 29.4897 130.624 29.2163C130.127 28.9393 129.509 28.8008 128.77 28.8008H127.087V36.2901ZM139.592 38.1598C138.772 38.1598 138.063 37.9893 137.466 37.6484C136.873 37.304 136.417 36.8175 136.098 36.1889C135.778 35.5568 135.618 34.8129 135.618 33.957C135.618 33.1154 135.778 32.3768 136.098 31.7411C136.421 31.1019 136.872 30.6048 137.45 30.2496C138.029 29.891 138.709 29.7116 139.491 29.7116C139.995 29.7116 140.471 29.7933 140.918 29.9567C141.369 30.1165 141.767 30.3651 142.111 30.7024C142.459 31.0398 142.733 31.4695 142.932 31.9915C143.131 32.5099 143.23 33.1278 143.23 33.8452V34.4364H136.524V33.1367H141.382C141.378 32.7674 141.298 32.4389 141.142 32.1513C140.986 31.8601 140.767 31.631 140.487 31.4641C140.21 31.2972 139.887 31.2138 139.517 31.2138C139.123 31.2138 138.777 31.3097 138.479 31.5014C138.18 31.6896 137.948 31.9382 137.781 32.2472C137.617 32.5526 137.534 32.8881 137.53 33.2539V34.3885C137.53 34.8643 137.617 35.2727 137.791 35.6136C137.965 35.951 138.209 36.2102 138.521 36.3913C138.834 36.5689 139.199 36.6577 139.618 36.6577C139.899 36.6577 140.153 36.6186 140.38 36.5405C140.607 36.4588 140.805 36.3398 140.971 36.1836C141.138 36.0273 141.264 35.8338 141.35 35.603L143.15 35.8054C143.036 36.2812 142.82 36.6967 142.5 37.0518C142.184 37.4034 141.779 37.6768 141.286 37.8722C140.792 38.0639 140.227 38.1598 139.592 38.1598ZM148.505 38.1598C147.688 38.1598 146.987 37.9805 146.401 37.6218C145.819 37.2631 145.37 36.7678 145.053 36.1357C144.741 35.5 144.585 34.7685 144.585 33.9411C144.585 33.1101 144.745 32.3768 145.064 31.7411C145.384 31.1019 145.835 30.6048 146.417 30.2496C147.003 29.891 147.696 29.7116 148.495 29.7116C149.159 29.7116 149.746 29.8342 150.258 30.0792C150.773 30.3207 151.183 30.6634 151.488 31.1072C151.794 31.5476 151.968 32.0625 152.01 32.652H150.167C150.093 32.2578 149.915 31.9293 149.634 31.6665C149.357 31.4002 148.986 31.267 148.521 31.267C148.127 31.267 147.781 31.3736 147.482 31.5866C147.184 31.7962 146.952 32.098 146.785 32.4922C146.621 32.8864 146.54 33.3587 146.54 33.9091C146.54 34.4666 146.621 34.946 146.785 35.3473C146.948 35.745 147.177 36.0522 147.472 36.2688C147.77 36.4819 148.12 36.5884 148.521 36.5884C148.805 36.5884 149.059 36.5352 149.283 36.4286C149.51 36.3185 149.7 36.1605 149.853 35.9545C150.006 35.7486 150.11 35.4982 150.167 35.2035H152.01C151.964 35.7823 151.794 36.2955 151.499 36.7429C151.204 37.1868 150.803 37.5348 150.295 37.7869C149.787 38.0355 149.191 38.1598 148.505 38.1598ZM157.291 38.1598C156.47 38.1598 155.762 37.9893 155.165 37.6484C154.572 37.304 154.116 36.8175 153.796 36.1889C153.477 35.5568 153.317 34.8129 153.317 33.957C153.317 33.1154 153.477 32.3768 153.796 31.7411C154.119 31.1019 154.57 30.6048 155.149 30.2496C155.728 29.891 156.408 29.7116 157.189 29.7116C157.694 29.7116 158.17 29.7933 158.617 29.9567C159.068 30.1165 159.466 30.3651 159.81 30.7024C160.158 31.0398 160.432 31.4695 160.631 31.9915C160.829 32.5099 160.929 33.1278 160.929 33.8452V34.4364H154.222V33.1367H159.08C159.077 32.7674 158.997 32.4389 158.841 32.1513C158.684 31.8601 158.466 31.631 158.186 31.4641C157.909 31.2972 157.585 31.2138 157.216 31.2138C156.822 31.2138 156.476 31.3097 156.177 31.5014C155.879 31.6896 155.646 31.9382 155.48 32.2472C155.316 32.5526 155.233 32.8881 155.229 33.2539V34.3885C155.229 34.8643 155.316 35.2727 155.49 35.6136C155.664 35.951 155.907 36.2102 156.22 36.3913C156.532 36.5689 156.898 36.6577 157.317 36.6577C157.598 36.6577 157.852 36.6186 158.079 36.5405C158.306 36.4588 158.503 36.3398 158.67 36.1836C158.837 36.0273 158.963 35.8338 159.048 35.603L160.849 35.8054C160.735 36.2812 160.519 36.6967 160.199 37.0518C159.883 37.4034 159.478 37.6768 158.985 37.8722C158.491 38.0639 157.926 38.1598 157.291 38.1598ZM162.635 38V29.8182H164.478V31.2085H164.574C164.744 30.7397 165.027 30.3739 165.421 30.1112C165.815 29.8448 166.286 29.7116 166.833 29.7116C167.387 29.7116 167.853 29.8466 168.233 30.1165C168.617 30.3828 168.887 30.7468 169.043 31.2085H169.128C169.309 30.7539 169.615 30.3917 170.045 30.1218C170.478 29.8484 170.991 29.7116 171.584 29.7116C172.337 29.7116 172.951 29.9496 173.427 30.4254C173.903 30.9013 174.141 31.5955 174.141 32.5082V38H172.207V32.8065C172.207 32.2987 172.072 31.9276 171.802 31.6932C171.532 31.4553 171.202 31.3363 170.812 31.3363C170.346 31.3363 169.982 31.4819 169.72 31.7731C169.46 32.0607 169.331 32.4354 169.331 32.897V38H167.44V32.7266C167.44 32.304 167.312 31.9666 167.056 31.7145C166.804 31.4624 166.474 31.3363 166.065 31.3363C165.789 31.3363 165.536 31.4073 165.309 31.5494C165.082 31.6879 164.901 31.8849 164.766 32.1406C164.631 32.3928 164.563 32.6875 164.563 33.0249V38H162.635ZM176.257 38V27.0909H178.186V31.1712H178.265C178.365 30.9723 178.505 30.761 178.686 30.5373C178.867 30.31 179.112 30.1165 179.421 29.9567C179.73 29.7933 180.124 29.7116 180.604 29.7116C181.236 29.7116 181.806 29.8732 182.314 30.1964C182.825 30.516 183.23 30.9901 183.528 31.6186C183.83 32.2436 183.981 33.0107 183.981 33.9197C183.981 34.8182 183.834 35.5817 183.539 36.2102C183.244 36.8388 182.843 37.3182 182.335 37.6484C181.827 37.9787 181.252 38.1438 180.609 38.1438C180.14 38.1438 179.752 38.0657 179.443 37.9094C179.134 37.7532 178.885 37.565 178.697 37.3448C178.512 37.1211 178.368 36.9098 178.265 36.7109H178.154V38H176.257ZM178.148 33.9091C178.148 34.4382 178.223 34.9016 178.372 35.2994C178.525 35.6971 178.743 36.0078 179.027 36.2315C179.315 36.4517 179.663 36.5618 180.071 36.5618C180.497 36.5618 180.854 36.4482 181.142 36.2209C181.429 35.9901 181.646 35.6758 181.792 35.2781C181.941 34.8768 182.015 34.4205 182.015 33.9091C182.015 33.4013 181.943 32.9503 181.797 32.5561C181.651 32.1619 181.435 31.853 181.147 31.6293C180.86 31.4055 180.501 31.2937 180.071 31.2937C179.659 31.2937 179.309 31.402 179.022 31.6186C178.734 31.8352 178.516 32.1388 178.367 32.5295C178.221 32.9201 178.148 33.38 178.148 33.9091ZM189.317 38.1598C188.497 38.1598 187.789 37.9893 187.192 37.6484C186.599 37.304 186.143 36.8175 185.823 36.1889C185.504 35.5568 185.344 34.8129 185.344 33.957C185.344 33.1154 185.504 32.3768 185.823 31.7411C186.146 31.1019 186.597 30.6048 187.176 30.2496C187.755 29.891 188.435 29.7116 189.216 29.7116C189.72 29.7116 190.196 29.7933 190.644 29.9567C191.095 30.1165 191.492 30.3651 191.837 30.7024C192.185 31.0398 192.458 31.4695 192.657 31.9915C192.856 32.5099 192.956 33.1278 192.956 33.8452V34.4364H186.249V33.1367H191.107C191.104 32.7674 191.024 32.4389 190.867 32.1513C190.711 31.8601 190.493 31.631 190.212 31.4641C189.935 31.2972 189.612 31.2138 189.243 31.2138C188.849 31.2138 188.502 31.3097 188.204 31.5014C187.906 31.6896 187.673 31.9382 187.506 32.2472C187.343 32.5526 187.26 32.8881 187.256 33.2539V34.3885C187.256 34.8643 187.343 35.2727 187.517 35.6136C187.691 35.951 187.934 36.2102 188.247 36.3913C188.559 36.5689 188.925 36.6577 189.344 36.6577C189.625 36.6577 189.879 36.6186 190.106 36.5405C190.333 36.4588 190.53 36.3398 190.697 36.1836C190.864 36.0273 190.99 35.8338 191.075 35.603L192.876 35.8054C192.762 36.2812 192.545 36.6967 192.226 37.0518C191.91 37.4034 191.505 37.6768 191.011 37.8722C190.518 38.0639 189.953 38.1598 189.317 38.1598ZM194.662 38V29.8182H196.532V31.1818H196.617C196.766 30.7095 197.022 30.3455 197.384 30.0898C197.75 29.8306 198.167 29.701 198.636 29.701C198.742 29.701 198.861 29.7063 198.992 29.717C199.127 29.7241 199.239 29.7365 199.328 29.7543V31.5281C199.246 31.4996 199.117 31.4748 198.939 31.4535C198.765 31.4286 198.597 31.4162 198.433 31.4162C198.082 31.4162 197.766 31.4925 197.485 31.6452C197.208 31.7944 196.99 32.0021 196.83 32.2685C196.67 32.5348 196.59 32.842 196.59 33.19V38H194.662ZM202.01 36.5085L201.941 37.0945C201.892 37.5419 201.803 37.9964 201.675 38.4581C201.551 38.9233 201.419 39.3512 201.281 39.7418C201.142 40.1325 201.03 40.4396 200.945 40.6634H199.645C199.695 40.4467 199.763 40.152 199.848 39.7791C199.937 39.4063 200.022 38.9872 200.104 38.522C200.185 38.0568 200.24 37.5845 200.269 37.1051L200.306 36.5085H202.01ZM207.683 38V36.5724L211.47 32.8597C211.832 32.494 212.134 32.169 212.376 31.8849C212.617 31.6009 212.798 31.3256 212.919 31.0593C213.04 30.793 213.1 30.5089 213.1 30.207C213.1 29.8626 213.022 29.5678 212.866 29.3228C212.71 29.0742 212.495 28.8825 212.221 28.7475C211.948 28.6126 211.637 28.5451 211.289 28.5451C210.93 28.5451 210.616 28.6197 210.346 28.7688C210.076 28.9144 209.867 29.1222 209.718 29.392C209.572 29.6619 209.499 29.9833 209.499 30.3562H207.619C207.619 29.6637 207.777 29.0618 208.093 28.5504C208.409 28.0391 208.844 27.6431 209.398 27.3626C209.956 27.082 210.595 26.9418 211.316 26.9418C212.047 26.9418 212.69 27.0785 213.244 27.3519C213.798 27.6254 214.228 28 214.533 28.4759C214.842 28.9517 214.996 29.495 214.996 30.1058C214.996 30.5142 214.918 30.9155 214.762 31.3097C214.606 31.7038 214.331 32.1406 213.936 32.62C213.546 33.0994 212.997 33.68 212.291 34.3619L210.41 36.2741V36.3487H215.162V38H207.683ZM221.107 38.2077C220.23 38.2077 219.477 37.9858 218.848 37.5419C218.223 37.0945 217.742 36.4499 217.405 35.6083C217.071 34.7631 216.904 33.7457 216.904 32.5561C216.907 31.3665 217.076 30.3544 217.41 29.5199C217.747 28.6818 218.228 28.0426 218.853 27.6023C219.482 27.1619 220.233 26.9418 221.107 26.9418C221.98 26.9418 222.731 27.1619 223.36 27.6023C223.988 28.0426 224.47 28.6818 224.803 29.5199C225.141 30.358 225.309 31.37 225.309 32.5561C225.309 33.7493 225.141 34.7685 224.803 35.6136C224.47 36.4553 223.988 37.098 223.36 37.5419C222.735 37.9858 221.984 38.2077 221.107 38.2077ZM221.107 36.5405C221.788 36.5405 222.326 36.2049 222.721 35.5337C223.118 34.859 223.317 33.8665 223.317 32.5561C223.317 31.6896 223.227 30.9616 223.046 30.3722C222.864 29.7827 222.609 29.3388 222.279 29.0405C221.948 28.7386 221.558 28.5877 221.107 28.5877C220.428 28.5877 219.892 28.9251 219.498 29.5998C219.104 30.271 218.905 31.2564 218.901 32.5561C218.898 33.4261 218.985 34.1577 219.162 34.7507C219.344 35.3437 219.599 35.7912 219.929 36.093C220.26 36.3913 220.652 36.5405 221.107 36.5405ZM227.154 38V36.5724L230.942 32.8597C231.304 32.494 231.606 32.169 231.847 31.8849C232.089 31.6009 232.27 31.3256 232.39 31.0593C232.511 30.793 232.571 30.5089 232.571 30.207C232.571 29.8626 232.493 29.5678 232.337 29.3228C232.181 29.0742 231.966 28.8825 231.693 28.7475C231.419 28.6126 231.108 28.5451 230.76 28.5451C230.402 28.5451 230.087 28.6197 229.818 28.7688C229.548 28.9144 229.338 29.1222 229.189 29.392C229.043 29.6619 228.971 29.9833 228.971 30.3562H227.09C227.09 29.6637 227.248 29.0618 227.564 28.5504C227.88 28.0391 228.315 27.6431 228.869 27.3626C229.427 27.082 230.066 26.9418 230.787 26.9418C231.519 26.9418 232.161 27.0785 232.715 27.3519C233.269 27.6254 233.699 28 234.004 28.4759C234.313 28.9517 234.468 29.495 234.468 30.1058C234.468 30.5142 234.39 30.9155 234.233 31.3097C234.077 31.7038 233.802 32.1406 233.408 32.62C233.017 33.0994 232.469 33.68 231.762 34.3619L229.882 36.2741V36.3487H234.633V38H227.154ZM236.546 38V36.5724L240.333 32.8597C240.695 32.494 240.997 32.169 241.238 31.8849C241.48 31.6009 241.661 31.3256 241.782 31.0593C241.903 30.793 241.963 30.5089 241.963 30.207C241.963 29.8626 241.885 29.5678 241.729 29.3228C241.572 29.0742 241.357 28.8825 241.084 28.7475C240.811 28.6126 240.5 28.5451 240.152 28.5451C239.793 28.5451 239.479 28.6197 239.209 28.7688C238.939 28.9144 238.73 29.1222 238.58 29.392C238.435 29.6619 238.362 29.9833 238.362 30.3562H236.482C236.482 29.6637 236.64 29.0618 236.956 28.5504C237.272 28.0391 237.707 27.6431 238.261 27.3626C238.818 27.082 239.458 26.9418 240.178 26.9418C240.91 26.9418 241.553 27.0785 242.107 27.3519C242.661 27.6254 243.09 28 243.396 28.4759C243.705 28.9517 243.859 29.495 243.859 30.1058C243.859 30.5142 243.781 30.9155 243.625 31.3097C243.469 31.7038 243.193 32.1406 242.799 32.62C242.409 33.0994 241.86 33.68 241.153 34.3619L239.273 36.2741V36.3487H244.024V38H236.546Z" fill="#121212"/>
<path d="M40.0994 55.5H38.7784C38.7003 55.12 38.5636 54.7862 38.3683 54.4986C38.1765 54.2109 37.9421 53.9695 37.6651 53.7741C37.3917 53.5753 37.0881 53.4261 36.7543 53.3267C36.4205 53.2273 36.0724 53.1776 35.7102 53.1776C35.0497 53.1776 34.4513 53.3445 33.9151 53.6783C33.3825 54.0121 32.9581 54.5039 32.642 55.1538C32.3295 55.8036 32.1733 56.6009 32.1733 57.5455C32.1733 58.4901 32.3295 59.2873 32.642 59.9371C32.9581 60.587 33.3825 61.0788 33.9151 61.4126C34.4513 61.7464 35.0497 61.9134 35.7102 61.9134C36.0724 61.9134 36.4205 61.8636 36.7543 61.7642C37.0881 61.6648 37.3917 61.5174 37.6651 61.3221C37.9421 61.1232 38.1765 60.88 38.3683 60.5923C38.5636 60.3011 38.7003 59.9673 38.7784 59.5909H40.0994C40 60.1484 39.8189 60.6474 39.5561 61.0877C39.2933 61.5281 38.9666 61.9027 38.576 62.2116C38.1854 62.517 37.7468 62.7496 37.2603 62.9094C36.7773 63.0692 36.2607 63.1491 35.7102 63.1491C34.7798 63.1491 33.9524 62.9219 33.228 62.4673C32.5036 62.0128 31.9336 61.3665 31.5181 60.5284C31.1026 59.6903 30.8949 58.696 30.8949 57.5455C30.8949 56.3949 31.1026 55.4006 31.5181 54.5625C31.9336 53.7244 32.5036 53.0781 33.228 52.6236C33.9524 52.169 34.7798 51.9418 35.7102 51.9418C36.2607 51.9418 36.7773 52.0217 37.2603 52.1815C37.7468 52.3413 38.1854 52.5756 38.576 52.8846C38.9666 53.19 39.2933 53.5629 39.5561 54.0032C39.8189 54.44 40 54.9389 40.0994 55.5ZM44.4713 63.1918C43.9529 63.1918 43.4823 63.0941 43.0597 62.8988C42.6372 62.6999 42.3016 62.4141 42.053 62.0412C41.8044 61.6648 41.6801 61.2102 41.6801 60.6776C41.6801 60.2088 41.7725 59.8288 41.9571 59.5376C42.1418 59.2429 42.3886 59.0121 42.6975 58.8452C43.0065 58.6783 43.3474 58.554 43.7203 58.4723C44.0967 58.3871 44.4749 58.3196 44.8548 58.2699C45.352 58.206 45.7551 58.158 46.064 58.1261C46.3765 58.0906 46.6038 58.032 46.7458 57.9503C46.8914 57.8686 46.9642 57.7266 46.9642 57.5241V57.4815C46.9642 56.956 46.8204 56.5476 46.5328 56.2564C46.2487 55.9652 45.8172 55.8196 45.2384 55.8196C44.6382 55.8196 44.1677 55.951 43.8268 56.2138C43.4859 56.4766 43.2462 56.7571 43.1077 57.0554L41.9145 56.6293C42.1276 56.1321 42.4117 55.745 42.7668 55.468C43.1254 55.1875 43.5161 54.9922 43.9387 54.8821C44.3648 54.7685 44.7838 54.7116 45.1958 54.7116C45.4585 54.7116 45.7604 54.7436 46.1013 54.8075C46.4458 54.8679 46.7778 54.994 47.0974 55.1857C47.4205 55.3775 47.6887 55.6669 47.9017 56.054C48.1148 56.4411 48.2213 56.9595 48.2213 57.6094V63H46.9642V61.892H46.9003C46.8151 62.0696 46.673 62.2596 46.4742 62.462C46.2753 62.6644 46.0107 62.8366 45.6805 62.9787C45.3502 63.1207 44.9472 63.1918 44.4713 63.1918ZM44.6631 62.0625C45.1602 62.0625 45.5793 61.9648 45.9202 61.7695C46.2646 61.5742 46.5239 61.3221 46.6979 61.0131C46.8754 60.7042 46.9642 60.3793 46.9642 60.0384V58.8878C46.911 58.9517 46.7938 59.0103 46.6127 59.0636C46.4351 59.1133 46.2291 59.1577 45.9948 59.1967C45.7639 59.2322 45.5384 59.2642 45.3183 59.2926C45.1017 59.3175 44.9259 59.3388 44.7909 59.3565C44.4642 59.3991 44.1588 59.4684 43.8747 59.5643C43.5942 59.6566 43.3669 59.7969 43.1929 59.9851C43.0225 60.1697 42.9372 60.4219 42.9372 60.7415C42.9372 61.1783 43.0988 61.5085 43.422 61.7322C43.7487 61.9524 44.1624 62.0625 44.6631 62.0625ZM50.5158 63V54.8182H51.7303V56.054H51.8155C51.9647 55.6491 52.2346 55.3207 52.6252 55.0685C53.0158 54.8164 53.4561 54.6903 53.9462 54.6903C54.0385 54.6903 54.1539 54.6921 54.2924 54.6957C54.4309 54.6992 54.5357 54.7045 54.6067 54.7116V55.9901C54.5641 55.9794 54.4664 55.9634 54.3137 55.9421C54.1646 55.9173 54.0066 55.9048 53.8397 55.9048C53.4419 55.9048 53.0868 55.9883 52.7743 56.1552C52.4654 56.3185 52.2203 56.5458 52.0392 56.837C51.8617 57.1246 51.7729 57.4531 51.7729 57.8224V63H50.5158ZM59.2782 63.1705C58.4899 63.1705 57.8098 62.9964 57.2381 62.6484C56.6699 62.2969 56.2314 61.8068 55.9224 61.1783C55.617 60.5462 55.4643 59.8111 55.4643 58.973C55.4643 58.1349 55.617 57.3963 55.9224 56.7571C56.2314 56.1143 56.661 55.6136 57.2115 55.255C57.7654 54.8928 58.4118 54.7116 59.1504 54.7116C59.5765 54.7116 59.9973 54.7827 60.4128 54.9247C60.8283 55.0668 61.2065 55.2976 61.5474 55.6172C61.8883 55.9332 62.16 56.3523 62.3624 56.8743C62.5648 57.3963 62.666 58.0391 62.666 58.8026V59.3352H56.3592V58.2486H61.3876C61.3876 57.7869 61.2953 57.375 61.1106 57.0128C60.9295 56.6506 60.6703 56.3647 60.3329 56.1552C59.9991 55.9457 59.6049 55.8409 59.1504 55.8409C58.6497 55.8409 58.2164 55.9652 57.8507 56.2138C57.4885 56.4588 57.2097 56.7784 57.0144 57.1726C56.8191 57.5668 56.7214 57.9893 56.7214 58.4403V59.1648C56.7214 59.7827 56.8279 60.3065 57.041 60.7362C57.2576 61.1623 57.5577 61.4872 57.9412 61.7109C58.3248 61.9311 58.7704 62.0412 59.2782 62.0412C59.6085 62.0412 59.9068 61.995 60.1731 61.9027C60.443 61.8068 60.6756 61.6648 60.8709 61.4766C61.0662 61.2848 61.2172 61.0469 61.3237 60.7628L62.5382 61.1037C62.4103 61.5156 62.1955 61.8778 61.8936 62.1903C61.5918 62.4993 61.2189 62.7408 60.775 62.9148C60.3311 63.0852 59.8322 63.1705 59.2782 63.1705ZM68.0087 63.1705C67.2203 63.1705 66.5403 62.9964 65.9686 62.6484C65.4004 62.2969 64.9618 61.8068 64.6529 61.1783C64.3475 60.5462 64.1948 59.8111 64.1948 58.973C64.1948 58.1349 64.3475 57.3963 64.6529 56.7571C64.9618 56.1143 65.3915 55.6136 65.9419 55.255C66.4959 54.8928 67.1422 54.7116 67.8809 54.7116C68.307 54.7116 68.7278 54.7827 69.1433 54.9247C69.5588 55.0668 69.937 55.2976 70.2779 55.6172C70.6188 55.9332 70.8904 56.3523 71.0929 56.8743C71.2953 57.3963 71.3965 58.0391 71.3965 58.8026V59.3352H65.0897V58.2486H70.1181C70.1181 57.7869 70.0257 57.375 69.8411 57.0128C69.66 56.6506 69.4007 56.3647 69.0634 56.1552C68.7296 55.9457 68.3354 55.8409 67.8809 55.8409C67.3801 55.8409 66.9469 55.9652 66.5811 56.2138C66.2189 56.4588 65.9402 56.7784 65.7449 57.1726C65.5495 57.5668 65.4519 57.9893 65.4519 58.4403V59.1648C65.4519 59.7827 65.5584 60.3065 65.7715 60.7362C65.9881 61.1623 66.2882 61.4872 66.6717 61.7109C67.0552 61.9311 67.5009 62.0412 68.0087 62.0412C68.339 62.0412 68.6373 61.995 68.9036 61.9027C69.1735 61.8068 69.4061 61.6648 69.6014 61.4766C69.7967 61.2848 69.9476 61.0469 70.0542 60.7628L71.2686 61.1037C71.1408 61.5156 70.926 61.8778 70.6241 62.1903C70.3223 62.4993 69.9494 62.7408 69.5055 62.9148C69.0616 63.0852 68.5627 63.1705 68.0087 63.1705ZM73.3088 63V54.8182H74.5233V56.054H74.6085C74.7576 55.6491 75.0275 55.3207 75.4181 55.0685C75.8088 54.8164 76.2491 54.6903 76.7392 54.6903C76.8315 54.6903 76.9469 54.6921 77.0854 54.6957C77.2239 54.6992 77.3287 54.7045 77.3997 54.7116V55.9901C77.3571 55.9794 77.2594 55.9634 77.1067 55.9421C76.9576 55.9173 76.7995 55.9048 76.6326 55.9048C76.2349 55.9048 75.8798 55.9883 75.5673 56.1552C75.2583 56.3185 75.0133 56.5458 74.8322 56.837C74.6547 57.1246 74.5659 57.4531 74.5659 57.8224V63H73.3088ZM84.941 48.5753V66.5156H83.8756V48.5753H84.941ZM92.8525 63H91.4675L95.4732 52.0909H96.8368L100.843 63H99.4576L96.1976 53.8168H96.1124L92.8525 63ZM93.3638 58.7386H98.9462V59.9105H93.3638V58.7386ZM102.459 63V54.8182H103.716V63H102.459ZM103.098 53.4545C102.853 53.4545 102.642 53.3711 102.464 53.2042C102.29 53.0373 102.203 52.8366 102.203 52.6023C102.203 52.3679 102.29 52.1673 102.464 52.0004C102.642 51.8335 102.853 51.75 103.098 51.75C103.343 51.75 103.553 51.8335 103.727 52.0004C103.904 52.1673 103.993 52.3679 103.993 52.6023C103.993 52.8366 103.904 53.0373 103.727 53.2042C103.553 53.3711 103.343 53.4545 103.098 53.4545ZM106.019 63V54.8182H107.233V56.054H107.318C107.468 55.6491 107.737 55.3207 108.128 55.0685C108.519 54.8164 108.959 54.6903 109.449 54.6903C109.541 54.6903 109.657 54.6921 109.795 54.6957C109.934 54.6992 110.039 54.7045 110.11 54.7116V55.9901C110.067 55.9794 109.969 55.9634 109.817 55.9421C109.668 55.9173 109.509 55.9048 109.343 55.9048C108.945 55.9048 108.59 55.9883 108.277 56.1552C107.968 56.3185 107.723 56.5458 107.542 56.837C107.365 57.1246 107.276 57.4531 107.276 57.8224V63H106.019ZM111.6 66.0682V54.8182H112.814V56.1179H112.963C113.056 55.9759 113.184 55.7947 113.347 55.5746C113.514 55.3509 113.752 55.152 114.061 54.978C114.373 54.8004 114.796 54.7116 115.328 54.7116C116.017 54.7116 116.625 54.8839 117.15 55.2283C117.676 55.5728 118.086 56.0611 118.381 56.6932C118.675 57.3253 118.823 58.071 118.823 58.9304C118.823 59.7969 118.675 60.5479 118.381 61.1836C118.086 61.8157 117.678 62.3058 117.156 62.6538C116.634 62.9982 116.032 63.1705 115.35 63.1705C114.824 63.1705 114.403 63.0835 114.087 62.9094C113.771 62.7319 113.528 62.5312 113.358 62.3075C113.187 62.0803 113.056 61.892 112.963 61.7429H112.857V66.0682H111.6ZM112.836 58.9091C112.836 59.527 112.926 60.0721 113.107 60.5444C113.288 61.0131 113.553 61.3807 113.901 61.647C114.249 61.9098 114.675 62.0412 115.179 62.0412C115.705 62.0412 116.143 61.9027 116.495 61.6257C116.85 61.3452 117.116 60.9687 117.294 60.4964C117.475 60.0206 117.566 59.4915 117.566 58.9091C117.566 58.3338 117.477 57.8153 117.299 57.3537C117.125 56.8885 116.861 56.521 116.506 56.2511C116.154 55.9776 115.712 55.8409 115.179 55.8409C114.668 55.8409 114.238 55.9705 113.89 56.2298C113.542 56.4854 113.279 56.8441 113.102 57.3058C112.924 57.7638 112.836 58.2983 112.836 58.9091ZM124.064 63.1705C123.326 63.1705 122.678 62.9947 122.12 62.6431C121.566 62.2915 121.133 61.7997 120.82 61.1676C120.511 60.5355 120.357 59.7969 120.357 58.9517C120.357 58.0994 120.511 57.3555 120.82 56.7198C121.133 56.0842 121.566 55.5906 122.12 55.239C122.678 54.8874 123.326 54.7116 124.064 54.7116C124.803 54.7116 125.449 54.8874 126.003 55.239C126.561 55.5906 126.994 56.0842 127.303 56.7198C127.615 57.3555 127.772 58.0994 127.772 58.9517C127.772 59.7969 127.615 60.5355 127.303 61.1676C126.994 61.7997 126.561 62.2915 126.003 62.6431C125.449 62.9947 124.803 63.1705 124.064 63.1705ZM124.064 62.0412C124.625 62.0412 125.087 61.8974 125.449 61.6097C125.811 61.3221 126.08 60.9439 126.254 60.4751C126.428 60.0064 126.515 59.4986 126.515 58.9517C126.515 58.4048 126.428 57.8952 126.254 57.4229C126.08 56.9506 125.811 56.5689 125.449 56.2777C125.087 55.9865 124.625 55.8409 124.064 55.8409C123.503 55.8409 123.042 55.9865 122.679 56.2777C122.317 56.5689 122.049 56.9506 121.875 57.4229C121.701 57.8952 121.614 58.4048 121.614 58.9517C121.614 59.4986 121.701 60.0064 121.875 60.4751C122.049 60.9439 122.317 61.3221 122.679 61.6097C123.042 61.8974 123.503 62.0412 124.064 62.0412ZM129.691 63V54.8182H130.905V56.054H130.99C131.139 55.6491 131.409 55.3207 131.8 55.0685C132.191 54.8164 132.631 54.6903 133.121 54.6903C133.213 54.6903 133.329 54.6921 133.467 54.6957C133.606 54.6992 133.71 54.7045 133.782 54.7116V55.9901C133.739 55.9794 133.641 55.9634 133.489 55.9421C133.339 55.9173 133.181 55.9048 133.014 55.9048C132.617 55.9048 132.262 55.9883 131.949 56.1552C131.64 56.3185 131.395 56.5458 131.214 56.837C131.036 57.1246 130.948 57.4531 130.948 57.8224V63H129.691ZM139.343 54.8182V55.8835H135.103V54.8182H139.343ZM136.338 52.858H137.595V60.6562C137.595 61.0114 137.647 61.2777 137.75 61.4553C137.856 61.6293 137.991 61.7464 138.155 61.8068C138.322 61.8636 138.497 61.892 138.682 61.892C138.821 61.892 138.934 61.8849 139.023 61.8707C139.112 61.853 139.183 61.8388 139.236 61.8281L139.492 62.9574C139.407 62.9893 139.288 63.0213 139.135 63.0533C138.982 63.0888 138.789 63.1065 138.554 63.1065C138.199 63.1065 137.851 63.0302 137.51 62.8775C137.173 62.7248 136.892 62.4922 136.669 62.1797C136.448 61.8672 136.338 61.473 136.338 60.9972V52.858ZM151.248 56.6506L150.119 56.9702C150.047 56.782 149.943 56.5991 149.804 56.4215C149.669 56.2404 149.485 56.0913 149.25 55.9741C149.016 55.8569 148.716 55.7983 148.35 55.7983C147.849 55.7983 147.432 55.9137 147.098 56.1445C146.768 56.3718 146.603 56.6612 146.603 57.0128C146.603 57.3253 146.717 57.5721 146.944 57.7532C147.171 57.9343 147.526 58.0852 148.009 58.206L149.224 58.5043C149.955 58.6818 150.5 58.9535 150.859 59.3192C151.218 59.6815 151.397 60.1484 151.397 60.7202C151.397 61.1889 151.262 61.608 150.992 61.9773C150.726 62.3466 150.353 62.6378 149.873 62.8509C149.394 63.0639 148.837 63.1705 148.201 63.1705C147.366 63.1705 146.676 62.9893 146.129 62.6271C145.582 62.2649 145.236 61.7358 145.09 61.0398L146.283 60.7415C146.397 61.1818 146.612 61.5121 146.928 61.7322C147.247 61.9524 147.665 62.0625 148.18 62.0625C148.766 62.0625 149.231 61.9382 149.575 61.6896C149.923 61.4375 150.097 61.1357 150.097 60.7841C150.097 60.5 149.998 60.2621 149.799 60.0703C149.6 59.875 149.295 59.7294 148.883 59.6335L147.519 59.3139C146.77 59.1364 146.219 58.8612 145.868 58.4883C145.52 58.1119 145.346 57.6413 145.346 57.0767C145.346 56.6151 145.475 56.2067 145.735 55.8516C145.997 55.4964 146.354 55.2177 146.805 55.0153C147.26 54.8129 147.775 54.7116 148.35 54.7116C149.16 54.7116 149.795 54.8892 150.257 55.2443C150.722 55.5994 151.052 56.0682 151.248 56.6506ZM154.546 58.0781V63H153.289V52.0909H154.546V56.0966H154.653C154.845 55.674 155.132 55.3384 155.516 55.0898C155.903 54.8377 156.418 54.7116 157.061 54.7116C157.618 54.7116 158.106 54.8235 158.525 55.0472C158.944 55.2674 159.269 55.6065 159.5 56.0646C159.735 56.5192 159.852 57.098 159.852 57.8011V63H158.595V57.8864C158.595 57.2365 158.426 56.734 158.089 56.3789C157.755 56.0202 157.291 55.8409 156.698 55.8409C156.286 55.8409 155.917 55.9279 155.59 56.1019C155.267 56.2759 155.012 56.5298 154.823 56.8636C154.639 57.1974 154.546 57.6023 154.546 58.0781ZM167.308 59.6548V54.8182H168.565V63H167.308V61.6151H167.223C167.031 62.0305 166.733 62.3839 166.328 62.6751C165.923 62.9627 165.411 63.1065 164.794 63.1065C164.282 63.1065 163.828 62.9947 163.43 62.771C163.032 62.5437 162.72 62.2028 162.492 61.7482C162.265 61.2901 162.152 60.7131 162.152 60.017V54.8182H163.409V59.9318C163.409 60.5284 163.576 61.0043 163.909 61.3594C164.247 61.7145 164.676 61.892 165.198 61.892C165.511 61.892 165.829 61.8121 166.152 61.6523C166.479 61.4925 166.752 61.2475 166.972 60.9173C167.196 60.587 167.308 60.1662 167.308 59.6548ZM174.426 54.8182V55.8835H170.186V54.8182H174.426ZM171.421 52.858H172.678V60.6562C172.678 61.0114 172.73 61.2777 172.833 61.4553C172.939 61.6293 173.074 61.7464 173.238 61.8068C173.405 61.8636 173.58 61.892 173.765 61.892C173.904 61.892 174.017 61.8849 174.106 61.8707C174.195 61.853 174.266 61.8388 174.319 61.8281L174.575 62.9574C174.49 62.9893 174.371 63.0213 174.218 63.0533C174.065 63.0888 173.872 63.1065 173.637 63.1065C173.282 63.1065 172.934 63.0302 172.593 62.8775C172.256 62.7248 171.975 62.4922 171.752 62.1797C171.531 61.8672 171.421 61.473 171.421 60.9972V52.858ZM179.875 54.8182V55.8835H175.635V54.8182H179.875ZM176.871 52.858H178.128V60.6562C178.128 61.0114 178.179 61.2777 178.282 61.4553C178.389 61.6293 178.524 61.7464 178.687 61.8068C178.854 61.8636 179.03 61.892 179.214 61.892C179.353 61.892 179.466 61.8849 179.555 61.8707C179.644 61.853 179.715 61.8388 179.768 61.8281L180.024 62.9574C179.939 62.9893 179.82 63.0213 179.667 63.0533C179.514 63.0888 179.321 63.1065 179.086 63.1065C178.731 63.1065 178.383 63.0302 178.042 62.8775C177.705 62.7248 177.425 62.4922 177.201 62.1797C176.981 61.8672 176.871 61.473 176.871 60.9972V52.858ZM183.199 52.0909V63H181.942V52.0909H183.199ZM188.932 63.1705C188.143 63.1705 187.463 62.9964 186.891 62.6484C186.323 62.2969 185.885 61.8068 185.576 61.1783C185.27 60.5462 185.118 59.8111 185.118 58.973C185.118 58.1349 185.27 57.3963 185.576 56.7571C185.885 56.1143 186.314 55.6136 186.865 55.255C187.419 54.8928 188.065 54.7116 188.804 54.7116C189.23 54.7116 189.651 54.7827 190.066 54.9247C190.482 55.0668 190.86 55.2976 191.201 55.6172C191.542 55.9332 191.813 56.3523 192.016 56.8743C192.218 57.3963 192.319 58.0391 192.319 58.8026V59.3352H186.013V58.2486H191.041C191.041 57.7869 190.949 57.375 190.764 57.0128C190.583 56.6506 190.324 56.3647 189.986 56.1552C189.652 55.9457 189.258 55.8409 188.804 55.8409C188.303 55.8409 187.87 55.9652 187.504 56.2138C187.142 56.4588 186.863 56.7784 186.668 57.1726C186.472 57.5668 186.375 57.9893 186.375 58.4403V59.1648C186.375 59.7827 186.481 60.3065 186.694 60.7362C186.911 61.1623 187.211 61.4872 187.595 61.7109C187.978 61.9311 188.424 62.0412 188.932 62.0412C189.262 62.0412 189.56 61.995 189.826 61.9027C190.096 61.8068 190.329 61.6648 190.524 61.4766C190.72 61.2848 190.87 61.0469 190.977 60.7628L192.191 61.1037C192.064 61.5156 191.849 61.8778 191.547 62.1903C191.245 62.4993 190.872 62.7408 190.428 62.9148C189.984 63.0852 189.486 63.1705 188.932 63.1705Z" fill="#121212"/>
<rect x="270" y="39" width="94" height="34" rx="12" fill="#0298F0"/>
<path d="M284.773 61H281.076V50.0909H284.847C285.93 50.0909 286.861 50.3093 287.638 50.7461C288.42 51.1793 289.02 51.8026 289.439 52.6158C289.858 53.429 290.067 54.402 290.067 55.5348C290.067 56.6712 289.856 57.6477 289.434 58.4645C289.015 59.2812 288.409 59.908 287.617 60.3448C286.829 60.7816 285.881 61 284.773 61ZM283.052 59.2901H284.677C285.437 59.2901 286.071 59.1516 286.578 58.8746C287.086 58.5941 287.468 58.1768 287.724 57.6229C287.979 57.0653 288.107 56.3693 288.107 55.5348C288.107 54.7003 287.979 54.0078 287.724 53.4574C287.468 52.9034 287.09 52.4897 286.589 52.2163C286.092 51.9393 285.474 51.8008 284.735 51.8008H283.052V59.2901ZM295.504 61.1598C294.705 61.1598 294.012 60.984 293.426 60.6325C292.84 60.2809 292.386 59.7891 292.063 59.157C291.743 58.5249 291.583 57.7862 291.583 56.9411C291.583 56.0959 291.743 55.3555 292.063 54.7198C292.386 54.0842 292.84 53.5906 293.426 53.239C294.012 52.8874 294.705 52.7116 295.504 52.7116C296.303 52.7116 296.995 52.8874 297.581 53.239C298.167 53.5906 298.62 54.0842 298.94 54.7198C299.263 55.3555 299.424 56.0959 299.424 56.9411C299.424 57.7862 299.263 58.5249 298.94 59.157C298.62 59.7891 298.167 60.2809 297.581 60.6325C296.995 60.984 296.303 61.1598 295.504 61.1598ZM295.514 59.6151C295.948 59.6151 296.31 59.4961 296.601 59.2582C296.892 59.0167 297.109 58.6935 297.251 58.2887C297.397 57.8839 297.469 57.4329 297.469 56.9357C297.469 56.435 297.397 55.9822 297.251 55.5774C297.109 55.169 296.892 54.8441 296.601 54.6026C296.31 54.3612 295.948 54.2404 295.514 54.2404C295.071 54.2404 294.701 54.3612 294.406 54.6026C294.115 54.8441 293.897 55.169 293.751 55.5774C293.609 55.9822 293.538 56.435 293.538 56.9357C293.538 57.4329 293.609 57.8839 293.751 58.2887C293.897 58.6935 294.115 59.0167 294.406 59.2582C294.701 59.4961 295.071 59.6151 295.514 59.6151ZM302.59 61L300.278 52.8182H302.244L303.682 58.571H303.757L305.227 52.8182H307.171L308.641 58.5391H308.721L310.138 52.8182H312.109L309.792 61H307.784L306.25 55.4709H306.138L304.604 61H302.59ZM315.458 56.206V61H313.53V52.8182H315.373V54.2085H315.469C315.657 53.7504 315.957 53.3864 316.369 53.1165C316.785 52.8466 317.298 52.7116 317.909 52.7116C318.473 52.7116 318.965 52.8324 319.384 53.0739C319.807 53.3153 320.134 53.6651 320.364 54.1232C320.599 54.5813 320.714 55.1371 320.711 55.7905V61H318.782V56.0888C318.782 55.5419 318.64 55.114 318.356 54.805C318.076 54.4961 317.687 54.3416 317.19 54.3416C316.852 54.3416 316.552 54.4162 316.289 54.5653C316.03 54.7109 315.826 54.9222 315.677 55.1992C315.531 55.4762 315.458 55.8118 315.458 56.206ZM324.674 50.0909V61H322.746V50.0909H324.674ZM330.301 61.1598C329.502 61.1598 328.809 60.984 328.223 60.6325C327.638 60.2809 327.183 59.7891 326.86 59.157C326.54 58.5249 326.38 57.7862 326.38 56.9411C326.38 56.0959 326.54 55.3555 326.86 54.7198C327.183 54.0842 327.638 53.5906 328.223 53.239C328.809 52.8874 329.502 52.7116 330.301 52.7116C331.1 52.7116 331.792 52.8874 332.378 53.239C332.964 53.5906 333.417 54.0842 333.737 54.7198C334.06 55.3555 334.221 56.0959 334.221 56.9411C334.221 57.7862 334.06 58.5249 333.737 59.157C333.417 59.7891 332.964 60.2809 332.378 60.6325C331.792 60.984 331.1 61.1598 330.301 61.1598ZM330.312 59.6151C330.745 59.6151 331.107 59.4961 331.398 59.2582C331.689 59.0167 331.906 58.6935 332.048 58.2887C332.194 57.8839 332.266 57.4329 332.266 56.9357C332.266 56.435 332.194 55.9822 332.048 55.5774C331.906 55.169 331.689 54.8441 331.398 54.6026C331.107 54.3612 330.745 54.2404 330.312 54.2404C329.868 54.2404 329.498 54.3612 329.204 54.6026C328.912 54.8441 328.694 55.169 328.548 55.5774C328.406 55.9822 328.335 56.435 328.335 56.9357C328.335 57.4329 328.406 57.8839 328.548 58.2887C328.694 58.6935 328.912 59.0167 329.204 59.2582C329.498 59.4961 329.868 59.6151 330.312 59.6151ZM338.287 61.1651C337.769 61.1651 337.302 61.0728 336.886 60.8881C336.475 60.6999 336.148 60.4229 335.906 60.0572C335.668 59.6914 335.549 59.2404 335.549 58.7042C335.549 58.2425 335.635 57.8608 335.805 57.5589C335.976 57.2571 336.208 57.0156 336.503 56.8345C336.798 56.6534 337.13 56.5167 337.499 56.4244C337.872 56.3285 338.257 56.2592 338.655 56.2166C339.134 56.1669 339.523 56.1225 339.821 56.0835C340.12 56.0408 340.336 55.9769 340.471 55.8917C340.61 55.8029 340.679 55.6662 340.679 55.4815V55.4496C340.679 55.0483 340.56 54.7376 340.322 54.5174C340.084 54.2972 339.742 54.1871 339.294 54.1871C338.822 54.1871 338.447 54.2901 338.17 54.4961C337.897 54.7021 337.712 54.9453 337.616 55.2259L335.816 54.9702C335.958 54.473 336.192 54.0575 336.519 53.7237C336.846 53.3864 337.245 53.1342 337.717 52.9673C338.19 52.7969 338.712 52.7116 339.283 52.7116C339.678 52.7116 340.07 52.7578 340.461 52.8501C340.851 52.9425 341.208 53.0952 341.531 53.3082C341.854 53.5178 342.114 53.8036 342.309 54.1658C342.508 54.5281 342.607 54.9808 342.607 55.5241V61H340.754V59.8761H340.69C340.573 60.1033 340.407 60.3164 340.194 60.5153C339.985 60.7106 339.72 60.8686 339.401 60.9893C339.085 61.1065 338.713 61.1651 338.287 61.1651ZM338.788 59.7482C339.175 59.7482 339.511 59.6719 339.795 59.5192C340.079 59.3629 340.297 59.157 340.45 58.9013C340.606 58.6456 340.684 58.3668 340.684 58.065V57.1009C340.624 57.1506 340.521 57.1967 340.375 57.2393C340.233 57.282 340.074 57.3192 339.896 57.3512C339.718 57.3832 339.543 57.4116 339.369 57.4364C339.195 57.4613 339.044 57.4826 338.916 57.5004C338.628 57.5394 338.371 57.6033 338.144 57.6921C337.916 57.7809 337.737 57.9052 337.606 58.065C337.474 58.2212 337.408 58.4237 337.408 58.6722C337.408 59.0273 337.538 59.2955 337.797 59.4766C338.057 59.6577 338.387 59.7482 338.788 59.7482ZM347.657 61.1438C347.015 61.1438 346.439 60.9787 345.932 60.6484C345.424 60.3182 345.023 59.8388 344.728 59.2102C344.433 58.5817 344.286 57.8182 344.286 56.9197C344.286 56.0107 344.435 55.2436 344.733 54.6186C345.035 53.9901 345.442 53.516 345.953 53.1964C346.464 52.8732 347.034 52.7116 347.663 52.7116C348.142 52.7116 348.536 52.7933 348.845 52.9567C349.154 53.1165 349.399 53.31 349.58 53.5373C349.762 53.761 349.902 53.9723 350.001 54.1712H350.081V50.0909H352.015V61H350.118V59.7109H350.001C349.902 59.9098 349.758 60.1211 349.57 60.3448C349.382 60.565 349.133 60.7532 348.824 60.9094C348.515 61.0657 348.126 61.1438 347.657 61.1438ZM348.195 59.5618C348.604 59.5618 348.952 59.4517 349.239 59.2315C349.527 59.0078 349.746 58.6971 349.895 58.2994C350.044 57.9016 350.118 57.4382 350.118 56.9091C350.118 56.38 350.044 55.9201 349.895 55.5295C349.749 55.1388 349.532 54.8352 349.245 54.6186C348.961 54.402 348.611 54.2937 348.195 54.2937C347.766 54.2937 347.407 54.4055 347.119 54.6293C346.832 54.853 346.615 55.1619 346.47 55.5561C346.324 55.9503 346.251 56.4013 346.251 56.9091C346.251 57.4205 346.324 57.8768 346.47 58.2781C346.619 58.6758 346.837 58.9901 347.125 59.2209C347.416 59.4482 347.773 59.5618 348.195 59.5618Z" fill="white"/>
</g>
<defs>
<filter id="filter0_d_119_3043" x="0" y="0" width="386" height="123" filterUnits="userSpaceOnUse" color-interpolation-filters="sRGB">
<feFlood flood-opacity="0" result="BackgroundImageFix"/>
<feColorMatrix in="SourceAlpha" type="matrix" values="0 0 0 0 0 0 0 0 0 0 0 0 0 0 0 0 0 0 127 0" result="hardAlpha"/>
<feOffset dy="6"/>
<feGaussianBlur stdDeviation="5"/>
<feComposite in2="hardAlpha" operator="out"/>
<feColorMatrix type="matrix" values="0 0 0 0 0 0 0 0 0 0 0 0 0 0 0 0 0 0 0.14 0"/>
<feBlend mode="normal" in2="BackgroundImageFix" result="effect1_dropShadow_119_3043"/>
<feBlend mode="normal" in="SourceGraphic" in2="effect1_dropShadow_119_3043" result="shape"/>
</filter>
</defs>
</svg>
