<svg width="327" height="48" viewBox="0 0 327 48" fill="none" xmlns="http://www.w3.org/2000/svg">
<g clip-path="url(#clip0_1_8791)">
<rect width="327" height="48" rx="12" fill="url(#paint0_linear_1_8791)"/>
<path d="M104.133 21.3622H101.477C101.401 20.9266 101.261 20.5407 101.058 20.2045C100.854 19.8636 100.601 19.5748 100.298 19.3381C99.9947 19.1013 99.6491 18.9238 99.2608 18.8054C98.8773 18.6823 98.463 18.6207 98.0179 18.6207C97.2272 18.6207 96.5265 18.8196 95.9157 19.2173C95.3049 19.6103 94.8266 20.188 94.481 20.9503C94.1354 21.7079 93.9625 22.6335 93.9625 23.7273C93.9625 24.84 94.1354 25.7775 94.481 26.5398C94.8314 27.2973 95.3096 27.8703 95.9157 28.2585C96.5265 28.642 97.2248 28.8338 98.0108 28.8338C98.4464 28.8338 98.8536 28.777 99.2324 28.6634C99.6159 28.545 99.9592 28.3722 100.262 28.1449C100.57 27.9176 100.828 27.6383 101.036 27.3068C101.249 26.9754 101.396 26.5966 101.477 26.1705L104.133 26.1847C104.034 26.8759 103.818 27.5246 103.487 28.1307C103.16 28.7367 102.731 29.2718 102.201 29.7358C101.671 30.1951 101.051 30.5549 100.34 30.8153C99.6301 31.071 98.8418 31.1989 97.9753 31.1989C96.6969 31.1989 95.5558 30.9029 94.552 30.3111C93.5482 29.7192 92.7575 28.8646 92.1799 27.7472C91.6022 26.6297 91.3134 25.2898 91.3134 23.7273C91.3134 22.16 91.6046 20.8201 92.187 19.7074C92.7694 18.59 93.5624 17.7353 94.5662 17.1435C95.57 16.5516 96.7064 16.2557 97.9753 16.2557C98.785 16.2557 99.5378 16.3693 100.234 16.5966C100.93 16.8239 101.55 17.1577 102.095 17.598C102.639 18.0336 103.087 18.5687 103.437 19.2031C103.792 19.8329 104.024 20.5526 104.133 21.3622ZM108.003 16.4545V31H105.432V16.4545H108.003ZM109.647 31V20.0909H112.218V31H109.647ZM110.94 18.5426C110.533 18.5426 110.182 18.4077 109.889 18.1378C109.595 17.8632 109.448 17.5341 109.448 17.1506C109.448 16.7623 109.595 16.4332 109.889 16.1634C110.182 15.8887 110.533 15.7514 110.94 15.7514C111.352 15.7514 111.702 15.8887 111.991 16.1634C112.285 16.4332 112.431 16.7623 112.431 17.1506C112.431 17.5341 112.285 17.8632 111.991 18.1378C111.702 18.4077 111.352 18.5426 110.94 18.5426ZM118.621 31.2131C117.532 31.2131 116.596 30.974 115.815 30.4957C115.039 30.0175 114.44 29.357 114.018 28.5142C113.602 27.6667 113.393 26.6913 113.393 25.5881C113.393 24.4801 113.606 23.5024 114.032 22.6548C114.459 21.8026 115.06 21.1397 115.836 20.6662C116.618 20.188 117.541 19.9489 118.606 19.9489C119.492 19.9489 120.275 20.1122 120.957 20.4389C121.644 20.7609 122.191 21.2178 122.598 21.8097C123.005 22.3968 123.237 23.0833 123.294 23.8693H120.836C120.737 23.3437 120.5 22.9058 120.126 22.5554C119.757 22.2003 119.262 22.0227 118.642 22.0227C118.116 22.0227 117.655 22.1648 117.257 22.4489C116.859 22.7282 116.549 23.1307 116.327 23.6562C116.109 24.1818 116 24.8116 116 25.5455C116 26.2888 116.109 26.928 116.327 27.4631C116.544 27.9934 116.85 28.4029 117.243 28.6918C117.64 28.9759 118.107 29.1179 118.642 29.1179C119.021 29.1179 119.359 29.0469 119.657 28.9048C119.961 28.758 120.214 28.5473 120.417 28.2727C120.621 27.9981 120.761 27.6643 120.836 27.2713H123.294C123.232 28.0431 123.005 28.7273 122.612 29.3239C122.219 29.9157 121.684 30.3797 121.007 30.7159C120.33 31.0473 119.534 31.2131 118.621 31.2131ZM126.749 27.5767L126.742 24.473H127.154L131.074 20.0909H134.078L129.256 25.4602H128.723L126.749 27.5767ZM124.405 31V16.4545H126.976V31H124.405ZM131.252 31L127.7 26.0355L129.433 24.2244L134.327 31H131.252ZM141.324 24.608V31H138.753V16.4545H141.267V21.9446H141.395C141.65 21.3291 142.046 20.8437 142.581 20.4886C143.121 20.1288 143.807 19.9489 144.64 19.9489C145.398 19.9489 146.059 20.1075 146.622 20.4247C147.185 20.742 147.621 21.206 147.929 21.8168C148.241 22.4276 148.398 23.1733 148.398 24.054V31H145.827V24.4517C145.827 23.7178 145.637 23.1473 145.258 22.7401C144.884 22.3281 144.359 22.1222 143.682 22.1222C143.227 22.1222 142.82 22.2216 142.46 22.4205C142.105 22.6146 141.826 22.8963 141.622 23.2656C141.423 23.6349 141.324 24.0824 141.324 24.608ZM154.848 31.2131C153.754 31.2131 152.809 30.9858 152.014 30.5312C151.223 30.072 150.615 29.4233 150.189 28.5852C149.763 27.7424 149.55 26.7505 149.55 25.6094C149.55 24.4872 149.763 23.5024 150.189 22.6548C150.62 21.8026 151.221 21.1397 151.993 20.6662C152.765 20.188 153.671 19.9489 154.713 19.9489C155.385 19.9489 156.02 20.0578 156.616 20.2756C157.218 20.4886 157.748 20.8201 158.207 21.2699C158.671 21.7197 159.036 22.2926 159.301 22.9886C159.566 23.6799 159.699 24.5038 159.699 25.4602V26.2486H150.757V24.5156H157.234C157.229 24.0232 157.123 23.5852 156.915 23.2017C156.706 22.8134 156.415 22.508 156.041 22.2855C155.672 22.063 155.241 21.9517 154.748 21.9517C154.223 21.9517 153.761 22.0795 153.363 22.3352C152.966 22.5862 152.656 22.9176 152.433 23.3295C152.215 23.7367 152.104 24.1842 152.099 24.6719V26.1847C152.099 26.8191 152.215 27.3636 152.447 27.8182C152.679 28.268 153.004 28.6136 153.42 28.8551C153.837 29.0919 154.325 29.2102 154.883 29.2102C155.257 29.2102 155.596 29.1581 155.899 29.054C156.202 28.9451 156.465 28.7865 156.687 28.5781C156.91 28.3698 157.078 28.1117 157.192 27.804L159.592 28.0739C159.441 28.7083 159.152 29.2623 158.726 29.7358C158.304 30.2045 157.765 30.5691 157.106 30.8295C156.448 31.0852 155.695 31.2131 154.848 31.2131ZM160.874 31V20.0909H163.367V21.9091H163.48C163.679 21.2794 164.02 20.794 164.503 20.4531C164.991 20.1075 165.547 19.9347 166.172 19.9347C166.314 19.9347 166.473 19.9418 166.648 19.956C166.828 19.9654 166.977 19.982 167.095 20.0057V22.3707C166.986 22.3329 166.814 22.2997 166.577 22.2713C166.345 22.2382 166.12 22.2216 165.902 22.2216C165.433 22.2216 165.012 22.3234 164.638 22.527C164.269 22.7259 163.977 23.0028 163.764 23.358C163.551 23.7131 163.445 24.1226 163.445 24.5866V31H160.874ZM172.184 31.2131C171.09 31.2131 170.145 30.9858 169.35 30.5312C168.559 30.072 167.951 29.4233 167.525 28.5852C167.099 27.7424 166.885 26.7505 166.885 25.6094C166.885 24.4872 167.099 23.5024 167.525 22.6548C167.956 21.8026 168.557 21.1397 169.329 20.6662C170.1 20.188 171.007 19.9489 172.049 19.9489C172.721 19.9489 173.356 20.0578 173.952 20.2756C174.554 20.4886 175.084 20.8201 175.543 21.2699C176.007 21.7197 176.372 22.2926 176.637 22.9886C176.902 23.6799 177.035 24.5038 177.035 25.4602V26.2486H168.093V24.5156H174.57C174.565 24.0232 174.459 23.5852 174.251 23.2017C174.042 22.8134 173.751 22.508 173.377 22.2855C173.008 22.063 172.577 21.9517 172.084 21.9517C171.559 21.9517 171.097 22.0795 170.699 22.3352C170.302 22.5862 169.992 22.9176 169.769 23.3295C169.551 23.7367 169.44 24.1842 169.435 24.6719V26.1847C169.435 26.8191 169.551 27.3636 169.783 27.8182C170.015 28.268 170.34 28.6136 170.756 28.8551C171.173 29.0919 171.661 29.2102 172.219 29.2102C172.593 29.2102 172.932 29.1581 173.235 29.054C173.538 28.9451 173.801 28.7865 174.023 28.5781C174.246 28.3698 174.414 28.1117 174.528 27.804L176.928 28.0739C176.777 28.7083 176.488 29.2623 176.062 29.7358C175.64 30.2045 175.1 30.5691 174.442 30.8295C173.784 31.0852 173.031 31.2131 172.184 31.2131ZM187.618 20.0909V22.0795H181.347V20.0909H187.618ZM182.895 17.4773H185.466V27.7188C185.466 28.0644 185.518 28.3295 185.622 28.5142C185.731 28.6941 185.873 28.8172 186.048 28.8835C186.224 28.9498 186.418 28.983 186.631 28.983C186.792 28.983 186.939 28.9711 187.071 28.9474C187.209 28.9238 187.313 28.9025 187.384 28.8835L187.817 30.8935C187.68 30.9408 187.483 30.9929 187.227 31.0497C186.977 31.1065 186.669 31.1397 186.304 31.1491C185.66 31.1681 185.08 31.071 184.564 30.858C184.048 30.6402 183.638 30.304 183.335 29.8494C183.037 29.3949 182.89 28.8267 182.895 28.1449V17.4773ZM193.41 31.2131C192.344 31.2131 191.421 30.9787 190.64 30.5099C189.858 30.0412 189.252 29.3854 188.822 28.5426C188.395 27.6998 188.182 26.715 188.182 25.5881C188.182 24.4612 188.395 23.474 188.822 22.6264C189.252 21.7789 189.858 21.1207 190.64 20.652C191.421 20.1832 192.344 19.9489 193.41 19.9489C194.475 19.9489 195.398 20.1832 196.18 20.652C196.961 21.1207 197.564 21.7789 197.991 22.6264C198.421 23.474 198.637 24.4612 198.637 25.5881C198.637 26.715 198.421 27.6998 197.991 28.5426C197.564 29.3854 196.961 30.0412 196.18 30.5099C195.398 30.9787 194.475 31.2131 193.41 31.2131ZM193.424 29.1534C194.001 29.1534 194.484 28.9948 194.873 28.6776C195.261 28.3556 195.55 27.9247 195.739 27.3849C195.933 26.8452 196.03 26.2438 196.03 25.581C196.03 24.9134 195.933 24.3097 195.739 23.7699C195.55 23.2254 195.261 22.7921 194.873 22.4702C194.484 22.1482 194.001 21.9872 193.424 21.9872C192.832 21.9872 192.34 22.1482 191.947 22.4702C191.558 22.7921 191.267 23.2254 191.073 23.7699C190.884 24.3097 190.789 24.9134 190.789 25.581C190.789 26.2438 190.884 26.8452 191.073 27.3849C191.267 27.9247 191.558 28.3556 191.947 28.6776C192.34 28.9948 192.832 29.1534 193.424 29.1534ZM203.894 31V16.4545H209.348C210.466 16.4545 211.403 16.6629 212.161 17.0795C212.923 17.4962 213.498 18.0691 213.887 18.7983C214.28 19.5227 214.476 20.3466 214.476 21.2699C214.476 22.2027 214.28 23.0312 213.887 23.7557C213.494 24.4801 212.914 25.0507 212.146 25.4673C211.379 25.8793 210.435 26.0852 209.313 26.0852H205.698V23.919H208.958C209.611 23.919 210.146 23.8054 210.563 23.5781C210.979 23.3509 211.287 23.0384 211.486 22.6406C211.69 22.2429 211.791 21.786 211.791 21.2699C211.791 20.7538 211.69 20.2992 211.486 19.9062C211.287 19.5133 210.977 19.2079 210.556 18.9901C210.139 18.7675 209.602 18.6562 208.943 18.6562H206.529V31H203.894ZM218.595 31.2202C217.904 31.2202 217.281 31.0971 216.727 30.8509C216.178 30.5999 215.742 30.2306 215.42 29.7429C215.103 29.2552 214.944 28.6539 214.944 27.9389C214.944 27.3234 215.058 26.8144 215.285 26.4119C215.513 26.0095 215.823 25.6875 216.216 25.446C216.609 25.2045 217.051 25.0223 217.544 24.8991C218.041 24.7713 218.555 24.679 219.085 24.6222C219.724 24.5559 220.243 24.4967 220.64 24.4446C221.038 24.3878 221.327 24.3026 221.507 24.1889C221.692 24.0705 221.784 23.8883 221.784 23.642V23.5994C221.784 23.0644 221.625 22.6501 221.308 22.3565C220.991 22.063 220.534 21.9162 219.937 21.9162C219.308 21.9162 218.808 22.0535 218.439 22.3281C218.074 22.6027 217.828 22.9271 217.7 23.3011L215.3 22.9602C215.489 22.2973 215.801 21.7434 216.237 21.2983C216.673 20.8485 217.205 20.5123 217.835 20.2898C218.465 20.0625 219.161 19.9489 219.923 19.9489C220.449 19.9489 220.972 20.0104 221.493 20.1335C222.014 20.2566 222.489 20.4602 222.92 20.7443C223.351 21.0237 223.697 21.4048 223.957 21.8878C224.222 22.3707 224.355 22.9744 224.355 23.6989V31H221.883V29.5014H221.798C221.642 29.8045 221.422 30.0885 221.138 30.3537C220.858 30.6141 220.506 30.8248 220.079 30.9858C219.658 31.142 219.163 31.2202 218.595 31.2202ZM219.263 29.331C219.779 29.331 220.226 29.2292 220.605 29.0256C220.984 28.8172 221.275 28.5426 221.479 28.2017C221.687 27.8608 221.791 27.4891 221.791 27.0866V25.8011C221.711 25.8674 221.573 25.929 221.379 25.9858C221.19 26.0426 220.977 26.0923 220.74 26.1349C220.503 26.1776 220.269 26.2154 220.037 26.2486C219.805 26.2817 219.604 26.3101 219.433 26.3338C219.05 26.3859 218.706 26.4711 218.403 26.5895C218.1 26.7079 217.861 26.8736 217.686 27.0866C217.511 27.295 217.423 27.5649 217.423 27.8963C217.423 28.3698 217.596 28.7273 217.942 28.9688C218.287 29.2102 218.728 29.331 219.263 29.331ZM227.148 35.0909C226.797 35.0909 226.473 35.0625 226.175 35.0057C225.881 34.9536 225.647 34.892 225.471 34.821L226.068 32.8182C226.442 32.9271 226.776 32.9792 227.069 32.9744C227.363 32.9697 227.621 32.8774 227.844 32.6974C228.071 32.5223 228.263 32.2287 228.419 31.8168L228.639 31.2273L224.683 20.0909H227.41L229.925 28.3295H230.038L232.559 20.0909H235.294L230.926 32.321C230.722 32.8987 230.452 33.3935 230.116 33.8054C229.78 34.2221 229.368 34.5393 228.881 34.7571C228.398 34.9796 227.82 35.0909 227.148 35.0909Z" fill="#E0F2FD"/>
</g>
<defs>
<linearGradient id="paint0_linear_1_8791" x1="65.5" y1="-8.99994" x2="356" y2="71.0001" gradientUnits="userSpaceOnUse">
<stop stop-color="#0298F0"/>
<stop offset="1" stop-color="#2F46A8"/>
</linearGradient>
<clipPath id="clip0_1_8791">
<rect width="327" height="48" rx="12" fill="white"/>
</clipPath>
</defs>
</svg>
